<svg xmlns="http://www.w3.org/2000/svg" width="155" height="53.442" viewBox="0 0 155 53.442">
  <g id="Group_2" data-name="Group 2" transform="translate(-1181.073 -487.876)">
    <path id="Path_1" data-name="Path 1" d="M1237.38,492.949a1.65,1.65,0,0,1,1.013-1.462.948.948,0,0,1,1.305,1.1,1.5,1.5,0,0,1-1.253,1.352A.945.945,0,0,1,1237.38,492.949Zm-6.148,5.787a10.039,10.039,0,0,1-5.016,2.019,17.13,17.13,0,0,1-3.275.143.482.482,0,0,0-.51.292c-.128.226-3.211,5.57-3.415,5.935a.348.348,0,0,1-.589.124,3.852,3.852,0,0,1-.661-.722,1.139,1.139,0,0,1,.059-1.391c.173-.274,4.551-7.626,4.875-8.142-.317-.271-.649-.531-.955-.819a3.675,3.675,0,0,1-1.229-3.684,5.307,5.307,0,0,1,1.477-2.53,7.152,7.152,0,0,1,5.8-2.064,6.625,6.625,0,0,1,5.134,2.921,4.733,4.733,0,0,1,.844,4.036A7.1,7.1,0,0,1,1231.232,498.736Zm.806-5.027a3.7,3.7,0,0,0-.751-3.263,3.812,3.812,0,0,0-2.9-1.3,5.659,5.659,0,0,0-3.808,1.1,7.322,7.322,0,0,0-2,2.278,3.151,3.151,0,0,0-.443,2.228,2.369,2.369,0,0,0,1.051,1.482s3.023-4.891,3.343-5.411a.333.333,0,0,1,.565-.1,3.729,3.729,0,0,1,.611.708,1.089,1.089,0,0,1-.094,1.327s-3.242,5.248-4.262,6.924a8.994,8.994,0,0,0,3.79-.744,9.443,9.443,0,0,0,2.928-1.887A6.357,6.357,0,0,0,1232.038,493.709Zm58.669,3.121a2.141,2.141,0,0,1-1.479.63c-.027,0-.118-.1-.076-.488a1.761,1.761,0,0,0-.194-1.142.3.3,0,0,0-.213-.111c-.24-.011-.394.285-.445.383a3.346,3.346,0,0,0-.294,2.1c.015.194.083,1.19.083,1.229.049.86-.013,2.455-.022,2.638-.057,1.174-.588,1.645-1.85,1.762a4.889,4.889,0,0,1-.976-.088c.013.024.02.044.034.069.108.2.462.941.094,1.37a2.563,2.563,0,0,1-1.825.824,1.249,1.249,0,0,1-1.487-1.013.975.975,0,0,1,.169-.677,1.57,1.57,0,0,1,1.029-.575c.02,0,.094.064.093.349a1.288,1.288,0,0,0,.229.817.218.218,0,0,0,.164.064c.176-.011.265-.239.295-.314a2.258,2.258,0,0,0,.086-1.335l-.007,0,0,0a4.657,4.657,0,0,1-1.063-1.027c-.118.083-.233.168-.348.252,0,0,0-.008,0-.008a9.381,9.381,0,0,1-.987.668,3.362,3.362,0,0,1-1.073.346,1.482,1.482,0,0,1-1.66-1.152c-.027-.105-.043-.214-.079-.4-.207.224-.367.42-.551.591a2.756,2.756,0,0,1-1.639.93,2.01,2.01,0,0,1-.939-.148,2.372,2.372,0,0,1-1.316-2.93,10.431,10.431,0,0,1,2.549-4.2s1.307-1.482,2.208-1.606,2.159,1.063,2.255,1.2a1.126,1.126,0,0,1,.082.5.584.584,0,0,1,.379.08,2.034,2.034,0,0,1,.494.472.494.494,0,0,1,0,.565l-.478.657a26.049,26.049,0,0,0-1.76,2.953,3.039,3.039,0,0,0-.245,1.02c-.022.408.227.571.568.352a7.115,7.115,0,0,0,1.108-.885,69.22,69.22,0,0,0,4.635-5.982,3.29,3.29,0,0,1,2.9-1.216c.559.026,1.859.232,1.874,1.592A1.327,1.327,0,0,1,1290.706,496.83Zm-10.557-.773c-.4-.3-1.729.831-2.979,2.523s-1.943,3.306-1.549,3.6,1.729-.832,2.979-2.524S1280.544,496.355,1280.149,496.057Zm6.354,1.774c-.413.477-2.436,3.365-2.436,3.365s.184.434.281.648c.012.027.026.053.038.079a3.079,3.079,0,0,0,.313.546.736.736,0,0,0,.055.059.7.7,0,0,0,.049.051.5.5,0,0,0,.043.029.565.565,0,0,0,.088.053l.033.013a.569.569,0,0,0,.112.032l.022,0a.591.591,0,0,0,.137,0h0a.75.75,0,0,0,.531-.347,1.926,1.926,0,0,0,.309-.714c.081-.5.154-1,.224-1.5C1286.395,499.5,1286.477,498.354,1286.5,497.831Zm12.921,2.382a7.327,7.327,0,0,1-2.574,2.9,2.274,2.274,0,0,1-1.482.384,1.457,1.457,0,0,1-1.308-1.184c-.018-.073-.037-.146-.062-.244-.345.343-.643.676-.979.966a1.871,1.871,0,0,1-2.294.395,2.454,2.454,0,0,1-1.3-2.484,5.663,5.663,0,0,1,.374-1.285,11.745,11.745,0,0,1,2.141-3.414s1.251-1.533,2.146-1.692,2.2.978,2.3,1.112a1.124,1.124,0,0,1,.1.493.58.58,0,0,1,.382.066,2.029,2.029,0,0,1,.512.452.5.5,0,0,1,.022.565l-.335.5a25.132,25.132,0,0,0-1.833,3.285,3.078,3.078,0,0,0-.2,1.018c-.009.384.4.5.706.281a4.835,4.835,0,0,0,.961-.9c.7-.838,1.345-1.716,2-2.585.221-.292.377-.315.606-.019A1.218,1.218,0,0,1,1299.424,500.212Zm-4.42-3.967c-.41-.277-1.682.924-2.84,2.682s-1.766,3.406-1.355,3.682,1.682-.924,2.84-2.682S1295.415,496.522,1295,496.245Zm-20.138,1.409a10.035,10.035,0,0,1-4.138,5.286,2.737,2.737,0,0,1-2.123.484,1.929,1.929,0,0,1-1.056-.733c-1.466,2.387-3.55,5.782-3.817,6.223a.332.332,0,0,1-.565.1,3.736,3.736,0,0,1-.61-.709,1.088,1.088,0,0,1,.1-1.326c.171-.252,1.274-1.941,2.585-3.958l-.2.03c-2.24.788-3.949.39-5.015-1.129a20.771,20.771,0,0,1-1.828,1.313,1.825,1.825,0,0,1-2.3-.124,6.793,6.793,0,0,1-.829-1.182c-.2.182-.455.429-.722.667a3.793,3.793,0,0,1-1.7.908,1.649,1.649,0,0,1-2.046-1.521,9.9,9.9,0,0,1-1.687,1.4,1.6,1.6,0,0,1-1.91-.378,10.13,10.13,0,0,1-.793-.944,9.583,9.583,0,0,1-1.052.811c-.659.385-1.344.729-2.038,1.048-.558.257-1.346.527-1.908.778a.879.879,0,0,0-.495.4l-.005.008c-1.272,2.072-2.518,4.1-2.712,4.424a.332.332,0,0,1-.565.1,3.724,3.724,0,0,1-.61-.709,1.089,1.089,0,0,1,.1-1.327c.178-.262,1.246-1.95,2.485-3.922.044-.077.089-.151.133-.22a2.047,2.047,0,0,1-2.23-1.4c-.371.3-.723.62-1.117.881a2.372,2.372,0,0,1-2.1.478,2.284,2.284,0,0,1-1.051-.933,2.388,2.388,0,0,1-.578-2.073,6.087,6.087,0,0,1,.8-1.807c.762-1.133,1.614-2.2,2.431-3.3a.371.371,0,0,1,.573-.057,1.712,1.712,0,0,1,.679,1.044.571.571,0,0,1-.084.394c-.51.755-1.06,1.482-1.556,2.248-1.753,2.712-1.36,3.254-1.223,3.333a.987.987,0,0,0,.73-.15,10.378,10.378,0,0,0,2.452-2.378c.38-.519,2.8-3.977,3.339-4.733a.411.411,0,0,1,.568-.179,4.27,4.27,0,0,1,.816.511c.272.235.256.515.039.851l-3.095,4.778c-.156.275-.521,1.179-.273,1.3s.765-.264,1.051-.509a14.967,14.967,0,0,0,2.678-3.286c.773-1.155,1.572-2.292,2.354-3.441a.425.425,0,0,1,.581-.2,4.411,4.411,0,0,1,.855.507c.286.235.277.524.062.877-.525.856-2.964,4.835-3.526,5.753a5.973,5.973,0,0,0-.481.934q.5-.242,1.009-.485a8.368,8.368,0,0,0,3.083-2.82c.588-.819,1.081-1.708,1.685-2.515a9.43,9.43,0,0,1,.63-.758h0s1.343-1.5,2.25-1.623,2.175,1.071,2.271,1.21a1.141,1.141,0,0,1,.083.5.588.588,0,0,1,.382.081,2.045,2.045,0,0,1,.5.474.5.5,0,0,1,0,.57l-.48.66c-.6.909-1.113,1.8-1.67,2.76-.164.28-.481,1.08-.155,1.38a.427.427,0,0,0,.565,0,8.565,8.565,0,0,0,1.97-1.875,14.909,14.909,0,0,0,1.168-1.521c.479-.724,5.861-9.449,6.276-10.139a.333.333,0,0,1,.565-.1,3.728,3.728,0,0,1,.611.708,1.089,1.089,0,0,1-.093,1.326c-.437.647-5.885,9.335-6.374,10.229-.761,1.39.021,1.559.414,1.424a4.086,4.086,0,0,0,1.579-1.165,15.407,15.407,0,0,0,1.385-1.6,8.591,8.591,0,0,0,.586-1.269,9.683,9.683,0,0,1,2.844-3.641,1.818,1.818,0,0,1,1.9-.424,3.155,3.155,0,0,1,1.607,1.5,1.4,1.4,0,0,1,.055.9,5.926,5.926,0,0,1-2.723,3.773,3.611,3.611,0,0,1-.936.356,1.44,1.44,0,0,1-1.245-.426c-.091-.07-.188-.135-.341-.243a9.937,9.937,0,0,0-.138,1.257c.014.791.319,1.06,1.173,1.026a5.117,5.117,0,0,0,2.361-.8,7.581,7.581,0,0,0,2.3-1.826h0c.681-1.054,1.318-2.045,1.818-2.83.609-1.013,1.124-1.9,1.124-1.9s.289-.479.433-.458a1.434,1.434,0,0,1,.553.339c.039.092.308-.032.308-.032a2.22,2.22,0,0,1,1.626-.122c.8.305,2.037,1.012,1.813,2.271a5.107,5.107,0,0,1-.136.565Zm-12.6,1.969c.243.209,1.149-.466,2.023-1.507s1.387-2.054,1.145-2.262-1.149.466-2.024,1.507S1262.025,499.415,1262.269,499.624Zm-10.291-3.567c-.395-.3-1.729.831-2.979,2.523s-1.944,3.306-1.549,3.6,1.729-.832,2.979-2.524S1252.373,496.355,1251.978,496.057Zm21.116,0c-.395-.3-1.729.831-2.979,2.523s-1.944,3.306-1.549,3.6,1.729-.832,2.979-2.524S1273.489,496.355,1273.094,496.057Zm-33.124,14.991a.454.454,0,1,1,.452.456A.451.451,0,0,1,1239.97,511.048Zm0,.994a.113.113,0,0,1,.109-.109h.686a.113.113,0,0,1,.109.109v3.826a.113.113,0,0,1-.109.111h-.686a.114.114,0,0,1-.109-.111Zm3.37,3.387.269-.48a.145.145,0,0,1,.194-.034,1.713,1.713,0,0,0,.812.317.36.36,0,0,0,.395-.347c0-.242-.2-.428-.589-.583-.491-.2-1.109-.584-1.109-1.277a1.19,1.19,0,0,1,1.32-1.15,2.113,2.113,0,0,1,1.223.433.15.15,0,0,1,.035.186l-.292.444c-.04.063-.143.115-.194.075a1.775,1.775,0,0,0-.818-.347.332.332,0,0,0-.36.3c0,.213.171.375.623.56s1.154.531,1.154,1.318a1.261,1.261,0,0,1-1.349,1.2,1.8,1.8,0,0,1-1.286-.444C1243.312,515.532,1243.294,515.51,1243.34,515.429Zm5.588-2.648h-.818a.109.109,0,0,1-.108-.109v-.631a.109.109,0,0,1,.108-.109h2.538a.109.109,0,0,1,.109.109v.631a.109.109,0,0,1-.109.109h-.817v3.086a.113.113,0,0,1-.109.111h-.686a.113.113,0,0,1-.109-.111Zm3.393,3.046,1.789-3.89a.115.115,0,0,1,.1-.063h.057a.116.116,0,0,1,.1.063l1.789,3.89a.1.1,0,0,1-.1.151h-.635c-.1,0-.149-.035-.2-.145l-.206-.456h-1.554l-.206.462a.213.213,0,0,1-.206.139h-.629A.1.1,0,0,1,1252.321,515.827Zm2.349-1.237-.435-.952h-.005l-.429.952Zm3.655-2.612a.108.108,0,0,1,.109-.1h.143l2.281,2.219h.005v-2.052a.109.109,0,0,1,.109-.109h.686a.113.113,0,0,1,.109.109v3.89a.108.108,0,0,1-.109.1h-.091a.168.168,0,0,1-.075-.029l-2.258-2.3h-.006v2.156a.109.109,0,0,1-.109.111h-.68a.113.113,0,0,1-.109-.111Zm6.136.064a.109.109,0,0,1,.109-.109h1.332a1.038,1.038,0,0,1,.566,1.988,1.089,1.089,0,0,1,.766.942,1.171,1.171,0,0,1-1.246,1.116h-1.418a.109.109,0,0,1-.109-.111Zm1.338,1.533a.411.411,0,0,0,.4-.417.39.39,0,0,0-.4-.393h-.446v.809Zm.074,1.577a.417.417,0,0,0,.412-.422.459.459,0,0,0-.469-.4h-.463v.827Zm3.741-3.11a.113.113,0,0,1,.109-.109h.7a.109.109,0,0,1,.109.109v2.34a.709.709,0,1,0,1.417,0v-2.34a.109.109,0,0,1,.109-.109h.7a.113.113,0,0,1,.108.109v2.388a1.629,1.629,0,0,1-3.259,0Zm5.89,0a.109.109,0,0,1,.109-.109h.68a.113.113,0,0,1,.109.109v3.086h1.36a.11.11,0,0,1,.109.111v.629a.109.109,0,0,1-.109.111h-2.149a.109.109,0,0,1-.109-.111ZM1236.55,513.5c.229,0,.435.053.435.11v.694c0,.058-.205.11-.435.11h-55.036c-.235,0-.44-.052-.44-.11v-.694c0-.057.205-.11.44-.11Zm99.089,0c.229,0,.435.053.435.11v.694c0,.058-.205.11-.435.11H1280.6c-.235,0-.44-.052-.44-.11v-.694c0-.057.2-.11.44-.11Z" transform="translate(0 0)" fill="#220728"/>
    <g id="Group_1" data-name="Group 1" transform="translate(1181.293 526.115)">
      <path id="Path_2" data-name="Path 2" d="M1195.25,568.19a2.846,2.846,0,0,0-1.479-.4h-12.247v2.787h12.12a.282.282,0,0,1,.19.074.232.232,0,0,1,.085.18v3.885a.2.2,0,0,1-.085.169.309.309,0,0,1-.19.063h-12.12v8.024h2.787v-5.194l9.46-.021a2.9,2.9,0,0,0,1.479-.391,2.956,2.956,0,0,0,1.077-1.066,2.844,2.844,0,0,0,.4-1.478v-4.1a2.79,2.79,0,0,0-.4-1.467A3.07,3.07,0,0,0,1195.25,568.19Z" transform="translate(-1181.525 -567.767)" fill="#220728"/>
      <path id="Path_3" data-name="Path 3" d="M1246.981,568.19a2.846,2.846,0,0,0-1.479-.4h-12.246v2.787h12.12a.283.283,0,0,1,.19.074.232.232,0,0,1,.084.18v3.885a.2.2,0,0,1-.084.169.31.31,0,0,1-.19.063h-12.12v8.024h2.787v-5.194l4.972-.011-.22-.263h3.653l.216.255.839,0a2.9,2.9,0,0,0,1.479-.391,2.946,2.946,0,0,0,1.077-1.066,2.846,2.846,0,0,0,.4-1.478v-4.1a2.791,2.791,0,0,0-.4-1.467A3.059,3.059,0,0,0,1246.981,568.19Z" transform="translate(-1208.412 -567.767)" fill="#220728"/>
      <path id="Path_4" data-name="Path 4" d="M1253.578,593.507h3.04v-.781l-3.753-4.432-3.648.008Z" transform="translate(-1216.686 -578.304)" fill="#220728"/>
      <path id="Path_5" data-name="Path 5" d="M1248.762,587.769l.22.263,3.648-.008-.216-.255Z" transform="translate(-1216.442 -578.035)" fill="#220728"/>
      <rect id="Rectangle_1" data-name="Rectangle 1" width="8.985" height="2.829" transform="translate(50.3 6.187)" fill="#220728"/>
      <rect id="Rectangle_2" data-name="Rectangle 2" width="11.181" height="2.808" transform="translate(50.291 12.394)" fill="#220728"/>
      <rect id="Rectangle_3" data-name="Rectangle 3" width="11.181" height="2.808" transform="translate(50.291 0)" fill="#220728"/>
      <path id="Path_6" data-name="Path 6" d="M1338.585,574.312l-5.511-6.567h-3.062v15.2h2.787V571.82l5.786,6.841,5.764-6.862v11.149h2.808v-15.2h-3.083Z" transform="translate(-1258.712 -567.745)" fill="#220728"/>
      <rect id="Rectangle_4" data-name="Rectangle 4" width="2.766" height="15.203" transform="translate(98.82 0)" fill="#220728"/>
      <path id="Path_7" data-name="Path 7" d="M1426.671,579.886a.231.231,0,0,1-.084.179.28.28,0,0,1-.19.074h-9.079a.252.252,0,0,1-.253-.253V567.745h-2.787v12.268a2.781,2.781,0,0,0,.4,1.467,3.082,3.082,0,0,0,1.066,1.067,2.788,2.788,0,0,0,1.467.4h9.333a2.79,2.79,0,0,0,1.468-.4,3.088,3.088,0,0,0,1.066-1.067,2.785,2.785,0,0,0,.4-1.467V567.745h-2.808Z" transform="translate(-1302.495 -567.745)" fill="#220728"/>
      <path id="Path_8" data-name="Path 8" d="M1481.764,567.745l-5.49,6.567-5.511-6.567H1467.7v15.2h2.787V571.82l5.785,6.841,5.765-6.862v11.149h2.809v-15.2Z" transform="translate(-1330.286 -567.745)" fill="#220728"/>
    </g>
  </g>
</svg>
