<?xml version="1.0" encoding="UTF-8"?><svg id="Layer_2" xmlns="http://www.w3.org/2000/svg"  width="155" height="53.442" viewBox="0 0 322.35 111.14"><defs><style>.cls-1{fill:#f7f4f0;}.cls-2{fill:#bfa474;}</style></defs><g id="Layer_1-2"><g><g><path class="cls-1" d="M123.43,46.71c-.52,0-.94,.43-.94,.95s.42,.94,.94,.94,.95-.42,.95-.94-.43-.95-.95-.95Z"/><path class="cls-1" d="M122.71,49.48h1.43c.12,0,.23,.1,.23,.23v7.87c0,.13-.1,.23-.23,.23h-1.42c-.12,0-.23-.1-.23-.23v-7.87c0-.12,.1-.22,.22-.22Z"/><path class="cls-1" d="M207.08,32.23c.77-.12,1.56-.34,2.23-.71,.71-.39,1.37-.88,2.05-1.38v.02c.24-.17,.48-.35,.72-.52,.71,.9,1.44,1.59,2.21,2.11h-.01v.02c.25,1.59,.05,2.21-.16,2.75-.06,.15-.25,.62-.61,.64-.08,0-.21-.01-.34-.13-.32-.29-.48-1.06-.48-1.68,0-.59-.15-.72-.19-.72-1,.2-1.73,.6-2.14,1.18-.48,.68-.35,1.39-.35,1.39,.24,2.04,2.24,2.13,3.09,2.08,.29-.02,2.5-.1,3.8-1.69,.77-.88,.03-2.4-.19-2.82-.03-.05-.04-.09-.07-.14,1.04,.19,1.93,.19,2.03,.18,2.62-.24,3.73-1.21,3.85-3.62,.02-.38,.15-3.66,.05-5.43,0-.08-.14-2.13-.17-2.53-.2-2.68,.21-3.55,.61-4.32,.1-.2,.42-.81,.92-.79,.12,0,.29,.05,.44,.23,.39,.44,.5,1.52,.4,2.35-.09,.8,.1,.99,.16,1,1.39-.13,2.44-.56,3.08-1.3,.75-.86,.68-1.83,.68-1.84-.03-2.8-2.74-3.22-3.9-3.28-.45-.02-4.12-.29-6.03,2.5-.15,.21-6.85,9.61-9.64,12.31-.7,.68-1.48,1.3-2.3,1.82-.71,.45-1.23,.12-1.18-.72,.04-.71,.22-1.45,.51-2.1,.96-2.18,3.67-6.07,3.66-6.07l.99-1.35s.43-.57,0-1.16c-.43-.6-.82-.79-1.03-.97-.21-.18-.56-.17-.79-.17,0,0,.03-.74-.17-1.02-.2-.28-2.82-2.73-4.69-2.47-1.87,.26-4.59,3.3-4.59,3.3-2.45,2.37-4.17,5.3-5.3,8.64-.84,2.47,.42,4.99,2.74,6.03,.58,.26,1.31,.35,1.95,.3,1.41-.1,2.43-1,3.41-1.91,.38-.35,.72-.76,1.15-1.22,.08,.38,.11,.61,.17,.82,.42,1.59,1.86,2.63,3.45,2.37Zm12.18-11.76c-.05,1.08-.23,3.44-.41,4.77-.15,1.03-.3,2.06-.47,3.08-.08,.51-.35,1.03-.64,1.47-.28,.42-.69,.67-1.1,.71h0c-.1,.01-.19,0-.29,0h-.04c-.08-.02-.16-.04-.23-.07-.02,0-.05-.02-.07-.03-.06-.03-.12-.07-.18-.11-.03-.02-.06-.04-.09-.06-.04-.03-.07-.07-.1-.1-.04-.04-.08-.08-.11-.12-.26-.34-.46-.73-.65-1.12-.03-.05-.05-.11-.08-.16-.2-.44-.58-1.33-.58-1.33,0,0,4.21-5.94,5.06-6.92Zm-16.44,3.76c-2.6,3.48-5.37,5.81-6.2,5.19-.82-.61,.62-3.93,3.22-7.41,2.6-3.48,5.37-5.81,6.2-5.19,.82,.61-.62,3.93-3.22,7.41Z"/><path class="cls-2" d="M116.28,52.93v1.43c0,.12-.43,.23-.9,.23H.92c-.49,0-.92-.11-.92-.23v-1.43c0-.12,.43-.23,.92-.23H115.37c.48,0,.9,.11,.9,.23Zm205.17-.23h-114.46c-.49,0-.92,.11-.92,.23v1.43c0,.12,.43,.23,.92,.23h114.46c.48,0,.9-.11,.9-.23v-1.43c0-.12-.43-.23-.9-.23Z"/><path class="cls-1" d="M119.32,12.47c1.46-.24,2.39-1.31,2.61-2.78,.25-1.71-1.1-2.84-2.71-2.26-1.17,.42-2.09,1.73-2.11,3.01,.04,1.42,1.15,2.22,2.22,2.04Z"/><path class="cls-1" d="M225.34,26.89c-.35,1.98,.77,4.02,2.7,5.11,1.52,.85,3.12,.6,4.77-.81,.7-.6,1.32-1.28,2.03-1.99,.05,.2,.09,.35,.13,.5,.36,1.42,1.28,2.25,2.72,2.43,1.13,.14,2.14-.23,3.08-.79,2.4-1.43,4.03-3.58,5.35-5.97,.52-.94,.47-1.97-.24-2.86-.48-.61-.8-.56-1.26,.04-1.37,1.79-2.72,3.59-4.17,5.32-.63,.75-1.2,1.29-2,1.86-.64,.46-1.49,.21-1.47-.58,.02-.7,.16-1.44,.41-2.09,.95-2.43,3.81-6.76,3.81-6.76l.7-1.03s.4-.58-.05-1.16c-.45-.58-.85-.76-1.06-.93-.21-.17-.57-.14-.8-.13,0,0,0-.74-.21-1.01-.21-.28-2.92-2.61-4.78-2.29-1.86,.33-4.46,3.48-4.46,3.48-1.91,2.02-3.31,4.43-4.45,7.02-.37,.84-.62,1.74-.78,2.64Zm5.69-4.16c2.41-3.62,5.05-6.09,5.91-5.52,.85,.57-.41,3.96-2.82,7.58-2.41,3.62-5.05,6.09-5.91,5.52-.85-.57,.41-3.96,2.82-7.58Z"/><path class="cls-1" d="M77.69,39.85c.42,.34,.88,.35,1.22-.25,.43-.75,6.84-11.74,7.1-12.21,.27-.46,.54-.62,1.06-.6,2.28,.11,4.54,.03,6.81-.29,3.83-.54,7.37-1.73,10.43-4.15,2.63-2.08,4.47-4.72,5.29-7.99,.76-3.02,.05-5.82-1.76-8.3-2.63-3.61-6.19-5.74-10.68-6.01-4.58-.28-8.74,.91-12.07,4.25-1.46,1.46-2.6,3.17-3.07,5.2-.7,3.02,.34,5.52,2.55,7.58,.64,.59,1.33,1.13,1.99,1.68-.67,1.06-9.78,16.18-10.14,16.75-.62,.96-.82,1.9-.12,2.86,.4,.54,.86,1.06,1.37,1.49Zm7.72-25.7c-.34-1.65,.1-3.15,.92-4.58,1.06-1.85,2.45-3.42,4.16-4.69,2.35-1.75,5.02-2.41,7.92-2.27,2.36,.12,4.48,.84,6.03,2.68,1.64,1.95,2.07,4.23,1.56,6.71-.57,2.76-2.08,4.96-4.09,6.87-1.78,1.69-3.84,2.95-6.09,3.88-2.38,.99-4.67,1.55-7.88,1.53,2.12-3.45,8.86-14.24,8.86-14.24,.62-.9,.84-1.79,.2-2.73-.36-.53-.79-1.04-1.27-1.46-.39-.34-.83-.36-1.18,.21-.67,1.07-6.95,11.13-6.95,11.13-1.12-.79-1.92-1.73-2.19-3.05Z"/><path class="cls-1" d="M177.59,53.57c.56-.3,1.38-.96,1.38-1.88,0-1.25-1.15-2.21-2.56-2.21h-2.77c-.13,0-.23,.11-.23,.22v7.87c0,.12,.09,.23,.23,.23h2.95c1.42,0,2.59-.96,2.59-2.3,0-1.09-.96-1.68-1.59-1.94Zm-2.32-2.38h.93c.45,0,.83,.33,.83,.81s-.38,.86-.83,.86h-.93v-1.66Zm1.08,4.91h-1.08v-1.7h.96c.46,0,.97,.36,.97,.83s-.39,.87-.86,.87Z"/><path class="cls-1" d="M201.08,56.06h-2.83v-6.35c0-.12-.11-.22-.23-.22h-1.41c-.13,0-.23,.11-.23,.22v7.87c0,.12,.09,.23,.23,.23h4.47c.13,0,.23-.11,.23-.23v-1.29c0-.12-.09-.23-.23-.23Z"/><path class="cls-1" d="M190.69,49.48h-1.46c-.13,0-.23,.11-.23,.22v4.81c0,.83-.63,1.5-1.49,1.5s-1.46-.67-1.46-1.5v-4.81c0-.12-.09-.22-.23-.22h-1.46c-.12,0-.23,.11-.23,.22v4.91c0,1.81,1.51,3.3,3.38,3.3s3.4-1.5,3.4-3.3v-4.91c0-.12-.11-.22-.23-.22Z"/><path class="cls-1" d="M195.04,20.1c.11-.36,.21-.74,.28-1.16,.47-2.59-2.12-4.04-3.77-4.67-1.65-.63-3.38,.25-3.38,.25,0,0-.56,.25-.64,.07-.08-.18-.92-.67-1.15-.7-.3-.04-.9,.94-.9,.94,0,0-1.07,1.82-2.34,3.91-1.04,1.61-2.36,3.65-3.78,5.82h0c-1.22,1.57-2.78,2.57-4.78,3.76-1.48,.88-3.17,1.58-4.91,1.65-1.78,.07-2.41-.48-2.44-2.11-.01-.82,.18-1.64,.29-2.59,.32,.22,.52,.36,.71,.5,.77,.58,1.57,1.13,2.59,.88,.67-.17,1.35-.39,1.95-.73,3.03-1.74,4.76-4.48,5.66-7.76,.16-.57,.13-1.32-.11-1.85-.69-1.44-1.91-2.45-3.34-3.09-1.46-.65-2.77,0-3.94,.87-2.65,1.95-4.48,4.57-5.92,7.49-.43,.86-.67,1.85-1.22,2.61-.85,1.17-1.87,2.23-2.88,3.28-.95,.98-1.94,1.94-3.28,2.4-.82,.28-2.44-.07-.86-2.93,1.02-1.84,12.35-19.71,13.26-21.04,.62-.9,.84-1.79,.2-2.73-.36-.53-.79-1.04-1.27-1.46-.39-.34-.83-.36-1.18,.21-.86,1.42-12.06,19.37-13.05,20.86-.73,1.1-1.56,2.14-2.43,3.13-1.24,1.42-2.45,2.88-4.1,3.86-.28,.17-.72,.4-1.18-.01-.68-.62-.02-2.26,.32-2.84,1.16-1.97,2.22-3.81,3.47-5.68l1-1.36s.43-.57,0-1.17c-.43-.6-.83-.79-1.03-.98-.21-.18-.57-.17-.8-.17,0,0,.03-.74-.17-1.03-.2-.29-2.84-2.75-4.72-2.49s-4.68,3.34-4.68,3.34h0c-.46,.49-.9,1.01-1.31,1.56-1.25,1.66-2.28,3.49-3.5,5.17-1.72,2.37-3.7,4.5-6.41,5.8-.7,.33-1.4,.66-2.1,1,.29-.73,.64-1.33,1-1.92,1.17-1.89,6.24-10.08,7.33-11.84,.45-.73,.47-1.32-.13-1.8-.53-.43-1.16-.74-1.78-1.04-.5-.24-.89-.05-1.21,.41-1.63,2.36-3.29,4.7-4.89,7.08-1.72,2.53-3.23,4.78-5.57,6.76-.59,.5-1.67,1.3-2.19,1.05-.52-.25,.24-2.11,.57-2.68,.99-1.52,6.19-9.45,6.44-9.83,.45-.69,.48-1.27-.08-1.75-.5-.43-1.11-.74-1.7-1.05-.47-.25-.86-.07-1.18,.37-1.13,1.56-6.15,8.67-6.94,9.74-1.45,1.88-3.11,3.57-5.1,4.89-.4,.26-1.23,.47-1.52,.31-.28-.16-1.1-1.28,2.54-6.86,1.03-1.57,2.17-3.07,3.23-4.62,.15-.22,.23-.56,.18-.81-.19-.88-.68-1.62-1.41-2.15-.4-.29-.85-.34-1.19,.12-1.7,2.25-3.47,4.46-5.06,6.79-.75,1.11-1.31,2.42-1.66,3.72-.42,1.57,.24,3.02,1.2,4.26,.6,.77,1.18,1.6,2.19,1.92,1.65,.52,3.05-.12,4.37-.98,.82-.54,1.55-1.2,2.32-1.81,.67,1.72,2.41,3.28,4.64,2.87-.09,.14-.18,.3-.28,.45-2.58,4.06-4.8,7.53-5.17,8.07-.62,.9-.84,1.79-.2,2.73,.36,.53,.79,1.04,1.27,1.46,.39,.34,.83,.36,1.18-.21,.4-.66,2.99-4.84,5.64-9.1v-.02c.21-.3,.32-.5,1.04-.82,1.17-.52,2.81-1.07,3.97-1.6,1.44-.66,2.87-1.36,4.24-2.16,.82-.47,1.52-1.15,2.19-1.67,.55,.66,1.03,1.37,1.65,1.94,1.14,1.06,2.53,1.5,3.97,.78,1-.5,3.27-2.58,3.51-2.88,.37,2.64,2.45,3.53,4.26,3.13,1.34-.3,2.5-.96,3.53-1.87,.56-.49,1.09-1,1.5-1.37,.59,.86,1.03,1.79,1.72,2.43,1.46,1.34,3.2,1.15,4.78,.26,1.35-.77,2.55-1.8,3.8-2.7,2.22,3.12,5.77,3.94,10.43,2.32l.41-.06c-2.73,4.15-5.02,7.62-5.38,8.14-.62,.9-.84,1.79-.2,2.73,.36,.53,.79,1.04,1.27,1.46,.39,.34,.83,.36,1.18-.21,.55-.91,4.89-7.89,7.94-12.8,.61,.74,1.28,1.29,2.2,1.51,1.65,.39,3.08-.19,4.41-1,2.54-1.54,4.65-3.58,6.26-6.09,.96-1.51,1.84-3.06,2.35-4.78l-.02-.02Zm-23.8-.59c1.82-2.14,3.7-3.53,4.21-3.1,.51,.43-.56,2.51-2.38,4.65-1.82,2.14-3.7,3.53-4.21,3.1-.51-.43,.56-2.51,2.38-4.65Zm-27,4.73c-2.6,3.48-5.37,5.81-6.2,5.19-.82-.61,.62-3.93,3.22-7.41,2.6-3.48,5.37-5.81,6.2-5.19,.82,.61-.62,3.93-3.22,7.41Zm43.91,0c-2.6,3.48-5.37,5.81-6.2,5.19-.82-.61,.62-3.93,3.22-7.41,2.6-3.48,5.37-5.81,6.2-5.19,.82,.61-.62,3.93-3.22,7.41Z"/><path class="cls-1" d="M132.64,52.75c-.94-.38-1.3-.71-1.3-1.15,0-.32,.32-.61,.75-.61,.73,0,1.59,.65,1.7,.71,.11,.08,.32-.02,.4-.15l.61-.91c.05-.08,.07-.3-.07-.38-.36-.26-1.31-.89-2.54-.89-1.83,0-2.75,1.19-2.75,2.37,0,1.42,1.28,2.22,2.31,2.63,.81,.32,1.22,.7,1.22,1.2,0,.42-.34,.71-.82,.71-.78,0-1.64-.63-1.69-.65-.08-.06-.31-.09-.4,.07l-.56,.99c-.09,.17-.06,.21,.06,.33,.27,.27,1.13,.91,2.67,.91,1.75,0,2.81-1.24,2.81-2.46,0-1.62-1.47-2.34-2.4-2.71Z"/><path class="cls-1" d="M144.7,49.48h-5.28c-.13,0-.23,.11-.23,.22v1.3c0,.12,.1,.22,.23,.22h1.7v6.35c0,.12,.11,.23,.23,.23h1.43c.12,0,.23-.11,.23-.23v-6.35h1.7c.13,0,.23-.11,.23-.22v-1.3c0-.12-.1-.22-.23-.22Z"/><path class="cls-1" d="M167.59,49.48h-1.43c-.13,0-.23,.11-.23,.22v4.22h-.01l-4.74-4.57h-.3c-.12,0-.23,.09-.23,.21v8c.01,.12,.12,.23,.24,.23h1.41c.13,0,.23-.11,.23-.23v-4.43h.01l4.7,4.72s.12,.06,.15,.06h.19c.12,0,.23-.09,.23-.22v-8c0-.12-.11-.22-.23-.22Z"/><path class="cls-1" d="M152.42,49.5c-.04-.07-.12-.13-.2-.13h-.12c-.08,0-.17,.06-.2,.13l-3.72,8c-.07,.16,.02,.31,.2,.31h1.31c.24,0,.37-.14,.43-.29l.43-.95h3.23l.43,.94c.11,.22,.2,.3,.42,.3h1.32c.18,0,.27-.15,.2-.31l-3.72-8Zm-1.16,5.46l.89-1.96h.01l.9,1.96h-1.81Z"/></g><path class="cls-2" d="M30.45,82.93c.55,.91,.83,1.92,.83,3.02v8.43c0,1.1-.28,2.11-.83,3.04-.55,.93-1.29,1.66-2.22,2.19-.93,.54-1.94,.8-3.04,.8l-19.46,.04v10.69H0v-16.51H24.93c.14,0,.27-.04,.39-.13,.12-.09,.17-.2,.17-.35v-7.99c0-.14-.06-.27-.17-.37-.12-.1-.25-.15-.39-.15H0v-5.73H25.19c1.1,0,2.11,.28,3.04,.83,.93,.55,1.66,1.28,2.22,2.19Zm49.52-2.19c-.93-.55-1.94-.83-3.04-.83h-25.19v5.73h24.93c.14,0,.27,.05,.39,.15,.12,.1,.17,.23,.17,.37v7.99c0,.15-.06,.26-.17,.35-.12,.09-.25,.13-.39,.13h-24.93v16.51h5.73v-10.69l10.23-.02,8.97,10.71h6.25v-1.61l-7.72-9.12h1.73c1.1,0,2.11-.27,3.04-.81,.93-.53,1.66-1.27,2.22-2.19,.55-.93,.83-1.94,.83-3.04v-8.43c0-1.1-.28-2.11-.83-3.02-.55-.91-1.29-1.64-2.22-2.19Zm43.2,11.86h-18.48v5.82h18.48v-5.82Zm-18.48,18.55h23v-5.78h-23v5.78Zm0-25.5h23v-5.78h-23v5.78Zm61.44,7.73l-11.34-13.51h-6.3v31.27h5.73v-22.89l11.9,14.07,11.86-14.12v22.93h5.78v-31.27h-6.34l-11.29,13.51Zm39.44,17.77h5.69v-31.27h-5.69v31.27Zm52.69-6.3c0,.14-.06,.27-.17,.37-.12,.1-.25,.15-.39,.15h-18.68c-.15,0-.27-.05-.37-.15-.1-.1-.15-.22-.15-.37v-24.98h-5.73v25.24c0,1.1,.27,2.11,.83,3.02,.55,.91,1.28,1.64,2.19,2.19,.91,.55,1.92,.83,3.02,.83h19.2c1.1,0,2.11-.27,3.02-.83,.91-.55,1.64-1.28,2.19-2.19,.55-.91,.83-1.92,.83-3.02v-25.24h-5.78v24.98Zm56.86-24.98l-11.29,13.51-11.34-13.51h-6.3v31.27h5.73v-22.89l11.9,14.07,11.86-14.12v22.93h5.78v-31.27h-6.34Z"/></g></g></svg>