<svg xmlns="http://www.w3.org/2000/svg" width="33.585" height="31.656" viewBox="0 0 33.585 31.656">
  <g id="Group_47" data-name="Group 47" transform="translate(-630 -363)">
    <line id="Line_20" data-name="Line 20" y2="23.689" transform="translate(646.793 367.716)" fill="none" stroke="#bfa474" stroke-miterlimit="10" stroke-width="2"/>
    <path id="Path_53" data-name="Path 53" d="M646.793,367.716A3.716,3.716,0,0,0,643.077,364h-8.361A3.716,3.716,0,0,0,631,367.716V386.3a3.716,3.716,0,0,0,3.716,3.716h8.361a3.716,3.716,0,0,1,3.716,3.716v.929" transform="translate(0)" fill="none" stroke="#bfa474" stroke-miterlimit="10" stroke-width="2"/>
    <path id="Path_54" data-name="Path 54" d="M648,367.716A3.716,3.716,0,0,1,651.716,364h8.361a3.716,3.716,0,0,1,3.716,3.716V386.3a3.716,3.716,0,0,1-3.716,3.716h-8.361A3.716,3.716,0,0,0,648,393.727v.929" transform="translate(-1.207)" fill="none" stroke="#bfa474" stroke-miterlimit="10" stroke-width="2"/>
  </g>
</svg>
