<svg xmlns="http://www.w3.org/2000/svg" width="36.1" height="29.757" viewBox="0 0 36.1 29.757">
  <g id="Group_632" data-name="Group 632" transform="translate(-1522.614 -193.41)">
    <g id="Group_625" data-name="Group 625" transform="translate(1526.96 196.913)">
      <line id="Line_58" data-name="Line 58" x1="0.001" transform="translate(0)" fill="none" stroke="#bfa474" stroke-linejoin="round" stroke-width="2"/>
    </g>
    <g id="Group_626" data-name="Group 626" transform="translate(1523.614 196.907)">
      <path id="Path_8373" data-name="Path 8373" d="M1525.159,212.592h-1.545v2.619h0v20.077c6.008-.236,9.527-.215,12.1.317a11.886,11.886,0,0,1,2.393.745h0a13.541,13.541,0,0,1,2.555,1.5s0,0,0,0,0,0,0,0a13.564,13.564,0,0,1,2.554-1.5h0a11.879,11.879,0,0,1,2.391-.745h0c2.571-.533,6.09-.554,12.1-.318V215.212h0v-2.619c-.5,0-1.028,0-1.548,0" transform="translate(-1523.614 -212.591)" fill="none" stroke="#bfa474" stroke-linejoin="round" stroke-width="2"/>
    </g>
    <g id="Group_627" data-name="Group 627" transform="translate(1526.961 194.41)">
      <path id="Path_8374" data-name="Path 8374" d="M1561.682,221.671c3.584-2.593,3.072-4.981,13.7-4.564v-22.7c-10.735,0-10.144,1.207-13.7,4.124-3.557-2.917-2.968-4.124-13.7-4.124v22.7C1558.608,216.691,1558.1,219.078,1561.682,221.671Z" transform="translate(-1547.979 -194.41)" fill="none" stroke="#bfa474" stroke-linejoin="round" stroke-width="2"/>
    </g>
    <g id="Group_628" data-name="Group 628" transform="translate(1523.614 199.527)">
      <line id="Line_59" data-name="Line 59" x1="0.224" transform="translate(0)" fill="none" stroke="#bfa474" stroke-linejoin="round" stroke-width="2"/>
    </g>
    <g id="Group_629" data-name="Group 629" transform="translate(1557.49 199.527)">
      <line id="Line_60" data-name="Line 60" x1="0.224" transform="translate(0)" fill="none" stroke="#bfa474" stroke-linejoin="round" stroke-width="2"/>
    </g>
    <g id="Group_630" data-name="Group 630" transform="translate(1540.664 198.456)">
      <line id="Line_61" data-name="Line 61" y1="23.71" transform="translate(0 0)" fill="none" stroke="#bfa474" stroke-linejoin="round" stroke-width="2"/>
    </g>
  </g>
</svg>
