<svg xmlns="http://www.w3.org/2000/svg" width="49.268" height="45.115" viewBox="0 0 49.268 45.115">
  <g id="Group_82" data-name="Group 82" transform="translate(-48.25 -51.25)">
    <line id="Line_29" data-name="Line 29" x2="13" transform="translate(84 95.615)" fill="none" stroke="#220728" stroke-miterlimit="10" stroke-width="1.5"/>
    <path id="Path_73" data-name="Path 73" d="M84.346,77.673a4.673,4.673,0,0,0-9.346,0V94.807h6.231V85.461C81.231,83.384,84.346,80.254,84.346,77.673Z" transform="translate(0.999 0.807)" fill="none" stroke="#220728" stroke-miterlimit="10" stroke-width="1.5"/>
    <path id="Path_74" data-name="Path 74" d="M49,77.673a4.673,4.673,0,1,1,9.346,0V94.807H52.115V85.461C52.115,83.384,49,80.254,49,77.673Z" transform="translate(0 0.807)" fill="none" stroke="#220728" stroke-miterlimit="10" stroke-width="1.5"/>
    <path id="Path_75" data-name="Path 75" d="M79.923,73.346V70.231c0-3.441-5.58-6.231-12.461-6.231S55,66.789,55,70.231v3.115" transform="translate(0.231 0.461)" fill="none" stroke="#220728" stroke-miterlimit="10" stroke-width="1.5"/>
    <path id="Path_76" data-name="Path 76" d="M58,82.115C58,80.395,61.952,79,66.827,79s8.827,1.395,8.827,3.115" transform="translate(0.346 1.038)" fill="none" stroke="#220728" stroke-miterlimit="10" stroke-width="1.5"/>
    <line id="Line_30" data-name="Line 30" x2="18" transform="translate(58 92.615)" fill="none" stroke="#220728" stroke-miterlimit="10" stroke-width="1.5"/>
    <line id="Line_31" data-name="Line 31" y1="31" transform="translate(89 64.615)" fill="none" stroke="#220728" stroke-miterlimit="10" stroke-width="1.5"/>
    <path id="Path_77" data-name="Path 77" d="M95.538,64.461H81V63.423L85.154,52h6.231l4.154,11.423Z" transform="translate(1.23 0)" fill="none" stroke="#220728" stroke-miterlimit="10" stroke-width="1.5"/>
    <line id="Line_32" data-name="Line 32" y2="8" transform="translate(94 64.615)" fill="none" stroke="#220728" stroke-miterlimit="10" stroke-width="1.5"/>
  </g>
</svg>
