<?xml version="1.0" standalone="no"?>
<!DOCTYPE svg PUBLIC "-//W3C//DTD SVG 1.1//EN" "http://www.w3.org/Graphics/SVG/1.1/DTD/svg11.dtd" >
<svg xmlns="http://www.w3.org/2000/svg">
<metadata>Generated by IcoMoon</metadata>
<defs>
<font id="icomoon" horiz-adv-x="1024">
<font-face units-per-em="1024" ascent="960" descent="-64" />
<missing-glyph horiz-adv-x="1024" />
<glyph unicode="&#x20;" horiz-adv-x="512" d="" />
<glyph unicode="&#xe8fc;" glyph-name="arrow-down-small" d="M512.3 385.9l173.3 173.3c9.2 9.2 24 9.2 33.1 0 9.2-9.2 9.2-24 0-33.1l-189.8-189.9c-4.6-4.6-10.6-6.9-16.6-6.9s-12 2.3-16.6 6.9l-190.5 190.5c-9.2 9.2-9.2 24 0 33.1 9.2 9.2 24 9.2 33.1 0l174-173.9z" />
<glyph unicode="&#xe900;" glyph-name="arrow-left" d="M440.9 448l289.1-289.8-73.3-73.5-362.7 363.3 362.7 363.3 73.3-73.5z" />
<glyph unicode="&#xe901;" glyph-name="arrow-right" d="M294 737.8l73.3 73.5 362.7-363.3-362.7-363.3-73.3 73.5 289.1 289.8z" />
<glyph unicode="&#xe902;" glyph-name="piyale" d="M559.9 764.1c-64.9 0-123.6-19.8-171.6-67.6-23.1-23-41.3-50-48.8-82.1-11.1-47.7 5.4-87 40.6-119.5 10.1-9.3 21.1-17.8 31.6-26.6-10.7-16.7-155.4-255.2-161.1-264.1-9.8-15.2-13.1-30-1.9-45.1 6.3-8.6 13.6-16.7 21.8-23.4 2.9-2.3 5.9-3.7 8.8-3.7 3.8 0 7.5 2.3 10.6 7.7 6.8 11.8 108.7 185.2 112.9 192.5 4 6.8 8.1 9.5 15.2 9.5 0.5 0 1 0 1.6 0 10-0.5 19.9-0.7 29.8-0.7 26.2 0 52.3 1.7 78.4 5.4 60.8 8.5 117.2 27.3 165.8 65.5 41.8 32.8 71.1 74.5 84.1 126 12.1 47.6 0.8 91.8-27.9 130.9-41.8 57-98.4 90.5-169.7 94.8-6.8 0.3-13.5 0.5-20.2 0.5zM427.8 492.9c-17.8 12.3-30.5 27.2-34.8 48.1-5.3 26 1.6 49.7 14.6 72.3 16.9 29.3 38.9 53.9 66 73.9 34.1 25.2 72.4 36.1 113.9 36.1 3.9 0 7.9-0.1 11.9-0.3 37.5-1.8 71.1-13.2 95.8-42.3 26.1-30.7 33-66.8 24.8-105.9-9.1-43.6-33-78.3-65-108.4-28.3-26.7-61.1-46.5-96.8-61.2-37.3-15.3-73-24.1-122.8-24.1-0.8 0-1.6 0-2.4 0 33.7 54.4 140.9 224.6 140.9 224.6 9.8 14.2 13.3 28.3 3.1 43-5.8 8.3-12.5 16.3-20.2 23-2.8 2.4-5.7 3.8-8.6 3.8-3.6 0-7.1-2.1-10.1-7.1-10.4-16.8-110.3-175.5-110.3-175.5z" />
<glyph unicode="&#xe903;" glyph-name="arrow-down" d="M569.3 280.2v0l335.7 335.6-65 65-335.7-335.7-320.3 320.4-65-65 385.3-385.3z" />
<glyph unicode="&#xe904;" glyph-name="arrow-down-fat" d="M512 265.4l-410.5 365.2h821z" />
<glyph unicode="&#xe905;" glyph-name="menu" d="M879.9 654.5h-737.7c-6.6 0-12 5.4-12 12v71.6c0 6.6 5.4 12 12 12h737.7c6.6 0 12-5.4 12-12v-71.6c0-6.6-5.4-12-12-12zM879.9 401.5h-737.7c-6.6 0-12 5.4-12 12v71.6c0 6.6 5.4 12 12 12h737.7c6.6 0 12-5.4 12-12v-71.6c0-6.6-5.4-12-12-12zM879.9 148.5h-737.7c-6.6 0-12 5.4-12 12v71.6c0 6.6 5.4 12 12 12h737.7c6.6 0 12-5.4 12-12v-71.6c0-6.6-5.4-12-12-12z" />
<glyph unicode="&#xe906;" glyph-name="book" d="M495.4 86.505c-4.6 0-8.3 3.7-8.3 8.3 0 33.5-150.4 66.5-332.5 66.5-4.6 0-8.3 3.7-8.3 8.3v507c0 4.6 3.7 8.3 8.3 8.3h16.6v8.3c0 4.6 3.7 8.3 8.3 8.3 88.3-1.9 180.2-7.3 263-41.3 29.2-12.2 46.9-21 66.1-46.7 47.8 98.8 186.4 158.4 283.1 195.5l4 0.4c7.2-5.1 5.5-1.9 7.1-8.2v-100.7c12 0.2 28.8 0.8 41.4 1 4.6 0.1 8.4-3.7 8.4-8.3v-8.3h16.6c4.6 0 8.3-3.7 8.3-8.3v-507c0-4.6-3.7-8.3-8.3-8.3-85.6-1.2-172.5-5-256.1-25.6-20.7-5.1-69.4-15.5-76.4-40.9v0c0-4.6-3.7-8.3-8.3-8.3h-33zM861.1 668.305h-8.3v-473.8c0-4.6-3.7-8.3-8.3-8.3-83.9-1.5-170.1-6.7-250.1-34.4-18.7-6.5-49.8-17.8-62.6-35.1 31.7 27.7 74.8 35.6 115 43.2 70.6 13.4 142.7 17.1 214.4 17.8v490.6zM171.2 668.305h-8.3v-490.5c87.4-1.9 176.9-4.6 261.6-28.8 20.3-4.2 38.4-13 56.5-22.6-5.5 3.6-10.6 7.9-16.4 10.8-83.9 41.6-193.1 47.6-285 49-4.6 0-8.3 3.7-8.3 8.3v473.8zM187.8 684.805v-482.1c85.4-2.2 174-7.3 254.8-38.1 26.5-9.2 40.7-17.7 61.1-36.7v457.3c-10 48.5-77.3 65.6-117.9 76.2-64.7 16.7-131.4 22.3-198 23.4zM786.3 789.205c-72.3-28.1-143.8-62.7-204.4-111.9-26.2-21.3-56.6-48.1-61.5-83.5v-456.7c65.6 84.5 168.1 133.3 266 170.8v481.3zM836.2 684.805c-21-0.2-33.2-0.9-33.2-0.9v-381.6c0-3.5-2.2-6.6-5.5-7.8-87.3-31.8-170.5-75.3-239.5-137.9 22.1 10.7 45.9 16.3 69.5 22.4 68.1 17.4 138.6 22.6 208.6 23.7v482.1z" />
<glyph unicode="&#xe907;" glyph-name="building" d="M747 107.4v610.8h-93.9v93.9h-282v-93.9h-94v-610.8h-129.2v-23.5h728.2v23.5h-129.1zM394.6 788.6h235v-70.5h-235v70.5zM453.2 107.4v140.9h117.5v-140.9h-117.5zM594.3 107.4v164.4h-164.6v-164.4h-129.1v587.3h422.9v-587.3h-129.2zM335.8 565.4h93.9v93.9h-93.9v-93.9zM359.3 635.9h47v-47h-47v47zM594.3 565.4h93.9v93.9h-93.9v-93.9zM617.6 635.9h47v-47h-47v47zM465 565.4h93.9v93.9h-93.9v-93.9zM488.5 635.9h47v-47h-47v47zM335.8 436.2h93.9v93.9h-93.9v-93.9zM359.3 506.8h47v-47h-47v47zM594.3 436.2h93.9v93.9h-93.9v-93.9zM617.6 506.8h47v-47h-47v47zM465 436.2h93.9v93.9h-93.9v-93.9zM488.5 506.8h47v-47h-47v47zM335.8 307.1h93.9v93.9h-93.9v-93.9zM359.3 377.5h47v-47h-47v47zM594.3 307.1h93.9v93.9h-93.9v-93.9zM617.6 377.5h47v-47h-47v47zM465 307.1h93.9v93.9h-93.9v-93.9zM488.5 377.5h47v-47h-47v47zM500.2 765.1h23.5v-23.5h-23.5v23.5zM453.2 765.1h23.5v-23.5h-23.5v23.5zM547.3 765.1h23.5v-23.5h-23.5v23.5z" />
<glyph unicode="&#xe908;" glyph-name="calculate" d="M691.2 126.1h-358.4c-40.3 0-73.1 32.8-73.1 73.1v497.5c0 40.3 32.8 73.1 73.1 73.1h358.4c40.3 0 73.1-32.8 73.1-73.1v-497.5c0-40.3-32.8-73.1-73.1-73.1zM332.8 743.1c-25.5 0-46.3-20.8-46.3-46.3v-497.5c0-25.5 20.8-46.3 46.3-46.3h358.4c25.5 0 46.3 20.8 46.3 46.3v497.4c0 25.5-20.8 46.3-46.3 46.3h-358.4zM644.8 552.4h-265.6c-23.9 0-43.3 18.1-43.3 40.3v69.5c0 22.2 19.4 40.3 43.3 40.3h265.6c23.9 0 43.3-18.1 43.3-40.3v-69.5c0-22.2-19.5-40.3-43.3-40.3zM379.2 675.7c-8.9 0-16.4-6.2-16.4-13.5v-69.5c0-7.3 7.5-13.5 16.4-13.5h265.6c8.9 0 16.4 6.2 16.4 13.5v69.5c0 7.3-7.5 13.5-16.4 13.5h-265.6zM439.6 417.5h-104.8v92.1h104.8v-92.1zM361.6 444.4h51.2v38.5h-51.2v-38.5zM564.4 417.5h-104.8v92.1h104.8v-92.1zM486.4 444.4h51.2v38.5h-51.2v-38.5zM689.2 417.5h-104.8v92.1h104.8v-92.1zM611.2 444.4h51.2v38.5h-51.2v-38.5zM439.6 303.3h-104.8v92.1h104.8v-92.1zM361.6 330.1h51.2v38.5h-51.2v-38.5zM564.4 303.3h-104.8v92.1h104.8v-92.1zM486.4 330.1h51.2v38.5h-51.2v-38.5zM689.2 303.3h-104.8v92.1h104.8v-92.1zM611.2 330.1h51.2v38.5h-51.2v-38.5zM439.6 190.5h-104.8v92.1h104.8v-92.1zM361.6 217.3h51.2v38.4h-51.2v-38.4zM564.4 190.5h-104.8v92.1h104.8v-92.1zM486.4 217.3h51.2v38.4h-51.2v-38.4zM689.2 190.5h-104.8v92.1h104.8v-92.1zM611.2 217.3h51.2v38.4h-51.2v-38.4z" />
<glyph unicode="&#xe909;" glyph-name="catalog" d="M102.7 119.4c-2.8 0-8.5 0-11.3 2.8-5.7 2.8-11.3 11.3-11.3 17v566.6c0 8.5 5.7 14.2 11.3 19.8 130.3 68 297.4 68 430.6 0 8.5-2.8 11.3-11.3 11.3-19.8v-566.6c0-8.5-2.8-14.2-11.3-17-5.7-2.8-14.2-2.8-19.8 0-119 59.5-269.1 59.5-388.1 0-2.9-2.8-5.8-2.8-11.4-2.8zM309.5 210c62.3 0 124.6-11.3 184.1-36.8v521.3c-113.3 53.8-255 53.8-368.3 0v-521.2c56.7 25.4 119 36.7 184.2 36.7zM439.8 615.1c-87.8 28.3-178.5 28.3-263.4 0l-14.2 39.7c96.3 31.2 195.5 31.2 288.9 0l-11.3-39.7zM439.8 496.2c-87.8 28.3-178.5 28.3-263.4 0l-11.4 39.6c96.3 31.2 195.5 31.2 288.9 0l-14.1-39.6zM439.8 374.3c-87.8 28.3-178.5 28.3-263.4 0l-11.4 39.7c96.3 31.2 195.5 31.2 288.9 0l-14.1-39.7zM439.8 255.4c-87.8 28.3-178.5 28.3-263.4 0l-11.4 39.6c96.3 31.2 195.5 31.2 288.9 0l-14.1-39.6zM513.4 119.4c-2.8 0-8.5 0-11.3 2.8-5.7 2.8-11.3 11.3-11.3 17v566.6c0 8.5 5.7 14.2 11.3 19.8 130.3 68 297.4 68 430.6 0 8.5-2.8 11.3-11.3 11.3-19.8v-566.6c0-8.5-2.8-14.2-11.3-17-5.7-2.8-14.2-2.8-19.8 0-119 59.5-269.1 59.5-388.1 0-2.9-2.8-5.7-2.8-11.4-2.8zM720.2 210c62.3 0 124.6-11.3 184.1-36.8v521.3c-113.3 53.8-255 53.8-368.3 0v-521.2c56.7 25.4 119.1 36.7 184.2 36.7zM850.5 615.1c-87.8 28.3-178.5 28.3-263.4 0l-11.3 39.7c96.3 31.2 195.5 31.2 288.9 0l-14.2-39.7zM850.5 496.2c-87.8 28.3-178.5 28.3-263.4 0l-11.3 39.7c96.3 31.2 195.5 31.2 288.9 0l-14.2-39.7zM850.5 374.3c-87.8 28.3-178.5 28.3-263.4 0l-11.4 39.7c96.3 31.2 195.5 31.2 288.9 0l-14.1-39.7zM850.5 255.4c-87.8 28.3-178.5 28.3-263.4 0l-11.4 39.6c96.3 31.2 195.5 31.2 288.9 0l-14.1-39.6z" />
<glyph unicode="&#xe90a;" glyph-name="desk" d="M835.5 501.4c0 0.9 0 0.9 0 1.7 0 19.8-15.5 35.3-35.3 35.3h-16.4l25 84.4c8.6 2.6 14.6 10.3 14.6 19.8 0 11.2-9.5 20.7-20.7 20.7-7.8 0-13.8-4.3-18.1-10.3l-51.7-4.3c-6.9 7.8-16.4 12.9-26.7 13.8-11.2 0.9-21.5-1.7-30.2-8.6-6.9-5.2-11.2-12.9-13.8-21.5l-28.4-8.6c-2.6-0.9-5.2-2.6-6-6-0.9-2.6 0-6 1.7-7.8l45.7-56.9c1.7-1.7 4.3-3.4 6.9-3.4h0.9c2.6 0 5.2 1.7 6.9 4.3l14.6 25.8c8.6 0 17.2 3.4 23.3 8.6 12.9 10.3 17.2 26.7 13.8 41.4l41.4 3.4c1.7-4.3 4.3-8.6 8.6-11.2l-25.8-87h-25.8c-19.8 0-35.3-15.5-35.3-35.3 0-0.9 0-0.9 0-1.7h-276.7l-4.3 27.6h111.1c9.5 0 17.2 7.8 17.2 17.2v209.4c0 9.5-7.8 17.2-17.2 17.2h-321.4c-9.5 0-17.2-7.8-17.2-17.2v-205.1c0-9.5 7.8-17.2 17.2-17.2h111.1l-4.3-27.6h-168v-369.6h34.5v288.6h428.3v-294.7h256.8v375.7h-36.2v-0.9zM718.4 604.8c-5.2-3.4-11.2-6-17.2-5.2-3.4 0-6.9-1.7-8.6-4.3l-10.3-19.8-29.3 36.2 21.5 6c3.4 0.9 6 3.4 6 6.9 0.9 6 3.4 12.1 8.6 15.5 5.2 4.3 11.2 6 17.2 5.2s12.1-3.4 15.5-8.6c7.8-8.6 6-23.3-3.4-31.9zM721.8 503.1c0 10.3 8.6 18.1 18.1 18.1h59.5c10.3 0 18.1-8.6 18.1-18.1 0-0.9 0-0.9 0-1.7h-96.5c0.8 0.9 0.8 0.9 0.8 1.7zM231.5 583.3v156h286.9v-156h-286.9zM385.8 556.6c0-4.3-3.4-8.6-8.6-8.6-4.3 0-8.6 3.4-8.6 8.6 0 4.3 3.4 8.6 8.6 8.6 4.3 0 8.6-4.3 8.6-8.6zM616.7 437.7h-428.2v29.3h428.2v-29.3zM839 160.2h-187.8v84.4h187.8v-84.4zM839 261.9h-187.8v88.7h187.8v-88.7zM839 367.9h-187.8v99.1h187.8v-99.1zM745.1 399.7c8.6 0 15.5 6.9 15.5 15.5s-6.9 15.5-15.5 15.5c-8.6 0-15.5-6.9-15.5-15.5-0.9-7.7 6.9-15.5 15.5-15.5zM745.1 188.7c8.6 0 15.5 6.9 15.5 15.5s-6.9 15.5-15.5 15.5c-8.6 0-15.5-6.9-15.5-15.5-0.9-8.7 6.9-15.5 15.5-15.5zM745.1 293.8c8.6 0 15.5 6.9 15.5 15.5s-6.9 15.5-15.5 15.5c-8.6 0-15.5-6.9-15.5-15.5-0.9-8.6 6.9-15.5 15.5-15.5zM419.4 703c-3.4 3.4-8.6 3.4-12.1 0l-59.5-59.5c-3.4-3.4-3.4-8.6 0-12.1 1.7-1.7 4.3-2.6 6-2.6s4.3 0.9 6 2.6l59.5 59.5c3.5 3.5 3.5 8.7 0.1 12.1zM474.5 716.8l-58.6-58.6c-3.4-3.4-3.4-8.6 0-12.1 1.7-1.7 4.3-2.6 6-2.6s4.3 0.9 6 2.6l58.6 58.6c3.4 3.4 3.4 8.6 0 12.1s-8.5 3.5-12 0zM332.4 623.8c-4.3 0-8.6-3.4-8.6-8.6 0-4.3 3.4-8.6 8.6-8.6 4.3 0 8.6 3.4 8.6 8.6-0.9 5.1-4.3 8.6-8.6 8.6z" />
<glyph unicode="&#xe90b;" glyph-name="download-2" d="M783.8 667.6l-144.3 144.3c-2.9 2.9-6.8 4.5-10.9 4.5h-377.5c-8.5 0-15.3-6.9-15.3-15.3v-706c0-8.5 6.9-15.3 15.3-15.3h151.5v30.7h-136.2v675.2h337.7v-138.1c0-8.5 6.9-15.3 15.3-15.3h138.1v-521.8h-136.1v-30.7h151.5c8.5 0 15.3 6.9 15.3 15.3v561.6c0.1 4.1-1.6 8-4.4 10.9zM634.8 662.9v110.2l110.2-110.2h-110.2zM553 284.1v199.9c0 6.5-5.3 11.8-11.8 11.8h-54.6c-6.5 0-11.8-5.3-11.8-11.8v-199.9c0-6.5-5.3-11.8-11.8-11.8h-68.4c-9.5 0-15.1-10.7-9.7-18.5l117.5-169c4.7-6.8 14.7-6.8 19.4 0l117.5 169c5.4 7.8-0.2 18.5-9.7 18.5h-64.7c-6.6 0-11.9 5.3-11.9 11.8z" />
<glyph unicode="&#xe90c;" glyph-name="download" d="M810.5 348.5v-199h-597v199h-99.5v-298.5h796v298.5zM711 547.5h-99.5v298.5h-199v-298.5h-99.5l199-298.5z" />
<glyph unicode="&#xe90d;" glyph-name="education" d="M872.4 483.8c-1 3.9-4.2 6.9-8.1 7.8l-4.9 1v67.8l7.9 6.8c3.1 2.7 4.4 6.9 3.4 10.9-1.1 4-4.3 7-8.4 7.7l-44.5 8.1v58.3l8.2 7c3.1 2.7 4.4 6.9 3.4 10.9-1.1 4-4.3 7-8.4 7.7l-359.3 64.8c-2.8 0.5-5.7-0.1-8-1.7l-278.3-194.4c-5.3-2.9-24.5-16.1-24.2-52.9 0.4-39.9 24-58 25-58.8 0.1-0.1 0.3-0.2 0.4-0.3 0.2-0.2 0.5-0.3 0.7-0.5 0.3-0.2 0.5-0.3 0.8-0.4 0.2-0.1 0.5-0.2 0.8-0.3s0.6-0.2 0.9-0.3c0.2-0.1 0.3-0.1 0.5-0.2l16.4-3.4c-2.7-7.3-4.5-16.3-4.4-27.8 0.2-19.8 6.1-34.2 12.1-43.8l-12.7-8.9c-5.3-3-24.5-16.2-24.1-52.9 0.4-39.9 24-58.1 25-58.8 0.9-0.6 2.7-1.5 4.2-1.9l376.9-79.1c0 0 0.1 0 0.1 0l13.5-2.8c0.7-0.2 1.5-0.2 2.2-0.2 2.5 0 5 0.9 6.9 2.5l247.7 211.6c3.1 2.6 4.4 6.8 3.4 10.7s-4.2 6.9-8.1 7.8l-4.4 0.9v57.2l33.9 29c3.2 2.8 4.5 7 3.5 10.9zM571.5 444.9c2.5 0 5 0.9 6.9 2.5l218.4 186.6v-67.6l-227.3-193.2v72c0.7-0.2 1.3-0.3 2-0.3zM191.8 524.3l356.4-74.8v-71.9l-356.4 74.6c0 0.1 0 72.1 0 72.1zM208.4 254.9v72l356.3-74.8v-72l-356.3 74.8zM233.3 360.4v61.5l324.1-68c0 0 0.1 0 0.1 0l13.5-2.8c0.7-0.2 1.5-0.2 2.2-0.2 2.5 0 5 0.9 6.9 2.5l5.9 5 3.6-0.7v-72l-356.3 74.7zM813.9 369.5l-227.8-193.9-0.1 72c0.6-0.1 1.3-0.2 2-0.2 2.5 0 5 0.9 6.9 2.5l12 10.3 5.3-1.1c0.7-0.2 1.5-0.2 2.2-0.2 2.5 0 5 0.9 6.9 2.5l192.6 164.6v-56.5zM838.6 475l-227.7-193.8-0.1 72c0.7-0.1 1.3-0.2 2-0.2 2.5 0 5 0.9 6.9 2.5l219 187.1-0.1-67.6z" />
<glyph unicode="&#xe90e;" glyph-name="family" d="M308.1 745c-27.9 0-50.5-22.5-50.5-50.4 0-27.8 22.6-50.4 50.5-50.4s50.5 22.6 50.5 50.4c0 27.9-22.6 50.4-50.5 50.4zM302.1 348.9l-10.2-186.2c0-6.6-5.3-11.8-11.9-11.8-6.5 0-11.8 5.3-11.8 11.8l-10.2 186.2h-32.9l34.1 208.9-68.6-136.6c-2.5-6-9.5-8.9-15.5-6.4-6 2.6-8.8 9.5-6.3 15.6 0 0 50.3 135.9 62.7 161.2 12.3 25.3 24.7 40.7 71.7 40.7h9.7c47.1 0 59.4-15.3 71.7-40.7 12.5-25.3 62.7-161.2 62.7-161.2 2.6-6.1-0.3-13-6.2-15.6-6.1-2.5-13 0.4-15.6 6.4l-68.5 136.6 34-208.9h-33l-10-186.2c0-6.6-5.3-11.8-11.8-11.8s-11.8 5.3-11.8 11.8l-10.9 186.2h-11.4zM766.3 694.7c0-27.9-22.5-50.4-50.3-50.4-28 0-50.6 22.5-50.6 50.4s22.6 50.4 50.6 50.4c27.8 0 50.3-22.5 50.3-50.4zM768.2 448.1l9.8-276c0.7-10.9-7.5-20.4-18.4-21.1-0.5 0-0.9 0-1.4 0-10.3 0-19.1 7.9-19.7 18.3l-22.6 213.5-22.4-213.5c-0.7-10.5-9.5-18.3-19.8-18.3-0.4 0-0.9 0-1.4 0-10.9 0.8-19.1 10.3-18.3 21.1l9.6 276-3.4 109.7-61.7-136.5c-2.5-6-9.4-8.9-15.5-6.4-6 2.6-8.8 9.5-6.3 15.7 0 0 43.4 135.8 55.8 161.1s31.6 40.6 78.7 40.6h9.6c47.1 0 66.3-15.3 78.7-40.6s55.8-161.1 55.8-161.1c2.6-6.1-0.3-13.1-6.4-15.7-5.9-2.6-13 0.4-15.5 6.4l-61.6 136.5-3.6-109.7zM543 407.3c0-17-14-30.8-31.1-30.8-17.2 0-31.1 13.8-31.1 30.8 0 17.2 13.9 31 31.1 31s31.1-13.8 31.1-31zM512 255.9c0 0-14-96.9-14-97-1.8-4.7-6.4-8.1-11.7-8.1-5.6 0-10.2 3.7-11.9 8.7-0.1 0.3-0.5 5.9-0.1 7l5.7 119-1.8 40.8c-1.5 14-1.8 9.8-17.6 19.2-16.1 9.7-43.6 52.3-44.9 54.3-1.3 2.2-3.9 5.9-4.3 8.3-0.8 4.3 2 8.4 6.2 9.2 3.3 0.6 5.9-1.2 7.9-3.3 2.2-2.3 33.8-44.4 57.5-48.4 5.4 0.8 11.1 3.6 26.1 3.6h6c15.1 0 20.8-2.8 26.1-3.6 23.7 4 55.3 46.1 57.5 48.4 2 2.2 4.7 3.9 7.9 3.3 4.2-0.8 7-4.9 6.3-9.2-0.5-2.4-3.1-6.1-4.3-8.3-1.4-2-28.8-44.6-45-54.3-15.8-9.4-16-5.3-17.7-19.2l-1.8-40.8 5.7-119c0.3-1 0-6.7-0.1-7-1.6-5-6.4-8.7-11.9-8.7-5.4 0-9.9 3.4-11.8 8.1-0.1 0.1-14 97-14 97z" />
<glyph unicode="&#xe90f;" glyph-name="file" d="M219.8 860.262c-9.7-0.9-17-9-17-18.7v-787.1c0-10.3 8.4-18.7 18.7-18.7h581c10.3 0 18.7 8.4 18.7 18.7v637.2c0 5.1-2 9.9-5.6 13.5l-149.9 149.9c-3.5 3.4-8.3 5.3-13.2 5.3h-431c-0.6 0-1.2 0-1.7-0.1zM240.3 822.762h393.6v-131.2c0-10.3 8.4-18.7 18.7-18.7h131.2v-599.7h-543.5v749.6zM671.3 796.462l86.1-86.1h-86.1v86.1zM304.1 644.762c-10.4-0.5-18.3-9.3-17.9-19.6 0.5-10.4 9.3-18.3 19.6-17.9h206.2c10.4-0.1 18.9 8.1 19 18.5s-8.1 18.9-18.5 19c-0.2 0-0.4 0-0.5 0h-206.2c-0.5 0-1.1 0-1.7 0zM304.1 541.662c-10.4-0.5-18.3-9.3-17.9-19.6 0.5-10.4 9.3-18.3 19.6-17.9h412.3c10.4-0.1 18.9 8.1 19 18.5s-8.1 18.9-18.5 19c-0.2 0-0.4 0-0.5 0h-412.3c-0.5 0.1-1.1 0.1-1.7 0zM304.1 438.662c-10.4-0.5-18.3-9.3-17.9-19.6 0.5-10.4 9.3-18.3 19.6-17.9h412.3c10.4-0.1 18.9 8.1 19 18.5s-8.1 18.9-18.5 19c-0.2 0-0.4 0-0.5 0h-412.3c-0.5 0-1.1 0-1.7 0zM304.1 335.562c-10.4-0.5-18.3-9.3-17.9-19.6 0.5-10.4 9.3-18.3 19.6-17.9h412.3c10.4-0.1 18.9 8.1 19 18.5s-8.1 18.9-18.5 19c-0.2 0-0.4 0-0.5 0h-412.3c-0.5 0-1.1 0-1.7 0zM304.1 232.462c-10.4-0.5-18.3-9.3-17.9-19.6 0.5-10.4 9.3-18.3 19.6-17.9h412.3c10.4-0.1 18.9 8.1 19 18.5s-8.1 18.9-18.5 19c-0.2 0-0.4 0-0.5 0h-412.3c-0.5 0-1.1 0-1.7 0z" />
<glyph unicode="&#xe910;" glyph-name="gallery" d="M807.2 788.4h-679c-32.8 0-59.4-26.6-59.4-59.4v-470.7c0-49.6 43.4-59.4 59.4-59.4l679-0.9c39 0 59.4 29.3 59.4 60.3v470.7c-0.1 32.8-26.6 59.4-59.4 59.4zM808 255.7h-679.8v473.3h679.8v-473.3zM157.5 288.5v-0.9l0.6 0.9zM776.1 401.9l-145.3 209.2-117-152.5-57.6 61.2-149-174.6-61.1 55.8-88-112.5h618zM301 553.5c31 5.3 55.8 30.1 61.2 61.2 8.9 50.5-34.6 94-86 86-31-4.4-55.8-29.3-61.2-61.2-8.8-50.6 34.6-94 86-86zM896.7 248.6l-0.9 450.3c16 0 59.4-42.5 59.4-59.4v-470.7c0-33.7-27.5-61.2-61.2-61.2h-677.2c-16 0-59.4 42.5-59.4 59.4h691.4c61.2 0.9 47.9 81.6 47.9 81.6z" />
<glyph unicode="&#xe911;" glyph-name="hotel" d="M771.9 178.8v482.8h-92.8v74.2h-334.2v-74.2h-92.8v-482.8h-27.9v-18.6h575.6v18.6h-27.9zM270.6 178.8v464.2h74.2v-464.3h-74.2zM465.5 178.8v148.5h92.9v-148.6h-92.9zM660.6 178.8h-83.6v167.1h-130v-167.1h-83.5v538.4h297.1v-538.4zM753.4 178.8h-74.2v464.2h74.2v-464.2zM474.8 680.1h-74.2v-74.2h74.2v74.2zM456.2 624.4h-37.2v37.1h37.2v-37.1zM623.4 680.1h-74.2v-74.2h74.2v74.2zM604.8 624.4h-37.2v37.1h37.2v-37.1zM474.8 568.7h-74.2v-74.2h74.2v74.2zM456.2 513h-37.2v37.2h37.2v-37.2zM623.4 568.7h-74.2v-74.2h74.2v74.2zM604.8 513h-37.2v37.2h37.2v-37.2zM474.8 457.3h-74.2v-74.2h74.2v74.2zM456.2 401.5h-37.2v37.2h37.2v-37.2zM623.4 457.3h-74.2v-74.2h74.2v74.2zM604.8 401.5h-37.2v37.2h37.2v-37.2zM298.4 605.8h18.6v-37.2h-18.6v37.2zM298.4 494.5h18.6v-37.2h-18.6v37.2zM298.4 373.8h18.6v-37.2h-18.6v37.2zM298.4 253h18.6v-37.2h-18.6v37.2zM707 605.8h18.6v-37.2h-18.6v37.2zM707 494.5h18.6v-37.2h-18.6v37.2zM707 373.8h18.6v-37.2h-18.6v37.2zM707 253h18.6v-37.2h-18.6v37.2z" />
<glyph unicode="&#xe912;" glyph-name="instagram" d="M512 634.3c-101.1 0-184.8-82.3-184.8-184.8s82.3-184.9 184.8-184.9 184.8 83.8 184.8 184.8-83.7 184.9-184.8 184.9zM512 331c-65 0-118.4 53.4-118.4 118.4s53.4 118.5 118.4 118.5 118.4-53.4 118.4-118.4-53.4-118.5-118.4-118.5zM746 638.6c0-23.141-18.759-41.9-41.9-41.9s-41.9 18.759-41.9 41.9c0 23.141 18.759 41.9 41.9 41.9s41.9-18.759 41.9-41.9zM812.3 746.9c-37.5 39-91 59.2-151.6 59.2h-297.4c-125.6 0-209.4-83.8-209.4-209.4v-296c0-62.1 20.2-115.5 60.6-154.5 39-37.5 91-56.3 150.2-56.3h294.6c62.1 0 114.1 20.2 151.6 56.3 39 37.5 59.2 91 59.2 153.1v297.4c0 60.7-20.2 112.7-57.8 150.2zM803.7 299.3c0-44.8-13-80.9-39-105.4s-62.1-37.5-105.4-37.5h-294.6c-43.3 0-79.4 13-105.4 37.5-26 26-39 62.1-39 106.9v296c0 43.3 13 79.4 39 105.4 24.5 24.5 62.1 37.5 105.4 37.5h297.5c43.3 0 79.4-13 105.4-39 24.5-26 39-62.1 39-104v-297.5h-2.9z" />
<glyph unicode="&#xe913;" glyph-name="investment" d="M239.7 267.4h82.3v-164.8h-82.3v164.8zM373.6 361.6h82.3v-258.9h-82.3v258.9zM507.4 467.5h82.3v-364.9h-82.3v364.9zM641.2 573.4h82.3v-470.8h-82.3v470.8zM775 644.1h82.3v-541.4h-82.3v541.4zM184.9 340.9l488.6 392.2 21.1-26.9 34.7 87-92.5-13.4 21.1-26.9-491.2-391c0.7-0.3 18.2-21 18.2-21z" />
<glyph unicode="&#xe914;" glyph-name="list-2" d="M949.6 733.4h-646.9c-10.5 0-19 8.5-19 19s8.5 19 19 19h646.9c10.5 0 19-8.5 19-19s-8.5-19-19-19zM949.6 429h-646.9c-10.5 0-19 8.5-19 19s8.5 19 19 19h646.9c10.5 0 19-8.5 19-19s-8.5-19-19-19zM949.6 124.6h-646.9c-10.5 0-19 8.5-19 19s8.5 19 19 19h646.9c10.5 0 19-8.5 19-19s-8.5-19-19-19zM150.5 352.9c-52.5 0-95.1 42.7-95.1 95.1s42.7 95.1 95.1 95.1 95.1-42.7 95.1-95.1-42.6-95.1-95.1-95.1zM150.5 505.1c-31.5 0-57.1-25.6-57.1-57.1s25.6-57.1 57.1-57.1 57.1 25.6 57.1 57.1-25.6 57.1-57.1 57.1zM150.5 48.5c-52.5 0-95.1 42.7-95.1 95.1s42.7 95.1 95.1 95.1 95.1-42.7 95.1-95.1c0-52.4-42.6-95.1-95.1-95.1zM150.5 200.7c-31.5 0-57.1-25.6-57.1-57.1s25.6-57.1 57.1-57.1 57.1 25.6 57.1 57.1c0 31.5-25.6 57.1-57.1 57.1zM150.5 657.3c-52.5 0-95.1 42.7-95.1 95.1s42.7 95.1 95.1 95.1 95.1-42.7 95.1-95.1-42.6-95.1-95.1-95.1zM150.5 809.5c-31.5 0-57.1-25.6-57.1-57.1s25.6-57.1 57.1-57.1 57.1 25.6 57.1 57.1-25.6 57.1-57.1 57.1z" />
<glyph unicode="&#xe915;" glyph-name="list" d="M244.3 648.9c0-27.338-22.162-49.5-49.5-49.5s-49.5 22.162-49.5 49.5c0 27.338 22.162 49.5 49.5 49.5s49.5-22.162 49.5-49.5zM303 679.8h575.6v-61h-575.6v61zM244.3 448c0-27.338-22.162-49.5-49.5-49.5s-49.5 22.162-49.5 49.5c0 27.338 22.162 49.5 49.5 49.5s49.5-22.162 49.5-49.5zM303 478.9h575.6v-61h-575.6v61zM244.3 247.1c0-27.338-22.162-49.5-49.5-49.5s-49.5 22.162-49.5 49.5c0 27.338 22.162 49.5 49.5 49.5s49.5-22.162 49.5-49.5zM303 278h575.6v-61h-575.6v61z" />
<glyph unicode="&#xe916;" glyph-name="location-2" d="M561.6 790.9c-21.7 6.2-58.2 7.8-80.7 3.9-134.9-24.8-223.4-162.1-170.6-286.2 59.7-139.6 135-273 201.7-409.5 66.7 136.5 141.9 269.1 201.7 408.8 50.3 118.6-27.2 248.1-152.1 283zM511.9 454.3c-65.2 0-117.9 53.5-117.9 119.4s52.7 118.7 117.9 118.7 117.9-53.5 117.9-119.4-52.7-118.7-117.9-118.7z" />
<glyph unicode="&#xe917;" glyph-name="location" d="M613.1 567.5c0 55.8-45.3 101.1-101.1 101.1s-101.1-45.3-101.1-101.1 45.3-101.2 101.1-101.2 101.1 45.4 101.1 101.2zM429.3 567.5c0 45.7 37.1 82.7 82.7 82.7 45.7 0 82.7-37.1 82.7-82.7 0-45.7-37.1-82.8-82.7-82.8-45.7 0-82.7 37.2-82.7 82.8zM558.8 313.1c46.9 68 118.7 183.6 118.7 254.4 0 91.2-74.3 165.5-165.5 165.5s-165.5-74.3-165.5-165.5c0-70.9 71.7-186.4 118.7-254.4-44-12-72.7-39.8-72.7-71.9 0-43.9 52.5-78.1 119.5-78.1s119.5 34.3 119.5 78.1c0 32-28.7 59.9-72.7 71.9zM512 714.6c81.1 0 147.1-66 147.1-147.1 0-84.6-116.5-247-147.1-288.2-30.6 41.2-147.1 203.6-147.1 288.2 0 81.1 66 147.1 147.1 147.1zM512 181.3c-54.9 0-101.1 27.4-101.1 59.8 0 24.6 26.7 47 65.6 55.9 15.6-22 35.6-47.9 35.6-47.9s20 25.9 35.6 47.9c38.9-8.8 65.6-31.2 65.6-55.9-0.2-32.4-46.4-59.8-101.3-59.8z" />
<glyph unicode="&#xe918;" glyph-name="metro" d="M512 782.8c-152.8 0-276.6-123.8-276.6-276.6 0-210.1 276.6-392.9 276.6-392.9s276.6 182.8 276.6 392.9c0 152.7-123.8 276.6-276.6 276.6zM512 291.2c-118.7 0-215 96.2-215 215 0 118.7 96.2 215 215 215s215-96.3 215-215c0-118.8-96.3-215-215-215zM589.8 460.2v157.4c0 10.9-8.8 19.7-19.7 19.7h-118c-10.9 0-19.7-8.8-19.7-19.7v-157.4c0-10.9 8.8-19.7 19.7-19.7h118c10.9 0 19.7 8.8 19.7 19.7zM490.3 617.6h39.4c3.1 0 5.6-2.5 5.6-5.6s-2.5-5.5-5.6-5.5h-39.4c-3.1 0-5.5 2.5-5.5 5.5-0.1 3.1 2.4 5.6 5.5 5.6zM471.8 460.2c-8 0-14.5 6.5-14.5 14.6 0 8 6.5 14.5 14.5 14.5s14.5-6.5 14.5-14.5c0-8.1-6.5-14.6-14.5-14.6zM550.5 460.2c-8.1 0-14.6 6.5-14.6 14.6 0 8 6.5 14.5 14.6 14.5 8 0 14.5-6.5 14.5-14.5 0-8.1-6.5-14.6-14.5-14.6zM565 508.9h-107.8v77.8h107.8v-77.8zM396.4 380.6h39.9l53.6 48.8h-34.3zM532.3 429.4l53.7-48.8h39.8l-59.1 48.8z" />
<glyph unicode="&#xe919;" glyph-name="waypoint" d="M627.3 330.7c-2.3 0-4.6 0.1-6.8 0.2-61.8 3.4-100.7 51.9-135 94.6-27.9 34.8-54.3 67.7-85.9 69.4-30.1 1.6-70.3-22.5-119.5-71.6l-47.3 47.2c65 65 119.1 93.9 170.4 91.1 61.4-3.4 100.2-51.7 134.4-94.3 28-35 54.5-68 86.5-69.7 31-1.8 71.6 22.9 121.6 73l47.3-47.2c-63-63.1-115.9-92.7-165.7-92.7zM231 414.5l-13.5 13.5-37-37-37 37-13.5-13.5 37-37-37-37 13.5-13.6 37 37 37-37 13.5 13.6-37 37zM894 555.5l-13.6 13.6-36.9-37-37.1 37-13.5-13.6 37-37-37-36.9 13.5-13.6 37.1 37 36.9-37 13.6 13.6-37 36.9z" />
<glyph unicode="&#xe91a;" glyph-name="market" d="M792.1 660.8h-560.2l-65.3-92.9-0.7-4c0-36.7 29.6-66.6 66.3-67.1v-261.5h558.7v261.3c0 0 0 0 0 0 37.1 0 67.2 30.1 67.2 67.2l-66 97zM752.8 340.9h-482.6v167.1c7.4 4.9 13.7 11.1 18.7 18.4 12.1-17.9 32.6-29.7 55.8-29.7s43.7 11.8 55.8 29.7c12.1-17.9 32.6-29.7 55.8-29.7s43.7 11.8 55.8 29.7c12.1-17.9 32.6-29.7 55.8-29.7s43.7 11.8 55.8 29.7c12.1-17.9 32.6-29.7 55.8-29.7s43.7 11.8 55.8 29.7c4.7-7 10.7-13 17.7-17.8v-167.7z" />
<glyph unicode="&#xe91b;" glyph-name="news" d="M128.7 466.4l105-186.3-33.8 240.5-61.7-29.6c-8.6-4.2-12.7-14.9-9.5-24.6zM287.2 211.2c1.2-8.5 6.3-15.7 13-19.7 4.4-2.5 9.5-3.5 14.6-2.5l561.1 94.8c13.2 2.3 22.5 16 20.4 30.6l-47.8 338.8c-1.8 13-12 22.7-23.8 22.7-1.4 0-2.6-0.2-4-0.5l-561.2-94.9c-6.3-0.9-12.1-4.6-15.8-10.6-0.7-0.9-1.4-1.8-1.9-3-2.5-5.1-3.5-10.9-2.5-16.7l1.4-9.7 46.5-329.3zM253.2 627.5l94.6 16 220.2 105.7c7.7 3.7 16 5.8 24.6 5.8 23.7 0 45.2-15.1 55.4-38.5l11.4-20.4 155 26.5c37.1 6.2 71.6-22.5 77-62.1l47.7-338.9c5.8-40.3-19.4-78.3-56.3-84.6l-561.1-95c-3.5-0.7-7-0.9-10.4-0.9-5.1 0-10.2 0.7-14.8 1.8-0.7 0-1.4 0-2.1 0-23.7 0-45.2 15.1-55.4 38.5l-149.7 264.8c-13.4 33.8 0.7 73.5 31.5 88.3l76.7 36.9c2.1 9.3 6 18.5 11.4 26.4 10.7 16.2 26.4 26.6 44.3 29.7zM608.7 695.6c-3.7 9.7-14.6 14.6-23.6 10.2l-70.9-34.3 98.7 16.7-4.2 7.4zM795.5 454.3l-118.4-19-3.1 23.7 150.9 24.1 3.3-23.4zM768.4 502.5l-98.1-15.7-3.2 23.6 151.1 24.1 3-23.4zM737.1 558l-23.2-4-23.2-3.5-402.3-64.9-6.5 47.1 537.2 86.4 6.5-47zM758.4 420l22.3 3.5 21.5 3.5 29.7 4.9 3-23.7-36.1-5.8-26.5-4.1-88.3-14.2-3 23.5zM707.9 335.5l-17.2-2.8-2.5 19.2 13.4 6.5 75.6 12.3 61.4 9.7 3.2-23.4zM701.6 358.4l-13.4-6.5-0.5 4.4zM656 403.4l3-23.4-150.9-24.4-3 23.7zM649 454.8l3-23.6-150.8-24.1-3 23.4zM491.2 481.9l151.1 24.1 3-23.4-150.9-24.1zM626.3 322.3l-111.5-17.9-3 23.4 150.9 24.1 1.6-11.3 1.6-12.1zM464.5 474l21.4-177.7-161.3-23.2-21.4 177.8z" />
<glyph unicode="&#xe91c;" glyph-name="palace" d="M714.7 636.9v-116.4h-88.8c-10.3 47.4-49.2 84.5-98.3 91.4v48.3c28.5-7.8 56.9 17.2 85.4 5.2 2.6-0.9 5.2 0.9 5.2 3.4v63c0 1.7-0.9 2.6-1.7 3.4-29.3 14.7-58.6-13.8-88-7.8v11.2c0 6-5.2 11.2-11.2 11.2s-11.2-5.2-11.2-11.2v-126.8c-53.5-2.6-96.6-41.4-107.8-92.3h-88.8v117.4h-99.2v-490.7h232v213h139.7v-213h232v490.7h-99.3zM374.9 304h-117.3v81c0 32.8 26.7 58.6 58.6 58.6 32.8 0 58.6-26.7 58.6-58.6v-81zM766.4 304h-117.3v81c0 32.8 25.9 58.6 58.6 58.6s58.6-26.7 58.6-58.6v-81z" />
<glyph unicode="&#xe91d;" glyph-name="phone" d="M321.9 413.7c51.6-161.8 249.5-376.4 319-373.9 69.5 2.4 104.9 53.9 112.9 81s-94 161.1-121.6 189.9c-27.6 28.7-86.1-4.6-113.1-18.2-27.5-12.5-77 78.9-96.5 123 0 0-46.4 128.3-18.9 140.8s91.9 33.6 88.2 73.3-36 205.5-62.3 218c-25.5 12.2-87.2 19.4-134.9-31s-26.4-324.4 61-470.1z" />
<glyph unicode="&#xe91e;" glyph-name="plan" d="M675.7 661l-3 0.5c-169.3 26.3-338.9-44.1-421.3-94.9l-75.9 82-0.4-0.4 0.8 1.7c-40.5 18.2-82.2-3.2-102.4-33.6-23.2-34.8-17.6-76.7 14.3-106.9l190.2-237.7 0.1 0.1c5.2-7.4 11.4-14.1 18.4-19.9 13.5-11 36-23.1 69.7-23.1 32.5 0 75.3 11.3 130.4 45.6 176 109.8 290.4 136.6 437.1 102.5l31.1-7.2-289.1 291.3zM101.5 521.3l-0.9 1c-30.8 28.8-26.4 62.2-12 83.7 15 22.6 44.7 38.9 74 29.2l17-18.3 166.6-179.9c-0.6 0-1.3 0-1.9 0-2.1 0-4-0.3-6-0.4-1.4 0-2.8 0-4.2-0.1v-0.2c-32.3-3.6-58.1-24-70.1-56.7-2.2-5.9-3.8-12-4.9-18.1-2.2-11.6-2.6-23.4-1.3-35l-156.3 194.8zM313.7 325.4l-35 39.1c0.8 3 1.6 5.9 2.6 8.7 4.5 12.3 11.4 22.3 19.9 29.8l39.2-47.2c-13-8.3-22.4-19.2-26.7-30.4zM329.9 309c-2.5 9.9 7.5 25.9 28.6 35.7l10.9 5-52.6 63.3c6.1 2.7 12.8 4.4 19.9 5.2 26.3 1.8 42.3-14.9 49.3-25.1 14.4-20.8 17.8-49.1 8.4-68.8-7.2-14.9-21-23.5-40.1-24.9-13.5-1-22.6 2.6-24.4 9.6zM346.2 436.5v0.5l0.5-0.6c-0.2 0-0.3 0.1-0.5 0.1zM486.9 290.1c-0.5-0.3-1-0.6-1.5-0.9-75.3-46.5-138.2-54.7-177.3-23-6.2 5-11.4 10.8-15.8 17h0.1l-0.5 0.6c-11.6 16.9-16.6 37.3-16.4 56.6l43.4-48.5c6.8-7.2 17.6-11.2 31.3-11.2 1.8 0 3.6 0.1 5.4 0.2 25.7 1.8 45.3 14.3 55.3 35.3 6.7 14 8.5 30.9 5.9 47.5-2.2 13.9-7.4 27.7-15.7 39.7-3 4.3-6.3 8.1-9.9 11.6l0.1 0.1-127.2 137.7c80.7 48.9 241.8 114.9 402.8 91l240.9-242.6c-138.2 24.9-252.2-6-420.9-111.1zM653 572.5l-10.8 14.9c-5.9-4.3-13.3-10.7-21.7-18.6-64.7 2.7-195.6-37.7-230.9-63.7l-7.8-5.8 89.6-109.2c-4.8-7.2-9.1-14.1-13.1-20.8l11.4-17c4.5 7.9 9.8 16.5 15.6 25.3l3.9 1.9c5.7 2.8 12 5.9 18.7 9.2 55.5 27.5 139.3 68.9 210.5 68.9 0.3 0 0.6 0 0.9 0l21.6-0.1-100.2 105c4.7 4.1 8.8 7.5 12.3 10zM482.2 405.9l-73.4 89.5c37.5 21.3 134.1 50.7 192.8 54.6-36.8-37.8-84.5-94.2-119.4-144.1zM627.5 549.8l71.2-74.7c-67.4-6-140.1-40.8-191.9-66.4 37.6 51.5 86.7 108.2 120.5 141.1 0.1 0 0.2 0 0.2 0zM614.2 590.9l2.1 18.3c-99 11.3-241.3-53-266.5-70.9l10.7-15c23.2 16.4 161.1 78.2 253.7 67.6z" />
<glyph unicode="&#xe91f;" glyph-name="plane" d="M873.3 538.6c-5.6 20.5-58 22.3-79.1 15.2-76.6-25.5-153.2-51-229.8-76.4l-266 106.2-28.1-29.9 113.9-136.7c-73.4-25.4-207.7-72.2-232.1-80.3-21-7 135.7-29.2 171.6-23.3 0 0 275.9 90 397.9 130.6 31.4 10.4 62.7 20.9 94.1 31.3 21 7 63.7 41 57.6 63.3z" />
<glyph unicode="&#xe920;" glyph-name="plans" d="M169.4 339.5h148.6v-142.8h-148.6v142.8zM702.4 515.2h152.3v-142.8h-152.3v142.8zM350.9 699.3h142.8v-151.1h-142.8v151.1zM169.4 515.2h148.6v-142.8h-148.6v142.8zM169.4 699.3h148.6v-151.1h-148.6v151.1zM702.4 339.5h152.3v-142.8h-152.3v142.8zM350.9 515.2h142.8v-142.8h-142.8v142.8zM526.6 699.3h142.8v-151.1h-142.8v151.1zM526.6 339.5h142.8v-142.8h-142.8v142.8zM526.6 515.2h142.8v-142.8h-142.8v142.8zM350.9 339.5h142.8v-142.8h-142.8v142.8zM702.4 699.3h152.3v-151.1h-152.3v151.1z" />
<glyph unicode="&#xe921;" glyph-name="play-2" d="M512 918.1c-259.2 0-470-210.9-470-470.1s210.8-470 470-470 470 210.8 470 470c0 259.2-210.8 470.1-470 470.1zM512 78c-204.3 0-370 165.6-370 370s165.7 370 370 370c204.3 0 370-165.6 370-370.1 0.1-204.3-165.6-369.9-370-369.9zM417.3 602.1c-8.3 8.4-29.6 8.4-29.6 0v-339.7c0-8.4 21.3-8.4 29.7 0l278.8 154.7c8.3 8.3 8.5 21.9 0.2 30.2l-279.1 154.8z" />
<glyph unicode="&#xe922;" glyph-name="play" d="M434.7 294.8l238.7 154.6-238.7 154.5zM512 790.9c-189.4 0-342.9-153.5-342.9-342.9s153.5-342.9 342.9-342.9 342.9 153.5 342.9 342.9-153.5 342.9-342.9 342.9zM512 173.7c-151.5 0-274.3 122.8-274.3 274.3s122.8 274.3 274.3 274.3 274.3-122.8 274.3-274.3c0-151.5-122.8-274.3-274.3-274.3z" />
<glyph unicode="&#xe923;" glyph-name="print" d="M311.6 748.6h400.8v-114.5h-400.8v114.5zM168.5 603.6v-254h143.1v-202.1h400.8v202.1h143.1v254h-687zM655.1 204.7h-286.2v200.4h286.2v-200.4zM769.6 462.3c-23.7 0-42.9 19.2-42.9 42.9s19.2 42.9 42.9 42.9 42.9-19.2 42.9-42.9-19.1-42.9-42.9-42.9z" />
<glyph unicode="&#xe924;" glyph-name="road" d="M389.8 227.1h-51.7l121.7 441.8h15.9zM488.5 227.1h-51.7l53.3 441.8h15.9zM587.2 227.1h-51.7l-15 441.8h15.8zM685.9 227.1h-51.7l-83.4 441.8h15.9z" />
<glyph unicode="&#xe925;" glyph-name="scroll" d="M285.7 611.4v0-326.8c0-125.1 101.3-226.4 226.3-226.4s226.3 101.3 226.3 226.4v326.8c0 125.1-101.3 226.4-226.3 226.4s-226.3-101.4-226.3-226.4v0zM235.4 611.4c0 152.8 123.8 276.6 276.6 276.6s276.6-123.8 276.6-276.7v-326.8c0-152.7-123.8-276.5-276.6-276.5s-276.6 123.8-276.6 276.7v326.7zM486.9 686.8c0 13.9 11.2 25.3 25.1 25.3s25.1-11.3 25.1-25.3v-100.4c0-13.9-11.2-25.3-25.1-25.3s-25.1 11.3-25.1 25.3v100.4z" />
<glyph unicode="&#xe926;" glyph-name="sharp" d="M350.1 397.8l19.6 98h-94.1v106.5h115.5l27.7 138.1h109.8l-27.9-138.1h84.7l27.7 138.1h109.4l-27.6-138.1h53.5v-106.5h-74.7l-19.6-98h94.3v-106.5h-115.7l-27.1-135.8h-109.8l27.2 135.9h-85l-27.4-135.8h-109l27.2 135.8h-53.1v106.4c0 0 74.4 0 74.4 0zM459.4 397.8h84.9l19.7 98h-84.8l-19.8-98z" />
<glyph unicode="&#xe927;" glyph-name="shopping-2" d="M415.5 508.6c0 36.1 0 72.2 0 108.3 0 2.7 0.1 5.3 0.3 8 0.1 2.2 0.4 4.4 0.6 6.6-0.8-7 0.4 1.7 0.7 3.4 0.8 4.2 1.9 8.4 3.2 12.5 0.6 2 1.4 4 2.1 6 0.4 1 0.8 2 1.2 2.9-2.4-5.9-0.4-1.1 0.2 0.2 1.8 3.8 3.8 7.5 6 11.1 1.1 1.8 2.2 3.5 3.4 5.3 0.6 0.9 1.2 1.7 1.8 2.6 3 4.2-2-2.4 0.1 0.2 5.4 6.8 11.6 12.9 18.4 18.4 3.1 2.5-3.8-2.9-0.6-0.5 0.8 0.6 1.7 1.2 2.5 1.8 1.7 1.2 3.5 2.3 5.2 3.5 3.8 2.4 7.9 4.6 12 6.5 1 0.5 1.9 0.9 2.9 1.3-5.6-2.5-2-0.8-0.7-0.3 2 0.8 4 1.5 6 2.2 4.4 1.5 8.9 2.6 13.5 3.6 2.1 0.4 4.3 0.8 6.4 1.1-6.9-1 0.8 0 2.5 0.1 4.8 0.4 9.7 0.4 14.5 0.2 2.2-0.1 4.4-0.3 6.6-0.5 1.4-0.1 5.4-0.7-0.8 0.2 1.1-0.1 2.2-0.3 3.2-0.5 4.6-0.8 9.1-1.9 13.6-3.2 2-0.6 4.1-1.3 6.1-2 1.5-0.5 8.5-3.5 2.2-0.8 4.2-1.8 8.2-3.9 12.2-6.2 3.6-2.1 7.1-4.4 10.5-6.9 3.2-2.3-3.7 2.9-0.6 0.5 0.8-0.6 1.6-1.3 2.4-2 1.9-1.6 3.7-3.2 5.4-4.9 3-2.9 5.8-5.9 8.5-9.1 0.7-0.8 1.3-1.6 2-2.4 2.5-3.1-2.9 3.8-0.5 0.6 1.5-1.9 2.8-4 4.2-6 2.3-3.5 4.4-7.2 6.3-10.9 1-1.9 1.8-3.8 2.7-5.7-2.8 6.2 0.6-1.6 1.1-3.2 1.4-4 2.6-8.2 3.6-12.3 0.5-2.1 0.9-4.2 1.3-6.4 0.2-1.1 0.3-2.1 0.5-3.2-1 6.6-0.2 1.2 0-0.3 0.4-4.2 0.5-8.5 0.5-12.8 0-8 0-16.1 0-24.1 0-27.6 0-55.1 0-82.7 0-10.6 8.9-19.5 19.5-19.5s19.5 8.9 19.5 19.5c0 36.1 0 72.2 0 108.3 0 37.9-16.3 75.1-44.5 100.5-15.1 13.5-32.9 23.5-52.2 29.4-20.3 6.2-41.6 6.7-62.4 3.4-38.6-6.1-73.2-31.5-93-64.8-10.6-17.8-16.2-37.8-18-58.3-0.6-7.1-0.4-14.2-0.4-21.3 0-32.4 0-64.8 0-97.2 0-10.6 8.9-19.5 19.5-19.5s18.8 8.7 18.8 19.3v0zM668.5 569.1v-63.9c0-22.8-18.4-41.3-41.2-41.3-11.4 0-21.6 4.6-29.1 12.1s-12.3 17.8-12.3 29.2v63.9h-148.6v-63.9c0-22.8-18.4-41.3-41.2-41.3-11.4 0-21.6 4.6-29.1 12.1s-12.3 17.8-12.3 29.2v63.9h-136.6v-425.2h587.7v425.2h-137.3z" />
<glyph unicode="&#xe928;" glyph-name="shopping" d="M315.6 490.3c0-17.287-14.013-31.3-31.3-31.3s-31.3 14.013-31.3 31.3c0 17.287 14.013 31.3 31.3 31.3s31.3-14.013 31.3-31.3zM877.4 127l-39.9 423.9c-0.6 5.3-4.7 9.4-10.6 9.4h-78v11.7c0 51-41.6 92.6-92.6 92.6-0.6 0-1.8 0-1.8 0-14.4 0-28-3.4-40.2-9.3h-84.2v14.2c0 61.9-50.5 112.4-112.4 112.4-0.7 0-2.1 0-2.1 0-61.9 0-112.4-50.5-112.4-112.4v-14.2h-96.7c-6.4 0-12.1-5-12.8-11.4l-47.7-516.3c0-3.6 0.7-7.1 3.6-9.2 2.8-2.1 5.7-4.3 9.2-4.3h708.5c5.9 0 10.6 4.7 10.6 10.6 0.1 0.5 0.1 1.7-0.5 2.3zM656.3 644.1c39.9 0 72.1-32.2 72.1-72.1v-11.7h-146v11.7c0 24.1 11.8 45.3 29.9 58.4h1l1 1.5c11.5 7.7 25.3 12.3 40.3 12.3 0.5-0.1 1.7-0.1 1.7-0.1zM582.8 630.4c-13-16-20.9-36.3-20.9-58.4v-11.7h-30.4v70.1h51.3zM328.1 669.5c0 48.4 39.1 87.5 87.5 87.5 0.7 0 2.1 0 2.1 0 48.4 0 87.5-39.1 87.5-87.5v-14.2h-177.1v14.2zM217.9 629.7h85.3v-72.5c0-7.1 5.7-12.8 12.8-12.8s12.8 5.7 12.8 12.8v73.3h177.1v-70.1h-23.8c-5.3 0-10-4.1-10.6-9.4l-38.2-414.3-260.2 3 44.8 490zM557.6 135.2l-102.8 1.2 36.8 402.8h70.4v-59.8c0-5.9 4.7-10.6 10.6-10.6s10.6 4.7 10.6 10.6v60.4h146v-60.4c0-5.9 4.7-10.6 10.6-10.6s10.6 4.7 10.6 10.6v60.4h69.2l38.1-404.6h-300.1zM596.5 424.3c0-14.249-11.551-25.8-25.8-25.8s-25.8 11.551-25.8 25.8c0 14.249 11.551 25.8 25.8 25.8s25.8-11.551 25.8-25.8zM767.7 424.3c0-14.249-11.551-25.8-25.8-25.8s-25.8 11.551-25.8 25.8c0 14.249 11.551 25.8 25.8 25.8s25.8-11.551 25.8-25.8z" />
<glyph unicode="&#xe929;" glyph-name="starts" d="M764.3 402l-57.8 48.7-64.2-39.9 28.5 70.1-57.8 48.7 75.4-5.4 28.5 70 18.1-73.4 75.5-5.5-64.3-39.9zM213.5 519.9l75.7 1.9 21.5 72.5 25.2-71.4 75.6 1.9-60.1-46 25.2-71.3-62.3 42.9-60-46 21.5 72.5zM579.5 178.1l22.9 72.1-61.6 44 75.7 0.5 22.8 72.1 23.9-71.7 75.7 0.5-60.9-44.9 23.9-71.8-61.5 44.1zM375.1 363.5l25.1-71.4 75.6 1.8-60.1-45.9 25-71.3-62.2 43-60.1-45.9 21.7 72.4-62.3 43 75.6 1.8zM514.2 722.2l22.4-68.8h72.3l-58.5-42.5 22.4-68.8-58.6 42.6-58.5-42.6 22.4 68.8-58.6 42.5h72.4z" />
<glyph unicode="&#xe92a;" glyph-name="text" d="M691.2 848.9h-29.5l-16-14.5-28.7-93 32.2-18.1 24.1 78.5h6.9l95.6-276.7h-88.1v-47.1h104.4l96.4-278.9 31.5 20-213 616.2zM266.5 94.2h-54.5l96.1 283.6h311.3l96.1-283.6h-54.5v-47.1h162.5v47.1h-69.7l-251 740.9-15.8 13.8h-46.4l-15.8-13.7-251-740.9h-69.8v-47.1h162.5v47zM451.7 801.8h24.1l127.6-376.8h-279.4l127.7 376.8z" />
<glyph unicode="&#xe92b;" glyph-name="tunnel" d="M429 346.7v103.8c0 42.2 34.2 76.4 76.5 76.4 42.2 0 76.3-34.2 76.3-76.4v-103.8c0 0-152.8 0-152.8 0zM511 692.2c111 0 201-90 201-201v-259.2h57.2l-0.2 259.2c0 142.4-115.7 257.9-258.1 257.9s-257.9-115.5-257.9-257.9l-0.2-259.3 57.2 0.1v259.2c0 111 90 201 201 201zM521 324.5h-31.2l-3.8-21.8h39l-4 21.8zM530.6 269.3h-50.2l-5.8-32.7h61.5l-5.5 32.7zM543.7 192.6h-76.5l-7.3-43.7h91.5l-7.7 43.7z" />
<glyph unicode="&#xe92c;" glyph-name="winner" d="M659.4 358.5c21.3-39.5 52.7-124.6 151-171.2 0 0-8.1-38.5-96.3-33.4l-31.4-71.9c0 0-106.4 36.5-174.3 160.1-64.8-118.5-154-159.1-154-159.1l-29.3 81c-68.9-19.2-111.5 18.2-111.5 18.2 107.4 59.8 130.7 145.9 142.9 176.3 7.1-36.5 60.8-57.8 96.3-41.5 29.4-27.4 74-30.4 106.4 0 36.5-16.2 83.1 3 99.3 41.5-0.1 0 0.9 0 0.9 0zM270.3 547c-7.1 11.1-8.1 38.5 0 49.7 6.1 9.1 64.8 6.1 77 6.1-12.2 5.1-64.8 22.3-67.9 34.5-6.1 27.4 19.2 55.7 37.5 53.7 4.1 0 48.6-26.3 54.7-29.4-9.1 10.1-51.7 48.6-48.6 59.8 2 17.2 26.3 35.5 41.5 35.5 6.1 0 42.6-40.5 52.7-50.7-6.1 12.2-31.4 64.8-24.3 75 7.1 11.1 28.4 18.2 40.5 18.2 14.2 0 36.5-54.7 41.5-67.9 0 13.2-3 69.9 7.1 77 11.1 7.1 38.5 8.1 49.6 0 10.1-6.1 7.1-64.8 7.1-76 5.1 11.1 27.4 66.9 40.5 66.9 14.2 0 31.4-5.1 41.5-18.2 7.1-9.1-19.2-62.8-23.3-71.9 7.1 7.1 44.6 47.6 50.7 47.6 20.3 0 37.5-16.2 43.6-35.5 4-11.1-42.6-50.7-49.7-59.8 5.1 3 49.7 29.4 55.7 29.4 15.2 0 38.5-18.2 36.5-51.7-1-12.2-54.7-31.4-66.9-36.5 13.2 0 70.9 3 76-6.1 8.1-11.1 8.1-38.5 0-49.7-5.1-11.1-63.8-8.1-75-8.1 10.1-5.1 63.8-23.3 65.9-34.5 5.1-26.4-21.3-53.7-36.5-53.7-6.1 0-48.6 25.3-54.7 28.4 7.1-7.1 52.7-46.6 48.6-56.7-4.1-18.2-26.4-37.5-43.6-37.5-6.1 0-42.6 42.6-49.6 49.6 4.1-11.1 28.4-63.8 22.3-71.9-7.1-11.1-28.4-20.3-41.5-20.3s-33.4 57.8-39.5 67.9c0-10.1 1-68.9-8.1-75-12.2-8.1-38.5-8.1-49.6 0-9.1 6.1-7.1 63.8-7.1 76-5.1-12.2-27.4-68.9-41.5-68.9-18.2 0-28.4 6.1-40.5 20.3-7.1 8.1 16.2 60.8 22.3 71.9-10.1-9.1-44.6-49.6-50.7-49.6-14.2 0-39.5 20.3-42.6 37.5-2 10.1 39.5 49.6 48.6 57.8-6.1-3-52.7-30.4-56.7-30.4-16.2 0-37.5 29.4-33.4 55.7 2 11.1 54.7 28.4 64.8 33.4-10 0-67.8-3.1-74.9 8.1zM348.4 571.3c0-86.1 71.9-157.1 159.1-157.1 86.1 0 156 70.9 156 157.1 0 87.1-69.9 158.1-156 158.1-87.2 0-159.1-71-159.1-158.1zM384.8 571.3c0 67.9 54.7 121.6 122.6 121.6 66.9 0 119.6-53.7 119.6-121.6 0-66.9-52.7-120.6-119.6-120.6-67.9 0-122.6 53.7-122.6 120.6z" />
<glyph unicode="&#xe92d;" glyph-name="write" d="M464.7 459.8h-94.6v-23.7h94.6v23.7zM370.1 341.6h212.9v23.7h-212.9v-23.7zM689.4 649l-165.6-153.7 35.5-35.5h-47.3v47.3l165.6 153.7-11.8 23.7-37.9-35.5h-352.4l-23.7-23.7v-425.7l23.7-23.7h402.1l23.7 23.7v376.1l35.5 37.8-35.6 35.5h-11.8zM677.6 211.5l-11.8-11.8h-378.5l-11.8 11.8v402.1l11.8 11.8h315.2l-114.2-106.4v-82.8h82.8l106.4 114.1v-338.8zM724.9 720h-23.7l-23.7-23.7 71-71 23.7 23.7v23.7l-47.3 47.3zM370.1 388.9h212.9v23.7h-212.9v-23.7z" />
<glyph unicode="&#xe92e;" glyph-name="zoom" d="M311.9 538.5c0-159.7 129.3-289 289-289s289 129.3 289 289-129.2 289.9-288.9 289.9-289.1-130.1-289.1-289.9zM360.9 538.5c0 132.7 107.3 240 240 240s240-107.3 240-240-107.3-240-240-240c-131.8 0-240 108.2-240 240zM140.3 74.5v0c8.5-9.3 22.8-9.3 32.1 0l213.8 213.8-32.1 32.1-213.8-213.7c-8.4-8.5-8.4-22.9 0-32.2zM453.9 538.5c0-13.5 11-24.5 24.5-24.5h98v-97.2c0-13.5 11-24.5 24.5-24.5s24.5 11 24.5 24.5v98h98c13.5 0 24.5 11 24.5 24.5s-11 24.5-24.5 24.5h-98v98c0 13.5-11 24.5-24.5 24.5s-24.5-11-24.5-24.5v-98.8h-98c-13.5 0-24.5-10.1-24.5-24.5z" />
<glyph unicode="&#xe92f;" glyph-name="facebook" d="M577 53.7v394.3h116.7l15.5 136h-132.2l0.2 68c0 35.4 3.6 54.4 58.2 54.4h72.9v135.9h-116.6c-140.1 0-189.5-65.9-189.5-176.8v-81.6h-87.4v-135.9h87.4v-394.4h174.8z" />
<glyph unicode="&#xe930;" glyph-name="youtube" d="M918.9 744.6h-813.8c-6.6 0-12-5.4-12-12v-569.2c0-6.6 5.4-12 12-12h813.8c6.6 0 12 5.4 12 12v569.2c0 6.6-5.4 12-12 12zM412.7 293.5v309l238.7-154.5-238.7-154.5z" />
<glyph unicode="&#xe931;" glyph-name="twitter" d="M1016 726.4c-36.8-16-76.8-27.2-118.4-32 43.2 25.6 75.2 65.6 91.2 113.6-40-24-84.8-40-131.2-49.6-38.4 40-92.8 65.6-150.4 65.6-113.6 0-206.4-92.8-206.4-206.4 0-16 1.6-32 4.8-46.4-172.8 8-324.8 89.6-427.2 214.4-17.6-30.4-28.8-65.6-28.8-104 0-72 36.8-134.4 91.2-171.2-33.6 0-65.6 9.6-92.8 25.6 0 0 0-1.6 0-1.6 0-100.8 72-184 164.8-203.2-17.6-4.8-35.2-6.4-54.4-6.4-12.8 0-27.2 0-38.4 3.2 27.2-81.6 102.4-142.4 193.6-144-70.4-54.4-160-88-256-88-17.6 0-33.6 0-49.6 3.2 91.2-59.2 200-92.8 316.8-92.8 380.8 0 588.8 315.2 588.8 588.8 0 9.6 0 17.6 0 27.2 40 25.6 73.6 62.4 102.4 104z" />
<glyph unicode="&#xe932;" glyph-name="difference" d="M816.4 712.1v11.9h-29.8v29.8h-11.9v-29.8h-23.8v29.8h-11.9v-29.8h-23.8v29.8h-11.9v-29.8h-23.8v29.8h-11.9v-29.8h-23.8v29.8h-11.9v-29.8h-23.8v29.8h-11.9v-29.8h-23.8v29.8h-11.9v-29.8h-29.8v-11.9h29.8v-23.8h-29.8v-11.9h29.8v-23.8h-29.8v-11.9h29.8v-23.8h-29.8v-11.9h29.8v-24h-29.8v-12h29.8v-23.8h-29.8v-11.9h29.8v-23.8h-29.8v-11.9h29.8v-29.8h11.9v29.8h23.8v-29.8h11.9v29.8h23.8v-29.8h11.9v29.8h23.8v-29.8h11.9v29.8h23.8v-29.8h11.9v29.8h23.8v-29.8h11.9v29.8h23.8v-29.8h11.9v29.8h29.8v11.9h-29.8v23.8h29.8v11.9h-29.8v23.8h29.8v12h-29.8v23.8h29.8v11.9h-29.8v23.8h29.8v11.9h-29.8v23.8h29.8v11.9h-29.8v23.8h29.8zM739 712.1v-23.8h-23.8v23.8h23.8zM667.4 604.8v-23.8h-23.8v23.8h23.8zM643.6 616.7v23.8h23.8v-23.8h-23.8zM679.4 604.8h23.8v-23.8h-23.8v23.8zM679.4 616.7v23.8h23.8v-23.8h-23.8zM679.4 652.5v23.8h23.8v-23.8h-23.8zM667.4 652.5h-23.8v23.8h23.8v-23.8zM631.7 652.5h-23.8v23.8h23.8v-23.8zM631.7 640.6v-23.8h-23.8v23.8h23.8zM631.7 604.8v-23.8h-23.8v23.8h23.8zM631.7 569v-23.8h-23.8v23.8h23.8zM643.6 569h23.8v-23.8h-23.8v23.8zM679.4 569h23.8v-23.8h-23.8v23.8zM715.1 569h23.9v-23.8h-23.8v23.8zM715.1 581v23.8h23.9v-23.8h-23.9zM715.1 616.7v23.8h23.9v-23.8h-23.9zM715.1 652.5v23.8h23.9v-23.8h-23.9zM703.2 712.1v-23.8h-23.8v23.8h23.8zM667.4 712.1v-23.8h-23.8v23.8h23.8zM631.7 712.1v-23.8h-23.8v23.8h23.8zM572.1 712.1h23.8v-23.8h-23.8v23.8zM572.1 676.3h23.8v-23.8h-23.8v23.8zM572.1 640.6h23.8v-23.8h-23.8v23.8zM572.1 604.8h23.8v-23.8h-23.8v23.8zM572.1 569h23.8v-23.8h-23.8v23.8zM572.1 509.4v23.8h23.8v-23.8h-23.8zM607.8 509.4v23.8h23.8v-23.8h-23.8zM643.6 509.4v23.8h23.8v-23.8h-23.8zM679.4 509.4v23.8h23.8v-23.8h-23.8zM715.1 509.4v23.8h23.9v-23.8h-23.9zM774.7 509.4h-23.8v23.8h23.8v-23.8zM774.7 545.2h-23.8v23.8h23.8v-23.8zM774.7 581h-23.8v23.8h23.8v-23.8zM774.7 616.7h-23.8v23.8h23.8v-23.8zM774.7 652.5h-23.8v23.8h23.8v-23.8zM774.7 688.2h-23.8v23.8h23.8v-23.8zM433.5 406.9v26.1h-11.9v-26.1l-65.5 32.7-65.5-32.7v26.1h-11.9v-26.1l-71.4 35.7v-295.4h11.9v26.1l65.5-32.7 65.5 32.7v-26.1h11.9v26.1l65.5-32.7 65.5 32.7v-26.1h11.9v295.4l-71.5-35.7zM493 222.3l-59.5-29.8v22.5l59.5 29.8v-22.5zM350.2 293.8l-59.6-29.8v22.4l59.5 29.8v-22.4zM362.1 316.2l59.5-29.8v-22.4l-59.5 29.8v22.4zM362.1 329.5v22.4l59.5-29.8v-22.4l-59.5 29.8zM350.2 329.5l-59.5-29.8v22.4l59.5 29.8v-22.4zM290.6 250.7l59.5 29.8v-22.5l-59.5-29.8v22.5zM362.1 280.4l59.5-29.8v-22.4l-59.5 29.8v22.4zM421.6 335.4l-59.5 29.8v22.4l59.5-29.8v-22.4zM350.2 365.2l-59.5-29.8v22.4l59.5 29.8v-22.4zM278.7 335.4l-59.5 29.8v22.4l59.5-29.8v-22.4zM278.7 322.1v-22.4l-59.5 29.8v22.4l59.5-29.8zM278.7 286.4v-22.4l-59.5 29.8v22.4l59.5-29.8zM278.7 250.7v-22.4l-59.5 29.7v22.4l59.5-29.7zM219.2 244.7l59.5-29.8v-22.4l-59.5 29.8c0 0 0 22.4 0 22.4zM290.6 215l59.5 29.8v-22.4l-59.5-29.8v22.4zM362.1 244.7l59.5-29.8v-22.4l-59.5 29.8v22.4zM493 258l-59.5-29.8v22.4l59.5 29.8v-22.4zM493 293.8l-59.5-29.8v22.4l59.5 29.8v-22.4zM493 329.5l-59.5-29.8v22.4l59.5 29.8v-22.4zM493 365.2l-59.5-29.8v22.4l59.5 29.8v-22.4zM493 423.3v-22.4l-59.5-29.8v22.4l59.5 29.8zM421.6 371.1l-59.5 29.8v22.4l59.5-29.8v-22.4zM350.2 423.3v-22.4l-59.5-29.8v22.4l59.5 29.8zM278.7 393.6v-22.4l-59.5 29.8v22.4l59.5-29.8zM219.2 209l59.5-29.8v-22.4l-59.5 29.8c0 0 0 22.4 0 22.4zM290.6 156.8v22.4l59.5 29.8v-22.4l-59.5-29.8zM362.1 209l59.5-29.8v-22.4l-59.5 29.8v22.4zM433.5 156.8v22.4l59.5 29.8v-22.4l-59.5-29.8zM427.5 755.5l-71.4-35.7-71.3 35.7-71.4-35.7v-35.7l71.4 35.7 71.3-35.7 71.4 35.7 71.3-35.7v35.7zM356.1 648.4l-71.3 35.7-71.4-35.7v-35.7l71.4 35.7 71.3-35.7 71.4 35.7 71.3-35.7v35.7l-71.3 35.7zM356.1 577.1l-71.3 35.6-71.4-35.6v-35.7l71.4 35.7 71.3-35.7 71.4 35.7 71.3-35.7v35.7l-71.3 35.6zM356.1 505.7l-71.3 35.7-71.4-35.7v-35.7l71.4 35.7 71.3-35.7 71.4 35.7 71.3-35.7v35.7l-71.3 35.7zM602.8 406.9c0-19.661-15.939-35.6-35.6-35.6s-35.6 15.939-35.6 35.6c0 19.661 15.939 35.6 35.6 35.6s35.6-15.939 35.6-35.6zM709.8 406.9c0-19.661-15.939-35.6-35.6-35.6s-35.6 15.939-35.6 35.6c0 19.661 15.939 35.6 35.6 35.6s35.6-15.939 35.6-35.6zM816.7 406.9c0-19.661-15.939-35.6-35.6-35.6s-35.6 15.939-35.6 35.6c0 19.661 15.939 35.6 35.6 35.6s35.6-15.939 35.6-35.6zM602.8 300c0-19.661-15.939-35.6-35.6-35.6s-35.6 15.939-35.6 35.6c0 19.661 15.939 35.6 35.6 35.6s35.6-15.939 35.6-35.6zM709.8 300c0-19.661-15.939-35.6-35.6-35.6s-35.6 15.939-35.6 35.6c0 19.661 15.939 35.6 35.6 35.6s35.6-15.939 35.6-35.6zM816.7 300c0-19.661-15.939-35.6-35.6-35.6s-35.6 15.939-35.6 35.6c0 19.661 15.939 35.6 35.6 35.6s35.6-15.939 35.6-35.6zM602.8 193.1c0-19.661-15.939-35.6-35.6-35.6s-35.6 15.939-35.6 35.6c0 19.661 15.939 35.6 35.6 35.6s35.6-15.939 35.6-35.6zM709.8 193.1c0-19.661-15.939-35.6-35.6-35.6s-35.6 15.939-35.6 35.6c0 19.661 15.939 35.6 35.6 35.6s35.6-15.939 35.6-35.6zM816.7 193.1c0-19.661-15.939-35.6-35.6-35.6s-35.6 15.939-35.6 35.6c0 19.661 15.939 35.6 35.6 35.6s35.6-15.939 35.6-35.6z" />
<glyph unicode="&#xe933;" glyph-name="check" d="M856.8 743.5l-475.2-474.9-214.6 214.5c-25.4 25.4-66.7 25.4-92 0-25.4-25.4-25.4-66.7 0-92l260.7-260.7c12.7-12.7 29.4-19.2 46.1-19.2s33.5 6.5 46.1 19.2l521.1 521.1c25.4 25.4 25.4 66.7 0 92-25.6 25.7-66.8 25.7-92.2 0z" />
<glyph unicode="&#xe934;" glyph-name="close" d="M797.1 876.2l142.6-142.6-286.3-286.2 285.1-285.1-142.5-142.5-285.1 285.1-284-284-142.6 142.6 284 284-285.1 285 142.6 142.6 285.1-285.1 286.2 286.2z" />
<glyph unicode="&#xe935;" glyph-name="world" d="M762.88 580.096l32.768 5.12 23.552-6.144 9.216 15.36-55.296 28.672-17.408-29.696zM738.304 849.408c0 0 0 0 0 0-10.24 6.144-20.48 11.264-30.72 16.384 0 0-1.024 0-1.024 0-10.24 5.12-21.504 9.216-31.744 13.312 0 0-1.024 0-1.024 0-5.12 2.048-10.24 4.096-16.384 5.12 0 0-1.024 0-1.024 0-5.12 2.048-10.24 3.072-16.384 5.12 0 0 0 0 0 0-5.12 2.048-11.264 3.072-16.384 4.096-1.024 0-2.048 0-2.048 1.024-6.144 3.072-12.288 4.096-17.408 5.12v0c-5.12 1.024-11.264 2.048-16.384 3.072-1.024 0-2.048 0-3.072 0-5.12 1.024-11.264 2.048-16.384 2.048-1.024 0-2.048 0-3.072 0-5.12 1.024-10.24 1.024-15.36 1.024-1.024 0-2.048 0-2.048 0-5.12 0-11.264 1.024-16.384 1.024-1.024 0-2.048 0-4.096 0-5.12 0-11.264 0-16.384 0-4.096 0-8.192 0-12.288 0-1.024 0-2.048 0-3.072 0-3.072 0-5.12 0-8.192 0-2.048 0-3.072 0-5.12 0s-4.096 0-7.168 0c-2.048 0-4.096 0-5.12 0-2.048 0-4.096 0-6.144 0s-4.096 0-6.144-1.024c-2.048 0-3.072 0-5.12-1.024-2.048 0-4.096-1.024-7.168-1.024-2.048 0-3.072 0-4.096-1.024-2.048 0-5.12-1.024-7.168-1.024-1.024 0-3.072 0-4.096-1.024-2.048 0-5.12-1.024-7.168-1.024-1.024 0-3.072 0-4.096-1.024-2.048 0-5.12-1.024-7.168-2.048-1.024 0-2.048 0-3.072-1.024-3.072-1.024-5.12-1.024-8.192-2.048-1.024 0-2.048 0-3.072-1.024-3.072-1.024-5.12-1.024-8.192-2.048-1.024 0-2.048-1.024-3.072-1.024-3.072-1.024-5.12-2.048-8.192-2.048-1.024 0-2.048 0-3.072-1.024-3.072-1.024-5.12-2.048-8.192-3.072-1.024 0-1.024 0-2.048-1.024-3.072-1.024-6.144-2.048-8.192-3.072-1.024 0-1.024 0-2.048-1.024-3.072 2.048-6.144 1.024-8.192 0-1.024 0-1.024 0-2.048-1.024-3.072-1.024-6.144-2.048-9.216-4.096 0 0-1.024 0-1.024-1.024-3.072-1.024-6.144-3.072-9.216-4.096 0 0-1.024 0-1.024-1.024-3.072-1.024-6.144-3.072-9.216-4.096 0 0-1.024 0-1.024 0-3.072-1.024-6.144-3.072-9.216-4.096 0 0-1.024 0-1.024 0-3.072-1.024-6.144-3.072-9.216-5.12 0 0 0 0-1.024 0-3.072-2.048-6.144-3.072-9.216-5.12 0 0 0 0 0 0-3.072-2.048-6.144-4.096-9.216-5.12 0 0 0 0 0 0-3.072-2.048-6.144-4.096-9.216-6.144v0c-3.072-2.048-6.144-4.096-9.216-6.144 0 0 0 0 0 0-3.072-2.048-6.144-4.096-9.216-6.144v0c-3.072-2.048-6.144-4.096-9.216-6.144v0c-3.072-2.048-6.144-4.096-9.216-7.168v0c-3.072-2.048-6.144-4.096-8.192-7.168v0c-3.072-2.048-5.12-4.096-8.192-7.168v0c-3.072-2.048-5.12-5.12-8.192-7.168v0c-3.072-2.048-5.12-5.12-8.192-7.168 0 0 0 0 0 0-3.072-2.048-5.12-5.12-8.192-7.168 0 0 0 0 0 0v0c-37.888-37.888-68.608-80.896-92.16-130.048 0-1.024-1.024-1.024-1.024-2.048-1.024-3.072-3.072-6.144-4.096-9.216 0-1.024-1.024-2.048-1.024-3.072-1.024-3.072-2.048-6.144-4.096-9.216 0-1.024-1.024-2.048-1.024-3.072-1.024-3.072-2.048-6.144-4.096-9.216 0-1.024-1.024-1.024-1.024-2.048-2.048-8.192-5.12-16.384-7.168-24.576 0-1.024 0-2.048-1.024-2.048-1.024-3.072-2.048-6.144-3.072-9.216 0-1.024-1.024-2.048-1.024-4.096-1.024-3.072-1.024-6.144-2.048-8.192 0-1.024-1.024-3.072-1.024-4.096-1.024-3.072-1.024-6.144-2.048-8.192 0-2.048 0-3.072 0-5.12-1.024-3.072-1.024-7.168-2.048-10.24 0-1.024 0-1.024 0-2.048-1.024-4.096-1.024-8.192-2.048-12.288 0-1.024 0-2.048 0-2.048 0-3.072-1.024-7.168-1.024-10.24 0-1.024 0-3.072 0-4.096 0-3.072-1.024-5.12-1.024-8.192 0-2.048 0-3.072 0-5.12 0-3.072 0-5.12-1.024-8.192 0-2.048 0-3.072 0-5.12 0-3.072 0-6.144 0-9.216 0-1.024 0-3.072 0-4.096 0-4.096 0-8.192 0-13.312 0-254.976 205.824-460.8 460.8-460.8s460.8 205.824 460.8 460.8c-3.072 172.032-97.28 322.56-237.568 401.408zM880.64 627.2l-29.696-16.384 11.264-29.696-5.12-20.48 29.696-2.048-5.12 32.768-11.264 16.384 13.312 5.12v6.144c17.408-37.888 29.696-78.848 34.816-120.832l-31.744 6.144-18.432 15.36-9.216-5.12 13.312-31.744 21.504 10.24 27.648-20.48-81.92-49.152-41.984 82.944-9.216-1.024 43.008-99.328 41.984 19.456-13.312-46.080-41.984-37.888 6.144-56.32-23.552-18.432-43.008-81.92-44.032-8.192-37.888 92.16 9.216 41.984-23.552 73.728-80.896-5.12-45.056 44.032 8.192 71.68 44.032 53.248 84.992 14.336 5.12-22.528 33.792-22.528 13.312 18.432 52.224-13.312 13.312 8.192 6.144 19.456-35.84 6.144-11.264 20.48-10.24 4.096-7.168-25.6-16.384 20.48 1.024 17.408-20.48 16.384-12.288 6.144 1.024-17.408 26.624-18.432-14.336-16.384-19.456 25.6-13.312 16.384-31.744-16.384-22.528-35.84-34.816 7.168-2.048 41.984 44.032-3.072-14.336 22.528-9.216 18.432 32.768 10.24 18.432 24.576 15.36 1.024-3.072 14.336 9.216 12.288 7.168-21.504 41.984-1.024 11.264 29.696 16.384-5.12-5.12 20.48 24.576 8.192-8.192 9.216-22.528-6.144-8.192 19.456h-1.024l1.024 1.024-2.048 8.192 9.216 6.144 7.168 17.408c60.416-39.936 109.568-96.256 142.336-161.792zM834.56 237.056l1.024 43.008 28.672 22.528 4.096-21.504-17.408-51.2-16.384 7.168zM486.4 828.928l14.336-28.672-19.456-37.888-1.024-19.456-19.456-12.288-2.048-51.2-28.672 7.168-55.296 145.408c30.72 11.264 63.488 18.432 97.28 22.528l14.336-25.6zM732.16 793.088h-2.048l-13.312-17.408-12.288-25.6 13.312-14.336-13.312-33.792-19.456-7.168-11.264 33.792-22.528-12.288-10.24 6.144 1.024 32.768 19.456 15.36 16.384 39.936 12.288 6.144c14.336-7.168 28.672-14.336 41.984-23.552zM585.728 708.096h-19.456l1.024 20.48 16.384 19.456-1.024 15.36 17.408 12.288 28.672-55.296-7.168-12.288-27.648-13.312v38.912l-8.192-25.6zM279.552 784.896l29.696 3.072v-63.488l-50.176-10.24-10.24-26.624 49.152-52.224 12.288 2.048 8.192 65.536 31.744 2.048 13.312-36.864 16.384 10.24 36.864-81.92-52.224-23.552-39.936-22.528-31.744-44.032v-21.504l-12.288-2.048-8.192 23.552-45.056-7.168-10.24-28.672 11.264-17.408 17.408 15.36 16.384-2.048-8.192-23.552 20.48-1.024 6.144-25.6 13.312-4.096 10.24 16.384 67.584-7.168 45.056-33.792 7.168-26.624 58.368-28.672-33.792-68.608-33.792-5.12-5.12-26.624-68.608-58.368-31.744-60.416 23.552-25.6-27.648 7.168c-4.096 2.048-8.192 5.12-12.288 8.192l-11.264 28.672 38.912 155.648-31.744 28.672-16.384 60.416 18.432 29.696-16.384-2.048-23.552 29.696-20.48 10.24-47.104 16.384-37.888 59.392-23.552 44.032v8.192c27.648 87.040 83.968 161.792 157.696 212.992z" />
<glyph unicode="&#xe936;" glyph-name="ad" d="M516.4 640.7c-20.5 31.8-45.1 49.2-68.7 48.2v0l-12.3-2c-87.1-12.3-120.9-53.3-160.9-114.8-18.4-27.7-85.1-54.3-122-59.4l-37.9-5.1c-28.7-4.1-48.2-31.8-44.1-61.5l11.3-75.8c4.1-29.7 30.7-51.2 59.4-47.1l16.4 2 13.3-95.3c3.1-19.5 21.5-32.8 41-30.7l49.2 7.2c19.5 3.1 33.8 21.5 30.7 41l-10.2 72.8c12.3-4.1 22.5-8.2 28.7-14.3 56.4-47.1 99.4-77.9 186.5-65.6l12.3 2c2 0 3.1 1 5.1 2v-71.7h177.3v144.2h-124c4.1 17.4 7.2 36.9 9.2 58.4h117.9v145.6h-131.1c-5.1 20.5-10.2 41-16.4 58.4h147.6v145.5h-178.3v-84zM541 701.2h130.2v-98.4h-130.2v98.4zM260.1 229.7l-50.2-7.2c-6.1-1-13.3 3.1-13.3 10.2l-13.3 95.3c20.5 2 49.2 1 75.8-3.1l11.3-82c1-6-4.1-12.2-10.3-13.2zM176.1 351.7l-37.9-5.1c-15.4-2-29.7 10.2-31.8 26.6l-11.3 75.8c-2 17.4 8.2 32.8 23.6 34.8l37.9 5.1c36.9 5.1 114.8 32.8 138.4 69.7 30.7 47.1 54.3 78.9 105.6 95.3-8.2-14.3-14.3-32.8-19.5-53.3-8.2-41-9.2-93.3-1-149.6 12.3-87.1 42-156.8 76.9-189.6-13.3 0-24.6 2-34.8 5.1-33.8 9.2-60.5 29.7-93.3 57.4-33.9 27.8-115.9 32.9-152.8 27.8zM670.1 194.8h-129.1v65.6c7.2 8.2 13.3 19.5 19.5 32.8h110.7v-98.4h-1.1zM670.1 398.8h-93.3c0 24.6-2 51.2-5.1 78.9-1 6.1-2 12.3-3.1 18.4h102.5v-97.4h-1zM516.4 270.7c-2-2-5.1-3.1-7.2-4.1-2-1-4.1-1-5.1-2-33.8-5.1-83 71.7-100.4 189.6-10.2 71.7-5.1 132.2 9.2 169.1 9.2 24.6 20.5 38.9 33.8 41 21.5 3.1 48.2-25.6 69.7-75.8l4.1-10.2c11.3-28.7 20.5-63.5 26.6-103.5 12.3-88.1 3.1-159.9-19.5-191.7-2-3.2-5.1-7.3-11.2-12.4zM737.8 724.7h216.3v-23.6h-216.3v23.6zM737.8 664.3h125v-23.6h-125v23.6zM737.8 602.8h185.5v-23.6h-185.5v23.6zM737.8 520.8h152.7v-23.6h-152.7v23.6zM737.8 460.3h216.3v-23.6h-216.3v23.6zM737.8 398.8h152.7v-23.6h-152.7v23.6zM737.8 316.8h152.7v-23.6h-152.7v23.6zM737.8 256.3h216.3v-23.6h-216.3v23.6zM737.8 194.8h152.7v-23.6h-152.7v23.6z" />
<glyph unicode="&#xe937;" glyph-name="plus" d="M1016 515.2v-201.6h-404.8v-403.2h-201.6v403.2h-401.6v201.6h401.6v403.2h201.6v-403.2h404.8z" />
<glyph unicode="&#xe938;" glyph-name="minus" d="M8 496h1008v-164.8h-1008v164.8z" />
<glyph unicode="&#xe939;" glyph-name="contact" d="M841.4 369.3c0 53.5-30.7 99.6-75.4 121.5-5.2 136.1-116.4 245.1-254 245.1s-248.8-109-253.9-245.1c-44.6-21.9-75.4-68.1-75.4-121.5 0-67.4 48.3-122.9 112.7-133.9 12.4-2.2 23.4 7.3 23.4 19.7v228.4c0 12.4-11 21.9-23.4 19.7-1.5 0-3.7-0.7-5.1-0.7 9.5 113.4 105.4 202.8 221.8 202.8s212.3-89.3 221.8-203.5c-1.5 0.7-3.7 0.7-5.1 0.7-12.4 2.2-23.4-7.3-23.4-19.7v-227.6c0-9.5 7.3-18.3 16.1-19.7-5.8-20.5-24.9-35.8-48.3-35.8h-55c-4.4 9.5-13.9 16.1-24.9 16.1h-54.2c-15.4 0-27.8-12.4-27.8-27.8s12.4-27.8 27.8-27.8h54.2c11 0 19.7 6.6 24.9 15.4h55c38 0 69.6 27.8 74 64.5 54.7 17.9 94.2 69.2 94.2 129.2z" />
</font>
</defs>
</svg>
