<?xml version="1.0" encoding="utf-8"?>
<!-- Generator: Adobe Illustrator 20.1.0, SVG Export Plug-In . SVG Version: 6.00 Build 0)  -->
<svg version="1.1" id="Layer_1" xmlns="http://www.w3.org/2000/svg" xmlns:xlink="http://www.w3.org/1999/xlink" x="0px" y="0px"
	 viewBox="0 0 217.3 73.2" style="enable-background:new 0 0 217.3 73.2;" xml:space="preserve">
<style type="text/css">
	.st0{fill:#FFFFFF;}
</style>
<title>piyalepasa-logo</title>
<path class="st0" d="M60.6,59c-0.7,0-1.2,0.5-1.2,1.2l0,0c0,0.7,0.5,1.2,1.2,1.2c0,0,0,0,0,0c0.7,0,1.2-0.5,1.2-1.2c0,0,0,0,0,0
	C61.8,59.5,61.2,59,60.6,59 M61.5,62.5h-1.8c-0.2,0-0.3,0.1-0.3,0.3v9.9c0,0.2,0.1,0.3,0.3,0.3h1.8c0.2,0,0.3-0.1,0.3-0.3v-9.9
	C61.8,62.7,61.6,62.5,61.5,62.5"/>
<path class="st0" d="M71.7,62.4c-2.3,0-3.5,1.5-3.5,3c0,1.8,1.6,2.8,2.9,3.3c1,0.4,1.6,0.9,1.6,1.5c-0.1,0.5-0.5,0.9-1,0.9
	c-0.8-0.1-1.5-0.4-2.2-0.8c-0.1,0-0.1-0.1-0.2-0.1c-0.1,0-0.2,0.1-0.3,0.2l-0.7,1.2c-0.1,0.2-0.1,0.3,0.1,0.4
	c0.9,0.8,2.2,1.2,3.4,1.2c1.8,0.1,3.4-1.2,3.6-3.1c0,0,0,0,0-0.1c0-2-1.9-3-3.1-3.4s-1.7-0.9-1.7-1.5c0.1-0.5,0.5-0.8,1-0.8
	c0,0,0,0,0,0c0.8,0.1,1.5,0.4,2.2,0.9c0,0,0.1,0,0.1,0c0.2,0,0.3-0.1,0.4-0.2L75,64c0.1-0.2,0.1-0.4-0.1-0.5
	C74,62.8,72.8,62.4,71.7,62.4"/>
<path class="st0" d="M87.7,62.5h-6.7c-0.2,0-0.3,0.1-0.3,0.3v1.6c0,0.2,0.1,0.3,0.3,0.3l0,0h2.2v8c0,0.2,0.1,0.3,0.3,0.3h1.8
	c0.2,0,0.3-0.1,0.3-0.3v-8h2.2c0.2,0,0.3-0.1,0.3-0.3l0,0v-1.6C87.9,62.7,87.8,62.5,87.7,62.5"/>
<path class="st0" d="M97.2,62.4h-0.2c-0.1,0-0.2,0.1-0.3,0.2l-4.7,10.1c-0.1,0.1,0,0.3,0.1,0.4c0,0,0.1,0,0.1,0H94
	c0.2,0,0.5-0.1,0.5-0.4l0.5-1.2h4.1l0.5,1.2c0.1,0.3,0.3,0.4,0.5,0.4h1.7c0.1,0,0.3-0.1,0.3-0.3c0,0,0-0.1,0-0.1l-4.8-10.1
	C97.4,62.4,97.3,62.4,97.2,62.4 M96,69.4l1.1-2.4l0,0l1.2,2.5L96,69.4z"/>
<path class="st0" d="M108.7,62.4h-0.4c-0.2,0-0.3,0.1-0.3,0.3c0,0,0,0,0,0v10.1c0,0.2,0.1,0.3,0.3,0.3h1.8c0.2,0,0.3-0.1,0.3-0.3
	l0,0v-5.6l0,0l6,6l0.2,0.1h0.2c0.2,0,0.3-0.1,0.3-0.3c0,0,0,0,0,0V62.8c0-0.2-0.1-0.3-0.3-0.3H115c-0.2,0-0.3,0.1-0.3,0.3v5.3l0,0
	L108.7,62.4z"/>
<path class="st0" d="M128,62.5h-3.5c-0.2,0-0.3,0.1-0.3,0.3v9.9c0,0.2,0.1,0.3,0.3,0.3l0,0h3.8c1.7,0.1,3.2-1.2,3.3-2.8
	c0,0,0,0,0-0.1c-0.1-1.1-0.9-2.1-2-2.4c1-0.4,1.6-1.3,1.8-2.4c-0.1-1.7-1.5-2.9-3.2-2.8C128.1,62.5,128.1,62.5,128,62.5 M126.6,66.8
	v-2.1h1.2c0.6,0,1,0.4,1.1,0.9c0,0,0,0,0,0.1c0,0.6-0.5,1.1-1.1,1.1L126.6,66.8z M126.6,70.9v-2.1h1.2c0.6,0,1.2,0.4,1.2,1.1
	c0,0.6-0.5,1.1-1.1,1.1c0,0,0,0,0,0L126.6,70.9z"/>
<path class="st0" d="M146.2,62.5h-1.9c-0.2,0-0.3,0.1-0.3,0.3v6.1c0.1,1-0.7,1.9-1.7,2s-1.9-0.7-2-1.7c0-0.1,0-0.2,0-0.3v-6.1
	c0-0.2-0.1-0.3-0.3-0.3h-1.9c-0.2,0-0.3,0.1-0.3,0.3V69c0.1,2.4,2.1,4.2,4.5,4.1c2.2-0.1,4-1.9,4.1-4.1v-6.2
	C146.5,62.7,146.4,62.5,146.2,62.5"/>
<path class="st0" d="M155.6,62.5h-1.8c-0.2,0-0.3,0.1-0.3,0.3v9.9c0,0.2,0.1,0.3,0.3,0.3h5.7c0.2,0,0.3-0.1,0.3-0.3v-1.6
	c0-0.2-0.1-0.3-0.3-0.3h-3.6v-8C155.8,62.7,155.7,62.6,155.6,62.5"/>
<path class="st0" d="M25.5,0c-5.1-0.2-10.1,1.8-13.8,5.4C9.9,7.2,8.5,9.5,7.8,12c-0.9,3.8,0.4,7,3.3,9.6c0.8,0.8,1.7,1.4,2.5,2.1
	C12.8,25,1.2,44.2,0.7,44.9c-0.8,1.2-1,2.4-0.2,3.6c0.5,0.7,1.1,1.3,1.7,1.9c0.2,0.2,0.4,0.3,0.7,0.3c0.4,0,0.7-0.3,0.8-0.7
	c0.5-1,8.7-14.8,9-15.4c0.2-0.5,0.7-0.8,1.2-0.8h0.1c0.8,0,1.6,0.1,2.4,0.1c2.1,0,4.2-0.1,6.3-0.4c4.8-0.5,9.4-2.3,13.3-5.2
	c3.3-2.5,5.8-6,6.8-10.1c0.9-3.7,0.1-7.5-2.3-10.5c-3.1-4.5-8.1-7.3-13.6-7.6C26.6,0,26,0,25.5,0 M14.9,21.7
	c-1.4-0.9-2.4-2.2-2.8-3.9c-0.4-2,0.1-4.1,1.2-5.8c1.3-2.3,3.1-4.3,5.3-5.9c2.6-1.9,5.9-3,9.1-2.9h1c2.9,0,5.7,1.2,7.7,3.4
	c2,2.3,2.7,5.5,2,8.5c-0.8,3.4-2.6,6.4-5.2,8.7c-2.3,2.1-4.9,3.8-7.8,4.9c-3.1,1.3-6.5,2-9.8,1.9h-0.2c2.7-4.4,11.3-18,11.3-18
	c0.9-1,1-2.4,0.2-3.4c-0.5-0.7-1-1.3-1.7-1.8c-0.2-0.2-0.4-0.3-0.7-0.3c-0.4,0-0.7,0.3-0.8,0.6L14.9,21.7 M118,1.9
	c-0.4,0-0.7,0.3-0.8,0.6c-1.1,1.8-15.3,24.5-16.6,26.4c-0.9,1.4-2,2.7-3.1,4c-1.5,1.9-3.2,3.5-5.2,4.9c-0.2,0.2-0.5,0.3-0.8,0.3
	c-0.3,0-0.5-0.1-0.7-0.3c-0.9-0.8,0-2.9,0.4-3.6c1.5-2.5,2.8-4.8,4.4-7.2l1.3-1.7c0.3-0.4,0.3-1,0-1.5c-0.4-0.5-0.8-0.9-1.3-1.2
	c-0.3-0.2-0.6-0.2-0.9-0.2h-0.2c0-0.4,0-0.9-0.2-1.3c-0.2-0.3-3.3-3.2-5.7-3.2h-0.4c-2.4,0.3-6,4.2-6,4.2l0,0
	c-0.6,0.6-1.1,1.3-1.7,2c-1.6,2.1-2.9,4.4-4.5,6.5c-2.1,3.1-4.9,5.6-8.1,7.3l-2.7,1.3c0.4-0.8,0.8-1.7,1.3-2.4l9.3-15
	c0.6-0.9,0.6-1.7-0.2-2.3c-0.7-0.5-1.5-1-2.3-1.3C73.4,18,73.2,18,73,18c-0.4,0-0.8,0.3-1,0.6c-2.1,3-4.2,5.9-6.2,8.9
	c-2.2,3.2-4.1,6-7.1,8.5c-0.7,0.7-1.6,1.2-2.5,1.4c-0.1,0-0.2,0-0.3-0.1c-0.7-0.3,0.3-2.7,0.7-3.4l8.2-12.4c0.6-0.9,0.6-1.6-0.1-2.2
	c-0.7-0.5-1.4-1-2.2-1.3C62.4,18,62.2,18,62,18c-0.4,0-0.8,0.3-1,0.6c-1.4,2-7.8,11-8.8,12.3c-1.8,2.4-4,4.4-6.5,6.1
	c-0.5,0.3-1,0.4-1.6,0.5c-0.1,0-0.3,0-0.4-0.1c-0.4-0.2-1.4-1.6,3.2-8.7c1.3-2,2.8-3.9,4.1-5.8c0.2-0.3,0.3-0.7,0.2-1
	c-0.2-1.1-0.9-2.1-1.8-2.7c-0.2-0.2-0.5-0.3-0.8-0.3c-0.3,0-0.6,0.2-0.8,0.4c-2.2,2.9-4.4,5.6-6.4,8.6c-1,1.4-1.7,3-2.1,4.7
	c-0.5,2,0.3,3.8,1.5,5.4c0.7,1.1,1.6,1.9,2.8,2.4c0.5,0.2,1,0.2,1.5,0.2c1.5-0.1,2.9-0.6,4-1.5c1-0.7,2-1.5,3-2.3
	c0.8,2.1,2.7,3.6,5,3.7c0.3,0,0.6,0,0.9-0.1c-0.1,0.2-0.2,0.4-0.3,0.6c-3.3,5.1-6.1,9.5-6.6,10.2c-0.9,0.9-1,2.4-0.3,3.5
	c0.5,0.7,1,1.3,1.6,1.8c0.2,0.2,0.4,0.3,0.7,0.3c0.4,0,0.7-0.3,0.8-0.6c0.5-0.8,3.8-6.1,7.2-11.5l0,0c0.3-0.5,0.8-0.8,1.3-1
	c1.5-0.7,3.6-1.3,5.1-2c1.8-0.8,3.7-1.7,5.4-2.7c1-0.6,1.9-1.3,2.8-2.1c0.7,0.8,1.4,1.6,2.1,2.4c0.9,0.9,2,1.4,3.2,1.4
	c0.6,0,1.3-0.2,1.8-0.5c1.6-1,3.1-2.3,4.5-3.6c0.1,2.3,2.1,4.1,4.4,4.1c0.4,0,0.7,0,1.1-0.1c1.7-0.4,3.2-1.2,4.5-2.4
	c0.7-0.6,1.4-1.3,1.9-1.7c0.6,1.1,1.4,2.1,2.2,3.1c0.8,0.8,1.9,1.2,3,1.2c1.1,0,2.1-0.4,3-0.9c1.7-1,3.3-2.2,4.8-3.4
	c1.7,2.6,4.7,4.1,7.8,4c1.9,0,3.7-0.4,5.5-1l0.5-0.1c-3.5,5.2-6.4,9.6-6.8,10.3c-0.9,1-1,2.4-0.2,3.5c0.5,0.7,1,1.3,1.6,1.8
	c0.2,0.2,0.4,0.3,0.7,0.3c0.4,0,0.7-0.3,0.8-0.6c0.7-1.2,6.2-10,10.1-16.2c0.7,0.9,1.7,1.6,2.8,1.9c0.4,0.1,0.9,0.2,1.4,0.2
	c1.5-0.1,3-0.6,4.3-1.4c3.2-1.9,6-4.5,8-7.7c1.3-1.8,2.3-3.9,3-6l0,0c0.1-0.5,0.3-1,0.4-1.5c0.6-3.3-2.7-5.1-4.8-5.9
	c-0.5-0.2-1.1-0.3-1.6-0.3c-0.9,0-1.8,0.2-2.7,0.6c-0.2,0.1-0.4,0.1-0.6,0.2c-0.1,0-0.2,0-0.2-0.1c-0.4-0.4-0.9-0.7-1.5-0.9l0,0
	c-0.4,0-1.1,1.2-1.1,1.2s-1.4,2.3-3,4.9c-1.3,2-3,4.6-4.8,7.4l0,0c-1.6,2-3.5,3.2-6.1,4.8c-1.9,1.2-4,1.9-6.2,2.1h-0.4
	c-2,0-2.7-0.7-2.7-2.7c0.1-1.1,0.2-2.2,0.4-3.3c0.4,0.3,0.7,0.5,0.9,0.6c0.7,0.7,1.7,1.1,2.7,1.2c0.2,0,0.4,0,0.7-0.1
	c0.9-0.2,1.7-0.5,2.5-0.9c3.6-2.1,6.3-5.7,7.2-9.8c0.2-0.8,0.2-1.6-0.1-2.3c-0.9-1.8-2.4-3.2-4.3-3.9c-0.5-0.2-1-0.3-1.5-0.3
	c-1.3,0.1-2.5,0.6-3.5,1.4c-3.2,2.5-5.8,5.7-7.5,9.5c-0.4,1.1-0.9,2.2-1.6,3.3c-1.1,1.5-2.4,2.9-3.7,4.2c-1.1,1.3-2.6,2.4-4.2,3
	c-0.2,0.1-0.4,0.1-0.6,0.1c-1,0-2.1-0.8-0.5-3.8c1.2-2.4,15.6-25,16.7-26.7c0.9-0.9,1-2.4,0.3-3.4c-0.5-0.7-1-1.3-1.6-1.8
	C118.5,2,118.2,1.9,118,1.9 M118.7,30.6c-0.1,0-0.2,0-0.3-0.1c-0.6-0.5,0.7-3.2,3-5.9c2-2.4,4.1-4,5-4c0.1,0,0.2,0,0.3,0.1
	c0.6,0.5-0.7,3.2-3,5.9C121.7,29,119.6,30.6,118.7,30.6 M135.5,37.3c-0.1,0-0.3,0-0.4-0.1c-1-0.8,0.8-5,4.1-9.4
	c3-3.9,6.1-6.7,7.5-6.7c0.1,0,0.3,0,0.4,0.1c1,0.8-0.8,5-4.1,9.4C140,34.6,136.9,37.3,135.5,37.3 M79.6,37.3c-0.1,0-0.3,0-0.4-0.1
	c-1-0.8,0.8-5,4.1-9.4c3-3.9,6.1-6.7,7.5-6.7c0.1,0,0.3,0,0.4,0.1c1,0.8-0.8,5-4.1,9.4C84.1,34.5,81,37.3,79.6,37.3 M56.3,9.2
	c-0.4,0-0.7,0.1-1.1,0.2c-1.6,0.6-2.6,2.1-2.7,3.8c-0.1,1.4,1,2.6,2.4,2.6c0,0,0,0,0,0c0.1,0,0.3,0,0.4,0c1.8-0.3,3.1-1.7,3.3-3.5
	c0.3-1.3-0.5-2.7-1.8-3C56.7,9.3,56.5,9.2,56.3,9.2 M188.9,16.8c-1.5,0-5,0.3-7,3.2c-0.2,0.3-8.7,12.1-12.3,15.5
	c-0.9,0.9-1.9,1.6-2.9,2.3c-0.2,0.2-0.5,0.2-0.7,0.3c-0.5,0-0.8-0.4-0.8-1.2c0.1-0.9,0.3-1.8,0.6-2.7c1.4-2.7,2.9-5.2,4.7-7.7
	l1.3-1.7c0.3-0.4,0.3-1,0-1.5c-0.4-0.5-0.8-0.9-1.3-1.2c-0.3-0.2-0.6-0.2-0.9-0.2h-0.1c0-0.4,0-0.9-0.2-1.3
	c-0.2-0.3-3.3-3.1-5.6-3.1h-0.4c-2.4,0.3-5.9,4.2-5.9,4.2c-3.1,3-5.4,6.8-6.8,10.9c-1,3.1,0.5,6.4,3.5,7.6c0.7,0.3,1.4,0.4,2.1,0.4
	h0.4c1.8-0.1,3.1-1.3,4.3-2.4c0.5-0.5,0.9-1,1.5-1.5c0.1,0.5,0.1,0.8,0.2,1c0.4,1.7,2,3,3.8,3c0.2,0,0.4,0,0.6,0
	c1-0.1,1.9-0.4,2.8-0.9c0.9-0.5,1.8-1.1,2.6-1.7l0,0l0.9-0.7c0.8,1,1.7,1.9,2.8,2.7l0,0c0.3,1.2,0.2,2.4-0.2,3.5
	c-0.1,0.2-0.3,0.8-0.8,0.8l0,0c-0.2,0-0.3-0.1-0.4-0.2c-0.4-0.6-0.7-1.4-0.6-2.1c0-0.7-0.2-0.9-0.2-0.9c-1.1,0.1-2,0.7-2.7,1.5
	c-0.4,0.5-0.5,1.1-0.4,1.8c0.3,2.3,2.4,2.6,3.6,2.6h0.4c1.8,0,3.6-0.8,4.8-2.1c1-1.1,0-3-0.2-3.6l-0.1-0.2c0.8,0.1,1.6,0.2,2.4,0.2
	h0.2c3.3-0.3,4.8-1.5,4.9-4.6c0-0.5,0.2-4.6,0.1-6.9c0-0.1-0.2-2.7-0.2-3.2c-0.3-3.4,0.3-4.5,0.8-5.4c0.1-0.2,0.5-1,1.1-1l0,0
	c0.2,0,0.4,0.1,0.6,0.3c0.5,0.9,0.7,2,0.5,3c-0.1,1,0.1,1.2,0.2,1.3c1.5,0,2.9-0.6,3.9-1.6c0.6-0.6,0.9-1.5,0.9-2.3
	c0-3.5-3.5-4.1-5-4.1C189.5,16.9,189.2,16.9,188.9,16.8 M154.2,37.3c-0.1,0-0.3,0-0.4-0.1c-1-0.8,0.8-5,4.1-9.4
	c3-3.9,6.1-6.7,7.5-6.7c0.1,0,0.3,0,0.4,0.1c1,0.8-0.8,5-4.1,9.4C158.7,34.6,155.6,37.3,154.2,37.3 M179.1,38.6h-0.3
	c-0.1,0-0.2,0-0.3-0.1h-0.1l-0.2-0.1l-0.1-0.1l-0.1-0.1l-0.1-0.2c-0.3-0.4-0.6-0.9-0.8-1.4l-0.1-0.2c-0.3-0.6-0.7-1.7-0.7-1.7
	s5.4-7.5,6.4-8.8c-0.1,1.4-0.3,4.4-0.5,6c-0.2,1.3-0.4,2.6-0.6,3.9c-0.1,0.7-0.4,1.3-0.8,1.9c-0.3,0.5-0.8,0.8-1.4,0.9L179.1,38.6
	 M203.2,17.3c-0.2,0-0.3,0-0.5,0c-2.4,0.4-5.7,4.4-5.7,4.4c-2.4,2.6-4.3,5.6-5.7,8.9c-0.5,1.1-0.8,2.2-1,3.3c-0.3,2.7,1,5.3,3.4,6.5
	c0.7,0.4,1.5,0.6,2.3,0.6c1.4-0.1,2.8-0.7,3.8-1.7c0.9-0.8,1.7-1.6,2.6-2.5l0.2,0.6c0.3,1.7,1.8,3,3.5,3.1c0.2,0,0.4,0,0.6,0
	c1.2,0,2.3-0.4,3.3-1c2.9-1.9,5.3-4.5,6.8-7.5c0.7-1.1,0.6-2.6-0.3-3.6c-0.3-0.4-0.5-0.5-0.8-0.5s-0.5,0.2-0.8,0.6
	c-1.7,2.3-3.5,4.5-5.3,6.7c-0.7,0.9-1.6,1.7-2.5,2.3c-0.3,0.2-0.6,0.3-0.9,0.3c-0.6,0-1-0.4-1-1c0-0.9,0.2-1.8,0.5-2.7
	c1.4-3,3-5.8,4.9-8.5l0.9-1.3c0.3-0.5,0.3-1-0.1-1.5c-0.4-0.5-0.8-0.9-1.4-1.2c-0.2-0.1-0.5-0.2-0.7-0.2h-0.3c0-0.4-0.1-0.9-0.3-1.3
	C208.6,19.9,205.5,17.3,203.2,17.3 M194.4,38.4c-0.1,0-0.3,0-0.4-0.1c-1.1-0.7,0.5-5,3.6-9.6c2.8-4.1,5.8-7.1,7.1-7.1
	c0.1,0,0.3,0,0.4,0.1c1.1,0.7-0.5,5-3.6,9.6C198.8,35.4,195.8,38.4,194.4,38.4 M202.4,66.6h-36.3c-0.2,0-0.3,0.1-0.3,0.3v1.8
	c0,0.2,0.1,0.3,0.3,0.3h36.2c0.2,0,0.3-0.1,0.3-0.3v-1.8C202.6,66.7,202.5,66.6,202.4,66.6 M51.2,66.6H14.9c-0.2,0-0.3,0.1-0.3,0.3
	v1.8c0,0.2,0.1,0.3,0.3,0.3h36.2c0.2,0,0.3-0.1,0.3-0.3v-1.8C51.5,66.7,51.3,66.6,51.2,66.6"/>
</svg>
