<svg id="Layer_1" data-name="Layer 1" xmlns="http://www.w3.org/2000/svg" viewBox="0 0 217.27 73.21"><defs><style>.cls-1{fill:#5f6060;}.cls-2{fill:#732031;}</style></defs><title>piyalepasa-logo</title><path class="cls-1" d="M60.56,59a1.2,1.2,0,0,0-1.2,1.2,1.18,1.18,0,0,0,1.2,1.19,1.2,1.2,0,0,0,1.21-1.19A1.21,1.21,0,0,0,60.56,59m.91,3.5H59.66a.3.3,0,0,0-.29.28v9.95a.3.3,0,0,0,.29.29h1.82a.3.3,0,0,0,.29-.29V62.82a.3.3,0,0,0-.29-.28"/><path class="cls-1" d="M71.71,62.39c-2.33,0-3.5,1.5-3.5,3,0,1.8,1.63,2.81,2.94,3.32,1,.4,1.56.89,1.56,1.52a1,1,0,0,1-1,.9,4.58,4.58,0,0,1-2.15-.82.4.4,0,0,0-.22-.06.34.34,0,0,0-.3.15l-.71,1.25c-.12.21-.08.27.08.42a4.83,4.83,0,0,0,3.41,1.15,3.32,3.32,0,0,0,3.57-3.11c0-2-1.88-3-3.06-3.43s-1.65-.9-1.65-1.46a.88.88,0,0,1,1-.77,4.72,4.72,0,0,1,2.16.9.2.2,0,0,0,.12,0,.53.53,0,0,0,.4-.23L75,64a.38.38,0,0,0-.09-.48,5.66,5.66,0,0,0-3.24-1.12"/><path class="cls-1" d="M87.65,62.54H80.93a.29.29,0,0,0-.29.28v1.64a.29.29,0,0,0,.29.29h2.17v8a.3.3,0,0,0,.29.29H85.2a.3.3,0,0,0,.29-.29v-8h2.17a.29.29,0,0,0,.29-.29V62.82a.29.29,0,0,0-.29-.28"/><path class="cls-1" d="M97.23,62.39h-.15a.3.3,0,0,0-.26.17L92.08,72.67a.27.27,0,0,0,.26.39H94a.56.56,0,0,0,.54-.36l.54-1.2h4.12l.54,1.19c.14.28.26.38.53.38H102a.27.27,0,0,0,.26-.39L97.48,62.55a.3.3,0,0,0-.26-.17M96,69.45,97.13,67h0l1.15,2.48Z"/><path class="cls-1" d="M108.65,62.39h-.38a.28.28,0,0,0-.29.27V72.77a.3.3,0,0,0,.29.29h1.8a.29.29,0,0,0,.29-.29v-5.6h0l6,6,.2.08h.24a.28.28,0,0,0,.29-.27V62.82a.3.3,0,0,0-.29-.28H115a.29.29,0,0,0-.29.28v5.34h0Z"/><path class="cls-1" d="M128,62.54h-3.53a.29.29,0,0,0-.29.28v9.95a.29.29,0,0,0,.29.29h3.76a3.08,3.08,0,0,0,3.3-2.9,2.85,2.85,0,0,0-2-2.45,3,3,0,0,0,1.76-2.37,3,3,0,0,0-3.26-2.8m-1.45,4.27V64.7h1.18a1,1,0,0,1,1.06,1,1.08,1.08,0,0,1-1.06,1.08Zm0,4.1V68.76h1.23a1.21,1.21,0,0,1,1.24,1.05,1.09,1.09,0,0,1-1.09,1.1Z"/><path class="cls-1" d="M146.22,62.54h-1.86a.29.29,0,0,0-.29.28v6.08a1.88,1.88,0,1,1-3.75,0V62.82a.29.29,0,0,0-.29-.28h-1.86a.3.3,0,0,0-.29.28V69a4.32,4.32,0,0,0,8.63,0V62.82a.3.3,0,0,0-.29-.28"/><path class="cls-1" d="M155.57,62.54h-1.8a.29.29,0,0,0-.29.28v9.95a.29.29,0,0,0,.29.29h5.69a.29.29,0,0,0,.29-.29V71.13a.29.29,0,0,0-.29-.29h-3.6v-8a.3.3,0,0,0-.29-.28"/><path class="cls-2" d="M25.51,0A18.72,18.72,0,0,0,11.76,5.42,13.73,13.73,0,0,0,7.85,12c-.89,3.82.43,7,3.25,9.58.81.75,1.69,1.42,2.53,2.13C12.77,25,1.18,44.15.72,44.87c-.79,1.22-1,2.4-.16,3.62a10.33,10.33,0,0,0,1.75,1.88,1.15,1.15,0,0,0,.71.3A1,1,0,0,0,3.87,50c.54-.95,8.71-14.84,9-15.43a1.26,1.26,0,0,1,1.22-.76h.13q1.2.06,2.39.06a45.26,45.26,0,0,0,6.28-.43,26.88,26.88,0,0,0,13.28-5.25A18.42,18.42,0,0,0,43,18.14,12.12,12.12,0,0,0,40.73,7.65,17.62,17.62,0,0,0,27.13.05Q26.31,0,25.51,0M14.92,21.73a6.16,6.16,0,0,1-2.78-3.85,8.06,8.06,0,0,1,1.17-5.79A19.18,19.18,0,0,1,18.6,6.16a14.94,14.94,0,0,1,9.13-2.89l1,0a10.19,10.19,0,0,1,7.68,3.39,9.49,9.49,0,0,1,2,8.48,16.47,16.47,0,0,1-5.21,8.69,25.07,25.07,0,0,1-7.75,4.91,24.15,24.15,0,0,1-9.84,1.93h-.2c2.7-4.36,11.29-18,11.29-18a2.79,2.79,0,0,0,.25-3.45A9.86,9.86,0,0,0,25.28,7.4a1.08,1.08,0,0,0-.69-.3,1,1,0,0,0-.81.57L14.92,21.73M118,1.86a1,1,0,0,0-.81.57c-1.1,1.79-15.35,24.48-16.62,26.36a38.86,38.86,0,0,1-3.1,4,22.51,22.51,0,0,1-5.22,4.88,1.62,1.62,0,0,1-.8.28,1,1,0,0,1-.7-.29c-.86-.78,0-2.86.41-3.59,1.48-2.49,2.83-4.81,4.42-7.17l1.27-1.72a1.27,1.27,0,0,0,0-1.48,5.4,5.4,0,0,0-1.32-1.24,1.35,1.35,0,0,0-.87-.21H94.5a2.92,2.92,0,0,0-.22-1.3c-.24-.34-3.29-3.17-5.65-3.17l-.36,0c-2.4.32-6,4.22-6,4.22h0a24.87,24.87,0,0,0-1.67,2c-1.6,2.1-2.9,4.41-4.46,6.54A22,22,0,0,1,68,37.81l-2.67,1.26a15.62,15.62,0,0,1,1.27-2.43l9.34-15c.57-.92.59-1.67-.16-2.28a11.74,11.74,0,0,0-2.26-1.32A1.21,1.21,0,0,0,73,18a1.27,1.27,0,0,0-1,.65c-2.07,3-4.18,5.94-6.23,8.95-2.19,3.2-4.11,6-7.09,8.54a5.36,5.36,0,0,1-2.49,1.38.67.67,0,0,1-.29-.06c-.66-.32.31-2.67.72-3.38l8.2-12.42c.58-.87.62-1.6-.1-2.21a11.29,11.29,0,0,0-2.16-1.33,1.15,1.15,0,0,0-.53-.14,1.24,1.24,0,0,0-1,.61c-1.44,2-7.84,11-8.84,12.3A27.21,27.21,0,0,1,45.7,37a3.35,3.35,0,0,1-1.56.46.78.78,0,0,1-.37-.07c-.36-.21-1.41-1.62,3.24-8.67,1.31-2,2.77-3.88,4.12-5.84a1.46,1.46,0,0,0,.22-1,4.44,4.44,0,0,0-1.8-2.71,1.32,1.32,0,0,0-.75-.28,1,1,0,0,0-.77.43c-2.17,2.85-4.42,5.63-6.44,8.58a15.71,15.71,0,0,0-2.11,4.7c-.54,2,.3,3.81,1.53,5.39A6,6,0,0,0,43.8,40.4a5,5,0,0,0,1.52.24,7.53,7.53,0,0,0,4.05-1.48c1-.68,2-1.52,3-2.29a5.58,5.58,0,0,0,5,3.71,5,5,0,0,0,.91-.08c-.12.18-.23.37-.35.57-3.28,5.13-6.11,9.51-6.58,10.2A2.79,2.79,0,0,0,51,54.72a9.7,9.7,0,0,0,1.62,1.84,1.07,1.07,0,0,0,.69.3,1,1,0,0,0,.81-.57c.52-.84,3.81-6.11,7.18-11.5v0a2.32,2.32,0,0,1,1.31-1c1.49-.65,3.57-1.35,5.05-2,1.84-.83,3.65-1.72,5.4-2.72a25.28,25.28,0,0,0,2.79-2.11A26.29,26.29,0,0,0,78,39.33a4.8,4.8,0,0,0,3.23,1.43,4.08,4.08,0,0,0,1.83-.45,26.14,26.14,0,0,0,4.47-3.64,4.33,4.33,0,0,0,4.37,4.07A4.92,4.92,0,0,0,93,40.63a10.08,10.08,0,0,0,4.49-2.36c.71-.62,1.39-1.26,1.91-1.73a17.63,17.63,0,0,0,2.2,3.07,4.41,4.41,0,0,0,3,1.22,6.27,6.27,0,0,0,3-.9,55,55,0,0,0,4.84-3.41,9.11,9.11,0,0,0,7.8,4,16.92,16.92,0,0,0,5.48-1l.53-.08c-3.47,5.24-6.4,9.64-6.85,10.29a2.79,2.79,0,0,0-.25,3.45A9.7,9.7,0,0,0,120.8,55a1.08,1.08,0,0,0,.69.3,1,1,0,0,0,.81-.57c.7-1.15,6.23-10,10.11-16.18a5.12,5.12,0,0,0,2.8,1.91,5.86,5.86,0,0,0,1.35.16,8.34,8.34,0,0,0,4.27-1.42,24.26,24.26,0,0,0,8-7.7,23.73,23.73,0,0,0,3-6l0,0a13.16,13.16,0,0,0,.36-1.47c.59-3.27-2.7-5.11-4.8-5.9a4.62,4.62,0,0,0-1.64-.29,6.57,6.57,0,0,0-2.66.6,2,2,0,0,1-.63.17c-.09,0-.16,0-.19-.09a3.81,3.81,0,0,0-1.46-.88h0c-.39,0-1.12,1.19-1.12,1.19s-1.36,2.3-3,4.94c-1.32,2-3,4.62-4.81,7.36h0c-1.55,2-3.54,3.24-6.09,4.75a13.73,13.73,0,0,1-6.25,2.09h-.36c-2,0-2.71-.73-2.74-2.67a25.58,25.58,0,0,1,.37-3.27c.4.28.66.45.9.63a4.54,4.54,0,0,0,2.65,1.19,2.71,2.71,0,0,0,.65-.08,9.74,9.74,0,0,0,2.48-.92,15.43,15.43,0,0,0,7.21-9.81,3.59,3.59,0,0,0-.14-2.33,8.3,8.3,0,0,0-4.26-3.91,3.72,3.72,0,0,0-1.53-.33,6.11,6.11,0,0,0-3.49,1.44,25.26,25.26,0,0,0-7.53,9.46,21.88,21.88,0,0,1-1.55,3.3,40.24,40.24,0,0,1-3.67,4.15,10.79,10.79,0,0,1-4.18,3,2,2,0,0,1-.61.1c-1,0-2.14-.82-.48-3.8C104.44,31.72,118.87,9.13,120,7.45A2.79,2.79,0,0,0,120.28,4a9.76,9.76,0,0,0-1.62-1.84,1.08,1.08,0,0,0-.69-.3m.77,28.78a.47.47,0,0,1-.31-.1c-.64-.54.71-3.18,3-5.88,2-2.37,4.13-4,5-4a.47.47,0,0,1,.31.1c.64.54-.71,3.18-3,5.88-2,2.38-4.13,4-5,4m16.79,6.68a.69.69,0,0,1-.42-.12c-1-.78.79-5,4.1-9.37,3-3.93,6.08-6.69,7.47-6.69a.7.7,0,0,1,.42.12c1,.78-.79,5-4.1,9.37-3,3.92-6.08,6.68-7.47,6.68m-55.93,0a.69.69,0,0,1-.42-.12c-1-.78.79-5,4.1-9.37,3-3.93,6.08-6.69,7.47-6.69a.69.69,0,0,1,.42.12c1,.78-.79,5-4.1,9.37-3,3.92-6.08,6.68-7.47,6.68M56.26,9.19a3.19,3.19,0,0,0-1.07.19,4.29,4.29,0,0,0-2.68,3.8,2.51,2.51,0,0,0,2.44,2.61,2.31,2.31,0,0,0,.38,0,3.93,3.93,0,0,0,3.32-3.51,2.46,2.46,0,0,0-2.39-3.05m132.69,7.6c-1.52,0-5,.3-7,3.18-.18.27-8.72,12.14-12.28,15.55a18.73,18.73,0,0,1-2.93,2.3,1.43,1.43,0,0,1-.74.26c-.5,0-.8-.43-.76-1.17a7.76,7.76,0,0,1,.65-2.65,65,65,0,0,1,4.66-7.68l1.26-1.71a1.27,1.27,0,0,0,0-1.47,5.31,5.31,0,0,0-1.31-1.22,1.33,1.33,0,0,0-.86-.21h-.14a2.88,2.88,0,0,0-.22-1.29c-.24-.34-3.26-3.15-5.61-3.15l-.36,0c-2.39.32-5.85,4.18-5.85,4.18a27,27,0,0,0-6.75,10.92,6.13,6.13,0,0,0,3.48,7.62,5.22,5.22,0,0,0,2.07.4h.42c1.79-.13,3.09-1.27,4.34-2.42.49-.45.91-1,1.46-1.54.1.48.14.77.21,1a4,4,0,0,0,3.78,3,3.91,3.91,0,0,0,.61,0,9,9,0,0,0,2.84-.9,24.63,24.63,0,0,0,2.61-1.74v0l.92-.65a12.22,12.22,0,0,0,2.82,2.67h0a5.77,5.77,0,0,1-.23,3.47c-.08.19-.31.79-.78.82h0a.59.59,0,0,1-.4-.17,3.31,3.31,0,0,1-.61-2.12c0-.74-.19-.9-.24-.91a4.18,4.18,0,0,0-2.73,1.49,2.5,2.5,0,0,0-.45,1.76c.27,2.3,2.35,2.64,3.55,2.64h.39A6.85,6.85,0,0,0,179.6,45c1-1.11,0-3-.25-3.56l-.09-.18a14.05,14.05,0,0,0,2.4.23h.18c3.34-.3,4.75-1.53,4.9-4.58,0-.48.19-4.62.06-6.86,0-.1-.18-2.69-.22-3.19-.26-3.39.27-4.49.78-5.45.13-.25.53-1,1.14-1h0a.79.79,0,0,1,.57.29,4.51,4.51,0,0,1,.52,3c-.11,1,.13,1.25.2,1.27a5.72,5.72,0,0,0,3.92-1.64,3.41,3.41,0,0,0,.86-2.33c0-3.54-3.48-4.07-5-4.14-.1,0-.35,0-.69,0M154.21,37.32a.69.69,0,0,1-.42-.12c-1-.78.79-5,4.1-9.37,3-3.93,6.08-6.69,7.47-6.69a.7.7,0,0,1,.42.12c1,.78-.79,5-4.1,9.37-3,3.92-6.08,6.68-7.47,6.68m24.89,1.25h-.26a1.52,1.52,0,0,1-.3-.08l-.09,0-.23-.14-.11-.08-.13-.13-.14-.15a8,8,0,0,1-.83-1.42l-.1-.2c-.26-.56-.74-1.68-.74-1.68s5.36-7.51,6.45-8.75c-.07,1.36-.29,4.35-.52,6-.19,1.3-.38,2.6-.59,3.89a4.93,4.93,0,0,1-.82,1.86,2,2,0,0,1-1.41.9h-.16m24.07-21.24a2.77,2.77,0,0,0-.48,0c-2.37.41-5.68,4.4-5.68,4.4a30.5,30.5,0,0,0-5.67,8.88,14.49,14.49,0,0,0-1,3.34,6.35,6.35,0,0,0,3.44,6.46,4.59,4.59,0,0,0,2.26.62,6,6,0,0,0,3.82-1.65c.89-.76,1.68-1.62,2.59-2.51l.16.63a3.83,3.83,0,0,0,3.47,3.08,4.85,4.85,0,0,0,.62,0,6.47,6.47,0,0,0,3.3-1,19.18,19.18,0,0,0,6.82-7.54,3.12,3.12,0,0,0-.3-3.62c-.29-.37-.54-.55-.78-.55s-.52.2-.82.6c-1.74,2.26-3.46,4.54-5.3,6.72a12.74,12.74,0,0,1-2.54,2.35,1.52,1.52,0,0,1-.87.29,1,1,0,0,1-1-1,7.86,7.86,0,0,1,.52-2.65,64.75,64.75,0,0,1,4.86-8.54l.89-1.3a1.26,1.26,0,0,0-.06-1.47,5.34,5.34,0,0,0-1.35-1.18,1.12,1.12,0,0,0-.7-.18h-.31a2.88,2.88,0,0,0-.27-1.28c-.25-.33-3.28-2.93-5.61-2.93m-8.78,21.08a.67.67,0,0,1-.38-.1c-1.09-.72.52-5,3.59-9.58,2.77-4.13,5.79-7.08,7.15-7.08a.67.67,0,0,1,.38.1c1.09.72-.52,5-3.59,9.57-2.77,4.13-5.79,7.08-7.15,7.08m8,28.2H166.1a.3.3,0,0,0-.29.29v1.8a.3.3,0,0,0,.29.29h36.24a.3.3,0,0,0,.29-.29V66.9a.3.3,0,0,0-.29-.29m-151.17,0H14.94a.3.3,0,0,0-.29.29v1.8a.3.3,0,0,0,.29.29H51.17a.3.3,0,0,0,.29-.29V66.9a.3.3,0,0,0-.29-.29"/></svg>