<?xml version="1.0" encoding="utf-8"?>
<!-- Generator: Adobe Illustrator 20.1.0, SVG Export Plug-In . SVG Version: 6.00 Build 0)  -->
<svg version="1.1" id="Layer_1" xmlns="http://www.w3.org/2000/svg" xmlns:xlink="http://www.w3.org/1999/xlink" x="0px" y="0px"
	 viewBox="0 0 519.9 62.2" style="enable-background:new 0 0 519.9 62.2;" xml:space="preserve">
<style type="text/css">
	.st0{fill:#00303C;}
</style>
<g>
	<g>
		<g>
			<g>
				<path class="st0" d="M53.4,16.6c0,5.1-1.5,9-4.4,11.7c-3,2.7-6.4,4.4-10.4,5.1c-4,0.8-8.2,1.1-12.6,1.1H22v16.3
					c0,1.8,0.2,3.3,0.6,4.3c0.4,1,1.2,1.8,2.4,2.3c1.2,0.5,3.1,0.8,5.6,0.8v4.2H1.3v-4.2c2.5,0,4.3-0.3,5.5-0.8
					c1.2-0.6,2-1.3,2.3-2.4c0.4-1,0.5-2.4,0.5-4.2V11.4c0-1.8-0.2-3.2-0.5-4.2C8.8,6.3,8,5.5,6.8,4.9S3.8,4.1,1.3,4.1V0
					c0,0,21.2-0.2,31.9,0c3.2,0.1,4.3,0.1,6.7,0.5C51.5,2.4,53.4,11.4,53.4,16.6z M40.1,16.7c0-5-1.4-8.3-4.1-10
					c-2.7-1.7-6.3-2.5-10.7-2.5c-0.8,0-1.9,0-3.4,0.1v25.1h4c4.2,0,7.6-0.8,10.2-2.3C38.8,25.6,40.1,22.1,40.1,16.7z"/>
				<path class="st0" d="M179.7,31.2c0,5.7-1.3,11-3.8,16c-2.5,5-6.3,8.9-11.2,11.9c-4.9,3-10.8,4.5-17.5,4.5
					c-5.5,0-10.4-1-14.5-2.9c-4.2-1.9-7.6-4.5-10.3-7.6c-2.7-3.2-4.6-6.7-5.9-10.5c-1.3-3.8-1.9-7.6-1.9-11.5
					c0-5.6,1.2-10.8,3.7-15.8c2.4-4.9,6.1-8.9,11-12c4.9-3,10.8-4.5,17.6-4.5c6.2,0,11.5,1.1,15.9,3.3c4.4,2.2,7.8,4.9,10.2,8.2
					s4.2,6.8,5.2,10.4C179.2,24.5,179.7,28,179.7,31.2z M165.7,31.1c0-3.5-0.3-6.8-0.8-10c-0.6-3.1-1.5-6-2.9-8.5
					c-1.4-2.5-3.3-4.5-5.8-6c-2.4-1.5-5.5-2.2-9-2.2c-4.9,0-8.8,1.3-11.6,3.9c-2.8,2.6-4.6,5.9-5.6,9.9c-1,3.9-1.5,8.3-1.5,12.9
					c0,2.6,0.2,5.3,0.5,8.1c0.3,2.8,1.1,5.7,2.3,8.6c1.2,2.9,3.1,5.4,5.8,7.4c2.6,2,6.1,3,10.2,3c4.2,0,7.5-1,10.1-3.1
					c2.6-2.1,4.5-4.6,5.7-7.6c1.2-3,1.9-5.9,2.2-8.6C165.6,36.1,165.7,33.5,165.7,31.1z"/>
				<path class="st0" d="M294.5,41.6l-0.4,20.9h-52v-4.2c3.6,0,5.9-0.6,6.9-1.7c1-1.1,1.5-3,1.5-5.7V11.6c0-1.8-0.2-3.2-0.5-4.2
					c-0.3-1-1.1-1.8-2.4-2.3s-3.1-0.8-5.6-0.8V0h29.3v4.2c-2.4,0-4.3,0.3-5.5,0.8c-1.2,0.5-2.1,1.3-2.5,2.3c-0.4,1-0.6,2.4-0.6,4.3
					v35.9c0,2.8,0.1,4.9,0.4,6.1c0.3,1.2,1,2.2,2.1,2.8c1.1,0.6,3,0.9,5.6,0.9c3.3,0,6.2-0.3,8.7-0.8c2.5-0.5,4.8-2,6.9-4.3
					c2.1-2.3,3.4-5.9,3.9-10.7H294.5z"/>
				<path class="st0" d="M408.9,62.5h-27.5v-4.2c2.3,0,4-0.2,5.1-0.5c1.1-0.4,1.6-1.2,1.6-2.5c0-0.9-0.2-1.9-0.5-2.8l-2.8-7.4h-18.9
					l-1.4,4.1c-0.8,2.3-1.2,3.9-1.2,4.9c0,1.8,0.7,3,2,3.5c1.3,0.5,2.9,0.7,4.7,0.7v4.2h-20.1v-4.2c1.6,0,3-0.3,4.1-1
					c1.1-0.6,2.2-1.9,3.2-3.7c1-1.8,2.1-4.3,3.3-7.6l16.1-46h4.1l18.5,47.5c1.3,3.4,2.2,5.8,2.8,7c0.6,1.2,1.4,2.2,2.5,2.8
					c1.1,0.7,2.6,1,4.5,1V62.5z M383.3,40.5l-8-21.8l-7.7,21.8H383.3z"/>
				<path class="st0" d="M519.9,17.7h-4.1c-0.4-3.9-1.2-6.7-2.4-8.6c-1.2-1.8-2.5-3-3.9-3.4c-1.4-0.4-3-0.6-4.9-0.6h-7.4v45.8
					c0,1.8,0.2,3.2,0.5,4.2c0.3,1,1.1,1.8,2.4,2.3c1.3,0.6,3.1,0.8,5.5,0.8v4.2h-29.3v-4.2c3.6,0,5.9-0.6,6.9-1.7
					c1-1.1,1.5-3,1.5-5.7V5.1h-6.2c-2.4,0-4.5,0.2-6.1,0.6c-1.6,0.4-3,1.6-4.2,3.4c-1.2,1.9-1.9,4.7-2.1,8.6h-4.1V0h57.7V17.7z"/>
			</g>
		</g>
	</g>
</g>
</svg>
