<?xml version="1.0" encoding="utf-8"?>
<!-- Generator: Adobe Illustrator 23.0.3, SVG Export Plug-In . SVG Version: 6.00 Build 0)  -->
<svg version="1.1" id="Layer_1" xmlns="http://www.w3.org/2000/svg" xmlns:xlink="http://www.w3.org/1999/xlink" x="0px" y="0px"
	 viewBox="0 0 512 512" style="enable-background:new 0 0 512 512;" xml:space="preserve">
<style type="text/css">
	.st0{fill:#D80027;}
	.st1{fill:#F0F0F0;}
</style>
<circle class="st0" cx="256" cy="256" r="256"/>
<g>
	<polygon class="st1" points="336.1,196.1 363,233.1 406.5,219 379.6,256 406.5,293 363,278.9 336.1,315.9 336.1,270.1 292.6,256 
		336.1,241.9 	"/>
	<path class="st1" d="M262.8,348.5c-51.1,0-92.5-41.4-92.5-92.5s41.4-92.5,92.5-92.5c15.9,0,30.9,4,44,11.1
		c-20.5-20.1-48.6-32.5-79.6-32.5c-62.9,0-113.9,51-113.9,113.9s51,113.9,113.9,113.9c31,0,59.1-12.4,79.6-32.5
		C293.7,344.5,278.8,348.5,262.8,348.5z"/>
</g>
</svg>
