<svg xmlns="http://www.w3.org/2000/svg" width="63.202" height="60.839" viewBox="0 0 63.202 60.839">
  <g id="Group_84" data-name="Group 84" transform="translate(-198.399 -44.85)">
    <path id="Path_78" data-name="Path 78" d="M248.1,104.939V56.488H218.669V79.138" fill="none" stroke="#220728" stroke-linecap="round" stroke-linejoin="round" stroke-width="1.5"/>
    <line id="Line_33" data-name="Line 33" y2="2.931" transform="translate(218.669 102.008)" fill="none" stroke="#220728" stroke-linecap="round" stroke-linejoin="round" stroke-width="1.5"/>
    <path id="Path_79" data-name="Path 79" d="M231.441,104.939V96.582h3.886v8.357" fill="none" stroke="#220728" stroke-linecap="round" stroke-linejoin="round" stroke-width="1.5"/>
    <line id="Line_34" data-name="Line 34" x2="61.702" transform="translate(199.149 104.939)" fill="none" stroke="#220728" stroke-linecap="round" stroke-linejoin="round" stroke-width="1.5"/>
    <path id="Path_80" data-name="Path 80" d="M201.447,92.257a5.407,5.407,0,0,0,5.407,5.407,6.17,6.17,0,0,0,4.093-1.544,4.734,4.734,0,0,0,4.291,2.779,5.2,5.2,0,0,0,1.871-10.063,4.027,4.027,0,0,0-2.794-6.93c-.1,0-.191.007-.286.014a3.1,3.1,0,1,0-5.319-.835,3.445,3.445,0,0,0-3.339,5.977A5.4,5.4,0,0,0,201.447,92.257Z" fill="none" stroke="#220728" stroke-linecap="round" stroke-linejoin="round" stroke-width="1.5"/>
    <line id="Line_35" data-name="Line 35" y1="2.166" x2="4.036" transform="translate(210.941 91.318)" fill="none" stroke="#220728" stroke-linecap="round" stroke-linejoin="round" stroke-width="1.5"/>
    <line id="Line_36" data-name="Line 36" y1="21.785" transform="translate(210.946 83.154)" fill="none" stroke="#220728" stroke-linecap="round" stroke-linejoin="round" stroke-width="1.5"/>
    <path id="Path_81" data-name="Path 81" d="M208.126,85.1l2.82,1.756,3.114-1.756" fill="none" stroke="#220728" stroke-linecap="round" stroke-linejoin="round" stroke-width="1.5"/>
    <line id="Line_37" data-name="Line 37" x1="4.345" y1="1.908" transform="translate(206.596 91.576)" fill="none" stroke="#220728" stroke-linecap="round" stroke-linejoin="round" stroke-width="1.5"/>
    <path id="Path_82" data-name="Path 82" d="M239.442,56.488V51.183H227.326v5.305" fill="none" stroke="#220728" stroke-linecap="round" stroke-linejoin="round" stroke-width="1.5"/>
    <line id="Line_38" data-name="Line 38" y1="5.583" transform="translate(233.384 45.6)" fill="none" stroke="#220728" stroke-linecap="round" stroke-linejoin="round" stroke-width="1.5"/>
    <rect id="Rectangle_173" data-name="Rectangle 173" width="3.886" height="4.678" transform="translate(223.623 70.864)" fill="none" stroke="#220728" stroke-linecap="round" stroke-linejoin="round" stroke-width="1.5"/>
    <rect id="Rectangle_174" data-name="Rectangle 174" width="3.886" height="4.678" transform="translate(231.441 70.864)" fill="none" stroke="#220728" stroke-linecap="round" stroke-linejoin="round" stroke-width="1.5"/>
    <rect id="Rectangle_175" data-name="Rectangle 175" width="3.886" height="4.678" transform="translate(239.26 70.864)" fill="none" stroke="#220728" stroke-linecap="round" stroke-linejoin="round" stroke-width="1.5"/>
    <rect id="Rectangle_176" data-name="Rectangle 176" width="3.886" height="4.678" transform="translate(223.623 79.348)" fill="none" stroke="#220728" stroke-linecap="round" stroke-linejoin="round" stroke-width="1.5"/>
    <rect id="Rectangle_177" data-name="Rectangle 177" width="3.886" height="4.678" transform="translate(231.441 79.348)" fill="none" stroke="#220728" stroke-linecap="round" stroke-linejoin="round" stroke-width="1.5"/>
    <rect id="Rectangle_178" data-name="Rectangle 178" width="3.886" height="4.678" transform="translate(239.26 79.348)" fill="none" stroke="#220728" stroke-linecap="round" stroke-linejoin="round" stroke-width="1.5"/>
    <rect id="Rectangle_179" data-name="Rectangle 179" width="3.886" height="4.678" transform="translate(223.623 87.832)" fill="none" stroke="#220728" stroke-linecap="round" stroke-linejoin="round" stroke-width="1.5"/>
    <rect id="Rectangle_180" data-name="Rectangle 180" width="3.886" height="4.678" transform="translate(231.441 87.832)" fill="none" stroke="#220728" stroke-linecap="round" stroke-linejoin="round" stroke-width="1.5"/>
    <rect id="Rectangle_181" data-name="Rectangle 181" width="3.886" height="4.678" transform="translate(239.26 87.832)" fill="none" stroke="#220728" stroke-linecap="round" stroke-linejoin="round" stroke-width="1.5"/>
    <rect id="Rectangle_182" data-name="Rectangle 182" width="3.886" height="4.678" transform="translate(223.623 62.38)" fill="none" stroke="#220728" stroke-linecap="round" stroke-linejoin="round" stroke-width="1.5"/>
    <rect id="Rectangle_183" data-name="Rectangle 183" width="3.886" height="4.678" transform="translate(231.441 62.38)" fill="none" stroke="#220728" stroke-linecap="round" stroke-linejoin="round" stroke-width="1.5"/>
    <rect id="Rectangle_184" data-name="Rectangle 184" width="3.886" height="4.678" transform="translate(239.26 62.38)" fill="none" stroke="#220728" stroke-linecap="round" stroke-linejoin="round" stroke-width="1.5"/>
  </g>
</svg>
