<svg xmlns="http://www.w3.org/2000/svg" width="34.995" height="33.176" viewBox="0 0 34.995 33.176">
  <g id="Group_111" data-name="Group 111" transform="translate(-232 -228)">
    <path id="Path_91" data-name="Path 91" d="M261.513,260.116a4.764,4.764,0,0,0,6.153.85,5.737,5.737,0,0,1-2.824-4.051,10.859,10.859,0,1,0-3.329,3.2Z" transform="translate(-1.671 -1.551)" fill="none" stroke="#bfa474" stroke-linejoin="round" stroke-width="2"/>
    <path id="Path_92" data-name="Path 92" d="M241.174,248.545a9.921,9.921,0,0,1-2.535-1.1,4.367,4.367,0,0,1-5.64.779,5.24,5.24,0,0,0,2.589-3.712,9.959,9.959,0,1,1,17.87-8.2" transform="translate(0 0)" fill="none" stroke="#bfa474" stroke-linejoin="round" stroke-width="2"/>
  </g>
</svg>
