<svg xmlns="http://www.w3.org/2000/svg" width="27" height="27" viewBox="0 0 68.642 68.642">
  <g id="Group_546" data-name="Group 546" transform="translate(-1327 -1151.358)">
    <g id="Group_545" data-name="Group 545" transform="translate(1332.408 1157.063)">
      <path id="Path_8330" data-name="Path 8330" d="M393.426,592.833c-.018,1.116.407,1.5,1.514,1.565a31.5,31.5,0,0,1,9.247,1.961c1.076.409,1.584.149,2.011-.825a35.594,35.594,0,0,0,2.953-10.944c.157-1.624-.444-2.1-1.982-2.018-1.9.1-3.8.024-5.7.024v.017c-2.138,0-4.278.04-6.415-.016-1.235-.032-1.664.463-1.638,1.682C393.478,587.13,393.472,589.982,393.426,592.833Z" transform="translate(-363.428 -552.907)" fill="#bfa474"/>
      <path id="Path_8331" data-name="Path 8331" d="M395.083,497.673c2.049-.052,4.1-.015,6.152-.012,1.972,0,3.947-.065,5.915.025,1.478.067,2.148-.313,1.979-1.967a36.925,36.925,0,0,0-2.457-9.816c-.438-1.112-1.011-1.095-1.994-.734a30.525,30.525,0,0,1-9.659,2.067c-1.188.034-1.66.539-1.626,1.751.066,2.365.077,4.734,0,7.1C393.346,497.384,393.926,497.7,395.083,497.673Z" transform="translate(-363.405 -470.457)" fill="#bfa474"/>
      <path id="Path_8332" data-name="Path 8332" d="M500.083,582.139a12.5,12.5,0,0,1-2.126-.022c-2.43-.438-3.169.729-3.227,2.966a25.264,25.264,0,0,1-1.755,7.806c-1.635,4.572-1.613,4.523,2.541,7.135,1.139.716,1.742.513,2.524-.453a27.5,27.5,0,0,0,5.995-12.439C505.118,581.134,505.479,582.256,500.083,582.139Z" transform="translate(-446.669 -552.453)" fill="#bfa474"/>
      <path id="Path_8333" data-name="Path 8333" d="M492.975,458.387c-1.139.474-1.257,1.126-.762,2.224a33.978,33.978,0,0,1,2.372,8.163c.778,4.445.749,4.45,5.113,4.451a24.844,24.844,0,0,1,2.843.018c1.879.216,2.265-.536,1.986-2.311a30.852,30.852,0,0,0-4.541-12.34c-2.1-3.205-2.085-3.212-5.381-1.166A11.86,11.86,0,0,1,492.975,458.387Z" transform="translate(-446.644 -446.018)" fill="#bfa474"/>
      <path id="Path_8334" data-name="Path 8334" d="M395,406.014a34.908,34.908,0,0,0,8.961-1.992c.795-.282.863-.723.425-1.422a34.549,34.549,0,0,0-10.908-10.936c0,4.7.027,8.8-.017,12.89C393.446,405.7,393.887,406.1,395,406.014Z" transform="translate(-363.465 -391.663)" fill="#bfa474"/>
      <path id="Path_8335" data-name="Path 8335" d="M403.361,678.023c.9-1.255.509-1.7-.789-2.115a48.737,48.737,0,0,0-7.4-1.532c-1.224-.192-1.771.178-1.723,1.469.058,1.578.014,3.159.015,4.739,0,1.659.047,3.32-.013,4.976-.056,1.529.443,1.618,1.585.805A35.678,35.678,0,0,0,403.361,678.023Z" transform="translate(-363.453 -630.417)" fill="#bfa474"/>
      <path id="Path_8336" data-name="Path 8336" d="M432.284,399.889c2.4,3.4,2.346,3.31,5.838,1.033,1.628-1.061,1.3-1.7.046-2.695a29.737,29.737,0,0,0-10.58-5.61c-.614-.17-1.234-.69-2.079,0A37.046,37.046,0,0,1,432.284,399.889Z" transform="translate(-390.536 -392.176)" fill="#bfa474"/>
      <path id="Path_8337" data-name="Path 8337" d="M434.79,697.094c-.711-.372-1.4-1.147-2.15.054a47.09,47.09,0,0,1-7.735,8.908,25.284,25.284,0,0,0,10.186-4.109C438.893,699.384,438.885,699.235,434.79,697.094Z" transform="translate(-390.026 -649.147)" fill="#bfa474"/>
      <path id="Path_8338" data-name="Path 8338" d="M293.526,582.6c-2.137.056-4.277.016-6.415.016V582.6c-1.9,0-3.806.077-5.7-.024-1.538-.082-2.138.394-1.982,2.018a35.6,35.6,0,0,0,2.953,10.944c.427.975.935,1.234,2.011.825a31.5,31.5,0,0,1,9.247-1.961c1.107-.069,1.533-.448,1.515-1.565-.046-2.85-.053-5.7.01-8.553C295.19,583.06,294.761,582.565,293.526,582.6Z" transform="translate(-267.129 -552.907)" fill="#bfa474"/>
      <path id="Path_8339" data-name="Path 8339" d="M295.152,488.986c.034-1.211-.438-1.717-1.626-1.751a30.524,30.524,0,0,1-9.659-2.067c-.983-.361-1.556-.378-1.994.734a36.93,36.93,0,0,0-2.457,9.816c-.17,1.655.5,2.034,1.979,1.967,1.968-.089,3.943-.022,5.915-.025,2.051,0,4.1-.04,6.152.012,1.157.03,1.737-.289,1.693-1.589C295.075,493.72,295.086,491.351,295.152,488.986Z" transform="translate(-267.116 -470.457)" fill="#bfa474"/>
      <path id="Path_8340" data-name="Path 8340" d="M212.1,592.888a25.26,25.26,0,0,1-1.755-7.806c-.058-2.237-.8-3.4-3.227-2.966a12.5,12.5,0,0,1-2.127.022c-5.4.117-5.035-1-3.951,4.992a27.5,27.5,0,0,0,5.995,12.439c.782.966,1.385,1.169,2.524.453C213.716,597.411,213.737,597.46,212.1,592.888Z" transform="translate(-200.386 -552.453)" fill="#bfa474"/>
      <path id="Path_8341" data-name="Path 8341" d="M202.827,473.243a24.845,24.845,0,0,1,2.843-.018c4.364,0,4.336-.006,5.113-4.451a33.983,33.983,0,0,1,2.372-8.163c.5-1.1.378-1.75-.762-2.224a11.86,11.86,0,0,1-1.631-.961c-3.3-2.047-3.282-2.04-5.381,1.166a30.849,30.849,0,0,0-4.541,12.34C200.561,472.707,200.947,473.459,202.827,473.243Z" transform="translate(-200.701 -446.018)" fill="#bfa474"/>
      <path id="Path_8342" data-name="Path 8342" d="M309.03,402.6c-.437.7-.369,1.14.425,1.422a34.909,34.909,0,0,0,8.961,1.992c1.111.087,1.551-.313,1.539-1.461-.044-4.095-.017-8.19-.017-12.89A34.546,34.546,0,0,0,309.03,402.6Z" transform="translate(-291.926 -391.663)" fill="#bfa474"/>
      <path id="Path_8343" data-name="Path 8343" d="M324.232,680.583c0-1.58-.044-3.161.014-4.739.048-1.291-.5-1.66-1.723-1.469a48.741,48.741,0,0,0-7.4,1.532c-1.3.415-1.69.86-.789,2.115a35.678,35.678,0,0,0,8.328,8.342c1.142.813,1.641.724,1.585-.805C324.185,683.9,324.231,682.242,324.232,680.583Z" transform="translate(-296.218 -630.417)" fill="#bfa474"/>
      <path id="Path_8344" data-name="Path 8344" d="M261.554,400.922c3.492,2.277,3.439,2.362,5.838-1.033a37.047,37.047,0,0,1,6.776-7.268c-.845-.693-1.466-.174-2.08,0a29.74,29.74,0,0,0-10.58,5.61C260.253,399.226,259.926,399.861,261.554,400.922Z" transform="translate(-251.117 -392.176)" fill="#bfa474"/>
      <path id="Path_8345" data-name="Path 8345" d="M270.959,697.148c-.749-1.2-1.439-.426-2.15-.054-4.095,2.14-4.1,2.289-.3,4.853a25.284,25.284,0,0,0,10.186,4.109A47.1,47.1,0,0,1,270.959,697.148Z" transform="translate(-255.55 -649.147)" fill="#bfa474"/>
    </g>
    <path id="Path_8346" data-name="Path 8346" d="M199.9,354.935a34.321,34.321,0,1,0,34.321,34.321A34.321,34.321,0,0,0,199.9,354.935Zm0,66.142a31.82,31.82,0,1,1,31.821-31.821A31.82,31.82,0,0,1,199.9,421.077Z" transform="translate(1161.425 796.423)" fill="#bfa474"/>
  </g>
</svg>
