<svg xmlns="http://www.w3.org/2000/svg" width="21.764" height="21.802" viewBox="0 0 21.764 21.802">
  <path id="Icon_feather-phone-call" data-name="Icon feather-phone-call" d="M15.344,5.265a4.706,4.706,0,0,1,3.717,3.717M15.344,1.5a8.47,8.47,0,0,1,7.482,7.473m-.941,7.51v2.823a1.882,1.882,0,0,1-2.052,1.882A18.625,18.625,0,0,1,11.712,18.3a18.352,18.352,0,0,1-5.647-5.647,18.625,18.625,0,0,1-2.889-8.16A1.882,1.882,0,0,1,5.048,2.441H7.872A1.882,1.882,0,0,1,9.754,4.06,12.084,12.084,0,0,0,10.413,6.7,1.882,1.882,0,0,1,9.989,8.69l-1.2,1.2a15.058,15.058,0,0,0,5.647,5.647l1.2-1.2a1.882,1.882,0,0,1,1.986-.424,12.084,12.084,0,0,0,2.645.659A1.882,1.882,0,0,1,21.885,16.483Z" transform="translate(-2.167 -0.396)" fill="none" stroke="#bfa474" stroke-linecap="round" stroke-linejoin="round" stroke-width="2"/>
</svg>
