<svg xmlns="http://www.w3.org/2000/svg" width="31.5" height="27.725" viewBox="0 0 31.5 27.725">
  <g id="store" transform="translate(-66.25 -115.097)">
    <g id="Group_41" data-name="Group 41" transform="translate(68 130.898)">
      <line id="Line_10" data-name="Line 10" x2="30" transform="translate(-1 11.174)" fill="none" stroke="#220728" stroke-linecap="round" stroke-linejoin="round" stroke-width="1.5"/>
      <g id="Group_39" data-name="Group 39" transform="translate(2.793 0)">
        <line id="Line_11" data-name="Line 11" y2="11" transform="translate(0.207 0.174)" fill="none" stroke="#220728" stroke-linecap="round" stroke-linejoin="round" stroke-width="1.5"/>
        <line id="Line_12" data-name="Line 12" y2="11" transform="translate(7.207 0.174)" fill="none" stroke="#220728" stroke-linecap="round" stroke-linejoin="round" stroke-width="1.5"/>
        <line id="Line_13" data-name="Line 13" y2="10" transform="translate(21.207 0.174)" fill="none" stroke="#220728" stroke-linecap="round" stroke-linejoin="round" stroke-width="1.5"/>
      </g>
      <line id="Line_14" data-name="Line 14" y2="1" transform="translate(7 4.174)" fill="none" stroke="#220728" stroke-linecap="round" stroke-linejoin="round" stroke-width="1.5"/>
    </g>
    <g id="Group_42" data-name="Group 42" transform="translate(68.421 116)">
      <path id="Path_51" data-name="Path 51" d="M94.231,134v2.733a3.163,3.163,0,0,1-3.154,3.154h0a3.163,3.163,0,0,1-3.154-3.154,3.163,3.163,0,0,1-3.154,3.154h0a3.163,3.163,0,0,1-3.154-3.154,3.163,3.163,0,0,1-3.154,3.154h0a3.163,3.163,0,0,1-3.154-3.154,3.163,3.163,0,0,1-3.154,3.154h0A3.163,3.163,0,0,1,69,136.733V134" transform="translate(-69 -126.431)" fill="none" stroke="#220728" stroke-linecap="round" stroke-linejoin="round" stroke-width="1.5"/>
      <path id="Path_52" data-name="Path 52" d="M94.231,123.569H69L72.785,116H90.446Z" transform="translate(-69 -116)" fill="none" stroke="#220728" stroke-linecap="round" stroke-linejoin="round" stroke-width="1.5"/>
      <line id="Line_17" data-name="Line 17" y2="5" transform="translate(11.579 0.072)" fill="none" stroke="#220728" stroke-linecap="round" stroke-linejoin="round" stroke-width="1.5"/>
      <line id="Line_18" data-name="Line 18" y1="5" x2="2" transform="translate(6.579 0.072)" fill="none" stroke="#220728" stroke-linecap="round" stroke-linejoin="round" stroke-width="1.5"/>
      <line id="Line_19" data-name="Line 19" x1="2" y1="5" transform="translate(16.579 0.072)" fill="none" stroke="#220728" stroke-linecap="round" stroke-linejoin="round" stroke-width="1.5"/>
    </g>
  </g>
</svg>
