<svg xmlns="http://www.w3.org/2000/svg" width="28" height="28" viewBox="0 0 28 28">
  <path id="Icon_simple-whatsapp" data-name="Icon simple-whatsapp" d="M20.414,16.779c-.351-.175-2.061-1.012-2.38-1.127s-.552-.175-.785.175-.9,1.125-1.1,1.356-.407.245-.754.087a9.469,9.469,0,0,1-2.8-1.732,10.585,10.585,0,0,1-1.937-2.415c-.2-.35-.022-.542.152-.717.159-.158.351-.4.526-.61a2.957,2.957,0,0,0,.347-.579.641.641,0,0,0-.029-.611c-.087-.175-.784-1.89-1.076-2.574s-.568-.6-.784-.6c-.2-.017-.433-.017-.666-.017a1.315,1.315,0,0,0-.93.419,3.9,3.9,0,0,0-1.219,2.888A6.826,6.826,0,0,0,8.4,14.313a15.556,15.556,0,0,0,5.95,5.233c.833.35,1.482.56,1.988.734a4.827,4.827,0,0,0,2.193.141,3.59,3.59,0,0,0,2.352-1.664,2.888,2.888,0,0,0,.21-1.663c-.086-.157-.315-.245-.665-.4m-6.354,8.684h-.019a11.671,11.671,0,0,1-5.9-1.61l-.42-.25L3.36,24.653,4.532,20.4l-.279-.437A11.571,11.571,0,0,1,22.275,5.689a11.419,11.419,0,0,1,3.394,8.155A11.585,11.585,0,0,1,14.078,25.376M23.94,4.024A14.166,14.166,0,0,0,14.052,0,13.871,13.871,0,0,0,1.979,20.811L0,28l7.391-1.927a14.073,14.073,0,0,0,6.662,1.688h.007A13.93,13.93,0,0,0,28,13.882a13.76,13.76,0,0,0-4.077-9.813" fill="#00a859"/>
</svg>
