<?xml version="1.0" encoding="utf-8"?>
<!-- Generator: Adobe Illustrator 23.1.1, SVG Export Plug-In . SVG Version: 6.00 Build 0)  -->
<svg version="1.1" id="Layer_1" xmlns="http://www.w3.org/2000/svg" xmlns:xlink="http://www.w3.org/1999/xlink" x="0px" y="0px"
	 viewBox="0 0 180 100" style="enable-background:new 0 0 180 100;" xml:space="preserve">
<style type="text/css">
	.st0{clip-path:url(#SVGID_2_);fill:#FFFFFF;}
	.st1{clip-path:url(#SVGID_2_);fill:none;stroke:#2A2523;stroke-width:1.2;stroke-miterlimit:10;}
	.st2{clip-path:url(#SVGID_2_);fill:#2A2523;}
	.st3{clip-path:url(#SVGID_2_);fill:#E32B27;}
	.st4{clip-path:url(#SVGID_4_);fill:#FFFFFF;}
	.st5{clip-path:url(#SVGID_4_);fill:none;stroke:#2A2523;stroke-width:1.2;stroke-miterlimit:10;}
	.st6{clip-path:url(#SVGID_4_);fill:#3AA9E0;}
	.st7{clip-path:url(#SVGID_4_);fill:#2A2523;}
	.st8{clip-path:url(#SVGID_6_);fill:#FFFFFF;}
	.st9{clip-path:url(#SVGID_6_);fill:none;stroke:#2A2523;stroke-width:1.2;stroke-miterlimit:10;}
	.st10{clip-path:url(#SVGID_6_);fill:#2F3080;}
	.st11{clip-path:url(#SVGID_6_);fill:#2A2523;}
	.st12{fill:#1D1C1A;}
	.st13{clip-path:url(#SVGID_8_);}
	.st14{clip-path:url(#SVGID_10_);}
	.st15{clip-path:url(#SVGID_12_);}
	.st16{clip-path:url(#SVGID_14_);}
	.st17{clip-path:url(#SVGID_16_);}
	.st18{clip-path:url(#SVGID_18_);}
	.st19{fill-rule:evenodd;clip-rule:evenodd;fill:#5B6770;}
	.st20{fill:none;stroke:#5B6770;stroke-width:1.8792;stroke-miterlimit:3.864;}
	.st21{fill-rule:evenodd;clip-rule:evenodd;fill:#79242F;}
	.st22{fill-rule:evenodd;clip-rule:evenodd;fill:#253A75;}
	.st23{fill:none;stroke:#253A75;stroke-width:0.132;stroke-miterlimit:3.864;}
	.st24{fill:#253A75;}
	.st25{fill:#002F3B;}
	.st26{fill:#A69E88;stroke:#A69E88;stroke-width:0.3401;stroke-miterlimit:10;}
	.st27{fill-rule:evenodd;clip-rule:evenodd;fill:#1D1C1A;}
	.st28{fill-rule:evenodd;clip-rule:evenodd;fill:#A5D0E6;}
	.st29{fill-rule:evenodd;clip-rule:evenodd;fill:#FFFFFF;}
	.st30{fill:#002D3A;}
	.st31{clip-path:url(#SVGID_20_);fill:#002E3A;}
	.st32{clip-path:url(#SVGID_20_);fill:#B68D4A;}
	.st33{fill:#B68D4A;}
	.st34{clip-path:url(#SVGID_22_);fill:#B68D4A;}
	.st35{fill:#BC955C;}
	.st36{fill:#A79F88;}
	.st37{fill:#00303C;stroke:#25A9E0;stroke-width:0.6856;stroke-dasharray:3.6133,3.6133;}
	.st38{fill:#00303C;}
	.st39{fill:#41695B;}
	.st40{fill:#907E63;}
	.st41{fill:#804951;}
	.st42{fill:#894B52;}
	.st43{fill:#42695B;stroke:#42695B;stroke-width:0.3;stroke-miterlimit:10;}
	.st44{fill:#231F20;}
	.st45{fill-rule:evenodd;clip-rule:evenodd;fill:#ADAFB1;}
	.st46{fill-rule:evenodd;clip-rule:evenodd;fill:#CFD0D2;stroke:#CFD0D2;stroke-width:0;stroke-miterlimit:3.8637;}
	.st47{fill-rule:evenodd;clip-rule:evenodd;fill:#ADAFB1;stroke:#ADAFB1;stroke-width:0;stroke-miterlimit:3.8637;}
	.st48{fill-rule:evenodd;clip-rule:evenodd;fill:#7A7C7F;stroke:#7A7C7F;stroke-width:0;stroke-miterlimit:3.8637;}
	.st49{fill-rule:evenodd;clip-rule:evenodd;fill:#BDBFC1;stroke:#BDBFC1;stroke-width:0;stroke-miterlimit:3.8637;}
	.st50{fill-rule:evenodd;clip-rule:evenodd;fill:none;stroke:#231F20;stroke-width:0.2422;stroke-miterlimit:3.8637;}
	.st51{fill-rule:evenodd;clip-rule:evenodd;fill:#B1B3B5;stroke:#B1B3B5;stroke-width:0;stroke-miterlimit:3.8637;}
	.st52{clip-path:url(#SVGID_24_);}
	.st53{clip-path:url(#SVGID_26_);}
	.st54{fill:#ADAFB1;}
	.st55{clip-path:url(#SVGID_28_);}
	.st56{fill:#FFFFFF;}
	.st57{fill:#F5F5F6;}
	.st58{fill:#EFF0F0;}
	.st59{fill:#E9EAEB;}
	.st60{fill:#E2E3E4;}
	.st61{fill:#DDDEDF;}
	.st62{fill:#D7D8DA;}
	.st63{fill:#D1D2D4;}
	.st64{fill:#CACCCE;}
	.st65{fill:#C4C6C8;}
	.st66{fill:#BFC1C3;}
	.st67{fill:#B8BABC;}
	.st68{fill:#B2B4B7;}
	.st69{clip-path:url(#SVGID_30_);}
	.st70{clip-path:url(#SVGID_32_);}
</style>
<g>
	<path class="st25" d="M23.09,34.11c0.01,1.66-0.45,2.92-1.4,3.78c-0.95,0.87-2.07,1.43-3.36,1.68c-1.29,0.25-2.65,0.38-4.08,0.39
		L13,39.98l0.04,5.27c0,0.6,0.07,1.06,0.19,1.38c0.12,0.33,0.38,0.57,0.78,0.74c0.4,0.17,1.01,0.25,1.82,0.24l0.01,1.37l-9.48,0.07
		l-0.01-1.37c0.81-0.01,1.4-0.1,1.78-0.28c0.38-0.18,0.63-0.44,0.75-0.76C9,46.3,9.05,45.85,9.05,45.27L8.96,32.53
		c0-0.58-0.06-1.02-0.18-1.35c-0.11-0.32-0.37-0.57-0.76-0.75c-0.39-0.18-0.99-0.27-1.79-0.26l-0.01-1.32c0,0,6.86-0.11,10.29-0.08
		c1.03,0.01,1.38,0.03,2.18,0.14C22.45,29.51,23.08,32.41,23.09,34.11 M18.81,34.17c-0.01-1.61-0.46-2.68-1.34-3.21
		c-0.88-0.54-2.03-0.8-3.46-0.79c-0.26,0-0.62,0.01-1.08,0.04l0.06,8.11l1.28-0.01c1.36-0.01,2.46-0.27,3.3-0.78
		C18.41,37.03,18.82,35.91,18.81,34.17"/>
	<path class="st25" d="M63.92,38.53c0.01,1.84-0.38,3.56-1.19,5.17c-0.8,1.61-2,2.9-3.59,3.88c-1.59,0.98-3.48,1.48-5.65,1.49
		c-1.78,0.01-3.35-0.28-4.7-0.89c-1.36-0.6-2.47-1.42-3.33-2.45c-0.86-1.03-1.51-2.15-1.93-3.38c-0.42-1.23-0.64-2.46-0.65-3.7
		c-0.01-1.8,0.37-3.5,1.14-5.1c0.78-1.6,1.95-2.9,3.53-3.89c1.58-0.99,3.47-1.49,5.67-1.51c2.01-0.01,3.72,0.33,5.14,1.02
		c1.41,0.69,2.52,1.57,3.31,2.64c0.79,1.07,1.37,2.18,1.71,3.36C63.74,36.35,63.91,37.47,63.92,38.53 M59.42,38.5
		c-0.01-1.13-0.11-2.2-0.29-3.21c-0.19-1.01-0.51-1.93-0.97-2.74c-0.46-0.82-1.08-1.46-1.88-1.94c-0.79-0.47-1.77-0.71-2.92-0.7
		c-1.59,0.01-2.84,0.44-3.72,1.3s-1.49,1.92-1.8,3.2c-0.31,1.28-0.46,2.67-0.45,4.18c0.01,0.83,0.06,1.7,0.17,2.6
		c0.11,0.9,0.36,1.83,0.76,2.77c0.4,0.94,1.02,1.74,1.88,2.38c0.86,0.64,1.96,0.96,3.32,0.95c1.34-0.01,2.43-0.35,3.27-1.03
		c0.83-0.68,1.44-1.5,1.82-2.47c0.38-0.97,0.61-1.9,0.7-2.78C59.38,40.13,59.43,39.3,59.42,38.5"/>
	<path class="st25" d="M101.04,41.6l-0.08,6.75l-16.79,0.12l-0.01-1.37c1.16-0.01,1.9-0.19,2.23-0.55c0.33-0.36,0.49-0.98,0.49-1.85
		l-0.09-12.69c0-0.59-0.06-1.04-0.18-1.36c-0.11-0.32-0.37-0.57-0.78-0.75c-0.4-0.18-1-0.26-1.8-0.25l-0.01-1.37l9.48-0.07
		l0.01,1.37c-0.79,0.01-1.38,0.09-1.78,0.27s-0.66,0.42-0.79,0.74c-0.12,0.32-0.18,0.79-0.18,1.39l0.08,11.61
		c0.01,0.91,0.05,1.57,0.14,1.96c0.09,0.4,0.31,0.7,0.69,0.9c0.37,0.2,0.98,0.3,1.82,0.29c1.06-0.01,2-0.1,2.8-0.28
		c0.8-0.18,1.54-0.65,2.21-1.4c0.68-0.75,1.09-1.91,1.25-3.46L101.04,41.6z"/>
	<path class="st25" d="M138.05,48.08l-8.88,0.07l-0.01-1.37c0.75-0.01,1.3-0.07,1.64-0.18c0.34-0.12,0.51-0.39,0.51-0.82
		c0-0.3-0.06-0.6-0.17-0.91l-0.91-2.38l-6.12,0.04l-0.45,1.31c-0.25,0.74-0.38,1.27-0.38,1.6c0,0.6,0.22,0.97,0.66,1.13
		c0.43,0.16,0.94,0.23,1.51,0.23l0.01,1.37l-6.49,0.05l-0.01-1.37c0.52,0,0.96-0.11,1.32-0.32c0.36-0.21,0.7-0.61,1.03-1.19
		c0.32-0.58,0.67-1.41,1.04-2.47l5.09-14.9l1.32-0.01l6.09,15.3c0.43,1.11,0.74,1.86,0.93,2.25c0.2,0.39,0.47,0.69,0.81,0.9
		c0.34,0.21,0.83,0.31,1.45,0.31L138.05,48.08z M129.71,41.04l-2.65-7.02l-2.42,7.06L129.71,41.04z"/>
	<path class="st25" d="M173.78,33.36l-1.32,0.01c-0.13-1.25-0.39-2.17-0.79-2.76c-0.4-0.59-0.83-0.96-1.28-1.09
		c-0.46-0.13-0.98-0.2-1.57-0.2l-2.39,0.02l0.11,14.78c0,0.59,0.06,1.04,0.18,1.36c0.11,0.32,0.37,0.57,0.78,0.75
		c0.41,0.18,1.01,0.26,1.79,0.25l0.01,1.37l-9.45,0.07l-0.01-1.37c1.16-0.01,1.9-0.19,2.23-0.55c0.33-0.36,0.49-0.98,0.49-1.85
		l-0.11-14.78l-2,0.01c-0.79,0.01-1.44,0.08-1.96,0.21c-0.52,0.14-0.97,0.51-1.36,1.11c-0.39,0.6-0.61,1.53-0.65,2.78l-1.32,0.01
		l-0.04-5.73l18.63-0.14L173.78,33.36z"/>
	<path class="st25" d="M59.25,72.3l-3.38,0.03l0-0.5c0.28,0,0.49-0.04,0.63-0.1c0.14-0.07,0.23-0.16,0.27-0.28
		c0.04-0.12,0.06-0.29,0.06-0.49l-0.02-2.21l-3.19,0.02l0.02,2.21c0,0.3,0.06,0.52,0.18,0.66c0.12,0.14,0.39,0.2,0.81,0.2l0,0.5
		l-3.4,0.03l0-0.5c0.27,0,0.48-0.04,0.63-0.1c0.14-0.07,0.23-0.16,0.28-0.28c0.04-0.12,0.06-0.29,0.06-0.49l-0.03-4.62
		c0-0.21-0.02-0.37-0.07-0.48c-0.04-0.12-0.13-0.21-0.27-0.28c-0.14-0.07-0.35-0.1-0.64-0.1l0-0.5l3.4-0.02l0,0.5
		c-0.42,0-0.69,0.07-0.81,0.21c-0.12,0.13-0.18,0.36-0.17,0.67l0.01,1.81l3.19-0.02l-0.01-1.81c0-0.21-0.02-0.37-0.06-0.48
		c-0.04-0.12-0.13-0.21-0.27-0.28c-0.14-0.07-0.35-0.1-0.64-0.1l0-0.5l3.38-0.02l0,0.5c-0.29,0-0.5,0.04-0.64,0.11
		c-0.14,0.07-0.23,0.16-0.26,0.28c-0.04,0.12-0.06,0.28-0.05,0.49l0.03,4.62c0,0.2,0.02,0.36,0.06,0.47
		c0.04,0.12,0.13,0.21,0.27,0.28c0.14,0.07,0.36,0.11,0.64,0.1L59.25,72.3z"/>
	<path class="st25" d="M72.11,68.53c0,0.67-0.14,1.3-0.43,1.88c-0.29,0.59-0.73,1.06-1.31,1.42s-1.27,0.54-2.06,0.55
		c-0.65,0-1.22-0.1-1.72-0.32c-0.49-0.22-0.9-0.52-1.22-0.89c-0.31-0.37-0.55-0.78-0.7-1.23c-0.15-0.45-0.23-0.9-0.24-1.35
		c0-0.66,0.13-1.27,0.42-1.86c0.28-0.59,0.71-1.06,1.29-1.42c0.58-0.36,1.26-0.54,2.07-0.55c0.73-0.01,1.36,0.12,1.87,0.37
		c0.52,0.25,0.92,0.57,1.21,0.96c0.29,0.39,0.5,0.8,0.62,1.22C72.04,67.73,72.11,68.14,72.11,68.53 M70.47,68.52
		c0-0.41-0.04-0.8-0.11-1.17c-0.07-0.37-0.19-0.7-0.36-1c-0.17-0.3-0.4-0.53-0.68-0.71c-0.29-0.17-0.64-0.26-1.07-0.25
		c-0.58,0-1.03,0.16-1.36,0.47c-0.32,0.31-0.54,0.7-0.66,1.17c-0.11,0.47-0.17,0.97-0.16,1.52c0,0.3,0.02,0.62,0.06,0.95
		c0.04,0.33,0.13,0.67,0.28,1.01c0.14,0.34,0.37,0.63,0.69,0.87c0.31,0.23,0.71,0.35,1.21,0.35c0.49,0,0.89-0.13,1.19-0.37
		c0.3-0.25,0.52-0.55,0.66-0.9c0.14-0.35,0.22-0.69,0.26-1.01C70.46,69.11,70.47,68.81,70.47,68.52"/>
	<path class="st25" d="M83.48,69.67l-0.03,2.46l-6.12,0.05l0-0.5c0.42,0,0.69-0.07,0.81-0.2c0.12-0.13,0.18-0.36,0.18-0.67
		l-0.03-4.62c0-0.21-0.02-0.38-0.06-0.5c-0.04-0.12-0.14-0.21-0.28-0.27c-0.15-0.06-0.37-0.09-0.66-0.09l0-0.5l3.45-0.03l0,0.5
		c-0.29,0-0.51,0.03-0.65,0.1c-0.15,0.06-0.24,0.15-0.29,0.27c-0.04,0.12-0.07,0.29-0.06,0.51l0.03,4.23c0,0.33,0.02,0.57,0.05,0.72
		c0.03,0.15,0.12,0.25,0.25,0.33c0.14,0.07,0.36,0.11,0.66,0.11c0.39,0,0.73-0.04,1.02-0.1c0.29-0.07,0.56-0.24,0.81-0.51
		c0.25-0.28,0.4-0.7,0.45-1.26L83.48,69.67z"/>
	<path class="st25" d="M95.74,68.42c0,0.53-0.08,1.01-0.24,1.44c-0.17,0.43-0.38,0.79-0.64,1.08c-0.27,0.29-0.55,0.51-0.85,0.65
		c-0.64,0.31-1.42,0.47-2.35,0.47l-3.14,0.02l0-0.5c0.29,0,0.51-0.03,0.66-0.09c0.15-0.06,0.24-0.15,0.29-0.27
		c0.04-0.12,0.07-0.29,0.06-0.51l-0.03-4.65c0-0.32-0.07-0.54-0.19-0.67c-0.12-0.13-0.4-0.19-0.84-0.19l0-0.48l3.45-0.02
		c1.57-0.01,2.37,0.61,2.62,0.84c0.25,0.23,0.47,0.49,0.65,0.79c0.18,0.3,0.31,0.62,0.41,0.97C95.68,67.67,95.73,68.04,95.74,68.42
		 M94.09,68.4c-0.01-0.76-0.15-1.4-0.42-1.92c-0.28-0.51-0.65-0.87-1.11-1.06c-0.2-0.09-0.42-0.14-0.65-0.16
		c-0.23-0.02-0.55-0.03-0.98-0.03l0.04,5.17c0,0.3,0.02,0.51,0.04,0.65c0.03,0.14,0.11,0.24,0.24,0.31c0.13,0.07,0.34,0.1,0.61,0.1
		c0.82-0.01,1.4-0.32,1.73-0.94C93.94,69.91,94.1,69.2,94.09,68.4"/>
	<path class="st25" d="M104.4,71.97L100.91,72l0-0.5c0.29,0,0.51-0.03,0.66-0.09c0.15-0.06,0.24-0.15,0.29-0.27
		c0.04-0.12,0.07-0.29,0.06-0.51L101.88,66c0-0.32-0.07-0.54-0.19-0.67c-0.12-0.13-0.4-0.19-0.83-0.19l0-0.5l3.49-0.03l0,0.5
		c-0.29,0-0.51,0.03-0.66,0.1c-0.15,0.06-0.24,0.15-0.29,0.27c-0.05,0.12-0.07,0.29-0.07,0.51l0.03,4.62c0,0.21,0.02,0.37,0.07,0.49
		c0.04,0.12,0.14,0.21,0.28,0.27c0.14,0.06,0.37,0.09,0.67,0.09L104.4,71.97z M103.16,62.73c0,0.17-0.05,0.32-0.16,0.43
		c-0.11,0.12-0.24,0.18-0.39,0.18c-0.16,0-0.29-0.06-0.41-0.17c-0.11-0.11-0.17-0.26-0.17-0.44c0-0.17,0.05-0.31,0.16-0.43
		c0.11-0.12,0.24-0.18,0.41-0.18c0.16,0,0.3,0.06,0.4,0.18C103.1,62.43,103.15,62.57,103.16,62.73"/>
	<path class="st25" d="M116.74,65.02c-0.33,0-0.56,0.04-0.7,0.11c-0.14,0.07-0.23,0.18-0.26,0.31c-0.03,0.14-0.05,0.36-0.04,0.67
		l0.04,5.83l-0.47,0l-4.54-5.69l0.03,4.05c0,0.31,0.02,0.53,0.06,0.67c0.04,0.14,0.13,0.24,0.27,0.32c0.15,0.07,0.38,0.11,0.71,0.11
		l0,0.5l-2.56,0.02l0-0.5c0.3,0,0.52-0.04,0.66-0.12c0.14-0.07,0.22-0.18,0.25-0.32c0.03-0.14,0.05-0.36,0.04-0.67l-0.03-3.76
		c0-0.3-0.01-0.53-0.03-0.68c-0.02-0.15-0.05-0.28-0.11-0.4c-0.06-0.11-0.15-0.2-0.28-0.28c-0.13-0.07-0.31-0.12-0.54-0.14l0-0.5
		l2-0.01l3.95,4.92l-0.03-3.36c0-0.27-0.02-0.49-0.06-0.63c-0.04-0.15-0.12-0.26-0.27-0.34c-0.14-0.08-0.36-0.12-0.67-0.11l0-0.5
		l2.56-0.02L116.74,65.02z"/>
	<path class="st25" d="M129.35,68.88c-0.2,0.02-0.34,0.06-0.44,0.1c-0.1,0.05-0.17,0.12-0.2,0.24c-0.04,0.11-0.05,0.28-0.05,0.51
		l0.01,1.73c-0.49,0-1.02,0.08-1.59,0.22c-0.41,0.1-0.72,0.17-0.92,0.21c-0.21,0.04-0.45,0.06-0.73,0.06
		c-0.74,0-1.38-0.18-1.91-0.55c-0.53-0.37-0.93-0.84-1.2-1.43c-0.27-0.58-0.41-1.18-0.41-1.8c-0.01-0.71,0.15-1.36,0.46-1.94
		c0.31-0.59,0.73-1.05,1.27-1.39c0.53-0.34,1.12-0.51,1.76-0.52c0.78,0,1.49,0.28,2.13,0.85c0.08-0.16,0.14-0.37,0.18-0.64l0.49,0
		l0.07,2.41l-0.47,0c-0.07-0.37-0.21-0.7-0.41-1c-0.2-0.3-0.44-0.54-0.74-0.72c-0.29-0.17-0.62-0.26-0.97-0.26
		c-0.26,0-0.51,0.05-0.75,0.15c-0.25,0.1-0.47,0.27-0.69,0.5c-0.21,0.24-0.38,0.56-0.51,0.97c-0.13,0.41-0.19,0.92-0.18,1.52
		c0,0.51,0.06,1.01,0.16,1.48c0.11,0.47,0.31,0.88,0.63,1.22s0.75,0.5,1.32,0.5c0.45,0,0.78-0.08,1.01-0.23
		c0.23-0.15,0.38-0.34,0.44-0.56c0.07-0.22,0.1-0.46,0.1-0.73c0-0.25-0.02-0.44-0.06-0.55c-0.04-0.11-0.12-0.2-0.25-0.25
		c-0.13-0.05-0.33-0.08-0.6-0.08l0-0.5l3.06-0.02L129.35,68.88z"/>
</g>
</svg>
