<?xml version="1.0" encoding="utf-8"?>
<!-- Generator: Adobe Illustrator 23.1.1, SVG Export Plug-In . SVG Version: 6.00 Build 0)  -->
<svg version="1.1" id="Layer_1" xmlns="http://www.w3.org/2000/svg" xmlns:xlink="http://www.w3.org/1999/xlink" x="0px" y="0px"
	 viewBox="0 0 180 100" style="enable-background:new 0 0 180 100;" xml:space="preserve">
<style type="text/css">
	.st0{clip-path:url(#SVGID_2_);fill:#FFFFFF;}
	.st1{clip-path:url(#SVGID_2_);fill:none;stroke:#2A2523;stroke-width:1.2;stroke-miterlimit:10;}
	.st2{clip-path:url(#SVGID_2_);fill:#2A2523;}
	.st3{clip-path:url(#SVGID_2_);fill:#E32B27;}
	.st4{clip-path:url(#SVGID_4_);fill:#FFFFFF;}
	.st5{clip-path:url(#SVGID_4_);fill:none;stroke:#2A2523;stroke-width:1.2;stroke-miterlimit:10;}
	.st6{clip-path:url(#SVGID_4_);fill:#3AA9E0;}
	.st7{clip-path:url(#SVGID_4_);fill:#2A2523;}
	.st8{clip-path:url(#SVGID_6_);fill:#FFFFFF;}
	.st9{clip-path:url(#SVGID_6_);fill:none;stroke:#2A2523;stroke-width:1.2;stroke-miterlimit:10;}
	.st10{clip-path:url(#SVGID_6_);fill:#2F3080;}
	.st11{clip-path:url(#SVGID_6_);fill:#2A2523;}
	.st12{fill:#1D1C1A;}
	.st13{clip-path:url(#SVGID_8_);}
	.st14{clip-path:url(#SVGID_10_);}
	.st15{clip-path:url(#SVGID_12_);}
	.st16{clip-path:url(#SVGID_14_);}
	.st17{clip-path:url(#SVGID_16_);}
	.st18{clip-path:url(#SVGID_18_);}
	.st19{fill-rule:evenodd;clip-rule:evenodd;fill:#5B6770;}
	.st20{fill:none;stroke:#5B6770;stroke-width:1.8792;stroke-miterlimit:3.864;}
	.st21{fill-rule:evenodd;clip-rule:evenodd;fill:#79242F;}
	.st22{fill-rule:evenodd;clip-rule:evenodd;fill:#253A75;}
	.st23{fill:none;stroke:#253A75;stroke-width:0.132;stroke-miterlimit:3.864;}
	.st24{fill:#253A75;}
	.st25{fill:#002F3B;}
	.st26{fill:#A69E88;stroke:#A69E88;stroke-width:0.3401;stroke-miterlimit:10;}
	.st27{fill-rule:evenodd;clip-rule:evenodd;fill:#1D1C1A;}
	.st28{fill-rule:evenodd;clip-rule:evenodd;fill:#A5D0E6;}
	.st29{fill-rule:evenodd;clip-rule:evenodd;fill:#FFFFFF;}
	.st30{fill:#002D3A;}
	.st31{clip-path:url(#SVGID_20_);fill:#002E3A;}
	.st32{clip-path:url(#SVGID_20_);fill:#B68D4A;}
	.st33{fill:#B68D4A;}
	.st34{clip-path:url(#SVGID_22_);fill:#B68D4A;}
	.st35{fill:#BC955C;}
	.st36{fill:#A79F88;}
	.st37{fill:#00303C;stroke:#25A9E0;stroke-width:0.6856;stroke-dasharray:3.6133,3.6133;}
	.st38{fill:#00303C;}
	.st39{fill:#41695B;}
	.st40{fill:#907E63;}
	.st41{fill:#804951;}
	.st42{fill:#894B52;}
	.st43{fill:#42695B;stroke:#42695B;stroke-width:0.3;stroke-miterlimit:10;}
	.st44{fill:#231F20;}
	.st45{fill-rule:evenodd;clip-rule:evenodd;fill:#ADAFB1;}
	.st46{fill-rule:evenodd;clip-rule:evenodd;fill:#CFD0D2;stroke:#CFD0D2;stroke-width:0;stroke-miterlimit:3.8637;}
	.st47{fill-rule:evenodd;clip-rule:evenodd;fill:#ADAFB1;stroke:#ADAFB1;stroke-width:0;stroke-miterlimit:3.8637;}
	.st48{fill-rule:evenodd;clip-rule:evenodd;fill:#7A7C7F;stroke:#7A7C7F;stroke-width:0;stroke-miterlimit:3.8637;}
	.st49{fill-rule:evenodd;clip-rule:evenodd;fill:#BDBFC1;stroke:#BDBFC1;stroke-width:0;stroke-miterlimit:3.8637;}
	.st50{fill-rule:evenodd;clip-rule:evenodd;fill:none;stroke:#231F20;stroke-width:0.2422;stroke-miterlimit:3.8637;}
	.st51{fill-rule:evenodd;clip-rule:evenodd;fill:#B1B3B5;stroke:#B1B3B5;stroke-width:0;stroke-miterlimit:3.8637;}
	.st52{clip-path:url(#SVGID_24_);}
	.st53{clip-path:url(#SVGID_26_);}
	.st54{fill:#ADAFB1;}
	.st55{clip-path:url(#SVGID_28_);}
	.st56{fill:#FFFFFF;}
	.st57{fill:#F5F5F6;}
	.st58{fill:#EFF0F0;}
	.st59{fill:#E9EAEB;}
	.st60{fill:#E2E3E4;}
	.st61{fill:#DDDEDF;}
	.st62{fill:#D7D8DA;}
	.st63{fill:#D1D2D4;}
	.st64{fill:#CACCCE;}
	.st65{fill:#C4C6C8;}
	.st66{fill:#BFC1C3;}
	.st67{fill:#B8BABC;}
	.st68{fill:#B2B4B7;}
	.st69{clip-path:url(#SVGID_30_);}
	.st70{clip-path:url(#SVGID_32_);}
</style>
<g>
	<g>
		<path class="st35" d="M82.6,68.79l-6.27-10.42l-1.47,2.55l3.14,5.3h-6.2l-0.29,0.5h6.77l1.19,2.02c0.24,0.42,0.38,0.77,0.38,1.08
			c0,0.44-0.38,0.75-1.07,0.99v0.04h5.75v-0.04C83.62,70.43,83.32,69.97,82.6,68.79z"/>
		<path class="st35" d="M156.83,58.89v0.03c-1.04,0.39-1.26,0.99-1.26,2.11v9.34h3.25c2.63,0,3.92-1.11,5.22-3.03h0.05l-0.73,3.48
			h-11.7v-0.03c1.04-0.39,1.26-0.99,1.26-2.11v-7.63c0-1.12-0.22-1.72-1.26-2.11v-0.03H156.83z"/>
		<path class="st35" d="M130.53,68.79l-6.27-10.42l-1.47,2.55l3.14,5.3h-6.2l-0.29,0.5h6.77l1.19,2.02
			c0.24,0.42,0.38,0.77,0.38,1.08c0,0.44-0.38,0.75-1.07,0.99v0.04h5.75v-0.04C131.56,70.43,131.25,69.97,130.53,68.79z"/>
		<path class="st35" d="M50.21,66.22c0,3.11-2.52,4.79-5.99,4.79c-4.03,0-6.46-1.65-6.46-4.82v-5.2c0-1.13-0.22-1.73-1.27-2.13
			v-0.03h5.19v0.03c-1.05,0.39-1.25,1-1.25,2.13v5.08c0,2.57,1.36,4.12,4.3,4.12c2.78,0,4.81-1.42,4.81-4.05v-4.77
			c0-1.34-0.58-2.13-1.71-2.51v-0.03h4.03v0.03c-1.09,0.39-1.65,1.17-1.65,2.45V66.22z"/>
		<path class="st35" d="M67.27,61.31v9.64h-0.33L55.77,60.11v8.19c0,1.34,0.58,2.13,1.72,2.5v0.03h-4.03V70.8
			c1.09-0.4,1.67-1.17,1.67-2.45v-7.36c0-1.13-0.22-1.73-1.27-2.13v-0.03h4.06l8.71,8.55v-6.01c0-1.34-0.58-2.13-1.74-2.51v-0.03
			h4.06v0.03C67.84,59.25,67.27,60.02,67.27,61.31z"/>
		<path class="st35" d="M117.92,67.91c-1.2,1.65-2.96,2.49-5.52,2.49h-3.34v-5.44l5.55,0v-0.45l-5.55,0v-5.18h3.34
			c2.57,0,3.78,0.83,4.98,2.49h0.04l-0.75-3.07c-0.27,0.12-0.71,0.14-1.22,0.14h-10.31v0.03c1.04,0.39,1.26,0.99,1.26,2.11v7.63
			c0,1.12-0.22,1.72-1.26,2.11v0.03v0.01v0.03h10.31c0.51,0,0.95,0.02,1.22,0.14l1.3-3.07H117.92z"/>
		<path class="st35" d="M146.99,68.68l-0.6-1.4c-0.55-1.28-1.7-2.08-4.01-2.2c2.52-0.07,5.09-0.92,5.09-3.05
			c0-2.32-2.55-3.15-5.78-3.15h-7.3v0.03c1.04,0.39,1.26,0.99,1.26,2.11v7.63c0,1.12-0.22,1.72-1.26,2.11v0.03h5.18v-0.03
			c-1.04-0.39-1.26-0.99-1.26-2.11v-9.34h2.63c2.37,0,3.67,0.95,3.67,2.78c0,1.93-1.46,2.74-3.67,2.74l-0.51,0v0.38h0.34
			c1.65,0.07,2.29,0.96,2.76,2.04l0.71,1.7c1.34,2.97,5.24,1.84,5.24,1.84v-0.03C148.16,70.37,147.54,69.96,146.99,68.68z"/>
		<path class="st35" d="M22.62,55.97h-6.71v0.05c0,0,0.09,0.04,0.14,0.07c0.87,0.45,1.15,1.32,1.15,2.47v9.16h0v0.41
			c0,1.15-0.28,2.01-1.15,2.47c-0.04,0.02-0.14,0.07-0.14,0.07v0.05h2.82h4.42c6.12,0,10.88-1.97,10.88-7.5
			C34.02,58.68,30.63,55.97,22.62,55.97z M22.95,70.27h-2.77V56.44h2.43c5.48,0,8,2.84,8,6.77C30.62,67.53,28.39,70.27,22.95,70.27z
			"/>
		<path class="st35" d="M95.2,55.97h-8.25h0c0,0,0,0,0,0l0,0.05c0,0,0.09,0.04,0.14,0.07c0.87,0.45,1.15,1.32,1.15,2.47l0,9.56
			c0,1.15-0.28,2.01-1.15,2.47c-0.04,0.02-0.14,0.07-0.14,0.07v0.05h5.85h0.15v-0.05c0,0-0.13-0.04-0.19-0.07
			c-1.21-0.45-1.59-1.32-1.59-2.47l-0.01-3.6h4.07c4.54,0,7.24-1.6,7.24-4.27S99.75,55.97,95.2,55.97z M94.31,64.07h-3.15v-7.7h3.15
			c3.19,0,4.95,1.34,4.95,3.87C99.26,62.78,97.5,64.07,94.31,64.07z"/>
	</g>
	<g>
		<path class="st35" d="M54.43,40.65c0.1,0.5-0.22,0.99-0.72,1.1c-0.5,0.1-0.99-0.22-1.1-0.72c-0.11-0.5,0.22-0.99,0.72-1.1
			C53.84,39.82,54.33,40.15,54.43,40.65z"/>
		<path class="st35" d="M68.35,39.89c0.1,0.5-0.22,0.99-0.72,1.1c-0.5,0.1-0.99-0.22-1.1-0.72c-0.11-0.5,0.22-0.99,0.72-1.1
			C67.75,39.07,68.24,39.39,68.35,39.89z"/>
		<path class="st35" d="M111.24,35.69c0.1,0.5-0.22,0.99-0.72,1.1c-0.5,0.1-0.99-0.22-1.1-0.72c-0.11-0.5,0.22-0.99,0.72-1.1
			C110.64,34.87,111.13,35.19,111.24,35.69z"/>
		<path class="st35" d="M60.73,37.23c0.14,0.7-0.31,1.38-1,1.53c-0.69,0.14-1.38-0.3-1.52-1c-0.15-0.7,0.3-1.38,1-1.53
			C59.9,36.08,60.59,36.53,60.73,37.23z"/>
		<path class="st35" d="M68.37,34.05c0.2,0.97-0.42,1.92-1.39,2.12c-0.97,0.2-1.92-0.42-2.12-1.39c-0.2-0.97,0.42-1.92,1.4-2.12
			C67.22,32.46,68.17,33.08,68.37,34.05z"/>
		<path class="st35" d="M77.33,32.32c0.31,1.48-0.65,2.93-2.13,3.24c-1.48,0.31-2.93-0.65-3.24-2.12c-0.31-1.48,0.64-2.93,2.12-3.24
			C75.57,29.89,77.02,30.84,77.33,32.32z"/>
		<path class="st35" d="M88.09,31.78c0.39,1.9-0.83,3.76-2.73,4.16c-1.9,0.4-3.76-0.83-4.16-2.73c-0.4-1.9,0.83-3.76,2.73-4.16
			C85.84,28.66,87.7,29.88,88.09,31.78z"/>
		<path class="st35" d="M96.77,33.74c0.28,1.35-0.59,2.67-1.94,2.95c-1.35,0.28-2.67-0.59-2.95-1.94c-0.28-1.35,0.59-2.67,1.94-2.95
			C95.17,31.53,96.49,32.39,96.77,33.74z"/>
		<path class="st35" d="M103.96,35.34c0.15,0.74-0.32,1.47-1.07,1.63c-0.74,0.15-1.47-0.32-1.62-1.07
			c-0.15-0.74,0.32-1.47,1.06-1.62C103.07,34.13,103.8,34.6,103.96,35.34z"/>
		<path class="st35" d="M124.53,35.98c-0.09-0.51,0.25-0.98,0.76-1.07c0.51-0.09,0.99,0.25,1.07,0.76c0.09,0.51-0.25,0.98-0.76,1.07
			C125.1,36.82,124.62,36.48,124.53,35.98z"/>
		<path class="st35" d="M118.08,38.82c-0.12-0.7,0.35-1.37,1.06-1.49c0.7-0.12,1.37,0.35,1.49,1.05c0.12,0.7-0.35,1.37-1.05,1.49
			C118.86,39.99,118.2,39.52,118.08,38.82z"/>
		<path class="st35" d="M110.21,41.72c-0.17-0.98,0.49-1.9,1.46-2.07c0.98-0.17,1.91,0.49,2.07,1.46c0.17,0.98-0.49,1.91-1.47,2.07
			C111.3,43.36,110.38,42.7,110.21,41.72z"/>
		<path class="st35" d="M100.77,43.55c-0.25-1.49,0.75-2.91,2.24-3.16c1.49-0.26,2.9,0.75,3.16,2.23c0.25,1.49-0.74,2.9-2.23,3.16
			C102.44,46.04,101.03,45.04,100.77,43.55z"/>
		<path class="st35" d="M90.18,44.04c-0.33-1.92,0.96-3.73,2.87-4.06c1.92-0.33,3.73,0.96,4.06,2.87c0.33,1.92-0.96,3.73-2.87,4.06
			C92.33,47.25,90.51,45.96,90.18,44.04z"/>
		<path class="st35" d="M80.97,42.12c-0.24-1.4,0.7-2.73,2.1-2.97c1.4-0.24,2.73,0.7,2.97,2.1c0.24,1.4-0.7,2.73-2.1,2.97
			C82.54,44.46,81.21,43.52,80.97,42.12z"/>
		<path class="st35" d="M73.55,40.74c-0.13-0.78,0.39-1.51,1.17-1.65c0.78-0.13,1.51,0.39,1.65,1.17c0.13,0.78-0.39,1.51-1.17,1.65
			C74.42,42.04,73.68,41.52,73.55,40.74z"/>
	</g>
</g>
</svg>
