<?xml version="1.0" encoding="utf-8"?>
<!-- Generator: Adobe Illustrator 23.1.1, SVG Export Plug-In . SVG Version: 6.00 Build 0)  -->
<svg version="1.1" id="Layer_1" xmlns="http://www.w3.org/2000/svg" xmlns:xlink="http://www.w3.org/1999/xlink" x="0px" y="0px"
	 viewBox="0 0 180 100" style="enable-background:new 0 0 180 100;" xml:space="preserve">
<style type="text/css">
	.st0{clip-path:url(#SVGID_2_);fill:#FFFFFF;}
	.st1{clip-path:url(#SVGID_2_);fill:none;stroke:#2A2523;stroke-width:1.2;stroke-miterlimit:10;}
	.st2{clip-path:url(#SVGID_2_);fill:#2A2523;}
	.st3{clip-path:url(#SVGID_2_);fill:#E32B27;}
	.st4{clip-path:url(#SVGID_4_);fill:#FFFFFF;}
	.st5{clip-path:url(#SVGID_4_);fill:none;stroke:#2A2523;stroke-width:1.2;stroke-miterlimit:10;}
	.st6{clip-path:url(#SVGID_4_);fill:#3AA9E0;}
	.st7{clip-path:url(#SVGID_4_);fill:#2A2523;}
	.st8{clip-path:url(#SVGID_6_);fill:#FFFFFF;}
	.st9{clip-path:url(#SVGID_6_);fill:none;stroke:#2A2523;stroke-width:1.2;stroke-miterlimit:10;}
	.st10{clip-path:url(#SVGID_6_);fill:#2F3080;}
	.st11{clip-path:url(#SVGID_6_);fill:#2A2523;}
	.st12{fill:#1D1C1A;}
	.st13{clip-path:url(#SVGID_8_);}
	.st14{clip-path:url(#SVGID_10_);}
	.st15{clip-path:url(#SVGID_12_);}
	.st16{clip-path:url(#SVGID_14_);}
	.st17{clip-path:url(#SVGID_16_);}
	.st18{clip-path:url(#SVGID_18_);}
	.st19{fill-rule:evenodd;clip-rule:evenodd;fill:#5B6770;}
	.st20{fill:none;stroke:#5B6770;stroke-width:1.8792;stroke-miterlimit:3.864;}
	.st21{fill-rule:evenodd;clip-rule:evenodd;fill:#79242F;}
	.st22{fill-rule:evenodd;clip-rule:evenodd;fill:#253A75;}
	.st23{fill:none;stroke:#253A75;stroke-width:0.132;stroke-miterlimit:3.864;}
	.st24{fill:#253A75;}
	.st25{fill:#002F3B;}
	.st26{fill:#A69E88;stroke:#A69E88;stroke-width:0.3401;stroke-miterlimit:10;}
	.st27{fill-rule:evenodd;clip-rule:evenodd;fill:#1D1C1A;}
	.st28{fill-rule:evenodd;clip-rule:evenodd;fill:#A5D0E6;}
	.st29{fill-rule:evenodd;clip-rule:evenodd;fill:#FFFFFF;}
	.st30{fill:#002D3A;}
	.st31{clip-path:url(#SVGID_20_);fill:#002E3A;}
	.st32{clip-path:url(#SVGID_20_);fill:#B68D4A;}
	.st33{fill:#B68D4A;}
	.st34{clip-path:url(#SVGID_22_);fill:#B68D4A;}
	.st35{fill:#BC955C;}
	.st36{fill:#A79F88;}
	.st37{fill:#00303C;stroke:#25A9E0;stroke-width:0.6856;stroke-dasharray:3.6133,3.6133;}
	.st38{fill:#00303C;}
	.st39{fill:#41695B;}
	.st40{fill:#907E63;}
	.st41{fill:#804951;}
	.st42{fill:#894B52;}
	.st43{fill:#42695B;stroke:#42695B;stroke-width:0.3;stroke-miterlimit:10;}
	.st44{fill:#231F20;}
	.st45{fill-rule:evenodd;clip-rule:evenodd;fill:#ADAFB1;}
	.st46{fill-rule:evenodd;clip-rule:evenodd;fill:#CFD0D2;stroke:#CFD0D2;stroke-width:0;stroke-miterlimit:3.8637;}
	.st47{fill-rule:evenodd;clip-rule:evenodd;fill:#ADAFB1;stroke:#ADAFB1;stroke-width:0;stroke-miterlimit:3.8637;}
	.st48{fill-rule:evenodd;clip-rule:evenodd;fill:#7A7C7F;stroke:#7A7C7F;stroke-width:0;stroke-miterlimit:3.8637;}
	.st49{fill-rule:evenodd;clip-rule:evenodd;fill:#BDBFC1;stroke:#BDBFC1;stroke-width:0;stroke-miterlimit:3.8637;}
	.st50{fill-rule:evenodd;clip-rule:evenodd;fill:none;stroke:#231F20;stroke-width:0.2422;stroke-miterlimit:3.8637;}
	.st51{fill-rule:evenodd;clip-rule:evenodd;fill:#B1B3B5;stroke:#B1B3B5;stroke-width:0;stroke-miterlimit:3.8637;}
	.st52{clip-path:url(#SVGID_24_);}
	.st53{clip-path:url(#SVGID_26_);}
	.st54{fill:#ADAFB1;}
	.st55{clip-path:url(#SVGID_28_);}
	.st56{fill:#FFFFFF;}
	.st57{fill:#F5F5F6;}
	.st58{fill:#EFF0F0;}
	.st59{fill:#E9EAEB;}
	.st60{fill:#E2E3E4;}
	.st61{fill:#DDDEDF;}
	.st62{fill:#D7D8DA;}
	.st63{fill:#D1D2D4;}
	.st64{fill:#CACCCE;}
	.st65{fill:#C4C6C8;}
	.st66{fill:#BFC1C3;}
	.st67{fill:#B8BABC;}
	.st68{fill:#B2B4B7;}
	.st69{clip-path:url(#SVGID_30_);}
	.st70{clip-path:url(#SVGID_32_);}
</style>
<g>
	<g>
		<g>
			<g>
				<path class="st38" d="M38.06,66.93c0,0.58-0.17,1.02-0.5,1.33c-0.34,0.3-0.73,0.5-1.18,0.58c-0.45,0.09-0.93,0.13-1.43,0.13
					H34.5v1.85c0,0.21,0.02,0.37,0.06,0.49c0.04,0.11,0.13,0.2,0.27,0.26c0.14,0.06,0.35,0.09,0.64,0.09v0.48h-3.33v-0.48
					c0.28,0,0.49-0.03,0.63-0.09c0.14-0.06,0.22-0.15,0.26-0.27c0.04-0.11,0.06-0.27,0.06-0.48v-4.48c0-0.2-0.02-0.36-0.06-0.47
					c-0.04-0.11-0.13-0.2-0.26-0.27c-0.14-0.06-0.35-0.1-0.63-0.1v-0.49l1.89-0.05c0.1,0,0.2-0.01,0.32-0.01
					c0.12,0,0.21,0,0.28-0.01c0.07,0,0.17,0,0.3,0c0.17,0,0.29,0,0.37,0.01c0.39,0.02,0.76,0.06,1.12,0.12
					c0.36,0.06,0.72,0.24,1.09,0.53C37.88,65.89,38.06,66.33,38.06,66.93z M36.55,66.94c0-0.56-0.15-0.94-0.46-1.13
					c-0.31-0.19-0.71-0.28-1.21-0.28c-0.09,0-0.22,0-0.38,0.01v2.85h0.45c0.48,0,0.87-0.09,1.16-0.26
					C36.41,67.94,36.55,67.55,36.55,66.94z"/>
				<path class="st38" d="M52.18,68.59c0,0.64-0.14,1.25-0.43,1.81c-0.29,0.56-0.71,1.01-1.27,1.35c-0.56,0.34-1.23,0.51-1.99,0.51
					c-0.63,0-1.18-0.11-1.65-0.32c-0.48-0.22-0.86-0.51-1.16-0.87c-0.3-0.36-0.52-0.76-0.67-1.19c-0.14-0.43-0.22-0.87-0.22-1.3
					c0-0.63,0.14-1.23,0.42-1.79c0.28-0.56,0.69-1.01,1.25-1.36c0.56-0.34,1.22-0.52,2-0.52c0.71,0,1.31,0.12,1.8,0.37
					c0.49,0.25,0.88,0.56,1.16,0.94C51.69,66.6,51.88,67,52,67.41C52.12,67.82,52.18,68.21,52.18,68.59z M50.6,68.57
					c0-0.4-0.03-0.77-0.1-1.13c-0.06-0.36-0.17-0.68-0.33-0.97c-0.16-0.29-0.38-0.52-0.65-0.69c-0.28-0.17-0.62-0.25-1.03-0.25
					c-0.56,0-1,0.15-1.31,0.45c-0.31,0.3-0.53,0.67-0.64,1.12c-0.11,0.45-0.17,0.94-0.17,1.47c0,0.29,0.02,0.6,0.05,0.92
					c0.04,0.32,0.12,0.64,0.26,0.98c0.14,0.33,0.35,0.61,0.65,0.84c0.3,0.23,0.69,0.34,1.16,0.34c0.47,0,0.86-0.12,1.15-0.35
					c0.29-0.24,0.51-0.52,0.64-0.86c0.14-0.34,0.22-0.67,0.25-0.98C50.58,69.14,50.6,68.85,50.6,68.57z"/>
				<path class="st38" d="M65.21,69.77l-0.04,2.37h-5.9v-0.48c0.41,0,0.67-0.06,0.79-0.19c0.12-0.13,0.18-0.34,0.18-0.65v-4.46
					c0-0.21-0.02-0.37-0.06-0.48c-0.04-0.11-0.13-0.2-0.27-0.26c-0.14-0.06-0.35-0.09-0.63-0.09v-0.48h3.33v0.48
					c-0.28,0-0.49,0.03-0.63,0.09c-0.14,0.06-0.23,0.15-0.28,0.26c-0.04,0.11-0.07,0.28-0.07,0.49v4.08c0,0.32,0.01,0.55,0.04,0.69
					c0.03,0.14,0.11,0.25,0.24,0.32c0.13,0.07,0.34,0.11,0.64,0.11c0.37,0,0.7-0.03,0.98-0.09c0.28-0.06,0.54-0.22,0.78-0.49
					c0.24-0.26,0.39-0.67,0.45-1.21H65.21z"/>
				<path class="st38" d="M78.42,72.13h-3.12v-0.48c0.26,0,0.46-0.02,0.58-0.06s0.18-0.14,0.18-0.29c0-0.1-0.02-0.21-0.06-0.32
					l-0.31-0.84h-2.15l-0.16,0.46c-0.09,0.26-0.14,0.44-0.14,0.56c0,0.21,0.08,0.34,0.23,0.4c0.15,0.06,0.33,0.08,0.53,0.08v0.48
					h-2.28v-0.48c0.18,0,0.34-0.04,0.46-0.11c0.13-0.07,0.25-0.21,0.36-0.42c0.12-0.2,0.24-0.49,0.37-0.87l1.91-5.36h0.46l2.02,5.52
					c0.15,0.39,0.25,0.65,0.32,0.79c0.07,0.14,0.16,0.24,0.28,0.32c0.12,0.08,0.29,0.11,0.51,0.11V72.13z M75.5,69.64l-0.91-2.47
					l-0.87,2.47H75.5z"/>
				<path class="st38" d="M91.01,67.06h-0.46c-0.04-0.44-0.13-0.76-0.27-0.97c-0.14-0.21-0.29-0.34-0.45-0.39
					c-0.16-0.05-0.34-0.07-0.55-0.07h-0.84v5.19c0,0.21,0.02,0.37,0.06,0.48c0.04,0.11,0.13,0.2,0.27,0.26
					c0.14,0.06,0.35,0.09,0.63,0.09v0.48h-3.32v-0.48c0.41,0,0.67-0.06,0.79-0.19c0.12-0.13,0.18-0.34,0.18-0.65v-5.19h-0.7
					c-0.28,0-0.51,0.02-0.69,0.07c-0.18,0.05-0.34,0.18-0.48,0.39c-0.14,0.21-0.22,0.54-0.24,0.98h-0.46v-2.01h6.54V67.06z"/>
				<path class="st38" d="M113.94,68.59c0,0.64-0.14,1.25-0.43,1.81c-0.29,0.56-0.71,1.01-1.27,1.35c-0.56,0.34-1.22,0.51-1.99,0.51
					c-0.63,0-1.18-0.11-1.65-0.32c-0.48-0.22-0.86-0.51-1.16-0.87c-0.3-0.36-0.52-0.76-0.67-1.19c-0.14-0.43-0.22-0.87-0.22-1.3
					c0-0.63,0.14-1.23,0.42-1.79c0.28-0.56,0.69-1.01,1.25-1.36c0.56-0.34,1.22-0.52,2-0.52c0.71,0,1.31,0.12,1.8,0.37
					c0.49,0.25,0.88,0.56,1.16,0.94c0.28,0.38,0.47,0.77,0.59,1.18C113.88,67.82,113.94,68.21,113.94,68.59z M112.36,68.57
					c0-0.4-0.03-0.77-0.1-1.13c-0.06-0.36-0.18-0.68-0.33-0.97c-0.16-0.29-0.38-0.52-0.65-0.69c-0.28-0.17-0.62-0.25-1.03-0.25
					c-0.56,0-1,0.15-1.31,0.45c-0.31,0.3-0.53,0.67-0.64,1.12c-0.11,0.45-0.17,0.94-0.17,1.47c0,0.29,0.02,0.6,0.05,0.92
					c0.04,0.32,0.12,0.64,0.26,0.98c0.14,0.33,0.35,0.61,0.65,0.84c0.3,0.23,0.69,0.34,1.16,0.34c0.47,0,0.86-0.12,1.15-0.35
					c0.29-0.24,0.51-0.52,0.64-0.86c0.14-0.34,0.22-0.67,0.25-0.98C112.34,69.14,112.36,68.85,112.36,68.57z"/>
				<path class="st38" d="M126.27,66.88h-0.46c-0.08-0.39-0.19-0.68-0.32-0.86c-0.14-0.18-0.29-0.29-0.45-0.33
					c-0.17-0.04-0.4-0.06-0.7-0.06h-1.18v2.51h0.62c0.29,0,0.49-0.05,0.6-0.16c0.1-0.11,0.17-0.35,0.19-0.72H125v2.36h-0.46
					c-0.02-0.27-0.05-0.47-0.09-0.59c-0.04-0.12-0.12-0.2-0.22-0.25c-0.11-0.05-0.26-0.07-0.48-0.07h-0.6v2.11
					c0,0.29,0.05,0.5,0.16,0.63c0.11,0.14,0.36,0.2,0.75,0.2h0.14v0.48h-3.4v-0.48c0.4,0,0.66-0.06,0.78-0.19
					c0.12-0.13,0.17-0.34,0.17-0.65v-4.46c0-0.2-0.02-0.36-0.06-0.47c-0.04-0.11-0.13-0.2-0.27-0.27c-0.14-0.06-0.35-0.1-0.63-0.1
					v-0.48h5.42L126.27,66.88z"/>
				<path class="st38" d="M136.21,72.13h-3.36v-0.48c0.28,0,0.49-0.03,0.63-0.09c0.14-0.06,0.24-0.14,0.28-0.26
					c0.04-0.12,0.07-0.28,0.07-0.49v-4.46c0-0.31-0.06-0.52-0.18-0.65c-0.12-0.13-0.39-0.19-0.8-0.19v-0.48h3.36v0.48
					c-0.28,0-0.49,0.03-0.63,0.09c-0.14,0.06-0.24,0.15-0.28,0.26c-0.04,0.11-0.07,0.28-0.07,0.49v4.46c0,0.2,0.02,0.36,0.06,0.48
					c0.04,0.12,0.13,0.2,0.27,0.27c0.14,0.06,0.35,0.09,0.65,0.09V72.13z M135.08,63.22c0,0.16-0.05,0.3-0.16,0.42
					c-0.11,0.12-0.23,0.17-0.38,0.17c-0.15,0-0.28-0.06-0.39-0.17c-0.11-0.11-0.16-0.25-0.16-0.42c0-0.16,0.05-0.3,0.16-0.41
					c0.11-0.11,0.24-0.17,0.39-0.17c0.16,0,0.29,0.06,0.39,0.18C135.03,62.93,135.08,63.07,135.08,63.22z"/>
				<path class="st38" d="M147.85,70.1c0,0.22-0.04,0.45-0.13,0.7c-0.09,0.25-0.22,0.48-0.4,0.71c-0.18,0.22-0.4,0.41-0.67,0.55
					c-0.27,0.14-0.58,0.21-0.94,0.21c-0.35,0-0.7-0.08-1.05-0.25c-0.35-0.16-0.64-0.41-0.88-0.73c-0.1,0.26-0.17,0.5-0.2,0.72h-0.45
					v-2.43h0.45c0.08,0.35,0.19,0.68,0.34,0.98c0.14,0.31,0.35,0.57,0.61,0.79c0.26,0.22,0.58,0.33,0.96,0.33
					c0.33,0,0.6-0.1,0.8-0.29c0.2-0.2,0.3-0.44,0.3-0.74c0-0.17-0.03-0.31-0.09-0.44c-0.06-0.13-0.15-0.24-0.27-0.34
					c-0.12-0.1-0.28-0.21-0.48-0.32c-0.2-0.11-0.44-0.23-0.7-0.36c-0.4-0.2-0.73-0.41-0.99-0.61c-0.26-0.21-0.45-0.41-0.58-0.6
					c-0.13-0.19-0.22-0.38-0.27-0.55c-0.05-0.17-0.08-0.35-0.08-0.53c0-0.32,0.08-0.63,0.24-0.94c0.16-0.31,0.39-0.56,0.7-0.76
					c0.31-0.2,0.66-0.3,1.07-0.3c0.31,0,0.6,0.07,0.88,0.22c0.28,0.15,0.52,0.35,0.73,0.61c0.06-0.15,0.11-0.35,0.16-0.62h0.46v1.98
					h-0.46c-0.33-1.08-0.89-1.62-1.7-1.62c-0.29,0-0.53,0.08-0.71,0.25c-0.18,0.17-0.27,0.38-0.27,0.64c0,0.21,0.06,0.38,0.17,0.54
					c0.11,0.15,0.26,0.28,0.44,0.39c0.18,0.11,0.47,0.26,0.88,0.47c0.49,0.25,0.87,0.46,1.15,0.64c0.28,0.18,0.51,0.41,0.7,0.69
					C147.76,69.38,147.85,69.71,147.85,70.1z"/>
			</g>
		</g>
		<g>
			<g>
				<path class="st38" d="M74.77,16.6c-5.52,0-10.01,4.49-10.01,10.01V42.3h10.11v-1.96h-8.15V26.61c0-4.44,3.61-8.05,8.05-8.05
					c4.44,0,8.05,3.61,8.05,8.05v13.74h-2.71v1.96h4.67V26.61C84.78,21.09,80.29,16.6,74.77,16.6z"/>
			</g>
			<g>
				<path class="st38" d="M91.02,11.88c-4.29,0-8.16,1.8-10.81,4.65c0.59,0.32,1.14,0.69,1.66,1.1c2.29-2.33,5.55-3.79,9.16-3.79
					c6.92,0,12.55,5.36,12.55,11.95v21.84h-25.1V25.78c0-1.42,0.28-2.86,0.76-4.12c-0.51-0.41-1.08-0.75-1.68-1.03
					c-0.66,1.59-1.03,3.33-1.03,5.14v23.8h29.01v-23.8C105.53,18.11,99.02,11.88,91.02,11.88z"/>
			</g>
		</g>
	</g>
	<g>
		<g>
			<path class="st40" d="M61.61,88.08l-1.46-2.58l-0.73,0.88v1.71h-1.11V82.4h1.11v2.47l2-2.47h1.35l-1.88,2.26l2.02,3.42H61.61z"/>
			<path class="st40" d="M69.47,88.08l-0.33-1h-2.02l-0.34,1h-1.16l2.06-5.68h0.87l2.07,5.68H69.47z M68.15,84.07l-0.72,2.06h1.41
				L68.15,84.07z"/>
			<path class="st40" d="M77.38,87.48c-0.44,0.45-0.96,0.65-1.6,0.65c-0.61,0-1.12-0.21-1.53-0.62c-0.25-0.25-0.4-0.53-0.46-0.85
				c-0.06-0.32-0.1-0.79-0.1-1.41c0-0.62,0.03-1.09,0.1-1.41c0.06-0.33,0.22-0.61,0.46-0.85c0.41-0.41,0.92-0.62,1.53-0.62
				c1.29,0,1.99,0.83,2.14,1.82H76.8c-0.14-0.55-0.47-0.83-1.02-0.83c-0.29,0-0.53,0.1-0.71,0.3c-0.21,0.26-0.27,0.47-0.27,1.59
				c0,1.12,0.05,1.34,0.27,1.6c0.17,0.2,0.41,0.29,0.71,0.29c0.33,0,0.59-0.1,0.79-0.32c0.17-0.19,0.26-0.45,0.26-0.76v-0.22h-1.04
				v-0.92h2.14v0.83C77.93,86.58,77.77,87.06,77.38,87.48z M75.78,81.87c-0.69,0-1.28-0.34-1.31-1.2h0.69
				c0.04,0.34,0.31,0.48,0.61,0.48c0.3,0,0.57-0.14,0.61-0.48h0.69C77.05,81.52,76.47,81.87,75.78,81.87z"/>
			<path class="st40" d="M81.59,88.08V82.4h1.11v5.68H81.59z"/>
			<path class="st40" d="M88.82,83.39v4.69h-1.11v-4.69h-1.48V82.4h4.07v0.99H88.82z"/>
			<path class="st40" d="M96.87,88.08V85.7h-1.92v2.38h-1.11V82.4h1.11v2.32h1.92V82.4h1.11v5.68H96.87z"/>
			<path class="st40" d="M105.16,88.08l-0.33-1h-2.02l-0.34,1h-1.16l2.06-5.68h0.87l2.07,5.68H105.16z M103.84,84.07l-0.72,2.06
				h1.41L103.84,84.07z"/>
			<path class="st40" d="M113,88.08l-2.25-3.48v3.48h-1.11V82.4h0.99l2.25,3.48V82.4h1.11v5.68H113z"/>
			<path class="st40" d="M117.95,88.08V82.4h3.74v0.99h-2.63v1.33h2.24v0.99h-2.24v1.38h2.63v0.99H117.95z"/>
		</g>
	</g>
</g>
</svg>
