<?xml version="1.0" encoding="utf-8"?>
<!-- Generator: Adobe Illustrator 23.1.1, SVG Export Plug-In . SVG Version: 6.00 Build 0)  -->
<svg version="1.1" id="Layer_1" xmlns="http://www.w3.org/2000/svg" xmlns:xlink="http://www.w3.org/1999/xlink" x="0px" y="0px"
	 viewBox="0 0 180 100" style="enable-background:new 0 0 180 100;" xml:space="preserve">
<style type="text/css">
	.st0{clip-path:url(#SVGID_2_);fill:#FFFFFF;}
	.st1{clip-path:url(#SVGID_2_);fill:none;stroke:#2A2523;stroke-width:1.2;stroke-miterlimit:10;}
	.st2{clip-path:url(#SVGID_2_);fill:#2A2523;}
	.st3{clip-path:url(#SVGID_2_);fill:#E32B27;}
	.st4{clip-path:url(#SVGID_4_);fill:#FFFFFF;}
	.st5{clip-path:url(#SVGID_4_);fill:none;stroke:#2A2523;stroke-width:1.2;stroke-miterlimit:10;}
	.st6{clip-path:url(#SVGID_4_);fill:#3AA9E0;}
	.st7{clip-path:url(#SVGID_4_);fill:#2A2523;}
	.st8{clip-path:url(#SVGID_6_);fill:#FFFFFF;}
	.st9{clip-path:url(#SVGID_6_);fill:none;stroke:#2A2523;stroke-width:1.2;stroke-miterlimit:10;}
	.st10{clip-path:url(#SVGID_6_);fill:#2F3080;}
	.st11{clip-path:url(#SVGID_6_);fill:#2A2523;}
	.st12{fill:#1D1C1A;}
	.st13{clip-path:url(#SVGID_8_);}
	.st14{clip-path:url(#SVGID_10_);}
	.st15{clip-path:url(#SVGID_12_);}
	.st16{clip-path:url(#SVGID_14_);}
	.st17{clip-path:url(#SVGID_16_);}
	.st18{clip-path:url(#SVGID_18_);}
	.st19{fill-rule:evenodd;clip-rule:evenodd;fill:#5B6770;}
	.st20{fill:none;stroke:#5B6770;stroke-width:1.8792;stroke-miterlimit:3.864;}
	.st21{fill-rule:evenodd;clip-rule:evenodd;fill:#79242F;}
	.st22{fill-rule:evenodd;clip-rule:evenodd;fill:#253A75;}
	.st23{fill:none;stroke:#253A75;stroke-width:0.132;stroke-miterlimit:3.864;}
	.st24{fill:#253A75;}
	.st25{fill:#002F3B;}
	.st26{fill:#A69E88;stroke:#A69E88;stroke-width:0.3401;stroke-miterlimit:10;}
	.st27{fill-rule:evenodd;clip-rule:evenodd;fill:#1D1C1A;}
	.st28{fill-rule:evenodd;clip-rule:evenodd;fill:#A5D0E6;}
	.st29{fill-rule:evenodd;clip-rule:evenodd;fill:#FFFFFF;}
	.st30{fill:#002D3A;}
	.st31{clip-path:url(#SVGID_20_);fill:#002E3A;}
	.st32{clip-path:url(#SVGID_20_);fill:#B68D4A;}
	.st33{fill:#B68D4A;}
	.st34{clip-path:url(#SVGID_22_);fill:#B68D4A;}
	.st35{fill:#BC955C;}
	.st36{fill:#A79F88;}
	.st37{fill:#00303C;stroke:#25A9E0;stroke-width:0.6856;stroke-dasharray:3.6133,3.6133;}
	.st38{fill:#00303C;}
	.st39{fill:#41695B;}
	.st40{fill:#907E63;}
	.st41{fill:#804951;}
	.st42{fill:#894B52;}
	.st43{fill:#42695B;stroke:#42695B;stroke-width:0.3;stroke-miterlimit:10;}
	.st44{fill:#231F20;}
	.st45{fill-rule:evenodd;clip-rule:evenodd;fill:#ADAFB1;}
	.st46{fill-rule:evenodd;clip-rule:evenodd;fill:#CFD0D2;stroke:#CFD0D2;stroke-width:0;stroke-miterlimit:3.8637;}
	.st47{fill-rule:evenodd;clip-rule:evenodd;fill:#ADAFB1;stroke:#ADAFB1;stroke-width:0;stroke-miterlimit:3.8637;}
	.st48{fill-rule:evenodd;clip-rule:evenodd;fill:#7A7C7F;stroke:#7A7C7F;stroke-width:0;stroke-miterlimit:3.8637;}
	.st49{fill-rule:evenodd;clip-rule:evenodd;fill:#BDBFC1;stroke:#BDBFC1;stroke-width:0;stroke-miterlimit:3.8637;}
	.st50{fill-rule:evenodd;clip-rule:evenodd;fill:none;stroke:#231F20;stroke-width:0.2422;stroke-miterlimit:3.8637;}
	.st51{fill-rule:evenodd;clip-rule:evenodd;fill:#B1B3B5;stroke:#B1B3B5;stroke-width:0;stroke-miterlimit:3.8637;}
	.st52{clip-path:url(#SVGID_24_);}
	.st53{clip-path:url(#SVGID_26_);}
	.st54{fill:#ADAFB1;}
	.st55{clip-path:url(#SVGID_28_);}
	.st56{fill:#FFFFFF;}
	.st57{fill:#F5F5F6;}
	.st58{fill:#EFF0F0;}
	.st59{fill:#E9EAEB;}
	.st60{fill:#E2E3E4;}
	.st61{fill:#DDDEDF;}
	.st62{fill:#D7D8DA;}
	.st63{fill:#D1D2D4;}
	.st64{fill:#CACCCE;}
	.st65{fill:#C4C6C8;}
	.st66{fill:#BFC1C3;}
	.st67{fill:#B8BABC;}
	.st68{fill:#B2B4B7;}
	.st69{clip-path:url(#SVGID_30_);}
	.st70{clip-path:url(#SVGID_32_);}
</style>
<g>
	<g>
		<path class="st41" d="M25.07,66.25v7.03h-2.59v-7.03L17.37,56.2h2.83l3.57,7.51l3.58-7.51h2.83L25.07,66.25z"/>
		<path class="st41" d="M50.23,71.6c-1.17,1.18-2.69,1.83-4.51,1.83c-1.82,0-3.31-0.65-4.48-1.83c-1.68-1.68-1.66-3.57-1.66-6.86
			c0-3.29-0.02-5.18,1.66-6.86c1.17-1.18,2.66-1.82,4.48-1.82c1.82,0,3.33,0.65,4.51,1.82c1.68,1.68,1.63,3.57,1.63,6.86
			C51.86,68.03,51.91,69.92,50.23,71.6z M42.03,54.43v-2.59h2.21v2.59H42.03z M48.26,59.44c-0.6-0.65-1.53-1.06-2.54-1.06
			c-1.01,0-1.94,0.41-2.54,1.06c-0.84,0.91-1.01,1.87-1.01,5.3s0.17,4.39,1.01,5.3c0.6,0.65,1.53,1.06,2.54,1.06
			c1.01,0,1.94-0.41,2.54-1.06c0.84-0.91,1.01-1.87,1.01-5.3S49.1,60.35,48.26,59.44z M47.21,54.43v-2.59h2.21v2.59H47.21z"/>
		<path class="st41" d="M74.12,73.28l-7.89-12.02v12.02h-2.59V56.2h2.37l7.89,11.99V56.2h2.59v17.08H74.12z"/>
		<path class="st41" d="M88.87,73.28V56.2h10.91v2.33h-8.32v4.99h7.1v2.3h-7.1v5.13h8.32v2.32H88.87z"/>
		<path class="st41" d="M117.03,58.53v14.75h-2.59V58.53h-4.7V56.2h11.99v2.33H117.03z"/>
		<path class="st41" d="M132.6,73.28V56.2h2.59v17.08H132.6z M132.77,51.93h2.33v2.32h-2.33V51.93z"/>
		<path class="st41" d="M160.04,73.28V61.86l-3.93,8.32h-1.92l-4.03-8.32v11.42h-2.59V56.2h2.59l4.99,10.63l4.89-10.63h2.59v17.08
			H160.04z"/>
	</g>
	<g>
		<path class="st41" d="M46.45,37.08h-3.89v6.72h-2.59V26.72h6.48c3.33,0,5.47,2.21,5.47,5.18C51.92,34.88,49.79,37.08,46.45,37.08z
			 M46.31,29.05h-3.74v5.69h3.74c1.8,0,3.02-1.03,3.02-2.83C49.33,30.1,48.11,29.05,46.31,29.05z"/>
		<path class="st41" d="M73,42.12c-1.17,1.18-2.69,1.83-4.51,1.83c-1.82,0-3.31-0.65-4.48-1.83c-1.68-1.68-1.66-3.57-1.66-6.86
			s-0.02-5.18,1.66-6.86c1.17-1.18,2.66-1.82,4.48-1.82c1.82,0,3.33,0.65,4.51,1.82c1.68,1.68,1.63,3.57,1.63,6.86
			S74.68,40.44,73,42.12z M71.04,29.96c-0.6-0.65-1.53-1.06-2.54-1.06c-1.01,0-1.94,0.41-2.54,1.06c-0.84,0.91-1.01,1.87-1.01,5.3
			s0.17,4.39,1.01,5.3c0.6,0.65,1.53,1.06,2.54,1.06c1.01,0,1.94-0.41,2.54-1.06c0.84-0.91,1.01-1.87,1.01-5.3
			S71.88,30.87,71.04,29.96z"/>
		<path class="st41" d="M86.39,43.8V26.72h2.59v14.75h8.23v2.32H86.39z"/>
		<path class="st41" d="M117.88,43.8l-1.17-3.43h-6.74l-1.18,3.43h-2.76l6.26-17.08h2.09l6.26,17.08H117.88z M113.4,30.58
			l-2.66,7.58h5.25L113.4,30.58z"/>
		<path class="st41" d="M135.32,29.05V43.8h-2.59V29.05h-4.7v-2.33h11.99v2.33H135.32z"/>
	</g>
</g>
</svg>
