<?xml version="1.0" encoding="utf-8"?>
<!-- Generator: Adobe Illustrator 23.1.1, SVG Export Plug-In . SVG Version: 6.00 Build 0)  -->
<svg version="1.1" id="Layer_1" xmlns="http://www.w3.org/2000/svg" xmlns:xlink="http://www.w3.org/1999/xlink" x="0px" y="0px"
	 viewBox="0 0 180 100" style="enable-background:new 0 0 180 100;" xml:space="preserve">
<style type="text/css">
	.st0{clip-path:url(#SVGID_2_);fill:#FFFFFF;}
	.st1{clip-path:url(#SVGID_2_);fill:none;stroke:#2A2523;stroke-width:1.2;stroke-miterlimit:10;}
	.st2{clip-path:url(#SVGID_2_);fill:#2A2523;}
	.st3{clip-path:url(#SVGID_2_);fill:#E32B27;}
	.st4{clip-path:url(#SVGID_4_);fill:#FFFFFF;}
	.st5{clip-path:url(#SVGID_4_);fill:none;stroke:#2A2523;stroke-width:1.2;stroke-miterlimit:10;}
	.st6{clip-path:url(#SVGID_4_);fill:#3AA9E0;}
	.st7{clip-path:url(#SVGID_4_);fill:#2A2523;}
	.st8{clip-path:url(#SVGID_6_);fill:#FFFFFF;}
	.st9{clip-path:url(#SVGID_6_);fill:none;stroke:#2A2523;stroke-width:1.2;stroke-miterlimit:10;}
	.st10{clip-path:url(#SVGID_6_);fill:#2F3080;}
	.st11{clip-path:url(#SVGID_6_);fill:#2A2523;}
	.st12{fill:#1D1C1A;}
	.st13{clip-path:url(#SVGID_8_);}
	.st14{clip-path:url(#SVGID_10_);}
	.st15{clip-path:url(#SVGID_12_);}
	.st16{clip-path:url(#SVGID_14_);}
	.st17{clip-path:url(#SVGID_16_);}
	.st18{clip-path:url(#SVGID_18_);}
	.st19{fill-rule:evenodd;clip-rule:evenodd;fill:#5B6770;}
	.st20{fill:none;stroke:#5B6770;stroke-width:1.8792;stroke-miterlimit:3.864;}
	.st21{fill-rule:evenodd;clip-rule:evenodd;fill:#79242F;}
	.st22{fill-rule:evenodd;clip-rule:evenodd;fill:#253A75;}
	.st23{fill:none;stroke:#253A75;stroke-width:0.132;stroke-miterlimit:3.864;}
	.st24{fill:#253A75;}
	.st25{fill:#002F3B;}
	.st26{fill:#A69E88;stroke:#A69E88;stroke-width:0.3401;stroke-miterlimit:10;}
	.st27{fill-rule:evenodd;clip-rule:evenodd;fill:#1D1C1A;}
	.st28{fill-rule:evenodd;clip-rule:evenodd;fill:#A5D0E6;}
	.st29{fill-rule:evenodd;clip-rule:evenodd;fill:#FFFFFF;}
	.st30{fill:#002D3A;}
	.st31{clip-path:url(#SVGID_20_);fill:#002E3A;}
	.st32{clip-path:url(#SVGID_20_);fill:#B68D4A;}
	.st33{fill:#B68D4A;}
	.st34{clip-path:url(#SVGID_22_);fill:#B68D4A;}
	.st35{fill:#BC955C;}
	.st36{fill:#A79F88;}
	.st37{fill:#00303C;stroke:#25A9E0;stroke-width:0.6856;stroke-dasharray:3.6133,3.6133;}
	.st38{fill:#00303C;}
	.st39{fill:#41695B;}
	.st40{fill:#907E63;}
	.st41{fill:#804951;}
	.st42{fill:#894B52;}
	.st43{fill:#42695B;stroke:#42695B;stroke-width:0.3;stroke-miterlimit:10;}
	.st44{fill:#231F20;}
	.st45{fill-rule:evenodd;clip-rule:evenodd;fill:#ADAFB1;}
	.st46{fill-rule:evenodd;clip-rule:evenodd;fill:#CFD0D2;stroke:#CFD0D2;stroke-width:0;stroke-miterlimit:3.8637;}
	.st47{fill-rule:evenodd;clip-rule:evenodd;fill:#ADAFB1;stroke:#ADAFB1;stroke-width:0;stroke-miterlimit:3.8637;}
	.st48{fill-rule:evenodd;clip-rule:evenodd;fill:#7A7C7F;stroke:#7A7C7F;stroke-width:0;stroke-miterlimit:3.8637;}
	.st49{fill-rule:evenodd;clip-rule:evenodd;fill:#BDBFC1;stroke:#BDBFC1;stroke-width:0;stroke-miterlimit:3.8637;}
	.st50{fill-rule:evenodd;clip-rule:evenodd;fill:none;stroke:#231F20;stroke-width:0.2422;stroke-miterlimit:3.8637;}
	.st51{fill-rule:evenodd;clip-rule:evenodd;fill:#B1B3B5;stroke:#B1B3B5;stroke-width:0;stroke-miterlimit:3.8637;}
	.st52{clip-path:url(#SVGID_24_);}
	.st53{clip-path:url(#SVGID_26_);}
	.st54{fill:#ADAFB1;}
	.st55{clip-path:url(#SVGID_28_);}
	.st56{fill:#FFFFFF;}
	.st57{fill:#F5F5F6;}
	.st58{fill:#EFF0F0;}
	.st59{fill:#E9EAEB;}
	.st60{fill:#E2E3E4;}
	.st61{fill:#DDDEDF;}
	.st62{fill:#D7D8DA;}
	.st63{fill:#D1D2D4;}
	.st64{fill:#CACCCE;}
	.st65{fill:#C4C6C8;}
	.st66{fill:#BFC1C3;}
	.st67{fill:#B8BABC;}
	.st68{fill:#B2B4B7;}
	.st69{clip-path:url(#SVGID_30_);}
	.st70{clip-path:url(#SVGID_32_);}
</style>
<g>
	<path class="st42" d="M64.8,40h-2.69v4.65h-1.79V32.83h4.48c2.31,0,3.79,1.53,3.79,3.59C68.59,38.47,67.11,40,64.8,40z
		 M64.71,34.44h-2.59v3.93h2.59c1.24,0,2.09-0.71,2.09-1.96S65.95,34.44,64.71,34.44z"/>
	<path class="st42" d="M83.18,43.49c-0.81,0.81-1.86,1.26-3.12,1.26c-1.26,0-2.29-0.45-3.1-1.26c-1.16-1.16-1.15-2.47-1.15-4.75
		c0-2.27-0.02-3.58,1.15-4.75c0.81-0.81,1.84-1.26,3.1-1.26c1.26,0,2.31,0.45,3.12,1.26c1.16,1.16,1.13,2.47,1.13,4.75
		C84.31,41.02,84.35,42.33,83.18,43.49z M81.82,35.07c-0.41-0.45-1.06-0.73-1.76-0.73c-0.7,0-1.34,0.28-1.76,0.73
		c-0.58,0.63-0.7,1.29-0.7,3.67c0,2.37,0.12,3.04,0.7,3.67c0.42,0.45,1.06,0.73,1.76,0.73c0.7,0,1.35-0.28,1.76-0.73
		c0.58-0.63,0.7-1.29,0.7-3.67C82.52,36.37,82.4,35.7,81.82,35.07z"/>
	<path class="st42" d="M92.45,44.65V32.83h1.79v10.21h5.7v1.61H92.45z"/>
	<path class="st42" d="M114.25,44.65l-0.81-2.37h-4.66l-0.81,2.37h-1.91l4.33-11.82h1.44l4.33,11.82H114.25z M111.14,35.5
		l-1.84,5.25h3.64L111.14,35.5z"/>
	<path class="st42" d="M126.32,34.44v10.21h-1.79V34.44h-3.25v-1.61h8.3v1.61H126.32z"/>
	<path class="st42" d="M14.74,65.92c-0.9,0.95-2.01,1.34-3.25,1.34c-1.23,0-2.29-0.45-3.1-1.26c-1.16-1.16-1.15-2.47-1.15-4.75
		c0-2.27-0.02-3.58,1.15-4.75c0.81-0.81,1.84-1.26,3.1-1.26c2.51,0,3.97,1.64,4.3,3.67h-1.81c-0.3-1.3-1.16-2.06-2.49-2.06
		c-0.7,0-1.33,0.28-1.74,0.73c-0.58,0.63-0.71,1.29-0.71,3.67c0,2.37,0.13,3.06,0.71,3.69c0.41,0.45,1.04,0.71,1.74,0.71
		c0.78,0,1.46-0.3,1.93-0.83c0.43-0.5,0.6-1.1,0.6-1.86V62.3h-2.52v-1.53h4.32v1.81C15.8,64.11,15.52,65.09,14.74,65.92z"/>
	<path class="st42" d="M30.54,67.17l-0.81-2.37h-4.66l-0.81,2.37h-1.91l4.33-11.82h1.44l4.33,11.82H30.54z M27.44,58.02l-1.84,5.25
		h3.64L27.44,58.02z"/>
	<path class="st42" d="M42.9,62.3v4.86H41.1V62.3l-3.54-6.96h1.96l2.47,5.2l2.47-5.2h1.96L42.9,62.3z"/>
	<path class="st42" d="M60.06,67.17l-2.49-4.98h-2.24v4.98h-1.79V55.35h4.58c2.24,0,3.67,1.45,3.67,3.45c0,1.69-1.03,2.77-2.36,3.14
		l2.72,5.23H60.06z M57.99,56.96h-2.66v3.7h2.66c1.2,0,2.01-0.68,2.01-1.84C60,57.66,59.18,56.96,57.99,56.96z"/>
	<path class="st42" d="M69.9,67.17V55.35h1.79v11.82H69.9z M70.01,52.39h1.61V54h-1.61V52.39z"/>
	<path class="st42" d="M88.89,67.17v-7.9l-2.72,5.76h-1.33l-2.79-5.76v7.9h-1.79V55.35h1.79l3.45,7.35l3.39-7.35h1.79v11.82H88.89z"
		/>
	<path class="st42" d="M99.23,67.17V55.35h7.55v1.61h-5.76v3.45h4.91v1.59h-4.91v3.55h5.76v1.61H99.23z"/>
	<path class="st42" d="M121.98,67.17l-5.46-8.32v8.32h-1.79V55.35h1.64l5.46,8.3v-8.3h1.79v11.82H121.98z"/>
	<path class="st42" d="M139.29,67.17l-3.32-5.83l-1.99,2.39v3.44h-1.79V55.35h1.79v5.94l4.83-5.94H141l-3.84,4.63l4.23,7.19H139.29z
		"/>
	<path class="st42" d="M152.64,67.27c-2.41,0-4.23-1.64-4.23-4.08v-7.84h1.79v7.75c0,1.58,0.96,2.56,2.44,2.56
		c1.48,0,2.46-0.98,2.46-2.56v-7.75h1.79v7.84C156.89,65.63,155.05,67.27,152.64,67.27z"/>
	<path class="st42" d="M165.28,67.17V55.35h1.79v10.21h5.7v1.61H165.28z"/>
</g>
</svg>
