<?xml version="1.0" encoding="utf-8"?>
<!-- Generator: Adobe Illustrator 23.1.1, SVG Export Plug-In . SVG Version: 6.00 Build 0)  -->
<svg version="1.1" id="Layer_1" xmlns="http://www.w3.org/2000/svg" xmlns:xlink="http://www.w3.org/1999/xlink" x="0px" y="0px"
	 viewBox="0 0 180 100" style="enable-background:new 0 0 180 100;" xml:space="preserve">
<style type="text/css">
	.st0{clip-path:url(#SVGID_2_);fill:#FFFFFF;}
	.st1{clip-path:url(#SVGID_2_);fill:none;stroke:#2A2523;stroke-width:1.2;stroke-miterlimit:10;}
	.st2{clip-path:url(#SVGID_2_);fill:#2A2523;}
	.st3{clip-path:url(#SVGID_2_);fill:#E32B27;}
	.st4{clip-path:url(#SVGID_4_);fill:#FFFFFF;}
	.st5{clip-path:url(#SVGID_4_);fill:none;stroke:#2A2523;stroke-width:1.2;stroke-miterlimit:10;}
	.st6{clip-path:url(#SVGID_4_);fill:#3AA9E0;}
	.st7{clip-path:url(#SVGID_4_);fill:#2A2523;}
	.st8{clip-path:url(#SVGID_6_);fill:#FFFFFF;}
	.st9{clip-path:url(#SVGID_6_);fill:none;stroke:#2A2523;stroke-width:1.2;stroke-miterlimit:10;}
	.st10{clip-path:url(#SVGID_6_);fill:#2F3080;}
	.st11{clip-path:url(#SVGID_6_);fill:#2A2523;}
	.st12{fill:#1D1C1A;}
	.st13{clip-path:url(#SVGID_8_);}
	.st14{clip-path:url(#SVGID_10_);}
	.st15{clip-path:url(#SVGID_12_);}
	.st16{clip-path:url(#SVGID_14_);}
	.st17{clip-path:url(#SVGID_16_);}
	.st18{clip-path:url(#SVGID_18_);}
	.st19{fill-rule:evenodd;clip-rule:evenodd;fill:#5B6770;}
	.st20{fill:none;stroke:#5B6770;stroke-width:1.8792;stroke-miterlimit:3.864;}
	.st21{fill-rule:evenodd;clip-rule:evenodd;fill:#79242F;}
	.st22{fill-rule:evenodd;clip-rule:evenodd;fill:#253A75;}
	.st23{fill:none;stroke:#253A75;stroke-width:0.132;stroke-miterlimit:3.864;}
	.st24{fill:#253A75;}
	.st25{fill:#002F3B;}
	.st26{fill:#A69E88;stroke:#A69E88;stroke-width:0.3401;stroke-miterlimit:10;}
	.st27{fill-rule:evenodd;clip-rule:evenodd;fill:#1D1C1A;}
	.st28{fill-rule:evenodd;clip-rule:evenodd;fill:#A5D0E6;}
	.st29{fill-rule:evenodd;clip-rule:evenodd;fill:#FFFFFF;}
	.st30{fill:#002D3A;}
	.st31{clip-path:url(#SVGID_20_);fill:#002E3A;}
	.st32{clip-path:url(#SVGID_20_);fill:#B68D4A;}
	.st33{fill:#B68D4A;}
	.st34{clip-path:url(#SVGID_22_);fill:#B68D4A;}
	.st35{fill:#BC955C;}
	.st36{fill:#A79F88;}
	.st37{fill:#00303C;stroke:#25A9E0;stroke-width:0.6856;stroke-dasharray:3.6133,3.6133;}
	.st38{fill:#00303C;}
	.st39{fill:#41695B;}
	.st40{fill:#907E63;}
	.st41{fill:#804951;}
	.st42{fill:#894B52;}
	.st43{fill:#42695B;stroke:#42695B;stroke-width:0.3;stroke-miterlimit:10;}
	.st44{fill:#231F20;}
	.st45{fill-rule:evenodd;clip-rule:evenodd;fill:#ADAFB1;}
	.st46{fill-rule:evenodd;clip-rule:evenodd;fill:#CFD0D2;stroke:#CFD0D2;stroke-width:0;stroke-miterlimit:3.8637;}
	.st47{fill-rule:evenodd;clip-rule:evenodd;fill:#ADAFB1;stroke:#ADAFB1;stroke-width:0;stroke-miterlimit:3.8637;}
	.st48{fill-rule:evenodd;clip-rule:evenodd;fill:#7A7C7F;stroke:#7A7C7F;stroke-width:0;stroke-miterlimit:3.8637;}
	.st49{fill-rule:evenodd;clip-rule:evenodd;fill:#BDBFC1;stroke:#BDBFC1;stroke-width:0;stroke-miterlimit:3.8637;}
	.st50{fill-rule:evenodd;clip-rule:evenodd;fill:none;stroke:#231F20;stroke-width:0.2422;stroke-miterlimit:3.8637;}
	.st51{fill-rule:evenodd;clip-rule:evenodd;fill:#B1B3B5;stroke:#B1B3B5;stroke-width:0;stroke-miterlimit:3.8637;}
	.st52{clip-path:url(#SVGID_24_);}
	.st53{clip-path:url(#SVGID_26_);}
	.st54{fill:#ADAFB1;}
	.st55{clip-path:url(#SVGID_28_);}
	.st56{fill:#FFFFFF;}
	.st57{fill:#F5F5F6;}
	.st58{fill:#EFF0F0;}
	.st59{fill:#E9EAEB;}
	.st60{fill:#E2E3E4;}
	.st61{fill:#DDDEDF;}
	.st62{fill:#D7D8DA;}
	.st63{fill:#D1D2D4;}
	.st64{fill:#CACCCE;}
	.st65{fill:#C4C6C8;}
	.st66{fill:#BFC1C3;}
	.st67{fill:#B8BABC;}
	.st68{fill:#B2B4B7;}
	.st69{clip-path:url(#SVGID_30_);}
	.st70{clip-path:url(#SVGID_32_);}
</style>
<g>
	<g>
		<defs>
			<rect id="SVGID_3_" x="7.31" y="31.78" width="165.38" height="36.44"/>
		</defs>
		<clipPath id="SVGID_2_">
			<use xlink:href="#SVGID_3_"  style="overflow:visible;"/>
		</clipPath>
		
			<rect x="7.84" y="32.39" transform="matrix(1 -1.272330e-03 1.272330e-03 1 -0.0635 0.1146)" class="st0" width="164.31" height="35.21"/>
		
			<rect x="7.84" y="32.39" transform="matrix(1 -1.272330e-03 1.272330e-03 1 -0.0635 0.1146)" class="st1" width="164.31" height="35.21"/>
		<path style="clip-path:url(#SVGID_2_);fill:#3AA9E0;" d="M51.06,53.67c-0.02,0.03-0.07,0.03-0.09,0l-0.38-0.38l3.54-3.54
			l-4.55,0.01c-0.59,0-1.16,0.33-1.71,0.8l-0.95-0.95l-7.2,0.02l4.47,4.45c-0.38,0.21-0.76,0.33-1.17,0.33
			c-2.38,0-4.16-2.66-4.2-4.71c-0.08-4.62,3.29-6.53,5.16-6.45c1.43,0.05,2.77,1.03,2.8,2.44c0.07,2.67-3.78,2.89-4.11,3.04
			l10.26-0.02c0.36,0,0.89-0.38,0.89-0.89c0-0.46-0.36-0.78-1.24-1.62L44.2,37.9c-0.54-0.54-1.42-0.54-1.95,0l-9.89,9.91
			c-0.54,0.54-0.54,1.42,0,1.96l9.91,9.89c0.54,0.54,1.42,0.54,1.95,0l2.76-2.76l2.8,2.8c0.33,0.33,0.77,0.51,1.24,0.51
			c0.47,0,0.91-0.18,1.24-0.51l10.09-10.11l-7.21,0L51.06,53.67z M42.5,50.78l3.92-0.01l0.6,0.6c-0.63,0.67-1.26,1.42-1.91,2.02
			L42.5,50.78z M59.56,50.73l-8.12,8.13c-0.11,0.11-0.26,0.17-0.42,0.17c-0.16,0-0.3-0.06-0.42-0.17l-2.8-2.8l1.96-1.96l0.38,0.38
			c0.23,0.23,0.54,0.36,0.87,0.36c0.33,0,0.63-0.13,0.87-0.36l3.74-3.75H59.56z"/>
		<path class="st2" d="M114.58,53.47c-0.08-0.81-0.08-1.61-0.11-2.42c-0.09-1.03-0.08-1.47-0.77-1.91l0.26-0.37
			c0.29-0.4,0.66-1.29,0.68-2.13c0.05-2.5-1.15-3.09-2.83-3.09l-2.34,0l0.01,10.85l0.95,0l-0.01-4.64l1.76,0
			c1.05,0,1.37,0.79,1.38,1.88c0,0.72,0.09,2.07,0.28,2.76l1.04,0v-0.25C114.68,54.14,114.62,53.67,114.58,53.47 M112.05,48.54
			l-1.61,0l0-3.84l1.46,0c0.6,0,1.81-0.03,1.83,1.84C113.75,48.43,112.74,48.55,112.05,48.54"/>
		
			<rect x="128.87" y="41.82" transform="matrix(1 -1.131531e-03 1.131531e-03 1 -0.0479 0.1464)" class="st2" width="0.91" height="1.25"/>
		
			<rect x="128.87" y="43.52" transform="matrix(1 -1.045580e-03 1.045580e-03 1 -0.0511 0.1353)" class="st2" width="0.95" height="10.85"/>
		
			<rect x="98.35" y="43.56" transform="matrix(1 -1.046692e-03 1.046692e-03 1 -0.0512 0.1035)" class="st2" width="0.95" height="10.85"/>
		
			<rect x="98.34" y="41.86" transform="matrix(1 -1.130272e-03 1.130272e-03 1 -0.048 0.1117)" class="st2" width="0.91" height="1.25"/>
		
			<rect x="117.58" y="43.53" transform="matrix(1 -1.047823e-03 1.047823e-03 1 -0.0512 0.1237)" class="st2" width="0.95" height="10.85"/>
		
			<rect x="117.58" y="41.83" transform="matrix(1 -1.132813e-03 1.132813e-03 1 -0.048 0.1337)" class="st2" width="0.91" height="1.25"/>
		<polygon class="st2" points="121.56,54.38 122.51,54.38 122.5,49.4 126.02,49.39 126.02,48.19 122.5,48.19 122.5,44.73 
			126.21,44.72 126.21,43.53 121.55,43.54 		"/>
		<polygon class="st2" points="141.9,53.14 141.89,49.37 145.42,49.37 145.42,48.17 141.89,48.17 141.89,44.7 145.6,44.7 
			145.6,43.51 140.94,43.51 140.95,54.33 145.64,54.32 145.64,53.14 		"/>
		<polygon class="st2" points="135.37,48.95 133.16,43.52 132,43.52 134.88,50.15 134.88,54.35 135.85,54.35 135.84,50.15 
			138.73,43.51 137.57,43.51 		"/>
		<polygon class="st2" points="102.23,44.76 104.08,44.76 104.09,54.43 105.04,54.43 105.03,44.75 106.9,44.75 106.9,43.55 
			102.22,43.56 		"/>
		<polygon class="st2" points="93.14,52.52 91.25,43.58 90.27,43.58 92.6,54.42 93.66,54.42 96.01,43.57 95.02,43.57 		"/>
		<polygon class="st2" points="67.37,50.3 69.88,50.3 69.88,47.78 67.37,47.78 67.36,46.1 70.36,46.1 70.36,43.57 65.35,43.58 
			65.36,54.47 70.54,54.46 70.54,51.96 67.37,51.97 		"/>
		<polygon class="st2" points="84.41,50.29 86.92,50.29 86.92,47.77 84.4,47.77 84.4,46.09 87.4,46.09 87.4,43.56 82.39,43.57 
			82.4,54.46 87.58,54.45 87.58,51.95 84.41,51.96 		"/>
		<path class="st2" d="M76.61,50.72l0.49,0l0.29,0.01c-0.05,0.28-0.12,0.52-0.23,0.72c-0.2,0.35-0.51,0.52-0.83,0.52
			c-0.32,0-0.61-0.22-0.86-0.66c-0.25-0.44-0.38-1.19-0.38-2.24c0-1.05,0.11-1.83,0.34-2.35c0.24-0.52,0.53-0.79,0.89-0.79
			c0.19,0,0.36,0.06,0.51,0.19c0.28,0.24,0.45,0.65,0.52,1.23l1.83,0l0-0.43c-0.08-1.06-0.37-1.94-0.88-2.63
			c-0.51-0.71-1.19-1.06-2.03-1.06c-0.98,0-1.75,0.54-2.34,1.61c-0.59,1.08-0.88,2.5-0.88,4.26c0,1.75,0.3,3.13,0.88,4.14
			c0.56,1.01,1.28,1.51,2.16,1.51c0.54,0,0.98-0.18,1.35-0.56c0.13-0.13,0.25-0.27,0.38-0.46l0.25,0.73l1.24,0l-0.01-6l-2.7,0
			L76.61,50.72z"/>
		<path class="st2" d="M64.71,60.32l0.43,0l0,0.12c0,0.23,0.06,0.4,0.19,0.51c0.13,0.11,0.31,0.17,0.56,0.17
			c0.22,0,0.4-0.06,0.53-0.17c0.13-0.11,0.19-0.27,0.19-0.46c0-0.15-0.04-0.27-0.11-0.36c-0.08-0.08-0.25-0.17-0.53-0.25L65.7,59.8
			c-0.32-0.1-0.52-0.17-0.59-0.22c-0.11-0.08-0.19-0.18-0.25-0.3c-0.06-0.12-0.08-0.25-0.08-0.39c0-0.29,0.1-0.52,0.29-0.68
			c0.19-0.16,0.46-0.25,0.81-0.25c0.33,0,0.58,0.08,0.77,0.23c0.19,0.15,0.28,0.36,0.28,0.63v0.04v0.04h-0.41l0-0.03
			c0-0.18-0.06-0.33-0.17-0.43c-0.11-0.1-0.27-0.15-0.47-0.15c-0.21,0-0.38,0.05-0.5,0.15c-0.12,0.1-0.18,0.23-0.18,0.4
			c0,0.16,0.04,0.28,0.12,0.37c0.08,0.09,0.26,0.17,0.54,0.26L66,59.49c0.42,0.13,0.67,0.22,0.76,0.29c0.1,0.07,0.17,0.17,0.22,0.28
			c0.02,0.06,0.04,0.12,0.05,0.18c0.01,0.06,0.02,0.13,0.02,0.21c0,0.32-0.1,0.56-0.31,0.74c-0.21,0.18-0.5,0.27-0.88,0.27
			c-0.37,0-0.66-0.09-0.85-0.26c-0.19-0.18-0.29-0.43-0.29-0.77v-0.05V60.32z"/>
		<path class="st2" d="M67.54,61.38l1.1-3.35l0.57,0l1.12,3.35h-0.46l-0.31-0.97l-1.28,0L68,61.38H67.54z M68.39,60.07l1.08,0
			l-0.54-1.75L68.39,60.07z"/>
		<path class="st2" d="M73.05,61.37l-0.03-0.46c-0.07,0.17-0.19,0.31-0.35,0.4s-0.35,0.14-0.58,0.14c-0.43,0-0.75-0.14-0.96-0.43
			c-0.21-0.29-0.31-0.73-0.31-1.34c0-0.61,0.11-1.04,0.32-1.32c0.21-0.27,0.56-0.41,1.04-0.41c0.36,0,0.65,0.09,0.85,0.27
			c0.1,0.09,0.18,0.2,0.24,0.32c0.05,0.13,0.08,0.27,0.08,0.44l-0.44,0c0-0.12-0.02-0.22-0.05-0.3c-0.03-0.09-0.09-0.16-0.16-0.23
			c-0.13-0.13-0.31-0.19-0.54-0.19c-0.31,0-0.54,0.11-0.67,0.34c-0.13,0.23-0.2,0.62-0.2,1.18c0,0.44,0.07,0.78,0.21,0.99
			c0.07,0.11,0.16,0.19,0.27,0.24c0.11,0.06,0.23,0.08,0.38,0.08c0.26,0,0.46-0.09,0.6-0.25c0.14-0.17,0.21-0.41,0.21-0.73v-0.09
			l0-0.06l-0.92,0v-0.34l1.35,0l0,1.75H73.05z M71.47,57.14h0.25c0.02,0.09,0.06,0.16,0.12,0.2c0.04,0.02,0.08,0.04,0.12,0.05
			c0.05,0.01,0.11,0.02,0.18,0.02c0.13,0,0.23-0.02,0.29-0.06c0.06-0.04,0.1-0.11,0.12-0.2l0.25,0c-0.02,0.19-0.08,0.33-0.19,0.42
			c-0.11,0.09-0.26,0.13-0.47,0.13c-0.21,0-0.36-0.04-0.47-0.13C71.56,57.47,71.49,57.33,71.47,57.14"/>
		<polygon class="st2" points="74.22,61.37 74.22,58.02 74.67,58.02 74.67,61.01 76.29,61 76.29,61.37 		"/>
		
			<rect x="76.91" y="58.02" transform="matrix(1 -1.222379e-03 1.222379e-03 1 -0.0729 0.0943)" class="st2" width="0.46" height="3.35"/>
		<polygon class="st2" points="78.23,61.37 78.22,58.02 78.67,58.02 78.67,59.62 80.13,58.01 80.65,58.01 79.4,59.37 80.75,61.36 
			80.2,61.36 79.1,59.7 78.67,60.15 78.67,61.36 		"/>
		<path class="st2" d="M84.88,61.36l-0.03-0.46c-0.07,0.17-0.19,0.31-0.35,0.4c-0.16,0.09-0.35,0.14-0.58,0.14
			c-0.43,0-0.75-0.14-0.96-0.43c-0.21-0.29-0.31-0.74-0.31-1.34c0-0.61,0.11-1.04,0.32-1.32c0.21-0.27,0.56-0.41,1.04-0.41
			c0.36,0,0.65,0.09,0.86,0.27c0.1,0.09,0.18,0.2,0.23,0.32c0.05,0.13,0.08,0.28,0.08,0.44h-0.44c0-0.11-0.02-0.22-0.05-0.3
			c-0.03-0.09-0.09-0.16-0.16-0.23c-0.13-0.13-0.31-0.19-0.54-0.19c-0.31,0-0.53,0.11-0.67,0.34c-0.13,0.23-0.2,0.62-0.2,1.18
			c0,0.44,0.07,0.78,0.21,0.99c0.07,0.11,0.16,0.19,0.27,0.24c0.11,0.05,0.23,0.08,0.38,0.08c0.26,0,0.46-0.08,0.6-0.25
			c0.14-0.17,0.21-0.42,0.21-0.73v-0.09v-0.06l-0.92,0v-0.34l1.35,0l0,1.75H84.88z"/>
		<polygon class="st2" points="86.06,61.36 86.05,58.01 88.06,58 88.06,58.35 86.5,58.35 86.5,59.43 87.96,59.43 87.96,59.77 
			86.5,59.77 86.5,61 88.08,61 88.08,61.35 		"/>
		<path class="st2" d="M88.83,61.35L88.82,58l1.13,0c0.42,0,0.73,0.07,0.93,0.21c0.2,0.14,0.3,0.36,0.3,0.65
			c0,0.22-0.06,0.4-0.18,0.54c-0.12,0.13-0.31,0.23-0.57,0.29c0.11,0,0.21,0.02,0.29,0.05c0.08,0.03,0.15,0.07,0.22,0.13
			c0.11,0.1,0.18,0.27,0.2,0.48l0.03,0.34c0,0.17,0.02,0.31,0.06,0.43c0.04,0.12,0.09,0.19,0.15,0.24l-0.56,0
			c-0.03-0.04-0.06-0.11-0.08-0.2c-0.02-0.09-0.03-0.21-0.03-0.34c0-0.07,0-0.14-0.01-0.2c-0.01-0.06-0.01-0.11-0.02-0.14
			c-0.03-0.23-0.1-0.39-0.22-0.47c-0.12-0.08-0.33-0.13-0.64-0.13l-0.57,0l0,1.49H88.83z M89.26,59.54l0.55,0
			c0.31,0,0.54-0.05,0.69-0.15c0.15-0.1,0.22-0.26,0.22-0.47c0-0.2-0.07-0.35-0.2-0.44c-0.13-0.09-0.34-0.14-0.63-0.14l-0.63,0
			L89.26,59.54z"/>
		<polygon class="st2" points="92.09,61.35 92.09,58 94.09,58 94.09,58.34 92.54,58.35 92.54,59.42 93.99,59.42 93.99,59.76 
			92.54,59.76 92.54,60.99 94.11,60.99 94.11,61.34 		"/>
		<path class="st2" d="M95.86,61.42c-0.34-0.03-0.6-0.17-0.78-0.42c-0.2-0.29-0.3-0.73-0.3-1.32c0-0.62,0.1-1.07,0.3-1.35
			c0.2-0.28,0.52-0.42,0.96-0.42c0.36,0,0.65,0.09,0.85,0.27c0.2,0.18,0.3,0.43,0.3,0.75v0.04l-0.44,0c0-0.23-0.07-0.41-0.19-0.54
			c-0.13-0.13-0.31-0.19-0.53-0.19c-0.27,0-0.47,0.11-0.59,0.33c-0.12,0.22-0.18,0.59-0.18,1.1c0,0.25,0.02,0.47,0.05,0.64
			c0.03,0.18,0.08,0.32,0.14,0.43c0.12,0.21,0.33,0.32,0.61,0.32c0.23,0,0.4-0.08,0.53-0.23c0.12-0.16,0.18-0.38,0.18-0.67v-0.05
			l0.44,0c0,0.21-0.03,0.4-0.08,0.56c-0.05,0.16-0.13,0.3-0.24,0.42c-0.1,0.11-0.22,0.19-0.36,0.25c-0.14,0.06-0.3,0.09-0.48,0.09
			v0.14h0.02c0.17,0,0.3,0.03,0.4,0.1c0.1,0.07,0.14,0.16,0.14,0.28c0,0.14-0.05,0.24-0.16,0.32c-0.11,0.07-0.27,0.11-0.48,0.11
			c-0.07,0-0.15-0.01-0.23-0.01c-0.08-0.01-0.16-0.03-0.25-0.04l0-0.22l0.04,0.01c0.23,0.03,0.37,0.05,0.43,0.05
			c0.1,0,0.17-0.02,0.22-0.05c0.05-0.03,0.07-0.08,0.07-0.13c0-0.06-0.03-0.11-0.08-0.14c-0.05-0.03-0.12-0.05-0.22-0.05h-0.04
			l-0.06,0.01V61.42z"/>
		<polygon class="st2" points="98.03,61.34 98.02,57.99 98.47,57.99 98.48,60.98 100.09,60.97 100.09,61.34 		"/>
		<polygon class="st2" points="100.72,61.34 100.71,57.99 102.71,57.99 102.72,58.33 101.16,58.34 101.16,59.41 102.61,59.41 
			102.61,59.75 101.16,59.75 101.16,60.98 102.73,60.98 102.73,61.33 		"/>
		<path class="st2" d="M103.48,61.33l0-3.35l1.13,0c0.42,0,0.73,0.07,0.93,0.21c0.2,0.14,0.3,0.36,0.3,0.65
			c0,0.22-0.06,0.4-0.18,0.54c-0.12,0.13-0.31,0.23-0.57,0.29c0.11,0,0.2,0.02,0.29,0.05c0.08,0.03,0.16,0.07,0.21,0.13
			c0.11,0.1,0.18,0.27,0.21,0.48l0.03,0.34c0,0.17,0.02,0.31,0.06,0.43c0.04,0.12,0.09,0.19,0.15,0.24l-0.56,0
			c-0.03-0.04-0.06-0.11-0.08-0.2c-0.02-0.09-0.03-0.21-0.03-0.34c0-0.07,0-0.14-0.01-0.2c-0.01-0.06-0.01-0.11-0.01-0.14
			c-0.02-0.23-0.1-0.39-0.22-0.47c-0.12-0.08-0.33-0.13-0.64-0.13l-0.57,0l0,1.49H103.48z M103.92,59.52l0.55,0
			c0.31,0,0.54-0.05,0.69-0.15c0.15-0.1,0.22-0.26,0.22-0.47c0-0.2-0.07-0.35-0.2-0.44c-0.13-0.09-0.34-0.14-0.63-0.14l-0.63,0
			L103.92,59.52z"/>
		<path class="st2" d="M106.73,57.54l0-0.48l0.5,0v0.48H106.73z M106.75,61.33l0-3.35l0.46,0l0.01,3.35L106.75,61.33z"/>
		<path class="st2" d="M109.45,60.26l0.43,0v0.12c0,0.23,0.06,0.4,0.19,0.51c0.12,0.11,0.31,0.17,0.56,0.17
			c0.22,0,0.4-0.06,0.53-0.17c0.13-0.11,0.19-0.27,0.19-0.46c0-0.15-0.04-0.27-0.12-0.36c-0.08-0.08-0.25-0.17-0.53-0.25l-0.27-0.09
			c-0.32-0.1-0.52-0.17-0.59-0.22c-0.11-0.08-0.19-0.18-0.25-0.3c-0.06-0.12-0.08-0.25-0.08-0.39c0-0.29,0.1-0.52,0.29-0.68
			c0.19-0.16,0.46-0.25,0.81-0.25c0.33,0,0.58,0.08,0.77,0.23c0.19,0.15,0.28,0.36,0.28,0.63v0.04v0.04h-0.41l0-0.03
			c0-0.18-0.06-0.33-0.17-0.43c-0.11-0.1-0.27-0.15-0.47-0.15c-0.21,0-0.38,0.05-0.5,0.15c-0.12,0.1-0.18,0.23-0.18,0.4
			c0,0.16,0.04,0.28,0.12,0.37c0.08,0.09,0.26,0.17,0.54,0.26l0.15,0.05c0.42,0.13,0.67,0.22,0.75,0.29
			c0.1,0.07,0.17,0.17,0.22,0.28c0.03,0.06,0.04,0.12,0.06,0.18c0.01,0.06,0.02,0.13,0.02,0.21c0,0.32-0.1,0.56-0.31,0.74
			c-0.21,0.18-0.5,0.27-0.88,0.27c-0.37,0-0.66-0.09-0.85-0.26c-0.19-0.18-0.29-0.43-0.29-0.77v-0.05V60.26z"/>
		<path class="st2" d="M112.27,61.32l1.1-3.35l0.57,0l1.12,3.35h-0.46l-0.31-0.97l-1.28,0l-0.29,0.97H112.27z M113.12,60.02l1.08,0
			l-0.54-1.75L113.12,60.02z"/>
		<polygon class="st2" points="115.64,61.32 115.63,57.97 116.23,57.97 117.64,60.84 117.59,57.97 118.03,57.97 118.03,61.31 
			117.45,61.32 116.03,58.36 116.07,61.32 		"/>
		
			<rect x="118.95" y="60.85" transform="matrix(1 -2.233044e-03 2.233044e-03 1 -0.1361 0.2663)" class="st2" width="0.48" height="0.46"/>
		<polygon class="st2" points="122.37,61.31 121.55,58.81 122.02,58.81 122.61,60.77 123.23,58.81 123.66,58.81 122.83,61.31 		"/>
		<path class="st2" d="M125.59,60.46h0.41c0,0.29-0.08,0.52-0.24,0.68c-0.16,0.16-0.39,0.24-0.69,0.24c-0.32,0-0.56-0.1-0.72-0.32
			c-0.16-0.21-0.23-0.53-0.23-0.97c0-0.47,0.08-0.81,0.23-1.03c0.15-0.22,0.4-0.33,0.73-0.33c0.31,0,0.54,0.09,0.7,0.27
			c0.15,0.18,0.23,0.46,0.23,0.84l-0.01,0.14l-0.01,0.08l-1.44,0v0.11c0,0.31,0.05,0.55,0.13,0.69c0.09,0.14,0.23,0.21,0.42,0.21
			c0.15,0,0.26-0.06,0.35-0.16c0.09-0.11,0.13-0.26,0.13-0.44V60.46z M124.56,59.78l1.03,0v-0.07c0-0.12-0.01-0.22-0.03-0.3
			c-0.02-0.08-0.05-0.15-0.1-0.22c-0.08-0.12-0.2-0.18-0.37-0.18c-0.18,0-0.31,0.06-0.4,0.19
			C124.61,59.33,124.56,59.53,124.56,59.78"/>
		<polygon class="st2" points="128.97,61.3 128.96,58.29 127.93,58.3 127.93,57.95 130.39,57.95 130.39,58.29 129.42,58.29 
			129.43,61.3 		"/>
		<path class="st2" d="M130.93,57.51l0-0.48l0.5,0v0.48H130.93z M130.96,61.3l0-3.35l0.46,0l0.01,3.35L130.96,61.3z"/>
		<path class="st2" d="M134.19,60.07l0.45,0c0,0.21-0.03,0.4-0.08,0.56c-0.05,0.16-0.13,0.3-0.24,0.42
			c-0.21,0.22-0.5,0.33-0.89,0.33c-0.41,0-0.72-0.14-0.92-0.43c-0.2-0.28-0.3-0.72-0.3-1.32c0-0.62,0.1-1.07,0.3-1.35
			c0.2-0.28,0.52-0.42,0.96-0.42c0.37,0,0.65,0.09,0.85,0.27c0.2,0.18,0.3,0.43,0.3,0.75v0.04l-0.44,0c0-0.23-0.06-0.41-0.19-0.54
			c-0.13-0.13-0.31-0.19-0.53-0.19c-0.27,0-0.47,0.11-0.59,0.33c-0.12,0.22-0.18,0.59-0.18,1.1c0,0.25,0.02,0.47,0.05,0.64
			c0.03,0.18,0.08,0.32,0.14,0.43c0.12,0.21,0.33,0.32,0.61,0.32c0.23,0,0.4-0.08,0.53-0.23c0.12-0.16,0.18-0.38,0.18-0.67V60.07z"
			/>
		
			<rect x="135.51" y="60.83" transform="matrix(1 -2.233044e-03 2.233044e-03 1 -0.136 0.3033)" class="st2" width="0.48" height="0.46"/>
		<path class="st2" d="M138.11,61.29l1.1-3.35l0.57,0l1.12,3.35h-0.46l-0.31-0.97l-1.28,0l-0.29,0.97H138.11z M138.96,59.98l1.08,0
			l-0.54-1.75L138.96,59.98z"/>
		<path class="st2" d="M144.19,61.35c-0.17,0-0.31-0.02-0.44-0.07c-0.13-0.04-0.24-0.11-0.33-0.19c-0.19-0.18-0.29-0.43-0.29-0.76
			v-0.05v-0.06l0.43,0v0.12c0,0.22,0.07,0.39,0.19,0.51c0.13,0.12,0.32,0.17,0.56,0.17c0.23,0,0.4-0.06,0.53-0.17
			c0.13-0.11,0.19-0.27,0.19-0.46c0-0.16-0.04-0.27-0.12-0.36c-0.08-0.08-0.25-0.17-0.53-0.26l-0.27-0.09
			c-0.33-0.1-0.52-0.17-0.6-0.22c-0.11-0.08-0.19-0.18-0.25-0.29c-0.06-0.12-0.09-0.25-0.09-0.39c0-0.29,0.1-0.52,0.29-0.68
			c0.19-0.17,0.46-0.25,0.81-0.25c0.33,0,0.58,0.08,0.77,0.23c0.19,0.15,0.28,0.36,0.28,0.63v0.04v0.04h-0.41v-0.03
			c0-0.18-0.06-0.33-0.17-0.43c-0.11-0.1-0.27-0.15-0.47-0.15c-0.21,0-0.38,0.05-0.5,0.15c-0.12,0.1-0.18,0.23-0.18,0.4
			c0,0.16,0.04,0.28,0.12,0.37c0.08,0.09,0.26,0.17,0.54,0.26l0.15,0.05c0.42,0.13,0.68,0.22,0.76,0.29
			c0.1,0.07,0.17,0.17,0.22,0.28c0.02,0.06,0.04,0.12,0.06,0.18c0.01,0.06,0.02,0.13,0.02,0.22c0,0.32-0.11,0.56-0.32,0.74
			c-0.1,0.08-0.21,0.15-0.34,0.19c-0.13,0.04-0.27,0.07-0.43,0.07l0,0.15h0.01c0.17,0,0.3,0.03,0.4,0.1
			c0.1,0.07,0.15,0.16,0.15,0.28c0,0.14-0.06,0.24-0.16,0.31c-0.11,0.07-0.27,0.11-0.48,0.11c-0.07,0-0.15-0.01-0.23-0.01
			c-0.08-0.01-0.16-0.02-0.25-0.04v-0.22l0.04,0.01c0.23,0.03,0.37,0.05,0.43,0.05c0.09,0,0.16-0.02,0.21-0.05
			c0.05-0.03,0.07-0.08,0.07-0.13c0-0.06-0.03-0.11-0.08-0.14c-0.05-0.03-0.12-0.05-0.22-0.05h-0.04l-0.06,0.01V61.35z"/>
		
			<rect x="146.31" y="60.82" transform="matrix(1 -2.233044e-03 2.233044e-03 1 -0.136 0.3274)" class="st2" width="0.48" height="0.46"/>
		
			<rect x="141.84" y="60.82" transform="matrix(1 -2.233044e-03 2.233044e-03 1 -0.136 0.3174)" class="st2" width="0.48" height="0.46"/>
	</g>
</g>
</svg>
