<?xml version="1.0" encoding="utf-8"?>
<!-- Generator: Adobe Illustrator 23.1.1, SVG Export Plug-In . SVG Version: 6.00 Build 0)  -->
<svg version="1.1" id="Layer_1" xmlns="http://www.w3.org/2000/svg" xmlns:xlink="http://www.w3.org/1999/xlink" x="0px" y="0px"
	 viewBox="0 0 180 100" style="enable-background:new 0 0 180 100;" xml:space="preserve">
<style type="text/css">
	.st0{clip-path:url(#SVGID_2_);fill:#FFFFFF;}
	.st1{clip-path:url(#SVGID_2_);fill:none;stroke:#2A2523;stroke-width:1.2;stroke-miterlimit:10;}
	.st2{clip-path:url(#SVGID_2_);fill:#2A2523;}
	.st3{clip-path:url(#SVGID_2_);fill:#E32B27;}
	.st4{clip-path:url(#SVGID_4_);fill:#FFFFFF;}
	.st5{clip-path:url(#SVGID_4_);fill:none;stroke:#2A2523;stroke-width:1.2;stroke-miterlimit:10;}
	.st6{clip-path:url(#SVGID_4_);fill:#3AA9E0;}
	.st7{clip-path:url(#SVGID_4_);fill:#2A2523;}
	.st8{clip-path:url(#SVGID_6_);fill:#FFFFFF;}
	.st9{clip-path:url(#SVGID_6_);fill:none;stroke:#2A2523;stroke-width:1.2;stroke-miterlimit:10;}
	.st10{clip-path:url(#SVGID_6_);fill:#2F3080;}
	.st11{clip-path:url(#SVGID_6_);fill:#2A2523;}
	.st12{fill:#1D1C1A;}
	.st13{clip-path:url(#SVGID_8_);}
	.st14{clip-path:url(#SVGID_10_);}
	.st15{clip-path:url(#SVGID_12_);}
	.st16{clip-path:url(#SVGID_14_);}
	.st17{clip-path:url(#SVGID_16_);}
	.st18{clip-path:url(#SVGID_18_);}
	.st19{fill-rule:evenodd;clip-rule:evenodd;fill:#5B6770;}
	.st20{fill:none;stroke:#5B6770;stroke-width:1.8792;stroke-miterlimit:3.864;}
	.st21{fill-rule:evenodd;clip-rule:evenodd;fill:#79242F;}
	.st22{fill-rule:evenodd;clip-rule:evenodd;fill:#253A75;}
	.st23{fill:none;stroke:#253A75;stroke-width:0.132;stroke-miterlimit:3.864;}
	.st24{fill:#253A75;}
	.st25{fill:#002F3B;}
	.st26{fill:#A69E88;stroke:#A69E88;stroke-width:0.3401;stroke-miterlimit:10;}
	.st27{fill-rule:evenodd;clip-rule:evenodd;fill:#1D1C1A;}
	.st28{fill-rule:evenodd;clip-rule:evenodd;fill:#A5D0E6;}
	.st29{fill-rule:evenodd;clip-rule:evenodd;fill:#FFFFFF;}
	.st30{fill:#002D3A;}
	.st31{clip-path:url(#SVGID_20_);fill:#002E3A;}
	.st32{clip-path:url(#SVGID_20_);fill:#B68D4A;}
	.st33{fill:#B68D4A;}
	.st34{clip-path:url(#SVGID_22_);fill:#B68D4A;}
	.st35{fill:#BC955C;}
	.st36{fill:#A79F88;}
	.st37{fill:#00303C;stroke:#25A9E0;stroke-width:0.6856;stroke-dasharray:3.6133,3.6133;}
	.st38{fill:#00303C;}
	.st39{fill:#41695B;}
	.st40{fill:#907E63;}
	.st41{fill:#804951;}
	.st42{fill:#894B52;}
	.st43{fill:#42695B;stroke:#42695B;stroke-width:0.3;stroke-miterlimit:10;}
	.st44{fill:#231F20;}
	.st45{fill-rule:evenodd;clip-rule:evenodd;fill:#ADAFB1;}
	.st46{fill-rule:evenodd;clip-rule:evenodd;fill:#CFD0D2;stroke:#CFD0D2;stroke-width:0;stroke-miterlimit:3.8637;}
	.st47{fill-rule:evenodd;clip-rule:evenodd;fill:#ADAFB1;stroke:#ADAFB1;stroke-width:0;stroke-miterlimit:3.8637;}
	.st48{fill-rule:evenodd;clip-rule:evenodd;fill:#7A7C7F;stroke:#7A7C7F;stroke-width:0;stroke-miterlimit:3.8637;}
	.st49{fill-rule:evenodd;clip-rule:evenodd;fill:#BDBFC1;stroke:#BDBFC1;stroke-width:0;stroke-miterlimit:3.8637;}
	.st50{fill-rule:evenodd;clip-rule:evenodd;fill:none;stroke:#231F20;stroke-width:0.2422;stroke-miterlimit:3.8637;}
	.st51{fill-rule:evenodd;clip-rule:evenodd;fill:#B1B3B5;stroke:#B1B3B5;stroke-width:0;stroke-miterlimit:3.8637;}
	.st52{clip-path:url(#SVGID_24_);}
	.st53{clip-path:url(#SVGID_26_);}
	.st54{fill:#ADAFB1;}
	.st55{clip-path:url(#SVGID_28_);}
	.st56{fill:#FFFFFF;}
	.st57{fill:#F5F5F6;}
	.st58{fill:#EFF0F0;}
	.st59{fill:#E9EAEB;}
	.st60{fill:#E2E3E4;}
	.st61{fill:#DDDEDF;}
	.st62{fill:#D7D8DA;}
	.st63{fill:#D1D2D4;}
	.st64{fill:#CACCCE;}
	.st65{fill:#C4C6C8;}
	.st66{fill:#BFC1C3;}
	.st67{fill:#B8BABC;}
	.st68{fill:#B2B4B7;}
	.st69{clip-path:url(#SVGID_30_);}
	.st70{clip-path:url(#SVGID_32_);}
</style>
<g>
	<path class="st27" d="M93.56,42.13c-4.46-1.03-8.9-2.04-13.36-3.07c-3.81-1.03-6.13-2.39-6.97-4.05
		c0.7,8.86,8.09,15.83,17.12,15.83c3.94,0,7.56-1.34,10.46-3.57C100.31,45.1,97.89,43.39,93.56,42.13"/>
	<path class="st28" d="M84.85,29.25l7.82-0.3c-8.05,1.52-12.05,3.24-11.99,5.17c0.04,1.19,3.38,2.23,10.01,3.14
		c6.84,0.93,11.94,1.73,15.31,2.38c0.47-1.54,0.72-3.18,0.72-4.87c0-9.27-7.52-16.78-16.79-16.78c-8.83,0-16.05,6.82-16.72,15.49
		C74.35,31.6,78.22,30.2,84.85,29.25"/>
	<path class="st29" d="M82.1,25.38l5.48-5.48c0.11-0.11,0.25-0.16,0.38-0.16c0.14,0,0.28,0.05,0.39,0.16l5.48,5.48l1.8-1.8
		c0.21-0.21,0.55-0.21,0.76-0.01l6.3,5.98c0.03,0.03,0.04,0.09,0.01,0.12c-0.03,0.04-0.09,0.04-0.12,0.01l-6.13-4.94l0.54,1.75
		c0.01,0.03,0,0.06-0.02,0.09c-0.02,0.03-0.05,0.04-0.08,0.03l-2.22-0.41l2.98,2.99c0.04,0.03,0.04,0.09,0.01,0.13
		c-0.03,0.04-0.08,0.04-0.12,0.01l-7.25-5.71l0.6,2.53c0.01,0.04-0.01,0.09-0.05,0.11c-0.04,0.02-0.09,0-0.11-0.04l-1.81-2.8
		l-0.84,3.92c-0.01,0.04-0.05,0.07-0.09,0.07c-0.04,0-0.08-0.03-0.09-0.07l-0.84-3.92l-1.81,2.8c-0.02,0.04-0.07,0.05-0.11,0.04
		c-0.04-0.02-0.06-0.06-0.05-0.11l0.6-2.53l-7.25,5.71c-0.04,0.03-0.09,0.02-0.12-0.01c-0.03-0.04-0.03-0.09,0-0.13l2.99-2.99"/>
	<path class="st12" d="M25.1,74.62v-0.08h4.62v1.01h-0.08c-0.1-0.38-0.18-0.6-0.25-0.66c-0.07-0.07-0.24-0.1-0.5-0.1h-2.43v3.3h2.25
		c0.22,0,0.36-0.02,0.42-0.06c0.06-0.04,0.09-0.1,0.09-0.18h0.08v0.69h-0.08c-0.02-0.1-0.05-0.16-0.12-0.19
		c-0.06-0.03-0.18-0.05-0.34-0.05h-2.31v2.27c0,0.34,0.03,0.59,0.09,0.74c0.06,0.15,0.16,0.25,0.3,0.28
		c0.14,0.04,0.35,0.06,0.63,0.06h1.3c0.41,0,0.68-0.01,0.79-0.04c0.11-0.03,0.21-0.08,0.29-0.17c0.08-0.08,0.14-0.27,0.18-0.55h0.08
		v1.01H25.1v-0.07c0.17-0.01,0.3-0.04,0.39-0.1c0.09-0.05,0.13-0.2,0.13-0.43v-5.94c0-0.27-0.02-0.46-0.07-0.57
		C25.5,74.68,25.35,74.62,25.1,74.62"/>
	<path class="st12" d="M30.64,74.61v-0.07h2.09c0.53,0,0.91,0.01,1.15,0.03c0.24,0.02,0.48,0.1,0.73,0.23
		c0.25,0.13,0.44,0.31,0.56,0.53c0.13,0.23,0.19,0.5,0.19,0.83c0,0.37-0.11,0.73-0.34,1.07c-0.22,0.34-0.54,0.62-0.95,0.86l0.52,0.8
		c0.11,0.2,0.41,0.64,0.9,1.31c0.49,0.68,0.86,1.09,1.13,1.23c0.27,0.15,0.52,0.22,0.77,0.22c0.25,0,0.53-0.09,0.85-0.28l0.03,0.1
		c-0.4,0.33-0.92,0.49-1.56,0.49c-0.43,0-0.79-0.13-1.1-0.38c-0.31-0.25-0.84-0.94-1.6-2.07c-0.01-0.01-0.01-0.01-0.01-0.02
		l-0.74-1.14l-0.66,0.02h-0.6v2.81c0,0.23,0.03,0.39,0.09,0.49c0.06,0.1,0.2,0.15,0.43,0.15v0.08h-1.9v-0.08
		c0.24-0.01,0.38-0.06,0.44-0.15c0.06-0.09,0.09-0.27,0.09-0.55v-5.84c0-0.19-0.02-0.35-0.08-0.47
		C31.05,74.68,30.9,74.62,30.64,74.61 M32.02,74.73v3.45h0.77c0.61,0,1.06-0.14,1.35-0.43c0.29-0.29,0.44-0.66,0.44-1.13
		c0-0.45-0.14-0.88-0.43-1.29c-0.29-0.4-0.8-0.61-1.52-0.61H32.02z"/>
	<path class="st12" d="M45.39,80.74v1.15h-6.98l5.72-7.08H40.3c-0.32,0-0.53,0.04-0.65,0.12c-0.12,0.08-0.2,0.28-0.25,0.6h-0.07
		l0.04-1h6.05l-5.73,7.08h4.88c0.28,0,0.47-0.06,0.57-0.17c0.1-0.12,0.16-0.35,0.18-0.7H45.39z"/>
	<path class="st12" d="M52.84,81.9h-1.39v-1.13c-0.71,0.79-1.55,1.18-2.54,1.18c-0.73,0-1.31-0.2-1.73-0.61
		c-0.43-0.41-0.64-0.98-0.64-1.7v-4.4c0-0.27-0.03-0.44-0.09-0.51c-0.06-0.07-0.21-0.11-0.44-0.11v-0.07h1.95v0.07
		c-0.21,0-0.35,0.03-0.44,0.1c-0.08,0.06-0.13,0.22-0.13,0.46v4.04c0,0.85,0.2,1.45,0.59,1.81c0.4,0.36,0.85,0.54,1.35,0.54
		c0.8,0,1.5-0.36,2.12-1.07v-4.98c0-0.44-0.04-0.7-0.11-0.78c-0.08-0.08-0.2-0.12-0.36-0.12H50.9v-0.07h1.94v0.07
		c-0.24,0.01-0.39,0.05-0.45,0.12c-0.06,0.07-0.09,0.19-0.09,0.38v5.99c0,0.24,0.01,0.39,0.03,0.46c0.02,0.07,0.07,0.13,0.14,0.18
		c0.07,0.05,0.19,0.07,0.37,0.07V81.9z"/>
	<path class="st12" d="M53.66,74.61v-0.07h2.09c0.53,0,0.91,0.01,1.15,0.03c0.24,0.02,0.48,0.1,0.73,0.23
		c0.25,0.13,0.44,0.31,0.56,0.53c0.13,0.23,0.19,0.5,0.19,0.83c0,0.37-0.11,0.73-0.34,1.07c-0.22,0.34-0.54,0.62-0.95,0.86l0.52,0.8
		c0.11,0.2,0.41,0.64,0.9,1.31c0.49,0.68,0.86,1.09,1.13,1.23c0.27,0.15,0.52,0.22,0.77,0.22c0.25,0,0.53-0.09,0.85-0.28l0.03,0.1
		c-0.4,0.33-0.92,0.49-1.56,0.49c-0.43,0-0.79-0.13-1.1-0.38c-0.31-0.25-0.84-0.94-1.6-2.07c-0.01-0.01-0.01-0.01-0.01-0.02
		l-0.74-1.14l-0.66,0.02h-0.6v2.81c0,0.23,0.03,0.39,0.09,0.49c0.06,0.1,0.2,0.15,0.43,0.15v0.08h-1.9v-0.08
		c0.24-0.01,0.38-0.06,0.44-0.15c0.06-0.09,0.09-0.27,0.09-0.55v-5.84c0-0.19-0.02-0.35-0.08-0.47
		C54.06,74.68,53.91,74.62,53.66,74.61 M55.04,74.73v3.45h0.77c0.61,0,1.06-0.14,1.35-0.43c0.29-0.29,0.44-0.66,0.44-1.13
		c0-0.45-0.14-0.88-0.43-1.29c-0.29-0.4-0.8-0.61-1.52-0.61H55.04z"/>
	<path class="st12" d="M67.33,81.9h-1.39v-1.13c-0.71,0.79-1.55,1.18-2.54,1.18c-0.73,0-1.31-0.2-1.73-0.61
		c-0.43-0.41-0.64-0.98-0.64-1.7v-4.4c0-0.27-0.03-0.44-0.09-0.51c-0.06-0.07-0.21-0.11-0.44-0.11v-0.07h1.95v0.07
		c-0.21,0-0.35,0.03-0.44,0.1c-0.08,0.06-0.13,0.22-0.13,0.46v4.04c0,0.85,0.2,1.45,0.59,1.81c0.4,0.36,0.85,0.54,1.35,0.54
		c0.8,0,1.5-0.36,2.12-1.07v-4.98c0-0.44-0.04-0.7-0.11-0.78c-0.08-0.08-0.2-0.12-0.36-0.12H65.4v-0.07h1.94v0.07
		c-0.24,0.01-0.39,0.05-0.45,0.12c-0.06,0.07-0.09,0.19-0.09,0.38v5.99c0,0.24,0.01,0.39,0.03,0.46c0.02,0.07,0.07,0.13,0.14,0.18
		c0.07,0.05,0.19,0.07,0.37,0.07V81.9z"/>
	<path class="st12" d="M74.88,74.54h1.16v0.08c-0.39,0.02-0.59,0.22-0.59,0.61c0,0.08,0.01,0.2,0.03,0.35l0.77,5.57
		c0.05,0.28,0.1,0.46,0.16,0.53c0.06,0.08,0.18,0.12,0.36,0.14v0.07h-1.65v-0.07c0.22,0.01,0.33-0.1,0.33-0.32
		c0-0.05-0.01-0.15-0.03-0.29l-0.76-5.4l-2.64,6.09h-0.05l-2.65-6.08l-0.75,5.43c-0.01,0.08-0.02,0.18-0.02,0.28
		c0,0.19,0.11,0.29,0.34,0.29v0.07h-1.12v-0.07c0.17,0,0.28-0.02,0.33-0.06c0.05-0.04,0.08-0.11,0.11-0.2
		c0.03-0.09,0.05-0.19,0.06-0.31l0.84-5.94c-0.14-0.33-0.27-0.53-0.41-0.59c-0.14-0.07-0.27-0.1-0.39-0.1v-0.08h1.39l2.59,6.02
		L74.88,74.54z"/>
	<path class="st12" d="M80.18,74.61v-0.07h2.09c0.53,0,0.91,0.01,1.15,0.03c0.24,0.02,0.48,0.1,0.73,0.23
		c0.25,0.13,0.44,0.31,0.56,0.53c0.13,0.23,0.19,0.5,0.19,0.83c0,0.37-0.11,0.73-0.34,1.07c-0.22,0.34-0.54,0.62-0.95,0.86l0.52,0.8
		c0.11,0.2,0.41,0.64,0.9,1.31c0.49,0.68,0.86,1.09,1.13,1.23c0.27,0.15,0.52,0.22,0.77,0.22c0.25,0,0.53-0.09,0.85-0.28l0.03,0.1
		c-0.4,0.33-0.92,0.49-1.56,0.49c-0.43,0-0.79-0.13-1.1-0.38c-0.31-0.25-0.84-0.94-1.6-2.07c-0.01-0.01-0.01-0.01-0.01-0.02
		l-0.74-1.14l-0.66,0.02h-0.6v2.81c0,0.23,0.03,0.39,0.09,0.49c0.06,0.1,0.2,0.15,0.43,0.15v0.08h-1.9v-0.08
		c0.24-0.01,0.38-0.06,0.44-0.15c0.06-0.09,0.09-0.27,0.09-0.55v-5.84c0-0.19-0.02-0.35-0.08-0.47
		C80.58,74.68,80.43,74.62,80.18,74.61 M81.56,74.73v3.45h0.77c0.61,0,1.06-0.14,1.35-0.43c0.29-0.29,0.44-0.66,0.44-1.13
		c0-0.45-0.14-0.88-0.43-1.29c-0.29-0.4-0.8-0.61-1.52-0.61H81.56z"/>
	<path class="st12" d="M88.28,74.62v-0.08h4.62v1.01h-0.08c-0.1-0.38-0.18-0.6-0.25-0.66c-0.07-0.07-0.24-0.1-0.5-0.1h-2.43v3.3
		h2.25c0.22,0,0.36-0.02,0.42-0.06c0.06-0.04,0.09-0.1,0.1-0.18h0.08v0.69h-0.08c-0.02-0.1-0.06-0.16-0.12-0.19
		c-0.06-0.03-0.18-0.05-0.34-0.05h-2.31v2.27c0,0.34,0.03,0.59,0.1,0.74c0.06,0.15,0.16,0.25,0.3,0.28
		c0.14,0.04,0.35,0.06,0.63,0.06h1.3c0.41,0,0.68-0.01,0.79-0.04c0.11-0.03,0.21-0.08,0.29-0.17c0.08-0.08,0.14-0.27,0.18-0.55h0.08
		v1.01h-5.03v-0.07c0.17-0.01,0.3-0.04,0.39-0.1c0.09-0.05,0.13-0.2,0.13-0.43v-5.94c0-0.27-0.02-0.46-0.07-0.57
		C88.68,74.68,88.53,74.62,88.28,74.62"/>
	<path class="st12" d="M97.35,74.64l0.35,0.92l-0.06,0.01c0,0-0.09-0.1-0.28-0.3c-0.18-0.19-0.4-0.34-0.63-0.45
		c-0.24-0.1-0.51-0.16-0.81-0.16c-0.5,0-0.9,0.14-1.2,0.43c-0.3,0.29-0.44,0.64-0.44,1.04c0,0.27,0.07,0.5,0.21,0.71
		c0.14,0.2,0.43,0.39,0.87,0.56c0.76,0.26,1.27,0.45,1.55,0.57c0.28,0.13,0.55,0.35,0.8,0.65c0.26,0.31,0.39,0.7,0.39,1.18
		c0,0.2-0.02,0.39-0.07,0.57c-0.05,0.18-0.12,0.36-0.22,0.52c-0.1,0.17-0.23,0.32-0.37,0.46c-0.14,0.14-0.29,0.24-0.44,0.31
		c-0.15,0.07-0.39,0.13-0.71,0.16c-0.32,0.04-0.54,0.05-0.64,0.05h-1.96v-2.14h0.08c0.01,0.71,0.17,1.2,0.5,1.48
		c0.33,0.28,0.83,0.42,1.52,0.42c0.63,0,1.1-0.15,1.43-0.44c0.32-0.3,0.49-0.65,0.49-1.07c0-0.25-0.06-0.47-0.17-0.65
		c-0.11-0.18-0.27-0.33-0.48-0.47c-0.2-0.13-0.59-0.3-1.15-0.49c-0.56-0.2-0.96-0.37-1.19-0.52c-0.23-0.15-0.42-0.37-0.57-0.67
		c-0.15-0.3-0.23-0.6-0.23-0.91c0-0.57,0.2-1.05,0.59-1.43c0.39-0.39,0.9-0.58,1.54-0.58c0.25,0,0.51,0.03,0.8,0.08
		c0.29,0.06,0.45,0.09,0.48,0.11C97.32,74.63,97.34,74.64,97.35,74.64"/>
	<path class="st12" d="M102.79,74.43c1.03,0,1.88,0.31,2.53,0.94c0.66,0.63,0.98,1.41,0.98,2.35c0,1.21-0.38,2.23-1.14,3.05
		c-0.76,0.83-1.77,1.24-3.02,1.24c-1.02,0-1.85-0.33-2.5-1c-0.65-0.67-0.97-1.47-0.97-2.4c0-0.63,0.16-1.28,0.47-1.94
		c0.31-0.66,0.78-1.2,1.41-1.62C101.18,74.64,101.92,74.43,102.79,74.43 M102.76,81.62c0.51,0,1.01-0.14,1.5-0.41
		c0.49-0.27,0.88-0.65,1.16-1.12c0.28-0.48,0.42-0.97,0.42-1.47c0-0.71-0.19-1.36-0.57-1.94c-0.38-0.58-0.88-1.04-1.48-1.37
		c-0.61-0.33-1.17-0.49-1.69-0.49c-0.73,0-1.39,0.27-1.99,0.82c-0.59,0.55-0.89,1.23-0.89,2.05c0,1.04,0.36,1.96,1.09,2.75
		C101.04,81.23,101.85,81.62,102.76,81.62"/>
	<path class="st12" d="M107.04,74.61v-0.07h2.09c0.53,0,0.91,0.01,1.15,0.03c0.24,0.02,0.48,0.1,0.73,0.23
		c0.25,0.13,0.44,0.31,0.56,0.53c0.13,0.23,0.19,0.5,0.19,0.83c0,0.37-0.11,0.73-0.34,1.07c-0.22,0.34-0.54,0.62-0.95,0.86l0.52,0.8
		c0.11,0.2,0.41,0.64,0.9,1.31c0.49,0.68,0.87,1.09,1.13,1.23c0.27,0.15,0.52,0.22,0.77,0.22c0.25,0,0.53-0.09,0.85-0.28l0.03,0.1
		c-0.4,0.33-0.92,0.49-1.56,0.49c-0.43,0-0.79-0.13-1.1-0.38c-0.31-0.25-0.84-0.94-1.6-2.07c-0.01-0.01-0.01-0.01-0.01-0.02
		l-0.74-1.14l-0.66,0.02h-0.6v2.81c0,0.23,0.03,0.39,0.09,0.49c0.06,0.1,0.2,0.15,0.43,0.15v0.08h-1.9v-0.08
		c0.24-0.01,0.38-0.06,0.44-0.15c0.06-0.09,0.09-0.27,0.09-0.55v-5.84c0-0.19-0.03-0.35-0.08-0.47
		C107.45,74.68,107.29,74.62,107.04,74.61 M108.42,74.73v3.45h0.77c0.61,0,1.06-0.14,1.35-0.43c0.29-0.29,0.44-0.66,0.44-1.13
		c0-0.45-0.14-0.88-0.43-1.29c-0.29-0.4-0.8-0.61-1.52-0.61H108.42z"/>
	<path class="st12" d="M119.26,74.29l-0.35,0.89h-0.08c0.01-0.05,0.02-0.12,0.02-0.21c0-0.08-0.03-0.13-0.08-0.15
		c-0.05-0.02-0.14-0.03-0.26-0.03h-1.92v6.29c0,0.26,0.02,0.44,0.06,0.53c0.04,0.09,0.1,0.15,0.17,0.18
		c0.07,0.02,0.19,0.04,0.35,0.04v0.08h-1.99v-0.08c0.25-0.02,0.41-0.07,0.47-0.14c0.06-0.08,0.1-0.25,0.1-0.5v-6.4h-1.84
		c-0.19,0-0.31,0.01-0.36,0.03c-0.06,0.02-0.08,0.08-0.08,0.16c0,0.04,0.01,0.11,0.04,0.2h-0.08l-0.35-0.89h0.08
		c0.06,0.12,0.12,0.19,0.18,0.22c0.06,0.03,0.18,0.04,0.38,0.04h4.88c0.19,0,0.33-0.01,0.42-0.04c0.08-0.02,0.15-0.1,0.19-0.22
		H119.26z"/>
	<path class="st12" d="M128.03,78.23h-4.04v2.83c0,0.27,0.01,0.44,0.04,0.51c0.03,0.07,0.07,0.14,0.14,0.18
		c0.07,0.05,0.19,0.08,0.36,0.08v0.07h-1.9v-0.07c0.35,0.02,0.52-0.14,0.52-0.5V75.4c0-0.34-0.03-0.55-0.08-0.64
		c-0.06-0.09-0.2-0.14-0.44-0.15v-0.08h1.9v0.08c-0.21,0.01-0.35,0.05-0.42,0.12c-0.07,0.07-0.11,0.2-0.11,0.41v2.88h4.04v-2.63
		c0-0.3-0.03-0.5-0.08-0.61c-0.05-0.11-0.2-0.16-0.43-0.16v-0.08h1.88v0.08c-0.15,0-0.26,0.02-0.33,0.05
		c-0.07,0.03-0.12,0.09-0.15,0.16c-0.03,0.07-0.04,0.26-0.04,0.56v5.64c0,0.29,0.01,0.47,0.04,0.54c0.03,0.07,0.07,0.13,0.14,0.18
		c0.07,0.05,0.18,0.07,0.34,0.07v0.07h-1.88v-0.07c0.2,0,0.34-0.04,0.41-0.13c0.07-0.08,0.1-0.31,0.1-0.67V78.23z"/>
	<path class="st12" d="M134.26,74.43c1.03,0,1.88,0.31,2.53,0.94c0.66,0.63,0.98,1.41,0.98,2.35c0,1.21-0.38,2.23-1.14,3.05
		c-0.76,0.83-1.77,1.24-3.02,1.24c-1.02,0-1.85-0.33-2.5-1c-0.65-0.67-0.97-1.47-0.97-2.4c0-0.63,0.16-1.28,0.47-1.94
		c0.31-0.66,0.78-1.2,1.41-1.62C132.65,74.64,133.4,74.43,134.26,74.43 M134.23,81.62c0.51,0,1.01-0.14,1.5-0.41
		c0.49-0.27,0.88-0.65,1.16-1.12c0.28-0.48,0.42-0.97,0.42-1.47c0-0.71-0.19-1.36-0.57-1.94c-0.38-0.58-0.88-1.04-1.48-1.37
		c-0.61-0.33-1.17-0.49-1.69-0.49c-0.73,0-1.39,0.27-1.99,0.82c-0.59,0.55-0.89,1.23-0.89,2.05c0,1.04,0.36,1.96,1.09,2.75
		C132.52,81.23,133.33,81.62,134.23,81.62"/>
	<path class="st12" d="M144.17,74.29l-0.35,0.89h-0.08c0.01-0.05,0.02-0.12,0.02-0.21c0-0.08-0.03-0.13-0.08-0.15
		c-0.05-0.02-0.14-0.03-0.26-0.03h-1.92v6.29c0,0.26,0.02,0.44,0.06,0.53c0.04,0.09,0.1,0.15,0.17,0.18
		c0.07,0.02,0.19,0.04,0.35,0.04v0.08h-1.99v-0.08c0.25-0.02,0.41-0.07,0.47-0.14c0.06-0.08,0.09-0.25,0.09-0.5v-6.4h-1.84
		c-0.19,0-0.31,0.01-0.36,0.03c-0.06,0.02-0.08,0.08-0.08,0.16c0,0.04,0.01,0.11,0.04,0.2h-0.08l-0.35-0.89h0.08
		c0.06,0.12,0.12,0.19,0.18,0.22c0.06,0.03,0.18,0.04,0.38,0.04h4.88c0.19,0,0.33-0.01,0.42-0.04c0.08-0.02,0.15-0.1,0.19-0.22
		H144.17z"/>
	<path class="st12" d="M144.56,74.62v-0.08h4.62v1.01h-0.08c-0.1-0.38-0.18-0.6-0.25-0.66c-0.07-0.07-0.24-0.1-0.5-0.1h-2.43v3.3
		h2.25c0.22,0,0.36-0.02,0.42-0.06c0.06-0.04,0.09-0.1,0.1-0.18h0.08v0.69h-0.08c-0.02-0.1-0.06-0.16-0.12-0.19
		c-0.06-0.03-0.18-0.05-0.34-0.05h-2.31v2.27c0,0.34,0.03,0.59,0.1,0.74c0.06,0.15,0.16,0.25,0.3,0.28
		c0.14,0.04,0.35,0.06,0.63,0.06h1.3c0.41,0,0.68-0.01,0.79-0.04c0.11-0.03,0.21-0.08,0.29-0.17c0.08-0.08,0.14-0.27,0.18-0.55h0.08
		v1.01h-5.03v-0.07c0.17-0.01,0.3-0.04,0.39-0.1c0.09-0.05,0.13-0.2,0.13-0.43v-5.94c0-0.27-0.02-0.46-0.07-0.57
		C144.96,74.68,144.81,74.62,144.56,74.62"/>
	<path class="st12" d="M149.83,81.9v-0.08c0.23,0,0.38-0.04,0.45-0.13c0.07-0.09,0.1-0.23,0.1-0.44v-6.02
		c0-0.21-0.03-0.37-0.08-0.46c-0.05-0.09-0.21-0.15-0.48-0.15v-0.07h1.97v0.07c-0.18,0-0.31,0.02-0.38,0.07
		c-0.07,0.05-0.12,0.1-0.14,0.17c-0.02,0.06-0.03,0.21-0.03,0.43v5.16c0,0.44,0.11,0.75,0.32,0.94c0.21,0.18,0.58,0.27,1.09,0.27
		h0.9c0.43,0,0.75-0.11,0.95-0.32c0.2-0.21,0.31-0.61,0.34-1.2h0.08v1.77H149.83z"/>
	<path class="st12" d="M62.23,56.82v-0.14h3.78c1.34,0,2.32,0.15,2.93,0.45c0.61,0.3,1.05,0.67,1.33,1.12
		c0.28,0.45,0.42,1.04,0.42,1.77c0,1.12-0.39,1.97-1.16,2.53c-0.77,0.56-1.82,0.83-3.15,0.81v-0.14c0.84,0,1.52-0.26,2.05-0.77
		c0.52-0.52,0.79-1.19,0.79-2.03c0-0.65-0.13-1.23-0.38-1.74c-0.25-0.51-0.61-0.89-1.07-1.16c-0.46-0.26-1.17-0.4-2.12-0.4H64.7
		v11.34c0,0.64,0.07,1.02,0.22,1.15c0.14,0.12,0.42,0.18,0.82,0.18v0.13h-3.5V69.8c0.62,0,0.94-0.29,0.94-0.85V57.98
		c0-0.47-0.06-0.78-0.18-0.93C62.87,56.89,62.62,56.82,62.23,56.82"/>
	<path class="st12" d="M79.31,56.48c1.86,0,3.38,0.56,4.56,1.7c1.18,1.13,1.77,2.54,1.77,4.23c0,2.18-0.68,4.01-2.05,5.5
		c-1.37,1.49-3.18,2.23-5.44,2.23c-1.84,0-3.34-0.6-4.51-1.8c-1.17-1.2-1.75-2.64-1.75-4.32c0-1.13,0.28-2.3,0.85-3.49
		c0.56-1.19,1.41-2.17,2.55-2.92C76.41,56.86,77.76,56.48,79.31,56.48 M79.26,69.44c0.91,0,1.81-0.24,2.7-0.73
		c0.89-0.49,1.59-1.16,2.1-2.02c0.51-0.86,0.76-1.74,0.76-2.65c0-1.28-0.34-2.45-1.03-3.5c-0.69-1.05-1.58-1.87-2.67-2.47
		c-1.09-0.59-2.11-0.89-3.04-0.89c-1.31,0-2.51,0.5-3.58,1.49c-1.07,0.99-1.61,2.22-1.61,3.69c0,1.88,0.65,3.53,1.96,4.95
		C76.17,68.73,77.63,69.44,79.26,69.44"/>
	<path class="st12" d="M86.48,69.93V69.8c0.41,0,0.68-0.08,0.8-0.23c0.12-0.16,0.18-0.42,0.18-0.8V57.92c0-0.38-0.05-0.66-0.14-0.83
		c-0.1-0.17-0.38-0.26-0.86-0.27v-0.14h3.55v0.14c-0.33,0-0.56,0.04-0.69,0.13c-0.13,0.08-0.22,0.18-0.26,0.3
		C89.02,57.35,89,57.61,89,58.01v9.3c0,0.8,0.19,1.36,0.58,1.69c0.38,0.33,1.04,0.49,1.97,0.49h1.62c0.78,0,1.35-0.19,1.71-0.58
		c0.36-0.38,0.56-1.11,0.61-2.17h0.14v3.19H86.48z"/>
	<path class="st12" d="M103.97,63.83h-3.89l-2.01,5c-0.14,0.36-0.21,0.58-0.21,0.67c0,0.2,0.15,0.3,0.44,0.3v0.14h-1.97V69.8
		c0.26,0,0.49-0.06,0.67-0.19c0.18-0.13,0.38-0.46,0.59-1l4.8-12.12h0.24l4.73,11.71c0,0.06,0.12,0.34,0.36,0.85
		c0.24,0.51,0.61,0.76,1.11,0.76v0.14h-3.1V69.8c0.28,0,0.42-0.11,0.42-0.33c0-0.15-0.07-0.39-0.21-0.72
		c-0.02-0.02-0.05-0.06-0.06-0.12c-0.01-0.06-0.02-0.09-0.03-0.09L103.97,63.83z M100.21,63.47h3.58L102,58.95L100.21,63.47z"/>
	<path class="st12" d="M118.45,56.22l-0.63,1.6h-0.14c0.02-0.1,0.04-0.22,0.04-0.39c0-0.14-0.05-0.23-0.15-0.27
		c-0.1-0.04-0.26-0.06-0.47-0.06h-3.46v11.34c0,0.47,0.04,0.79,0.11,0.96c0.08,0.17,0.18,0.28,0.31,0.32
		c0.13,0.05,0.34,0.07,0.63,0.07v0.14h-3.59V69.8c0.45-0.03,0.73-0.12,0.85-0.26c0.11-0.14,0.17-0.44,0.17-0.9V57.11h-3.31
		c-0.33,0-0.55,0.02-0.66,0.06c-0.1,0.04-0.15,0.14-0.15,0.29c0,0.08,0.02,0.2,0.07,0.36h-0.13l-0.63-1.6h0.14
		c0.11,0.22,0.21,0.35,0.32,0.39c0.1,0.05,0.33,0.07,0.68,0.07h8.79c0.35,0,0.6-0.02,0.75-0.07c0.15-0.05,0.27-0.18,0.34-0.39
		H118.45z"/>
</g>
</svg>
