<?xml version="1.0" encoding="utf-8"?>
<!-- Generator: Adobe Illustrator 23.1.1, SVG Export Plug-In . SVG Version: 6.00 Build 0)  -->
<svg version="1.1" id="Layer_1" xmlns="http://www.w3.org/2000/svg" xmlns:xlink="http://www.w3.org/1999/xlink" x="0px" y="0px"
	 viewBox="0 0 180 100" style="enable-background:new 0 0 180 100;" xml:space="preserve">
<style type="text/css">
	.st0{clip-path:url(#SVGID_2_);fill:#FFFFFF;}
	.st1{clip-path:url(#SVGID_2_);fill:none;stroke:#2A2523;stroke-width:1.2;stroke-miterlimit:10;}
	.st2{clip-path:url(#SVGID_2_);fill:#2A2523;}
	.st3{clip-path:url(#SVGID_2_);fill:#E32B27;}
	.st4{clip-path:url(#SVGID_4_);fill:#FFFFFF;}
	.st5{clip-path:url(#SVGID_4_);fill:none;stroke:#2A2523;stroke-width:1.2;stroke-miterlimit:10;}
	.st6{clip-path:url(#SVGID_4_);fill:#3AA9E0;}
	.st7{clip-path:url(#SVGID_4_);fill:#2A2523;}
	.st8{clip-path:url(#SVGID_6_);fill:#FFFFFF;}
	.st9{clip-path:url(#SVGID_6_);fill:none;stroke:#2A2523;stroke-width:1.2;stroke-miterlimit:10;}
	.st10{clip-path:url(#SVGID_6_);fill:#2F3080;}
	.st11{clip-path:url(#SVGID_6_);fill:#2A2523;}
	.st12{fill:#1D1C1A;}
	.st13{clip-path:url(#SVGID_8_);}
	.st14{clip-path:url(#SVGID_10_);}
	.st15{clip-path:url(#SVGID_12_);}
	.st16{clip-path:url(#SVGID_14_);}
	.st17{clip-path:url(#SVGID_16_);}
	.st18{clip-path:url(#SVGID_18_);}
	.st19{fill-rule:evenodd;clip-rule:evenodd;fill:#5B6770;}
	.st20{fill:none;stroke:#5B6770;stroke-width:1.8792;stroke-miterlimit:3.864;}
	.st21{fill-rule:evenodd;clip-rule:evenodd;fill:#79242F;}
	.st22{fill-rule:evenodd;clip-rule:evenodd;fill:#253A75;}
	.st23{fill:none;stroke:#253A75;stroke-width:0.132;stroke-miterlimit:3.864;}
	.st24{fill:#253A75;}
	.st25{fill:#002F3B;}
	.st26{fill:#A69E88;stroke:#A69E88;stroke-width:0.3401;stroke-miterlimit:10;}
	.st27{fill-rule:evenodd;clip-rule:evenodd;fill:#1D1C1A;}
	.st28{fill-rule:evenodd;clip-rule:evenodd;fill:#A5D0E6;}
	.st29{fill-rule:evenodd;clip-rule:evenodd;fill:#FFFFFF;}
	.st30{fill:#002D3A;}
	.st31{clip-path:url(#SVGID_20_);fill:#002E3A;}
	.st32{clip-path:url(#SVGID_20_);fill:#B68D4A;}
	.st33{fill:#B68D4A;}
	.st34{clip-path:url(#SVGID_22_);fill:#B68D4A;}
	.st35{fill:#BC955C;}
	.st36{fill:#A79F88;}
	.st37{fill:#00303C;stroke:#25A9E0;stroke-width:0.6856;stroke-dasharray:3.6133,3.6133;}
	.st38{fill:#00303C;}
	.st39{fill:#41695B;}
	.st40{fill:#907E63;}
	.st41{fill:#804951;}
	.st42{fill:#894B52;}
	.st43{fill:#42695B;stroke:#42695B;stroke-width:0.3;stroke-miterlimit:10;}
	.st44{fill:#231F20;}
	.st45{fill-rule:evenodd;clip-rule:evenodd;fill:#ADAFB1;}
	.st46{fill-rule:evenodd;clip-rule:evenodd;fill:#CFD0D2;stroke:#CFD0D2;stroke-width:0;stroke-miterlimit:3.8637;}
	.st47{fill-rule:evenodd;clip-rule:evenodd;fill:#ADAFB1;stroke:#ADAFB1;stroke-width:0;stroke-miterlimit:3.8637;}
	.st48{fill-rule:evenodd;clip-rule:evenodd;fill:#7A7C7F;stroke:#7A7C7F;stroke-width:0;stroke-miterlimit:3.8637;}
	.st49{fill-rule:evenodd;clip-rule:evenodd;fill:#BDBFC1;stroke:#BDBFC1;stroke-width:0;stroke-miterlimit:3.8637;}
	.st50{fill-rule:evenodd;clip-rule:evenodd;fill:none;stroke:#231F20;stroke-width:0.2422;stroke-miterlimit:3.8637;}
	.st51{fill-rule:evenodd;clip-rule:evenodd;fill:#B1B3B5;stroke:#B1B3B5;stroke-width:0;stroke-miterlimit:3.8637;}
	.st52{clip-path:url(#SVGID_24_);}
	.st53{clip-path:url(#SVGID_26_);}
	.st54{fill:#ADAFB1;}
	.st55{clip-path:url(#SVGID_28_);}
	.st56{fill:#FFFFFF;}
	.st57{fill:#F5F5F6;}
	.st58{fill:#EFF0F0;}
	.st59{fill:#E9EAEB;}
	.st60{fill:#E2E3E4;}
	.st61{fill:#DDDEDF;}
	.st62{fill:#D7D8DA;}
	.st63{fill:#D1D2D4;}
	.st64{fill:#CACCCE;}
	.st65{fill:#C4C6C8;}
	.st66{fill:#BFC1C3;}
	.st67{fill:#B8BABC;}
	.st68{fill:#B2B4B7;}
	.st69{clip-path:url(#SVGID_30_);}
	.st70{clip-path:url(#SVGID_32_);}
</style>
<g>
	<g>
		<path class="st43" d="M83.92,44.21l-1.39-3.89l-7.52,0.02l-1.37,3.9l-1.96,0.01l6.28-17.24l1.55,0l6.37,17.19L83.92,44.21z
			 M78.77,29.65l-3.21,9.1l6.43-0.02L78.77,29.65z"/>
		<path class="st43" d="M103.01,37.06l-4.57,0.02l0.02,7.08l-1.84,0.01l-0.06-17.22l6.41-0.02c3.14-0.01,5.33,1.94,5.34,5.04
			C108.33,35.06,106.16,37.05,103.01,37.06 M102.81,28.57l-4.4,0.02l0.02,6.84l4.4-0.02c2.15-0.01,3.65-1.17,3.64-3.45
			C106.47,29.7,104.97,28.57,102.81,28.57"/>
	</g>
	<g>
		<polygon class="st43" points="32.13,73.07 32.07,55.86 42.76,55.82 42.76,57.46 33.91,57.49 33.93,63.56 41.48,63.53 41.49,65.18 
			33.94,65.21 33.96,71.42 42.81,71.39 42.82,73.03 		"/>
		<polygon class="st43" points="65.59,72.95 56.4,59.18 56.45,72.99 54.61,72.99 54.55,55.78 56.29,55.77 65.48,69.5 65.43,55.74 
			67.27,55.73 67.33,72.95 		"/>
		<polygon class="st43" points="80.28,72.9 80.22,55.69 90.91,55.65 90.91,57.29 82.06,57.33 82.08,63.39 89.62,63.37 89.63,65.01 
			82.09,65.04 82.11,71.25 90.96,71.22 90.97,72.86 		"/>
		<path class="st43" d="M112.65,72.79l-3.94-7.63l-4.13,0.02l0.03,7.64l-1.84,0.01l-0.06-17.22l6.6-0.02c3-0.01,5.11,1.79,5.12,4.77
			c0.01,2.51-1.51,4.16-3.73,4.63l4.11,7.8L112.65,72.79z M109.13,57.23l-4.59,0.02l0.02,6.31l4.59-0.02
			c2.01-0.01,3.43-1.05,3.42-3.15C112.57,58.28,111.14,57.22,109.13,57.23"/>
		<path class="st43" d="M128.02,72.88c-1.65,0.01-2.88-0.47-3.95-1.53l1.23-1.24c0.63,0.63,1.29,1.13,2.71,1.13
			c2.25-0.01,3.52-1.44,3.52-3.98l-0.04-11.75l1.84-0.01l0.04,11.99C133.37,70.81,131.16,72.87,128.02,72.88"/>
		<path class="st43" d="M146.02,51.56l1.82-0.01l0.01,1.84l-1.82,0.01L146.02,51.56z M146.09,72.67l-0.06-17.22l1.84-0.01
			l0.06,17.22L146.09,72.67z"/>
	</g>
</g>
</svg>
