<?xml version="1.0" encoding="utf-8"?>
<!-- Generator: Adobe Illustrator 23.1.1, SVG Export Plug-In . SVG Version: 6.00 Build 0)  -->
<svg version="1.1" id="Layer_1" xmlns="http://www.w3.org/2000/svg" xmlns:xlink="http://www.w3.org/1999/xlink" x="0px" y="0px"
	 viewBox="0 0 180 100" style="enable-background:new 0 0 180 100;" xml:space="preserve">
<style type="text/css">
	.st0{clip-path:url(#SVGID_2_);fill:#FFFFFF;}
	.st1{clip-path:url(#SVGID_2_);fill:none;stroke:#2A2523;stroke-width:1.2;stroke-miterlimit:10;}
	.st2{clip-path:url(#SVGID_2_);fill:#2A2523;}
	.st3{clip-path:url(#SVGID_2_);fill:#E32B27;}
	.st4{clip-path:url(#SVGID_4_);fill:#FFFFFF;}
	.st5{clip-path:url(#SVGID_4_);fill:none;stroke:#2A2523;stroke-width:1.2;stroke-miterlimit:10;}
	.st6{clip-path:url(#SVGID_4_);fill:#3AA9E0;}
	.st7{clip-path:url(#SVGID_4_);fill:#2A2523;}
	.st8{clip-path:url(#SVGID_6_);fill:#FFFFFF;}
	.st9{clip-path:url(#SVGID_6_);fill:none;stroke:#2A2523;stroke-width:1.2;stroke-miterlimit:10;}
	.st10{clip-path:url(#SVGID_6_);fill:#2F3080;}
	.st11{clip-path:url(#SVGID_6_);fill:#2A2523;}
	.st12{fill:#1D1C1A;}
	.st13{clip-path:url(#SVGID_8_);}
	.st14{clip-path:url(#SVGID_10_);}
	.st15{clip-path:url(#SVGID_12_);}
	.st16{clip-path:url(#SVGID_14_);}
	.st17{clip-path:url(#SVGID_16_);}
	.st18{clip-path:url(#SVGID_18_);}
	.st19{fill-rule:evenodd;clip-rule:evenodd;fill:#5B6770;}
	.st20{fill:none;stroke:#5B6770;stroke-width:1.8792;stroke-miterlimit:3.864;}
	.st21{fill-rule:evenodd;clip-rule:evenodd;fill:#79242F;}
	.st22{fill-rule:evenodd;clip-rule:evenodd;fill:#253A75;}
	.st23{fill:none;stroke:#253A75;stroke-width:0.132;stroke-miterlimit:3.864;}
	.st24{fill:#253A75;}
	.st25{fill:#002F3B;}
	.st26{fill:#A69E88;stroke:#A69E88;stroke-width:0.3401;stroke-miterlimit:10;}
	.st27{fill-rule:evenodd;clip-rule:evenodd;fill:#1D1C1A;}
	.st28{fill-rule:evenodd;clip-rule:evenodd;fill:#A5D0E6;}
	.st29{fill-rule:evenodd;clip-rule:evenodd;fill:#FFFFFF;}
	.st30{fill:#002D3A;}
	.st31{clip-path:url(#SVGID_20_);fill:#002E3A;}
	.st32{clip-path:url(#SVGID_20_);fill:#B68D4A;}
	.st33{fill:#B68D4A;}
	.st34{clip-path:url(#SVGID_22_);fill:#B68D4A;}
	.st35{fill:#BC955C;}
	.st36{fill:#A79F88;}
	.st37{fill:#00303C;stroke:#25A9E0;stroke-width:0.6856;stroke-dasharray:3.6133,3.6133;}
	.st38{fill:#00303C;}
	.st39{fill:#41695B;}
	.st40{fill:#907E63;}
	.st41{fill:#804951;}
	.st42{fill:#894B52;}
	.st43{fill:#42695B;stroke:#42695B;stroke-width:0.3;stroke-miterlimit:10;}
	.st44{fill:#231F20;}
	.st45{fill-rule:evenodd;clip-rule:evenodd;fill:#ADAFB1;}
	.st46{fill-rule:evenodd;clip-rule:evenodd;fill:#CFD0D2;stroke:#CFD0D2;stroke-width:0;stroke-miterlimit:3.8637;}
	.st47{fill-rule:evenodd;clip-rule:evenodd;fill:#ADAFB1;stroke:#ADAFB1;stroke-width:0;stroke-miterlimit:3.8637;}
	.st48{fill-rule:evenodd;clip-rule:evenodd;fill:#7A7C7F;stroke:#7A7C7F;stroke-width:0;stroke-miterlimit:3.8637;}
	.st49{fill-rule:evenodd;clip-rule:evenodd;fill:#BDBFC1;stroke:#BDBFC1;stroke-width:0;stroke-miterlimit:3.8637;}
	.st50{fill-rule:evenodd;clip-rule:evenodd;fill:none;stroke:#231F20;stroke-width:0.2422;stroke-miterlimit:3.8637;}
	.st51{fill-rule:evenodd;clip-rule:evenodd;fill:#B1B3B5;stroke:#B1B3B5;stroke-width:0;stroke-miterlimit:3.8637;}
	.st52{clip-path:url(#SVGID_24_);}
	.st53{clip-path:url(#SVGID_26_);}
	.st54{fill:#ADAFB1;}
	.st55{clip-path:url(#SVGID_28_);}
	.st56{fill:#FFFFFF;}
	.st57{fill:#F5F5F6;}
	.st58{fill:#EFF0F0;}
	.st59{fill:#E9EAEB;}
	.st60{fill:#E2E3E4;}
	.st61{fill:#DDDEDF;}
	.st62{fill:#D7D8DA;}
	.st63{fill:#D1D2D4;}
	.st64{fill:#CACCCE;}
	.st65{fill:#C4C6C8;}
	.st66{fill:#BFC1C3;}
	.st67{fill:#B8BABC;}
	.st68{fill:#B2B4B7;}
	.st69{clip-path:url(#SVGID_30_);}
	.st70{clip-path:url(#SVGID_32_);}
</style>
<g>
	<g>
		<defs>
			<rect id="SVGID_1_" x="12.9" y="33.01" width="154.2" height="33.98"/>
		</defs>
		<clipPath id="SVGID_2_">
			<use xlink:href="#SVGID_1_"  style="overflow:visible;"/>
		</clipPath>
		
			<rect x="13.4" y="33.59" transform="matrix(1 -1.272346e-03 1.272346e-03 1 -0.0635 0.1146)" class="st0" width="153.21" height="32.83"/>
		
			<rect x="13.4" y="33.59" transform="matrix(1 -1.272346e-03 1.272346e-03 1 -0.0635 0.1146)" class="st1" width="153.21" height="32.83"/>
		<path class="st2" d="M66.98,59.28l0.5,0l0,0.14c0,0.27,0.07,0.46,0.22,0.6c0.15,0.14,0.37,0.2,0.66,0.2c0.26,0,0.47-0.07,0.62-0.2
			c0.15-0.13,0.22-0.31,0.22-0.54c0-0.18-0.04-0.32-0.13-0.42c-0.09-0.1-0.3-0.2-0.62-0.3l-0.32-0.1c-0.38-0.11-0.61-0.2-0.69-0.26
			c-0.13-0.1-0.23-0.21-0.29-0.35c-0.07-0.14-0.1-0.29-0.1-0.46c0-0.34,0.11-0.6,0.34-0.79c0.23-0.19,0.54-0.29,0.94-0.29
			c0.38,0,0.68,0.09,0.9,0.27c0.22,0.18,0.33,0.42,0.33,0.73v0.05v0.05l-0.48,0v-0.04c0-0.22-0.07-0.39-0.19-0.51
			s-0.31-0.18-0.55-0.18c-0.25,0-0.44,0.06-0.58,0.17c-0.14,0.11-0.21,0.27-0.21,0.47c0,0.18,0.05,0.32,0.14,0.43
			c0.1,0.1,0.3,0.2,0.63,0.3l0.17,0.05c0.49,0.15,0.79,0.26,0.88,0.34c0.12,0.09,0.2,0.2,0.26,0.33c0.03,0.07,0.05,0.14,0.07,0.21
			c0.01,0.07,0.02,0.16,0.02,0.25c0,0.37-0.12,0.66-0.37,0.87c-0.25,0.21-0.59,0.31-1.03,0.31c-0.43,0-0.77-0.1-0.99-0.31
			c-0.23-0.2-0.34-0.5-0.34-0.89v-0.06V59.28z"/>
		<path class="st2" d="M70.75,60.51l1.28-3.91l0.67,0l1.31,3.91l-0.53,0l-0.36-1.12l-1.49,0l-0.34,1.13H70.75z M71.74,58.99l1.26,0
			l-0.63-2.05L71.74,58.99z"/>
		<polygon class="st2" points="75.14,60.51 75.14,56.6 75.84,56.6 77.48,59.95 77.43,56.6 77.93,56.6 77.94,60.5 77.26,60.51 
			75.6,57.06 75.65,60.51 		"/>
		<path class="st2" d="M79.08,60.5l1.28-3.91l0.67,0l1.31,3.91l-0.53,0l-0.36-1.12l-1.49,0l-0.34,1.13H79.08z M80.07,58.98l1.26,0
			l-0.63-2.05L80.07,58.98z"/>
		<polygon class="st2" points="84.35,60.5 84.35,58.98 82.95,56.59 83.58,56.59 84.62,58.51 85.71,56.59 86.28,56.59 84.88,58.98 
			84.88,60.5 		"/>
		<path class="st2" d="M87.21,56.08l0-0.56l0.59,0v0.56L87.21,56.08z M87.24,60.49l0-3.91l0.54,0l0,3.91L87.24,60.49z"/>
		<polygon class="st2" points="92.07,60.49 91.11,57.57 91.65,57.57 92.34,59.86 93.06,57.57 93.58,57.57 92.6,60.49 		"/>
		<path class="st2" d="M96.29,59.49l0.48,0c0,0.35-0.09,0.61-0.28,0.79c-0.19,0.18-0.45,0.28-0.8,0.28c-0.38,0-0.66-0.12-0.84-0.37
			c-0.18-0.25-0.27-0.62-0.27-1.14c0-0.54,0.09-0.94,0.27-1.2c0.18-0.25,0.46-0.38,0.85-0.38c0.36,0,0.63,0.11,0.81,0.32
			c0.18,0.22,0.27,0.54,0.27,0.98l-0.01,0.16l-0.01,0.1l-1.68,0l0,0.13c0,0.37,0.05,0.64,0.15,0.8c0.1,0.17,0.27,0.25,0.49,0.25
			c0.17,0,0.31-0.07,0.41-0.19c0.1-0.13,0.15-0.3,0.15-0.52V59.49z M95.09,58.71l1.2,0v-0.08c0-0.14-0.01-0.26-0.04-0.35
			c-0.02-0.1-0.06-0.18-0.11-0.25c-0.09-0.14-0.23-0.21-0.43-0.21c-0.21,0-0.37,0.07-0.47,0.22C95.14,58.18,95.09,58.41,95.09,58.71
			"/>
		<polygon class="st2" points="101.17,60.48 101.16,56.97 99.96,56.97 99.96,56.57 102.83,56.57 102.83,56.97 101.7,56.97 
			101.71,60.47 		"/>
		<path class="st2" d="M103.94,56.06l0-0.56l0.59,0v0.56L103.94,56.06z M103.97,60.47l0-3.91l0.54,0l0,3.91L103.97,60.47z"/>
		<path class="st2" d="M108.2,59.03l0.52,0c0,0.25-0.03,0.46-0.09,0.65c-0.06,0.19-0.15,0.35-0.28,0.48
			c-0.24,0.26-0.59,0.39-1.04,0.39c-0.48,0-0.84-0.17-1.07-0.5c-0.24-0.33-0.36-0.84-0.36-1.54c0-0.72,0.11-1.25,0.35-1.57
			c0.23-0.32,0.6-0.48,1.12-0.48c0.43,0,0.76,0.1,0.99,0.31c0.23,0.21,0.35,0.5,0.35,0.88v0.05h-0.51c0-0.27-0.08-0.47-0.23-0.63
			c-0.15-0.15-0.36-0.23-0.62-0.23c-0.32,0-0.54,0.13-0.69,0.39c-0.14,0.26-0.21,0.68-0.21,1.28c0,0.3,0.02,0.55,0.05,0.75
			c0.04,0.2,0.09,0.37,0.17,0.5c0.14,0.25,0.38,0.37,0.72,0.37c0.27,0,0.47-0.09,0.62-0.27c0.14-0.18,0.22-0.44,0.21-0.78V59.03z"/>
		<path class="st2" d="M109.81,60.46l1.28-3.91l0.67,0l1.31,3.91l-0.53,0l-0.36-1.12l-1.49,0l-0.34,1.13H109.81z M110.8,58.94
			l1.26,0l-0.63-2.05L110.8,58.94z"/>
		<path class="st2" d="M114.21,60.46l0-3.91l1.32,0c0.49,0,0.85,0.08,1.09,0.25c0.24,0.16,0.35,0.41,0.35,0.76
			c0,0.26-0.07,0.47-0.21,0.63c-0.14,0.16-0.36,0.27-0.66,0.33c0.13,0,0.24,0.02,0.34,0.05c0.1,0.04,0.18,0.09,0.25,0.15
			c0.13,0.12,0.21,0.31,0.24,0.56l0.03,0.39c0,0.2,0.02,0.37,0.07,0.5c0.05,0.13,0.11,0.23,0.18,0.28l-0.65,0
			c-0.04-0.05-0.06-0.13-0.09-0.24c-0.02-0.11-0.04-0.24-0.04-0.4c0-0.08,0-0.16-0.01-0.24c-0.01-0.07-0.01-0.13-0.02-0.16
			c-0.03-0.27-0.11-0.45-0.25-0.55c-0.14-0.1-0.39-0.15-0.75-0.15l-0.67,0l0,1.74L114.21,60.46z M114.72,58.34l0.64,0
			c0.36,0,0.63-0.06,0.81-0.18c0.17-0.12,0.26-0.3,0.26-0.55c0-0.24-0.08-0.41-0.23-0.52c-0.15-0.11-0.4-0.16-0.74-0.16l-0.74,0
			L114.72,58.34z"/>
		<polygon class="st2" points="118.49,60.45 118.49,56.55 120.82,56.54 120.83,56.95 119.01,56.95 119.01,58.21 120.71,58.21 
			120.71,58.6 119.01,58.6 119.01,60.04 120.85,60.04 120.85,60.45 		"/>
		<polygon class="st2" points="123.06,60.45 123.06,56.94 121.86,56.94 121.85,56.54 124.72,56.54 124.73,56.94 123.6,56.94 
			123.6,60.45 		"/>
		<path class="st2" d="M127.72,60.44l1.28-3.91l0.67,0l1.31,3.91l-0.53,0l-0.36-1.12l-1.49,0l-0.34,1.13H127.72z M128.71,58.92
			l1.26,0l-0.63-2.05L128.71,58.92z"/>
		<path class="st2" d="M135.86,60.51c-0.19,0-0.36-0.03-0.51-0.08c-0.15-0.05-0.28-0.13-0.39-0.22c-0.22-0.2-0.34-0.5-0.34-0.89
			v-0.06l0-0.07h0.5v0.14c0,0.26,0.08,0.46,0.22,0.6c0.15,0.14,0.37,0.2,0.66,0.2c0.26,0,0.47-0.07,0.62-0.2
			c0.15-0.13,0.22-0.31,0.22-0.54c0-0.18-0.04-0.32-0.14-0.42c-0.09-0.1-0.3-0.2-0.62-0.3l-0.32-0.1c-0.38-0.11-0.61-0.2-0.69-0.26
			c-0.13-0.1-0.23-0.21-0.29-0.35c-0.06-0.13-0.1-0.29-0.1-0.46c0-0.34,0.11-0.6,0.34-0.79c0.23-0.19,0.54-0.29,0.95-0.29
			c0.38,0,0.68,0.09,0.9,0.27c0.22,0.18,0.33,0.42,0.33,0.73v0.05v0.05l-0.48,0v-0.04c0-0.22-0.06-0.39-0.2-0.51
			c-0.13-0.12-0.31-0.18-0.55-0.18c-0.25,0-0.44,0.06-0.58,0.17c-0.14,0.11-0.21,0.27-0.21,0.46c0,0.19,0.05,0.33,0.14,0.43
			c0.1,0.1,0.31,0.2,0.63,0.3l0.17,0.05c0.49,0.15,0.79,0.26,0.88,0.34c0.12,0.09,0.2,0.2,0.26,0.32c0.03,0.07,0.05,0.14,0.06,0.21
			c0.01,0.07,0.02,0.16,0.02,0.25c0,0.37-0.12,0.66-0.37,0.86c-0.12,0.1-0.25,0.17-0.4,0.23c-0.15,0.05-0.31,0.08-0.5,0.08v0.18
			h0.02c0.2,0,0.35,0.04,0.46,0.12c0.11,0.08,0.17,0.18,0.17,0.32c0,0.16-0.06,0.29-0.19,0.37c-0.13,0.08-0.31,0.13-0.56,0.13
			c-0.08,0-0.17-0.01-0.27-0.02c-0.1-0.01-0.19-0.03-0.29-0.05l0-0.26l0.05,0.01c0.27,0.04,0.43,0.06,0.5,0.06
			c0.11,0,0.19-0.02,0.25-0.06c0.06-0.04,0.09-0.09,0.09-0.16c0-0.07-0.03-0.12-0.09-0.16c-0.06-0.04-0.14-0.06-0.25-0.06h-0.04
			l-0.07,0.01L135.86,60.51z"/>
		
			<rect x="138.8" y="59.89" transform="matrix(1 -1.792014e-03 1.792014e-03 1 -0.1076 0.2493)" class="st2" width="0.56" height="0.53"/>
		
			<rect x="132.35" y="59.9" transform="matrix(1 -1.792014e-03 1.792014e-03 1 -0.1076 0.2378)" class="st2" width="0.56" height="0.53"/>
		<path class="st3" d="M60.58,46.46c0.85,0.8,1.19,1.11,1.19,1.55c0,0.49-0.5,0.85-0.85,0.85l-9.81,0.02c0.32-0.14,4-0.34,3.93-2.9
			c-0.04-1.35-1.32-2.29-2.68-2.34c-1.79-0.07-5.02,1.76-4.93,6.17c0.04,1.96,1.73,4.5,4.02,4.5c2.38,0,4.14-4.44,6.28-4.45
			l4.35-0.01l-9.45,9.47c-0.52,0.52-1.35,0.52-1.87,0l-9.47-9.45c-0.51-0.52-0.52-1.35,0-1.87l9.45-9.47c0.52-0.52,1.35-0.52,1.87,0
			L60.58,46.46z"/>
		<polygon class="st2" points="71.98,46.3 69.11,46.3 69.11,47.91 71.51,47.9 71.52,50.31 69.12,50.32 69.12,51.91 72.14,51.9 
			72.15,54.29 67.2,54.3 67.19,43.89 71.97,43.89 		"/>
		<polygon class="st2" points="88.26,46.29 85.39,46.29 85.4,47.9 87.79,47.89 87.8,50.3 85.4,50.31 85.4,51.9 88.43,51.89 
			88.43,54.28 83.48,54.29 83.47,43.88 88.25,43.87 		"/>
		<path class="st2" d="M78.75,54.03c-0.35,0.36-0.78,0.53-1.29,0.53c-0.84,0-1.53-0.47-2.07-1.44c-0.56-0.97-0.84-2.28-0.84-3.96
			c0-1.69,0.28-3.05,0.84-4.08c0.56-1.02,1.31-1.54,2.24-1.54c0.8,0,1.45,0.33,1.94,1.02c0.49,0.67,0.77,1.5,0.85,2.52v0.42l-1.75,0
			c-0.07-0.56-0.23-0.95-0.5-1.17c-0.15-0.12-0.31-0.18-0.49-0.18c-0.34,0-0.62,0.25-0.85,0.75c-0.22,0.5-0.33,1.24-0.33,2.25
			c0,1.01,0.12,1.72,0.36,2.14c0.24,0.42,0.51,0.62,0.82,0.63c0.3,0,0.6-0.16,0.79-0.5c0.11-0.19,0.18-0.42,0.22-0.69l-0.28-0.01
			l-0.47,0l0-2.17l2.59,0l0.01,5.74l-1.18,0l-0.24-0.69C78.99,53.77,78.88,53.9,78.75,54.03"/>
		<path class="st2" d="M106.77,44.92l1.32,0c0.54,0,1.63-0.03,1.65,1.76c0.02,1.81-0.88,1.93-1.51,1.91l-1.45,0L106.77,44.92z
			 M109.95,48.81c0.26-0.38,0.6-1.24,0.62-2.03c0.04-2.39-1.03-2.96-2.55-2.96l-2.1,0l0.01,10.38l0.85,0l-0.01-4.44l1.59,0
			c0.95,0,1.24,0.76,1.24,1.79c0,0.7,0.08,1.98,0.26,2.64l0.94,0v-0.23c-0.19,0-0.25-0.46-0.28-0.65c-0.08-0.78-0.08-1.53-0.1-2.31
			c-0.08-0.99-0.07-1.4-0.7-1.83L109.95,48.81z"/>
		<path class="st2" d="M113,54.19l0.89,0l0.53-2.99l2.29,0l0.57,2.99l0.89,0l-2.11-10.38l-0.95,0L113,54.19z M116.52,50.06l-1.91,0
			l0.97-4.43L116.52,50.06z"/>
		<path class="st2" d="M123.35,52.55l-1.63-8.76l-1.14,0l0.01,10.38l0.8,0l-0.01-7.89c-0.01,0,1.53,7.89,1.53,7.89l0.88,0
			c0,0,1.56-7.92,1.55-7.92l0.01,7.92l0.78,0l-0.01-10.38l-1.11,0L123.35,52.55z"/>
		<path class="st2" d="M130.04,43.35l0-1.19l-0.82,0l0,1.2L130.04,43.35z M130.09,54.16l-0.01-10.38l-0.86,0l0.01,10.38
			L130.09,54.16z"/>
		<polygon class="st2" points="133.93,54.16 133.92,50.56 134.8,49.07 136.79,54.15 137.74,54.15 135.35,48.12 137.75,43.77 
			136.85,43.77 133.91,48.91 133.9,43.77 133.1,43.77 133.11,54.16 		"/>
		<path class="st2" d="M95.53,46.74c0.07-1.95-0.84-3.11-2.17-3.11c-1.18,0-2.07,1.12-2.07,2.84c0,1.02,0.23,1.91,0.92,2.41
			c0.39,0.29,1.02,0.52,1.42,0.74c0.73,0.4,1.23,0.41,1.24,1.99c0,1.22-0.62,1.81-1.43,1.82c-1.21,0-1.52-0.97-1.48-2.5l-0.8,0
			c0.01,0.55,0.11,1.39,0.27,1.9c0.42,1.35,1.27,1.65,1.98,1.64c1.39,0,2.36-1.15,2.35-3.12c0-1.37-0.36-2.06-1.73-2.79
			c-0.39-0.21-0.76-0.36-1.15-0.56c-0.46-0.25-0.74-0.75-0.74-1.47c0-0.8,0.18-1.86,1.35-1.86c0.8,0,1.31,1,1.26,2.08L95.53,46.74z"
			/>
		<polygon class="st2" points="102.94,54.2 102.94,53.07 99.57,53.07 99.56,49.45 102.74,49.45 102.74,48.29 99.56,48.3 
			99.56,44.97 102.91,44.96 102.91,43.82 98.7,43.83 98.72,54.21 		"/>
	</g>
</g>
</svg>
