<?xml version="1.0" encoding="utf-8"?>
<!-- Generator: Adobe Illustrator 23.1.1, SVG Export Plug-In . SVG Version: 6.00 Build 0)  -->
<svg version="1.1" id="Layer_1" xmlns="http://www.w3.org/2000/svg" xmlns:xlink="http://www.w3.org/1999/xlink" x="0px" y="0px"
	 viewBox="0 0 180 100" style="enable-background:new 0 0 180 100;" xml:space="preserve">
<style type="text/css">
	.st0{clip-path:url(#SVGID_2_);fill:#FFFFFF;}
	.st1{clip-path:url(#SVGID_2_);fill:none;stroke:#2A2523;stroke-width:1.2;stroke-miterlimit:10;}
	.st2{clip-path:url(#SVGID_2_);fill:#2A2523;}
	.st3{clip-path:url(#SVGID_2_);fill:#E32B27;}
	.st4{clip-path:url(#SVGID_4_);fill:#FFFFFF;}
	.st5{clip-path:url(#SVGID_4_);fill:none;stroke:#2A2523;stroke-width:1.2;stroke-miterlimit:10;}
	.st6{clip-path:url(#SVGID_4_);fill:#3AA9E0;}
	.st7{clip-path:url(#SVGID_4_);fill:#2A2523;}
	.st8{clip-path:url(#SVGID_6_);fill:#FFFFFF;}
	.st9{clip-path:url(#SVGID_6_);fill:none;stroke:#2A2523;stroke-width:1.2;stroke-miterlimit:10;}
	.st10{clip-path:url(#SVGID_6_);fill:#2F3080;}
	.st11{clip-path:url(#SVGID_6_);fill:#2A2523;}
	.st12{fill:#1D1C1A;}
	.st13{clip-path:url(#SVGID_8_);}
	.st14{clip-path:url(#SVGID_10_);}
	.st15{clip-path:url(#SVGID_12_);}
	.st16{clip-path:url(#SVGID_14_);}
	.st17{clip-path:url(#SVGID_16_);}
	.st18{clip-path:url(#SVGID_18_);}
	.st19{fill-rule:evenodd;clip-rule:evenodd;fill:#5B6770;}
	.st20{fill:none;stroke:#5B6770;stroke-width:1.8792;stroke-miterlimit:3.864;}
	.st21{fill-rule:evenodd;clip-rule:evenodd;fill:#79242F;}
	.st22{fill-rule:evenodd;clip-rule:evenodd;fill:#253A75;}
	.st23{fill:none;stroke:#253A75;stroke-width:0.132;stroke-miterlimit:3.864;}
	.st24{fill:#253A75;}
	.st25{fill:#002F3B;}
	.st26{fill:#A69E88;stroke:#A69E88;stroke-width:0.3401;stroke-miterlimit:10;}
	.st27{fill-rule:evenodd;clip-rule:evenodd;fill:#1D1C1A;}
	.st28{fill-rule:evenodd;clip-rule:evenodd;fill:#A5D0E6;}
	.st29{fill-rule:evenodd;clip-rule:evenodd;fill:#FFFFFF;}
	.st30{fill:#002D3A;}
	.st31{clip-path:url(#SVGID_20_);fill:#002E3A;}
	.st32{clip-path:url(#SVGID_20_);fill:#B68D4A;}
	.st33{fill:#B68D4A;}
	.st34{clip-path:url(#SVGID_22_);fill:#B68D4A;}
	.st35{fill:#BC955C;}
	.st36{fill:#A79F88;}
	.st37{fill:#00303C;stroke:#25A9E0;stroke-width:0.6856;stroke-dasharray:3.6133,3.6133;}
	.st38{fill:#00303C;}
	.st39{fill:#41695B;}
	.st40{fill:#907E63;}
	.st41{fill:#804951;}
	.st42{fill:#894B52;}
	.st43{fill:#42695B;stroke:#42695B;stroke-width:0.3;stroke-miterlimit:10;}
	.st44{fill:#231F20;}
	.st45{fill-rule:evenodd;clip-rule:evenodd;fill:#ADAFB1;}
	.st46{fill-rule:evenodd;clip-rule:evenodd;fill:#CFD0D2;stroke:#CFD0D2;stroke-width:0;stroke-miterlimit:3.8637;}
	.st47{fill-rule:evenodd;clip-rule:evenodd;fill:#ADAFB1;stroke:#ADAFB1;stroke-width:0;stroke-miterlimit:3.8637;}
	.st48{fill-rule:evenodd;clip-rule:evenodd;fill:#7A7C7F;stroke:#7A7C7F;stroke-width:0;stroke-miterlimit:3.8637;}
	.st49{fill-rule:evenodd;clip-rule:evenodd;fill:#BDBFC1;stroke:#BDBFC1;stroke-width:0;stroke-miterlimit:3.8637;}
	.st50{fill-rule:evenodd;clip-rule:evenodd;fill:none;stroke:#231F20;stroke-width:0.2422;stroke-miterlimit:3.8637;}
	.st51{fill-rule:evenodd;clip-rule:evenodd;fill:#B1B3B5;stroke:#B1B3B5;stroke-width:0;stroke-miterlimit:3.8637;}
	.st52{clip-path:url(#SVGID_24_);}
	.st53{clip-path:url(#SVGID_26_);}
	.st54{fill:#ADAFB1;}
	.st55{clip-path:url(#SVGID_28_);}
	.st56{fill:#FFFFFF;}
	.st57{fill:#F5F5F6;}
	.st58{fill:#EFF0F0;}
	.st59{fill:#E9EAEB;}
	.st60{fill:#E2E3E4;}
	.st61{fill:#DDDEDF;}
	.st62{fill:#D7D8DA;}
	.st63{fill:#D1D2D4;}
	.st64{fill:#CACCCE;}
	.st65{fill:#C4C6C8;}
	.st66{fill:#BFC1C3;}
	.st67{fill:#B8BABC;}
	.st68{fill:#B2B4B7;}
	.st69{clip-path:url(#SVGID_30_);}
	.st70{clip-path:url(#SVGID_32_);}
</style>
<g>
	<g>
		<path class="st39" d="M74.89,44.18c-0.79,0.79-1.93,1.18-3.24,1.18h-4.4V32.82h4.4c1.3,0,2.45,0.39,3.24,1.18
			c1.36,1.36,1.27,3.19,1.27,5.01C76.16,40.82,76.25,42.83,74.89,44.18z M73.59,35.37c-0.53-0.58-1.23-0.85-2.13-0.85h-2.3v9.13h2.3
			c0.9,0,1.6-0.27,2.13-0.85c0.65-0.72,0.67-2.08,0.67-3.81C74.26,37.28,74.24,36.1,73.59,35.37z"/>
		<path class="st39" d="M92.48,45.36l-5.79-8.83v8.83h-1.9V32.82h1.74l5.79,8.81v-8.81h1.9v12.55H92.48z"/>
		<path class="st39" d="M111,45.36l-5.79-8.83v8.83h-1.9V32.82h1.74l5.79,8.81v-8.81h1.9v12.55H111z"/>
	</g>
	<g>
		<g>
			<path class="st39" d="M26.54,67.18c-1.88,0-3.24-0.44-4.43-1.66l1.27-1.25c0.91,0.92,1.92,1.2,3.2,1.2c1.64,0,2.59-0.7,2.59-1.92
				c0-0.55-0.16-1-0.49-1.3c-0.32-0.3-0.63-0.42-1.37-0.53l-1.48-0.21c-1.02-0.14-1.83-0.49-2.38-1.01
				c-0.61-0.58-0.92-1.37-0.92-2.4c0-2.18,1.58-3.68,4.19-3.68c1.65,0,2.81,0.42,3.89,1.43l-1.21,1.2
				c-0.77-0.74-1.67-0.97-2.73-0.97c-1.48,0-2.29,0.85-2.29,1.96c0,0.46,0.14,0.86,0.48,1.16c0.32,0.28,0.83,0.49,1.41,0.58
				l1.42,0.21c1.16,0.18,1.81,0.46,2.34,0.93c0.69,0.6,1.02,1.5,1.02,2.57C31.04,65.81,29.16,67.18,26.54,67.18z"/>
			<path class="st39" d="M46.77,65.84c-0.86,0.86-1.97,1.34-3.31,1.34c-1.34,0-2.43-0.48-3.29-1.34c-1.23-1.23-1.21-2.63-1.21-5.04
				c0-2.41-0.02-3.8,1.21-5.04c0.86-0.86,1.95-1.34,3.29-1.34c1.34,0,2.45,0.48,3.31,1.34c1.23,1.23,1.2,2.63,1.2,5.04
				C47.96,63.22,48,64.61,46.77,65.84z M45.32,56.91c-0.44-0.48-1.13-0.78-1.86-0.78c-0.74,0-1.42,0.3-1.86,0.78
				c-0.62,0.67-0.74,1.37-0.74,3.89c0,2.52,0.12,3.23,0.74,3.89c0.44,0.48,1.13,0.78,1.86,0.78c0.74,0,1.42-0.3,1.86-0.78
				c0.62-0.67,0.74-1.37,0.74-3.89C46.06,58.28,45.94,57.58,45.32,56.91z"/>
			<path class="st39" d="M56.59,67.08V54.53h1.9v10.84h6.04v1.71H56.59z"/>
			<path class="st39" d="M79.71,67.08l-0.86-2.52H73.9l-0.86,2.52h-2.02l4.59-12.55h1.53l4.59,12.55H79.71z M76.42,57.37l-1.95,5.57
				h3.85L76.42,57.37z"/>
			<path class="st39" d="M96.24,67.08l-2.64-5.29h-2.38v5.29h-1.9V54.53h4.86c2.37,0,3.89,1.53,3.89,3.67c0,1.8-1.09,2.94-2.5,3.33
				l2.89,5.55H96.24z M94.04,56.24h-2.82v3.93h2.82c1.27,0,2.13-0.72,2.13-1.96C96.17,56.98,95.31,56.24,94.04,56.24z"/>
		</g>
		<g>
			<path class="st39" d="M124.23,67.08l-3.52-6.19l-2.11,2.54v3.65h-1.9V54.53h1.9v6.31l5.12-6.31h2.32l-4.06,4.92l4.49,7.63H124.23
				z"/>
			<path class="st39" d="M136,56.24v3.83h5.21v1.71H136v5.3h-1.9V54.53h8.01v1.71H136z"/>
			<path class="st39" d="M154.45,56.24v10.84h-1.9V56.24h-3.45v-1.71h8.79v1.71H154.45z"/>
		</g>
	</g>
</g>
</svg>
