<?xml version="1.0" encoding="utf-8"?>
<!-- Generator: Adobe Illustrator 23.1.1, SVG Export Plug-In . SVG Version: 6.00 Build 0)  -->
<svg version="1.1" id="Layer_1" xmlns="http://www.w3.org/2000/svg" xmlns:xlink="http://www.w3.org/1999/xlink" x="0px" y="0px"
	 viewBox="0 0 180 100" style="enable-background:new 0 0 180 100;" xml:space="preserve">
<style type="text/css">
	.st0{clip-path:url(#SVGID_2_);fill:#FFFFFF;}
	.st1{clip-path:url(#SVGID_2_);fill:none;stroke:#2A2523;stroke-width:1.2;stroke-miterlimit:10;}
	.st2{clip-path:url(#SVGID_2_);fill:#2A2523;}
	.st3{clip-path:url(#SVGID_2_);fill:#E32B27;}
	.st4{clip-path:url(#SVGID_4_);fill:#FFFFFF;}
	.st5{clip-path:url(#SVGID_4_);fill:none;stroke:#2A2523;stroke-width:1.2;stroke-miterlimit:10;}
	.st6{clip-path:url(#SVGID_4_);fill:#3AA9E0;}
	.st7{clip-path:url(#SVGID_4_);fill:#2A2523;}
	.st8{clip-path:url(#SVGID_6_);fill:#FFFFFF;}
	.st9{clip-path:url(#SVGID_6_);fill:none;stroke:#2A2523;stroke-width:1.2;stroke-miterlimit:10;}
	.st10{clip-path:url(#SVGID_6_);fill:#2F3080;}
	.st11{clip-path:url(#SVGID_6_);fill:#2A2523;}
	.st12{fill:#1D1C1A;}
	.st13{clip-path:url(#SVGID_8_);}
	.st14{clip-path:url(#SVGID_10_);}
	.st15{clip-path:url(#SVGID_12_);}
	.st16{clip-path:url(#SVGID_14_);}
	.st17{clip-path:url(#SVGID_16_);}
	.st18{clip-path:url(#SVGID_18_);}
	.st19{fill-rule:evenodd;clip-rule:evenodd;fill:#5B6770;}
	.st20{fill:none;stroke:#5B6770;stroke-width:1.8792;stroke-miterlimit:3.864;}
	.st21{fill-rule:evenodd;clip-rule:evenodd;fill:#79242F;}
	.st22{fill-rule:evenodd;clip-rule:evenodd;fill:#253A75;}
	.st23{fill:none;stroke:#253A75;stroke-width:0.132;stroke-miterlimit:3.864;}
	.st24{fill:#253A75;}
	.st25{fill:#002F3B;}
	.st26{fill:#A69E88;stroke:#A69E88;stroke-width:0.3401;stroke-miterlimit:10;}
	.st27{fill-rule:evenodd;clip-rule:evenodd;fill:#1D1C1A;}
	.st28{fill-rule:evenodd;clip-rule:evenodd;fill:#A5D0E6;}
	.st29{fill-rule:evenodd;clip-rule:evenodd;fill:#FFFFFF;}
	.st30{fill:#002D3A;}
	.st31{clip-path:url(#SVGID_20_);fill:#002E3A;}
	.st32{clip-path:url(#SVGID_20_);fill:#B68D4A;}
	.st33{fill:#B68D4A;}
	.st34{clip-path:url(#SVGID_22_);fill:#B68D4A;}
	.st35{fill:#BC955C;}
	.st36{fill:#A79F88;}
	.st37{fill:#00303C;stroke:#25A9E0;stroke-width:0.6856;stroke-dasharray:3.6133,3.6133;}
	.st38{fill:#00303C;}
	.st39{fill:#41695B;}
	.st40{fill:#907E63;}
	.st41{fill:#804951;}
	.st42{fill:#894B52;}
	.st43{fill:#42695B;stroke:#42695B;stroke-width:0.3;stroke-miterlimit:10;}
	.st44{fill:#231F20;}
	.st45{fill-rule:evenodd;clip-rule:evenodd;fill:#ADAFB1;}
	.st46{fill-rule:evenodd;clip-rule:evenodd;fill:#CFD0D2;stroke:#CFD0D2;stroke-width:0;stroke-miterlimit:3.8637;}
	.st47{fill-rule:evenodd;clip-rule:evenodd;fill:#ADAFB1;stroke:#ADAFB1;stroke-width:0;stroke-miterlimit:3.8637;}
	.st48{fill-rule:evenodd;clip-rule:evenodd;fill:#7A7C7F;stroke:#7A7C7F;stroke-width:0;stroke-miterlimit:3.8637;}
	.st49{fill-rule:evenodd;clip-rule:evenodd;fill:#BDBFC1;stroke:#BDBFC1;stroke-width:0;stroke-miterlimit:3.8637;}
	.st50{fill-rule:evenodd;clip-rule:evenodd;fill:none;stroke:#231F20;stroke-width:0.2422;stroke-miterlimit:3.8637;}
	.st51{fill-rule:evenodd;clip-rule:evenodd;fill:#B1B3B5;stroke:#B1B3B5;stroke-width:0;stroke-miterlimit:3.8637;}
	.st52{clip-path:url(#SVGID_24_);}
	.st53{clip-path:url(#SVGID_26_);}
	.st54{fill:#ADAFB1;}
	.st55{clip-path:url(#SVGID_28_);}
	.st56{fill:#FFFFFF;}
	.st57{fill:#F5F5F6;}
	.st58{fill:#EFF0F0;}
	.st59{fill:#E9EAEB;}
	.st60{fill:#E2E3E4;}
	.st61{fill:#DDDEDF;}
	.st62{fill:#D7D8DA;}
	.st63{fill:#D1D2D4;}
	.st64{fill:#CACCCE;}
	.st65{fill:#C4C6C8;}
	.st66{fill:#BFC1C3;}
	.st67{fill:#B8BABC;}
	.st68{fill:#B2B4B7;}
	.st69{clip-path:url(#SVGID_30_);}
	.st70{clip-path:url(#SVGID_32_);}
</style>
<g>
	<g>
		<path class="st26" d="M60.42,37.81l-3.19,0.01l0.01,4.94l-1.28,0l-0.03-12.01l4.47-0.01c2.19,0,3.71,1.36,3.72,3.52
			C64.13,36.42,62.62,37.81,60.42,37.81 M60.29,31.89l-3.07,0.01l0.01,4.77l3.07-0.01c1.5,0,2.54-0.82,2.54-2.4
			C62.84,32.68,61.79,31.89,60.29,31.89"/>
		<path class="st26" d="M78.55,41.57c-0.81,0.81-1.87,1.25-3.07,1.25c-1.2,0-2.26-0.43-3.07-1.24c-1.13-1.13-1.13-2.31-1.14-4.85
			c-0.01-2.55-0.01-3.73,1.12-4.86c0.81-0.81,1.87-1.25,3.07-1.26c1.2,0,2.26,0.43,3.07,1.24c1.13,1.13,1.13,2.31,1.14,4.86
			C79.67,39.25,79.67,40.43,78.55,41.57 M77.53,32.61c-0.52-0.54-1.28-0.86-2.08-0.85c-0.79,0-1.55,0.32-2.07,0.87
			c-0.76,0.78-0.84,1.58-0.84,4.1c0.01,2.51,0.09,3.32,0.85,4.09c0.52,0.54,1.28,0.86,2.08,0.86c0.79,0,1.55-0.32,2.07-0.86
			c0.76-0.78,0.84-1.59,0.84-4.1C78.38,34.2,78.29,33.39,77.53,32.61"/>
		<polygon class="st26" points="87.84,42.69 87.81,30.68 89.1,30.68 89.12,41.54 95.26,41.53 95.26,42.67 		"/>
		<path class="st26" d="M109.65,42.64l-0.97-2.71l-5.25,0.01l-0.96,2.72l-1.36,0l4.39-12.02l1.08,0l4.43,12L109.65,42.64z
			 M106.07,32.48l-2.25,6.35l4.49-0.01L106.07,32.48z"/>
		<polygon class="st26" points="120.59,31.76 120.61,42.61 119.33,42.62 119.31,31.76 115.83,31.77 115.83,30.62 124.06,30.6 
			124.06,31.75 		"/>
	</g>
	<g>
		<path class="st26" d="M24.81,64.69c-0.72,0.73-1.79,1.12-3.03,1.12l-4.12,0.01l-0.03-12.01l4.12-0.01c1.25,0,2.31,0.38,3.04,1.11
			c1.25,1.24,1.19,3.08,1.19,4.75C25.99,61.33,26.06,63.44,24.81,64.69 M23.9,55.82c-0.63-0.64-1.44-0.87-2.36-0.87l-2.61,0
			l0.02,9.71l2.61-0.01c0.93,0,1.74-0.24,2.36-0.88c0.82-0.86,0.79-2.65,0.78-4.12C24.7,58.2,24.73,56.68,23.9,55.82"/>
		
			<rect x="34.14" y="53.78" transform="matrix(1 -2.301885e-03 2.301885e-03 1 -0.1375 0.0802)" class="st26" width="1.28" height="12.01"/>
		<path class="st26" d="M47.15,65.86c-1.8,0-2.99-0.45-4.12-1.57l0.87-0.88c1,0.99,1.93,1.31,3.27,1.31c1.75,0,2.83-0.83,2.83-2.23
			c0-0.62-0.19-1.16-0.58-1.5c-0.39-0.34-0.69-0.44-1.57-0.57l-1.4-0.22c-0.95-0.15-1.69-0.45-2.21-0.9
			c-0.61-0.54-0.91-1.28-0.92-2.24c0-2.04,1.46-3.39,3.84-3.4c1.54,0,2.55,0.38,3.58,1.31l-0.82,0.83c-0.74-0.67-1.54-1.03-2.8-1.02
			c-1.6,0-2.53,0.9-2.52,2.23c0,0.59,0.17,1.06,0.54,1.38c0.37,0.32,1,0.56,1.62,0.66l1.32,0.2c1.13,0.17,1.69,0.4,2.2,0.84
			c0.66,0.56,1.01,1.38,1.02,2.38C51.29,64.55,49.64,65.85,47.15,65.86 M47.36,69.4l-1.33,0l1.19-2.51l1.13,0L47.36,69.4z"/>
		<polygon class="st26" points="71.97,54.84 71.99,65.7 70.71,65.7 70.68,54.84 67.21,54.85 67.21,53.7 75.44,53.68 75.44,54.83 		
			"/>
		<path class="st26" d="M82.82,50.95l1.26,0l0,1.28l-1.26,0L82.82,50.95z M82.85,65.67l-0.03-12.01l1.28,0l0.03,12.01L82.85,65.67z"
			/>
		<path class="st26" d="M96.49,65.74c-1.18,0-2.26-0.43-3.07-1.24c-1.13-1.13-1.14-2.31-1.14-4.85c-0.01-2.55-0.01-3.73,1.12-4.86
			c0.81-0.81,1.89-1.25,3.06-1.26c2.16,0,3.77,1.31,4.18,3.57l-1.32,0c-0.32-1.47-1.35-2.43-2.86-2.42c-0.79,0-1.55,0.31-2.07,0.85
			c-0.76,0.78-0.84,1.6-0.84,4.12c0.01,2.51,0.09,3.34,0.85,4.11c0.52,0.54,1.28,0.84,2.08,0.84c1.5,0,2.56-0.97,2.88-2.43l1.28,0
			C100.27,64.42,98.64,65.74,96.49,65.74"/>
		<path class="st26" d="M115.47,65.6l-0.97-2.71l-5.24,0.01l-0.95,2.72l-1.37,0l4.39-12.01l1.08,0l4.43,12L115.47,65.6z
			 M111.89,55.44l-2.25,6.35l4.49-0.01L111.89,55.44z"/>
		<path class="st26" d="M130.82,65.56l-2.74-5.32l-2.88,0.01l0.01,5.33l-1.28,0l-0.03-12.01l4.6-0.01c2.09-0.01,3.56,1.26,3.57,3.33
			c0,1.75-1.06,2.9-2.6,3.23l2.86,5.44L130.82,65.56z M128.38,54.71l-3.2,0.01l0.01,4.4l3.2-0.01c1.4,0,2.39-0.73,2.39-2.2
			C130.78,55.45,129.78,54.7,128.38,54.71"/>
		<polygon class="st26" points="140.13,65.54 140.1,53.53 147.55,53.52 147.55,54.67 141.38,54.68 141.39,58.91 146.65,58.9 
			146.66,60.05 141.4,60.06 141.4,64.39 147.58,64.38 147.58,65.53 		"/>
		<polygon class="st26" points="158.89,54.64 158.91,65.5 157.63,65.5 157.61,54.64 154.13,54.65 154.13,53.5 162.36,53.48 
			162.36,54.63 		"/>
	</g>
</g>
</svg>
