<?xml version="1.0" encoding="utf-8"?>
<!-- Generator: Adobe Illustrator 23.1.1, SVG Export Plug-In . SVG Version: 6.00 Build 0)  -->
<svg version="1.1" id="Layer_1" xmlns="http://www.w3.org/2000/svg" xmlns:xlink="http://www.w3.org/1999/xlink" x="0px" y="0px"
	 viewBox="0 0 180 100" style="enable-background:new 0 0 180 100;" xml:space="preserve">
<style type="text/css">
	.st0{clip-path:url(#SVGID_2_);fill:#FFFFFF;}
	.st1{clip-path:url(#SVGID_2_);fill:none;stroke:#2A2523;stroke-width:1.2;stroke-miterlimit:10;}
	.st2{clip-path:url(#SVGID_2_);fill:#2A2523;}
	.st3{clip-path:url(#SVGID_2_);fill:#E32B27;}
	.st4{clip-path:url(#SVGID_4_);fill:#FFFFFF;}
	.st5{clip-path:url(#SVGID_4_);fill:none;stroke:#2A2523;stroke-width:1.2;stroke-miterlimit:10;}
	.st6{clip-path:url(#SVGID_4_);fill:#3AA9E0;}
	.st7{clip-path:url(#SVGID_4_);fill:#2A2523;}
	.st8{clip-path:url(#SVGID_6_);fill:#FFFFFF;}
	.st9{clip-path:url(#SVGID_6_);fill:none;stroke:#2A2523;stroke-width:1.2;stroke-miterlimit:10;}
	.st10{clip-path:url(#SVGID_6_);fill:#2F3080;}
	.st11{clip-path:url(#SVGID_6_);fill:#2A2523;}
	.st12{fill:#1D1C1A;}
	.st13{clip-path:url(#SVGID_8_);}
	.st14{clip-path:url(#SVGID_10_);}
	.st15{clip-path:url(#SVGID_12_);}
	.st16{clip-path:url(#SVGID_14_);}
	.st17{clip-path:url(#SVGID_16_);}
	.st18{clip-path:url(#SVGID_18_);}
	.st19{fill-rule:evenodd;clip-rule:evenodd;fill:#5B6770;}
	.st20{fill:none;stroke:#5B6770;stroke-width:1.8792;stroke-miterlimit:3.864;}
	.st21{fill-rule:evenodd;clip-rule:evenodd;fill:#79242F;}
	.st22{fill-rule:evenodd;clip-rule:evenodd;fill:#253A75;}
	.st23{fill:none;stroke:#253A75;stroke-width:0.132;stroke-miterlimit:3.864;}
	.st24{fill:#253A75;}
	.st25{fill:#002F3B;}
	.st26{fill:#A69E88;stroke:#A69E88;stroke-width:0.3401;stroke-miterlimit:10;}
	.st27{fill-rule:evenodd;clip-rule:evenodd;fill:#1D1C1A;}
	.st28{fill-rule:evenodd;clip-rule:evenodd;fill:#A5D0E6;}
	.st29{fill-rule:evenodd;clip-rule:evenodd;fill:#FFFFFF;}
	.st30{fill:#002D3A;}
	.st31{clip-path:url(#SVGID_20_);fill:#002E3A;}
	.st32{clip-path:url(#SVGID_20_);fill:#B68D4A;}
	.st33{fill:#B68D4A;}
	.st34{clip-path:url(#SVGID_22_);fill:#B68D4A;}
	.st35{fill:#BC955C;}
	.st36{fill:#A79F88;}
	.st37{fill:#00303C;stroke:#25A9E0;stroke-width:0.6856;stroke-dasharray:3.6133,3.6133;}
	.st38{fill:#00303C;}
	.st39{fill:#41695B;}
	.st40{fill:#907E63;}
	.st41{fill:#804951;}
	.st42{fill:#894B52;}
	.st43{fill:#42695B;stroke:#42695B;stroke-width:0.3;stroke-miterlimit:10;}
	.st44{fill:#231F20;}
	.st45{fill-rule:evenodd;clip-rule:evenodd;fill:#ADAFB1;}
	.st46{fill-rule:evenodd;clip-rule:evenodd;fill:#CFD0D2;stroke:#CFD0D2;stroke-width:0;stroke-miterlimit:3.8637;}
	.st47{fill-rule:evenodd;clip-rule:evenodd;fill:#ADAFB1;stroke:#ADAFB1;stroke-width:0;stroke-miterlimit:3.8637;}
	.st48{fill-rule:evenodd;clip-rule:evenodd;fill:#7A7C7F;stroke:#7A7C7F;stroke-width:0;stroke-miterlimit:3.8637;}
	.st49{fill-rule:evenodd;clip-rule:evenodd;fill:#BDBFC1;stroke:#BDBFC1;stroke-width:0;stroke-miterlimit:3.8637;}
	.st50{fill-rule:evenodd;clip-rule:evenodd;fill:none;stroke:#231F20;stroke-width:0.2422;stroke-miterlimit:3.8637;}
	.st51{fill-rule:evenodd;clip-rule:evenodd;fill:#B1B3B5;stroke:#B1B3B5;stroke-width:0;stroke-miterlimit:3.8637;}
	.st52{clip-path:url(#SVGID_24_);}
	.st53{clip-path:url(#SVGID_26_);}
	.st54{fill:#ADAFB1;}
	.st55{clip-path:url(#SVGID_28_);}
	.st56{fill:#FFFFFF;}
	.st57{fill:#F5F5F6;}
	.st58{fill:#EFF0F0;}
	.st59{fill:#E9EAEB;}
	.st60{fill:#E2E3E4;}
	.st61{fill:#DDDEDF;}
	.st62{fill:#D7D8DA;}
	.st63{fill:#D1D2D4;}
	.st64{fill:#CACCCE;}
	.st65{fill:#C4C6C8;}
	.st66{fill:#BFC1C3;}
	.st67{fill:#B8BABC;}
	.st68{fill:#B2B4B7;}
	.st69{clip-path:url(#SVGID_30_);}
	.st70{clip-path:url(#SVGID_32_);}
</style>
<g>
	<path class="st22" d="M104.13,47.81c-1.44-0.32-4.54-0.38-0.81-7.84c3.18-6.34,5.6-8.13,7.25-7.57c1.31,0.45,0.95,6.24-0.22,9.24
		C109.17,44.64,107.25,47.91,104.13,47.81 M99.16,60.28c13.33-3.15,22.95-12.1,22.93-22.65c-0.01-10.26-9.06-19.02-21.84-22.35
		c15.72,3.07,27.22,13.05,27.24,24.89c0.02,14.32-16.77,25.94-37.5,25.97c-20.73,0.03-37.55-11.56-37.57-25.87
		c-0.01-7.73,3.8-14.56,11.48-19.84c0,0,2.24-1.5,3.58-2.04c1.16-0.46,3.41-0.39,3.07,2.17c-0.34,2.56-1.73,4.01-0.75,4.28
		c0.89,0.24,3.84-4.32,8.12-6.05c1.93-0.78,4.21,0.09,4.03,2.41c-0.22,2.79-0.89,3.09-0.38,3.53c0.67,0.59,4.58-4.42,8.51-6.14
		c1.43-0.63,4.05,0.29,3.73,2.41c0,0-0.61,3.35-1.47,6.9c-0.84,3.49-1.9,7-1.19,7.32c0.95,0.43,6.36-4.79,9.5-6.12
		c1.15-0.49,4.03-1.04,3.5,1.85c-0.57,3.07-1.53,3.94-0.91,4.27c0.79,0.42,5.41-5.39,8.18-6.09c1.6-0.4,6.83-1.04,5.62,6.99
		c-1.31,8.68-5.36,11.46-7.96,12.74c-3.86,1.9-7.69,1.07-7.69,1.07L99.16,60.28z M92.93,61.29c-1.38,0.13-2.8,0.19-4.23,0.19
		c-18.46,0.02-33.44-10.62-33.46-23.77c-0.01-6.37,4.16-12.08,7.24-14.09c1-0.65,3-1.57,2.76-0.23c-0.24,1.34-3.07,15.43-3.07,15.43
		l5.01-0.63c0,0,1.3-5.9,2.62-8.33c1.32-2.43,4.63-7.21,6.38-7.22c1.74,0,0.07,5.19-0.29,7.13c-0.36,1.94-2.17,8.96-2.17,8.96
		l4.65-0.57c0,0,1.09-4.55,1.98-6.61c0.9-2.07,4.35-8.74,7.26-8.74c1.32,0,0.43,3.6,0.06,4.89c-0.36,1.28-1.91,10.4-1.91,10.4
		c0.53,0.88,1.11,1.39,1.75,1.52c0,0,4.83-3.11,6.17-3.88c1.08-0.62,3.68-2.79,4.76-2.43c1.09,0.36-0.77,6.33-1.01,7.62
		C97.19,42.23,92.93,61.29,92.93,61.29"/>
	<path class="st23" d="M104.13,47.81c-1.44-0.32-4.54-0.38-0.81-7.84c3.18-6.34,5.6-8.13,7.25-7.57c1.31,0.45,0.95,6.24-0.22,9.24
		C109.17,44.64,107.25,47.91,104.13,47.81z M99.16,60.28c13.33-3.15,22.95-12.1,22.93-22.65c-0.01-10.26-9.06-19.02-21.84-22.35
		c15.72,3.07,27.22,13.05,27.24,24.89c0.02,14.32-16.77,25.94-37.5,25.97c-20.73,0.03-37.55-11.56-37.57-25.87
		c-0.01-7.73,3.8-14.56,11.48-19.84c0,0,2.24-1.5,3.58-2.04c1.16-0.46,3.41-0.39,3.07,2.17c-0.34,2.56-1.73,4.01-0.75,4.28
		c0.89,0.24,3.84-4.32,8.12-6.05c1.93-0.78,4.21,0.09,4.03,2.41c-0.22,2.79-0.89,3.09-0.38,3.53c0.67,0.59,4.58-4.42,8.51-6.14
		c1.43-0.63,4.05,0.29,3.73,2.41c0,0-0.61,3.35-1.47,6.9c-0.84,3.49-1.9,7-1.19,7.32c0.95,0.43,6.36-4.79,9.5-6.12
		c1.15-0.49,4.03-1.04,3.5,1.85c-0.57,3.07-1.53,3.94-0.91,4.27c0.79,0.42,5.41-5.39,8.18-6.09c1.6-0.4,6.83-1.04,5.62,6.99
		c-1.31,8.68-5.36,11.46-7.96,12.74c-3.86,1.9-7.69,1.07-7.69,1.07L99.16,60.28z M92.93,61.29c-1.38,0.13-2.8,0.19-4.23,0.19
		c-18.46,0.02-33.44-10.62-33.46-23.77c-0.01-6.37,4.16-12.08,7.24-14.09c1-0.65,3-1.57,2.76-0.23c-0.24,1.34-3.07,15.43-3.07,15.43
		l5.01-0.63c0,0,1.3-5.9,2.62-8.33c1.32-2.43,4.63-7.21,6.38-7.22c1.74,0,0.07,5.19-0.29,7.13c-0.36,1.94-2.17,8.96-2.17,8.96
		l4.65-0.57c0,0,1.09-4.55,1.98-6.61c0.9-2.07,4.35-8.74,7.26-8.74c1.32,0,0.43,3.6,0.06,4.89c-0.36,1.28-1.91,10.4-1.91,10.4
		c0.53,0.88,1.11,1.39,1.75,1.52c0,0,4.83-3.11,6.17-3.88c1.08-0.62,3.68-2.79,4.76-2.43c1.09,0.36-0.77,6.33-1.01,7.62
		C97.19,42.23,92.93,61.29,92.93,61.29z"/>
	<path class="st22" d="M28.12,75.06c0.17,0,0.3,0.06,0.41,0.17c0.1,0.1,0.16,0.23,0.16,0.39c0,0.2-0.08,0.39-0.24,0.54
		c-0.16,0.16-0.34,0.23-0.54,0.23c-0.17,0-0.3-0.05-0.41-0.16c-0.1-0.11-0.16-0.24-0.16-0.4c0-0.21,0.08-0.39,0.23-0.54
		C27.73,75.14,27.91,75.07,28.12,75.06 M28.71,76.73l-0.98,6.28l-1.22,0l0.98-6.28L28.71,76.73z"/>
	<polygon class="st22" points="28.95,83.01 29.97,76.56 30.85,76.56 33.47,80.95 33.48,80.95 34.14,76.72 35.37,76.72 34.37,83.13 
		33.48,83.13 30.86,78.75 30.85,78.75 30.18,83.01 	"/>
	<path class="st22" d="M37.52,83.17l0.7,0.39l-1.15,1.16L36.5,84.4L37.52,83.17z M40.04,77.25l-0.71,0.85
		c-0.2-0.34-0.49-0.51-0.86-0.51c-0.2,0-0.39,0.07-0.57,0.21c-0.18,0.13-0.28,0.3-0.32,0.5c-0.04,0.27,0.12,0.49,0.48,0.67
		c0.34,0.18,0.69,0.36,1.04,0.54c0.39,0.28,0.58,0.67,0.58,1.15c0,0.11-0.01,0.23-0.03,0.36c-0.1,0.64-0.37,1.16-0.8,1.56
		c-0.43,0.39-0.97,0.59-1.6,0.59c-0.8,0-1.38-0.41-1.74-1.22l0.92-0.77c0.05,0.25,0.16,0.47,0.34,0.65
		c0.18,0.18,0.39,0.27,0.64,0.27c0.27,0,0.49-0.11,0.68-0.33c0.2-0.22,0.29-0.46,0.29-0.73c0-0.23-0.11-0.42-0.32-0.56
		c-0.09-0.06-0.3-0.16-0.63-0.31c-0.38-0.16-0.65-0.34-0.83-0.52c-0.22-0.23-0.33-0.51-0.33-0.86c0-0.1,0.01-0.22,0.02-0.33
		c0.08-0.53,0.33-0.97,0.73-1.34c0.41-0.37,0.88-0.55,1.4-0.55c0.29,0,0.59,0.07,0.9,0.2C39.65,76.88,39.89,77.05,40.04,77.25"/>
	<path class="st22" d="M43.81,80.67l-0.42-2.28h-0.02l-1.06,2.28L43.81,80.67z M44,81.67l-2.18,0L41.09,83l-1.29,0l3.47-6.45l0.95,0
		l1.37,6.45l-1.31,0L44,81.67z"/>
	<path class="st22" d="M49.78,80.66l-0.42-2.28h-0.02l-1.06,2.28L49.78,80.66z M49.96,81.66l-2.18,0l-0.72,1.33l-1.29,0l3.47-6.45
		l0.95,0l1.36,6.45l-1.31,0L49.96,81.66z"/>
	<polygon class="st22" points="55.11,77.76 54.29,82.98 53.07,82.98 53.89,77.77 52.62,77.77 52.79,76.7 56.55,76.7 56.38,77.76 	
		"/>
	<path class="st22" d="M63.52,77.22l-0.71,0.85c-0.2-0.34-0.49-0.51-0.86-0.51c-0.2,0-0.39,0.07-0.57,0.21
		c-0.18,0.13-0.28,0.3-0.32,0.5c-0.04,0.27,0.11,0.49,0.47,0.67c0.34,0.18,0.69,0.36,1.04,0.54c0.39,0.28,0.58,0.67,0.58,1.15
		c0,0.11-0.01,0.23-0.03,0.36c-0.1,0.64-0.37,1.16-0.81,1.56c-0.43,0.39-0.97,0.59-1.6,0.59c-0.81,0-1.39-0.41-1.74-1.22l0.92-0.77
		c0.05,0.25,0.16,0.47,0.34,0.65c0.18,0.18,0.39,0.27,0.64,0.27c0.27,0,0.5-0.11,0.68-0.33c0.2-0.22,0.29-0.46,0.29-0.73
		c0-0.23-0.1-0.42-0.32-0.56c-0.09-0.06-0.3-0.16-0.63-0.31c-0.38-0.16-0.65-0.34-0.83-0.52c-0.22-0.23-0.33-0.51-0.33-0.86
		c0-0.1,0.01-0.22,0.03-0.33c0.08-0.53,0.33-0.97,0.73-1.34c0.41-0.37,0.88-0.55,1.4-0.55c0.29,0,0.59,0.07,0.9,0.2
		C63.13,76.85,63.36,77.02,63.52,77.22"/>
	<path class="st22" d="M67.29,80.64l-0.42-2.28h-0.02l-1.06,2.28L67.29,80.64z M67.47,81.64l-2.18,0l-0.72,1.33l-1.29,0l3.47-6.45
		h0.95l1.37,6.45l-1.31,0L67.47,81.64z"/>
	<polygon class="st22" points="69.77,82.96 70.78,76.51 71.66,76.51 74.28,80.9 74.29,80.9 74.96,76.67 76.18,76.67 75.18,83.08 
		74.3,83.08 71.68,78.69 71.66,78.69 70.99,82.96 	"/>
	<path class="st22" d="M79.91,80.62l-0.42-2.28h-0.02l-1.05,2.28L79.91,80.62z M80.09,81.62l-2.18,0l-0.72,1.33l-1.29,0l3.47-6.45
		l0.95,0l1.37,6.45l-1.31,0L80.09,81.62z"/>
	<polygon class="st22" points="84.21,80.06 82.79,76.66 84.21,76.66 84.97,78.84 86.51,76.66 87.94,76.66 85.43,80.06 84.97,82.94 
		83.75,82.94 	"/>
	<path class="st22" d="M89.22,74.99c0.17,0,0.3,0.06,0.41,0.17c0.1,0.1,0.16,0.23,0.16,0.39c0,0.2-0.08,0.39-0.24,0.54
		c-0.16,0.16-0.34,0.23-0.54,0.23c-0.16,0-0.3-0.05-0.41-0.16c-0.1-0.11-0.16-0.24-0.16-0.4c0-0.21,0.08-0.39,0.23-0.54
		C88.83,75.07,89.02,74.99,89.22,74.99 M89.82,76.65l-0.98,6.28l-1.22,0l0.98-6.28L89.82,76.65z"/>
	<polygon class="st22" points="94.13,78.84 94.72,81.15 95.93,78.84 97.2,78.83 94.66,83.01 94.06,83.01 92.84,78.84 	"/>
	<path class="st22" d="M98.54,80.34l1.56,0c0-0.23-0.05-0.42-0.15-0.57c-0.12-0.17-0.28-0.26-0.49-0.26c-0.22,0-0.42,0.08-0.57,0.24
		C98.72,79.91,98.61,80.11,98.54,80.34 M101.09,81.06l-2.69,0c-0.02,0.1-0.02,0.2-0.02,0.29c0,0.54,0.22,0.81,0.66,0.81
		c0.35,0,0.64-0.19,0.88-0.56l1.05,0.17c-0.21,0.41-0.49,0.72-0.87,0.94c-0.37,0.22-0.77,0.33-1.2,0.33c-0.55,0-0.97-0.15-1.28-0.46
		c-0.3-0.31-0.46-0.73-0.46-1.24c0-0.14,0.01-0.28,0.03-0.43c0.1-0.65,0.35-1.18,0.74-1.58c0.42-0.43,0.95-0.64,1.59-0.64
		c0.55,0,0.96,0.16,1.25,0.47c0.26,0.29,0.39,0.69,0.39,1.2c0,0.17-0.01,0.36-0.05,0.55L101.09,81.06z"/>
	<polygon class="st22" points="107.31,77.7 106.49,82.91 105.26,82.92 106.08,77.7 104.81,77.7 104.98,76.63 108.74,76.63 
		108.57,77.7 	"/>
	<path class="st22" d="M110.15,74.96c0.17,0,0.3,0.05,0.41,0.17c0.1,0.1,0.16,0.23,0.16,0.39c0,0.2-0.08,0.39-0.24,0.54
		c-0.16,0.16-0.34,0.23-0.54,0.23c-0.16,0-0.3-0.05-0.41-0.16c-0.1-0.11-0.16-0.24-0.16-0.4c0-0.21,0.08-0.39,0.23-0.54
		C109.76,75.04,109.94,74.96,110.15,74.96 M110.74,76.63l-0.98,6.28l-1.22,0l0.98-6.28L110.74,76.63z"/>
	<path class="st22" d="M116.14,76.82l-0.23,1.46c-0.3-0.44-0.72-0.67-1.29-0.66c-0.62,0-1.15,0.28-1.6,0.83
		c-0.42,0.51-0.62,1.09-0.62,1.72c0,0.48,0.14,0.89,0.4,1.21c0.28,0.35,0.66,0.52,1.14,0.52c0.54,0,1.04-0.22,1.5-0.67l-0.23,1.46
		c-0.56,0.25-1.06,0.38-1.48,0.38c-0.77,0-1.4-0.27-1.89-0.8c-0.47-0.51-0.71-1.15-0.71-1.92c0-0.18,0.01-0.36,0.04-0.54
		c0.14-0.91,0.55-1.7,1.23-2.35c0.7-0.67,1.5-1.01,2.4-1.01C115.28,76.45,115.73,76.58,116.14,76.82"/>
	<path class="st22" d="M119.81,80.57l-0.42-2.28h-0.02l-1.05,2.28L119.81,80.57z M120,81.57l-2.18,0l-0.72,1.33l-1.29,0l3.47-6.45
		h0.95l1.37,6.45l-1.31,0L120,81.57z"/>
	<path class="st22" d="M124.34,77.61l-0.3,1.89l0.16,0c0.77,0,1.2-0.32,1.31-0.97c0.01-0.08,0.02-0.16,0.02-0.23
		c0-0.46-0.34-0.69-1.02-0.69H124.34z M125.18,80.24l1.36,2.65l-1.48,0l-1.13-2.53h-0.02l-0.4,2.53l-1.22,0l0.99-6.28l1.66,0
		c1.22,0,1.83,0.49,1.83,1.47c0,0.13-0.01,0.27-0.03,0.42c-0.06,0.43-0.23,0.8-0.5,1.12C125.94,79.97,125.59,80.17,125.18,80.24"/>
	<polygon class="st22" points="131.34,77.67 129.31,77.67 129.1,79.05 131.05,79.05 130.88,80.12 128.94,80.12 128.66,81.82 
		130.69,81.82 130.52,82.88 127.27,82.89 128.25,76.61 131.5,76.6 	"/>
	<polygon class="st22" points="134.53,77.66 133.71,82.88 132.49,82.88 133.31,77.66 132.04,77.67 132.2,76.6 135.96,76.6 
		135.8,77.66 	"/>
	<path class="st22" d="M141.99,80.55l-0.42-2.28h-0.02l-1.06,2.28L141.99,80.55z M142.17,81.54l-2.18,0l-0.72,1.33l-1.29,0
		l3.46-6.45l0.95,0l1.37,6.45l-1.31,0L142.17,81.54z"/>
	<path class="st22" d="M145.43,81.55c0.18,0,0.33,0.06,0.45,0.17c0.12,0.12,0.18,0.26,0.18,0.44c0,0.22-0.09,0.42-0.26,0.6
		c-0.17,0.18-0.37,0.27-0.6,0.27c-0.18,0-0.34-0.06-0.46-0.18c-0.12-0.12-0.18-0.27-0.18-0.45c0-0.22,0.09-0.42,0.26-0.59
		C145,81.63,145.21,81.55,145.43,81.55"/>
	<path class="st22" d="M149.11,83.03l0.7,0.39l-1.15,1.16l-0.57-0.31L149.11,83.03z M151.64,77.11l-0.71,0.85
		c-0.2-0.34-0.49-0.51-0.86-0.51c-0.2,0-0.39,0.07-0.57,0.21c-0.18,0.13-0.28,0.3-0.32,0.5c-0.04,0.27,0.12,0.49,0.48,0.67
		c0.34,0.18,0.69,0.36,1.04,0.54c0.39,0.28,0.59,0.67,0.59,1.15c0,0.11-0.01,0.23-0.03,0.36c-0.1,0.64-0.37,1.16-0.8,1.56
		c-0.43,0.39-0.97,0.59-1.6,0.59c-0.8,0-1.38-0.41-1.74-1.22l0.92-0.77c0.05,0.25,0.16,0.47,0.34,0.65
		c0.18,0.18,0.39,0.27,0.64,0.27c0.27,0,0.49-0.11,0.68-0.33c0.19-0.22,0.29-0.46,0.29-0.73c0-0.23-0.11-0.42-0.32-0.56
		c-0.09-0.06-0.3-0.16-0.63-0.31c-0.38-0.16-0.65-0.34-0.83-0.52c-0.22-0.23-0.33-0.51-0.33-0.86c0-0.1,0.01-0.22,0.02-0.33
		c0.08-0.53,0.33-0.97,0.73-1.34c0.41-0.37,0.87-0.55,1.4-0.55c0.29,0,0.59,0.07,0.9,0.2C151.25,76.74,151.48,76.9,151.64,77.11"/>
	<path class="st22" d="M152.89,81.54c0.18,0,0.33,0.06,0.45,0.17c0.12,0.12,0.18,0.26,0.18,0.44c0,0.22-0.09,0.42-0.27,0.6
		c-0.17,0.18-0.37,0.27-0.6,0.27c-0.18,0-0.34-0.06-0.46-0.18c-0.12-0.12-0.18-0.27-0.18-0.45c0-0.22,0.09-0.42,0.26-0.59
		C152.46,81.63,152.66,81.54,152.89,81.54"/>
	
		<rect x="26.48" y="70.41" transform="matrix(1 -1.272737e-03 1.272737e-03 1 -0.0903 0.1146)" class="st24" width="127.04" height="1.21"/>
</g>
</svg>
