<?xml version="1.0" encoding="utf-8"?>
<!-- Generator: Adobe Illustrator 23.1.1, SVG Export Plug-In . SVG Version: 6.00 Build 0)  -->
<svg version="1.1" id="Layer_1" xmlns="http://www.w3.org/2000/svg" xmlns:xlink="http://www.w3.org/1999/xlink" x="0px" y="0px"
	 viewBox="0 0 180 100" style="enable-background:new 0 0 180 100;" xml:space="preserve">
<style type="text/css">
	.st0{clip-path:url(#SVGID_2_);fill:#FFFFFF;}
	.st1{clip-path:url(#SVGID_2_);fill:none;stroke:#2A2523;stroke-width:1.2;stroke-miterlimit:10;}
	.st2{clip-path:url(#SVGID_2_);fill:#2A2523;}
	.st3{clip-path:url(#SVGID_2_);fill:#E32B27;}
	.st4{clip-path:url(#SVGID_4_);fill:#FFFFFF;}
	.st5{clip-path:url(#SVGID_4_);fill:none;stroke:#2A2523;stroke-width:1.2;stroke-miterlimit:10;}
	.st6{clip-path:url(#SVGID_4_);fill:#3AA9E0;}
	.st7{clip-path:url(#SVGID_4_);fill:#2A2523;}
	.st8{clip-path:url(#SVGID_6_);fill:#FFFFFF;}
	.st9{clip-path:url(#SVGID_6_);fill:none;stroke:#2A2523;stroke-width:1.2;stroke-miterlimit:10;}
	.st10{clip-path:url(#SVGID_6_);fill:#2F3080;}
	.st11{clip-path:url(#SVGID_6_);fill:#2A2523;}
	.st12{fill:#1D1C1A;}
	.st13{clip-path:url(#SVGID_8_);}
	.st14{clip-path:url(#SVGID_10_);}
	.st15{clip-path:url(#SVGID_12_);}
	.st16{clip-path:url(#SVGID_14_);}
	.st17{clip-path:url(#SVGID_16_);}
	.st18{clip-path:url(#SVGID_18_);}
	.st19{fill-rule:evenodd;clip-rule:evenodd;fill:#5B6770;}
	.st20{fill:none;stroke:#5B6770;stroke-width:1.8792;stroke-miterlimit:3.864;}
	.st21{fill-rule:evenodd;clip-rule:evenodd;fill:#79242F;}
	.st22{fill-rule:evenodd;clip-rule:evenodd;fill:#253A75;}
	.st23{fill:none;stroke:#253A75;stroke-width:0.132;stroke-miterlimit:3.864;}
	.st24{fill:#253A75;}
	.st25{fill:#002F3B;}
	.st26{fill:#A69E88;stroke:#A69E88;stroke-width:0.3401;stroke-miterlimit:10;}
	.st27{fill-rule:evenodd;clip-rule:evenodd;fill:#1D1C1A;}
	.st28{fill-rule:evenodd;clip-rule:evenodd;fill:#A5D0E6;}
	.st29{fill-rule:evenodd;clip-rule:evenodd;fill:#FFFFFF;}
	.st30{fill:#002D3A;}
	.st31{clip-path:url(#SVGID_20_);fill:#002E3A;}
	.st32{clip-path:url(#SVGID_20_);fill:#B68D4A;}
	.st33{fill:#B68D4A;}
	.st34{clip-path:url(#SVGID_22_);fill:#B68D4A;}
	.st35{fill:#BC955C;}
	.st36{fill:#A79F88;}
	.st37{fill:#00303C;stroke:#25A9E0;stroke-width:0.6856;stroke-dasharray:3.6133,3.6133;}
	.st38{fill:#00303C;}
	.st39{fill:#41695B;}
	.st40{fill:#907E63;}
	.st41{fill:#804951;}
	.st42{fill:#894B52;}
	.st43{fill:#42695B;stroke:#42695B;stroke-width:0.3;stroke-miterlimit:10;}
	.st44{fill:#231F20;}
	.st45{fill-rule:evenodd;clip-rule:evenodd;fill:#ADAFB1;}
	.st46{fill-rule:evenodd;clip-rule:evenodd;fill:#CFD0D2;stroke:#CFD0D2;stroke-width:0;stroke-miterlimit:3.8637;}
	.st47{fill-rule:evenodd;clip-rule:evenodd;fill:#ADAFB1;stroke:#ADAFB1;stroke-width:0;stroke-miterlimit:3.8637;}
	.st48{fill-rule:evenodd;clip-rule:evenodd;fill:#7A7C7F;stroke:#7A7C7F;stroke-width:0;stroke-miterlimit:3.8637;}
	.st49{fill-rule:evenodd;clip-rule:evenodd;fill:#BDBFC1;stroke:#BDBFC1;stroke-width:0;stroke-miterlimit:3.8637;}
	.st50{fill-rule:evenodd;clip-rule:evenodd;fill:none;stroke:#231F20;stroke-width:0.2422;stroke-miterlimit:3.8637;}
	.st51{fill-rule:evenodd;clip-rule:evenodd;fill:#B1B3B5;stroke:#B1B3B5;stroke-width:0;stroke-miterlimit:3.8637;}
	.st52{clip-path:url(#SVGID_24_);}
	.st53{clip-path:url(#SVGID_26_);}
	.st54{fill:#ADAFB1;}
	.st55{clip-path:url(#SVGID_28_);}
	.st56{fill:#FFFFFF;}
	.st57{fill:#F5F5F6;}
	.st58{fill:#EFF0F0;}
	.st59{fill:#E9EAEB;}
	.st60{fill:#E2E3E4;}
	.st61{fill:#DDDEDF;}
	.st62{fill:#D7D8DA;}
	.st63{fill:#D1D2D4;}
	.st64{fill:#CACCCE;}
	.st65{fill:#C4C6C8;}
	.st66{fill:#BFC1C3;}
	.st67{fill:#B8BABC;}
	.st68{fill:#B2B4B7;}
	.st69{clip-path:url(#SVGID_30_);}
	.st70{clip-path:url(#SVGID_32_);}
</style>
<g>
	<g>
		<path class="st39" d="M28.89,41.2V27.71l-4.65,9.84h-2.27l-4.76-9.84V41.2h-3.06V21.02h3.06l5.9,12.56l5.78-12.56h3.06V41.2H28.89
			z"/>
		<path class="st39" d="M46.55,41.2V21.02h12.9v2.75h-9.84v5.9H58v2.72h-8.39v6.07h9.84v2.75H46.55z"/>
		<path class="st39" d="M73.01,41.2V21.02h3.06v17.43h9.72v2.75H73.01z"/>
		<path class="st39" d="M103.2,23.77V41.2h-3.06V23.77h-5.56v-2.75h14.17v2.75H103.2z"/>
		<path class="st39" d="M121.6,41.2V21.02h12.9v2.75h-9.84v5.9h8.39v2.72h-8.39v6.07h9.84v2.75H121.6z"/>
		<path class="st39" d="M162.79,41.2V27.71l-4.65,9.84h-2.27l-4.76-9.84V41.2h-3.06V21.02h3.06l5.9,12.56l5.78-12.56h3.06V41.2
			H162.79z"/>
	</g>
	<g>
		<path class="st39" d="M21.42,78.81V58.63h12.9v2.75h-9.84v5.9h8.39v2.72h-8.39v6.07h9.84v2.75H21.42z"/>
		<path class="st39" d="M60.25,78.81l-9.32-14.2v14.2h-3.06V58.63h2.81L60,72.8V58.63h3.06v20.18H60.25z"/>
		<path class="st39" d="M77.69,78.81V58.63h12.9v2.75h-9.84v5.9h8.39v2.72h-8.39v6.07h9.84v2.75H77.69z"/>
		<path class="st39" d="M115.29,78.81l-4.25-8.5h-3.83v8.5h-3.06V58.63h7.82c3.83,0,6.26,2.47,6.26,5.9c0,2.89-1.76,4.73-4.02,5.36
			l4.65,8.93H115.29z M111.74,61.38h-4.53v6.32h4.53c2.04,0,3.43-1.16,3.43-3.15C115.17,62.57,113.78,61.38,111.74,61.38z"/>
		<path class="st39" d="M134.46,78.98c-2.07,0-3.51-0.57-4.9-1.96l2.04-2.01c0.71,0.71,1.39,1.22,2.86,1.22
			c2.27,0,3.66-1.39,3.66-4.02V58.63h3.06v13.8C141.17,76.62,138.17,78.98,134.46,78.98z"/>
		<path class="st39" d="M155.52,78.81V58.63h3.06v20.18H155.52z M155.72,53.58h2.75v2.75h-2.75V53.58z"/>
	</g>
</g>
</svg>
