<?xml version="1.0" encoding="utf-8"?>
<!-- Generator: Adobe Illustrator 23.1.1, SVG Export Plug-In . SVG Version: 6.00 Build 0)  -->
<svg version="1.1" id="Layer_1" xmlns="http://www.w3.org/2000/svg" xmlns:xlink="http://www.w3.org/1999/xlink" x="0px" y="0px"
	 viewBox="0 0 180 100" style="enable-background:new 0 0 180 100;" xml:space="preserve">
<style type="text/css">
	.st0{clip-path:url(#SVGID_2_);fill:#FFFFFF;}
	.st1{clip-path:url(#SVGID_2_);fill:none;stroke:#2A2523;stroke-width:1.2;stroke-miterlimit:10;}
	.st2{clip-path:url(#SVGID_2_);fill:#2A2523;}
	.st3{clip-path:url(#SVGID_2_);fill:#E32B27;}
	.st4{clip-path:url(#SVGID_4_);fill:#FFFFFF;}
	.st5{clip-path:url(#SVGID_4_);fill:none;stroke:#2A2523;stroke-width:1.2;stroke-miterlimit:10;}
	.st6{clip-path:url(#SVGID_4_);fill:#3AA9E0;}
	.st7{clip-path:url(#SVGID_4_);fill:#2A2523;}
	.st8{clip-path:url(#SVGID_6_);fill:#FFFFFF;}
	.st9{clip-path:url(#SVGID_6_);fill:none;stroke:#2A2523;stroke-width:1.2;stroke-miterlimit:10;}
	.st10{clip-path:url(#SVGID_6_);fill:#2F3080;}
	.st11{clip-path:url(#SVGID_6_);fill:#2A2523;}
	.st12{fill:#1D1C1A;}
	.st13{clip-path:url(#SVGID_8_);}
	.st14{clip-path:url(#SVGID_10_);}
	.st15{clip-path:url(#SVGID_12_);}
	.st16{clip-path:url(#SVGID_14_);}
	.st17{clip-path:url(#SVGID_16_);}
	.st18{clip-path:url(#SVGID_18_);}
	.st19{fill-rule:evenodd;clip-rule:evenodd;fill:#5B6770;}
	.st20{fill:none;stroke:#5B6770;stroke-width:1.8792;stroke-miterlimit:3.864;}
	.st21{fill-rule:evenodd;clip-rule:evenodd;fill:#79242F;}
	.st22{fill-rule:evenodd;clip-rule:evenodd;fill:#253A75;}
	.st23{fill:none;stroke:#253A75;stroke-width:0.132;stroke-miterlimit:3.864;}
	.st24{fill:#253A75;}
	.st25{fill:#002F3B;}
	.st26{fill:#A69E88;stroke:#A69E88;stroke-width:0.3401;stroke-miterlimit:10;}
	.st27{fill-rule:evenodd;clip-rule:evenodd;fill:#1D1C1A;}
	.st28{fill-rule:evenodd;clip-rule:evenodd;fill:#A5D0E6;}
	.st29{fill-rule:evenodd;clip-rule:evenodd;fill:#FFFFFF;}
	.st30{fill:#002D3A;}
	.st31{clip-path:url(#SVGID_20_);fill:#002E3A;}
	.st32{clip-path:url(#SVGID_20_);fill:#B68D4A;}
	.st33{fill:#B68D4A;}
	.st34{clip-path:url(#SVGID_22_);fill:#B68D4A;}
	.st35{fill:#BC955C;}
	.st36{fill:#A79F88;}
	.st37{fill:#00303C;stroke:#25A9E0;stroke-width:0.6856;stroke-dasharray:3.6133,3.6133;}
	.st38{fill:#00303C;}
	.st39{fill:#41695B;}
	.st40{fill:#907E63;}
	.st41{fill:#804951;}
	.st42{fill:#894B52;}
	.st43{fill:#42695B;stroke:#42695B;stroke-width:0.3;stroke-miterlimit:10;}
	.st44{fill:#231F20;}
	.st45{fill-rule:evenodd;clip-rule:evenodd;fill:#ADAFB1;}
	.st46{fill-rule:evenodd;clip-rule:evenodd;fill:#CFD0D2;stroke:#CFD0D2;stroke-width:0;stroke-miterlimit:3.8637;}
	.st47{fill-rule:evenodd;clip-rule:evenodd;fill:#ADAFB1;stroke:#ADAFB1;stroke-width:0;stroke-miterlimit:3.8637;}
	.st48{fill-rule:evenodd;clip-rule:evenodd;fill:#7A7C7F;stroke:#7A7C7F;stroke-width:0;stroke-miterlimit:3.8637;}
	.st49{fill-rule:evenodd;clip-rule:evenodd;fill:#BDBFC1;stroke:#BDBFC1;stroke-width:0;stroke-miterlimit:3.8637;}
	.st50{fill-rule:evenodd;clip-rule:evenodd;fill:none;stroke:#231F20;stroke-width:0.2422;stroke-miterlimit:3.8637;}
	.st51{fill-rule:evenodd;clip-rule:evenodd;fill:#B1B3B5;stroke:#B1B3B5;stroke-width:0;stroke-miterlimit:3.8637;}
	.st52{clip-path:url(#SVGID_24_);}
	.st53{clip-path:url(#SVGID_26_);}
	.st54{fill:#ADAFB1;}
	.st55{clip-path:url(#SVGID_28_);}
	.st56{fill:#FFFFFF;}
	.st57{fill:#F5F5F6;}
	.st58{fill:#EFF0F0;}
	.st59{fill:#E9EAEB;}
	.st60{fill:#E2E3E4;}
	.st61{fill:#DDDEDF;}
	.st62{fill:#D7D8DA;}
	.st63{fill:#D1D2D4;}
	.st64{fill:#CACCCE;}
	.st65{fill:#C4C6C8;}
	.st66{fill:#BFC1C3;}
	.st67{fill:#B8BABC;}
	.st68{fill:#B2B4B7;}
	.st69{clip-path:url(#SVGID_30_);}
	.st70{clip-path:url(#SVGID_32_);}
</style>
<g>
	<g>
		<path class="st36" d="M73.11,44.61l-1.16-3.37h-6.63l-1.16,3.37h-2.71l6.16-16.8h2.05l6.16,16.8H73.11z M68.7,31.61l-2.62,7.46
			h5.17L68.7,31.61z"/>
		<path class="st36" d="M86,44.61v-16.8h2.55v14.51h8.09v2.29H86z"/>
		<path class="st36" d="M115.6,44.61l-3.66-6.44l-3.63,6.44h-2.93l5.19-8.61l-4.86-8.19h2.93l3.3,6.02l3.33-6.02h2.93L113.33,36
			l5.22,8.61H115.6z"/>
	</g>
	<g>
		<path class="st36" d="M23.45,72.05v-7.34h-6.82v7.34h-2.55v-16.8h2.55v7.17h6.82v-7.17H26v16.8H23.45z"/>
		<path class="st36" d="M43.94,72.19c-3.42,0-6.02-2.34-6.02-5.81V55.25h2.55v11.02c0,2.24,1.37,3.63,3.47,3.63
			c2.1,0,3.49-1.39,3.49-3.63V55.25h2.55v11.14C49.98,69.86,47.36,72.19,43.94,72.19z"/>
		<path class="st36" d="M72.22,72.05l-7.76-11.82v11.82H61.9v-16.8h2.34L72,67.05v-11.8h2.55v16.8H72.22z"/>
		<path class="st36" d="M96.79,70.28c-1.27,1.35-2.86,1.91-4.63,1.91c-1.75,0-3.26-0.64-4.41-1.79c-1.65-1.65-1.63-3.52-1.63-6.75
			c0-3.23-0.02-5.1,1.63-6.75c1.16-1.16,2.62-1.79,4.41-1.79c3.56,0,5.64,2.34,6.11,5.22H95.7c-0.42-1.84-1.65-2.93-3.54-2.93
			c-0.99,0-1.89,0.4-2.48,1.04c-0.83,0.9-1.01,1.84-1.01,5.22s0.19,4.34,1.01,5.24c0.59,0.64,1.49,1.01,2.48,1.01
			c1.11,0,2.08-0.42,2.74-1.18c0.61-0.71,0.85-1.56,0.85-2.64v-0.94h-3.59v-2.17h6.14v2.57C98.3,67.71,97.89,69.1,96.79,70.28z"/>
		<path class="st36" d="M119.25,72.05l-1.16-3.37h-6.63l-1.16,3.37h-2.71l6.16-16.8h2.05l6.16,16.8H119.25z M114.84,59.05
			l-2.62,7.46h5.17L114.84,59.05z"/>
		<path class="st36" d="M141.42,72.05l-3.54-7.08h-3.19v7.08h-2.55v-16.8h6.51c3.19,0,5.22,2.05,5.22,4.91
			c0,2.41-1.46,3.94-3.35,4.46l3.87,7.43H141.42z M138.47,57.54h-3.78v5.26h3.78c1.7,0,2.86-0.97,2.86-2.62
			C141.32,58.53,140.17,57.54,138.47,57.54z"/>
		<path class="st36" d="M160.89,65.14v6.91h-2.55v-6.91l-5.03-9.89h2.78l3.52,7.39l3.52-7.39h2.79L160.89,65.14z"/>
	</g>
</g>
</svg>
