<?xml version="1.0" encoding="utf-8"?>
<!-- Generator: Adobe Illustrator 23.1.1, SVG Export Plug-In . SVG Version: 6.00 Build 0)  -->
<svg version="1.1" id="Layer_1" xmlns="http://www.w3.org/2000/svg" xmlns:xlink="http://www.w3.org/1999/xlink" x="0px" y="0px"
	 viewBox="0 0 180 100" style="enable-background:new 0 0 180 100;" xml:space="preserve">
<style type="text/css">
	.st0{clip-path:url(#SVGID_2_);fill:#FFFFFF;}
	.st1{clip-path:url(#SVGID_2_);fill:none;stroke:#2A2523;stroke-width:1.2;stroke-miterlimit:10;}
	.st2{clip-path:url(#SVGID_2_);fill:#2A2523;}
	.st3{clip-path:url(#SVGID_2_);fill:#E32B27;}
	.st4{clip-path:url(#SVGID_4_);fill:#FFFFFF;}
	.st5{clip-path:url(#SVGID_4_);fill:none;stroke:#2A2523;stroke-width:1.2;stroke-miterlimit:10;}
	.st6{clip-path:url(#SVGID_4_);fill:#3AA9E0;}
	.st7{clip-path:url(#SVGID_4_);fill:#2A2523;}
	.st8{clip-path:url(#SVGID_6_);fill:#FFFFFF;}
	.st9{clip-path:url(#SVGID_6_);fill:none;stroke:#2A2523;stroke-width:1.2;stroke-miterlimit:10;}
	.st10{clip-path:url(#SVGID_6_);fill:#2F3080;}
	.st11{clip-path:url(#SVGID_6_);fill:#2A2523;}
	.st12{fill:#1D1C1A;}
	.st13{clip-path:url(#SVGID_8_);}
	.st14{clip-path:url(#SVGID_10_);}
	.st15{clip-path:url(#SVGID_12_);}
	.st16{clip-path:url(#SVGID_14_);}
	.st17{clip-path:url(#SVGID_16_);}
	.st18{clip-path:url(#SVGID_18_);}
	.st19{fill-rule:evenodd;clip-rule:evenodd;fill:#5B6770;}
	.st20{fill:none;stroke:#5B6770;stroke-width:1.8792;stroke-miterlimit:3.864;}
	.st21{fill-rule:evenodd;clip-rule:evenodd;fill:#79242F;}
	.st22{fill-rule:evenodd;clip-rule:evenodd;fill:#253A75;}
	.st23{fill:none;stroke:#253A75;stroke-width:0.132;stroke-miterlimit:3.864;}
	.st24{fill:#253A75;}
	.st25{fill:#002F3B;}
	.st26{fill:#A69E88;stroke:#A69E88;stroke-width:0.3401;stroke-miterlimit:10;}
	.st27{fill-rule:evenodd;clip-rule:evenodd;fill:#1D1C1A;}
	.st28{fill-rule:evenodd;clip-rule:evenodd;fill:#A5D0E6;}
	.st29{fill-rule:evenodd;clip-rule:evenodd;fill:#FFFFFF;}
	.st30{fill:#002D3A;}
	.st31{clip-path:url(#SVGID_20_);fill:#002E3A;}
	.st32{clip-path:url(#SVGID_20_);fill:#B68D4A;}
	.st33{fill:#B68D4A;}
	.st34{clip-path:url(#SVGID_22_);fill:#B68D4A;}
	.st35{fill:#BC955C;}
	.st36{fill:#A79F88;}
	.st37{fill:#00303C;stroke:#25A9E0;stroke-width:0.6856;stroke-dasharray:3.6133,3.6133;}
	.st38{fill:#00303C;}
	.st39{fill:#41695B;}
	.st40{fill:#907E63;}
	.st41{fill:#804951;}
	.st42{fill:#894B52;}
	.st43{fill:#42695B;stroke:#42695B;stroke-width:0.3;stroke-miterlimit:10;}
	.st44{fill:#231F20;}
	.st45{fill-rule:evenodd;clip-rule:evenodd;fill:#ADAFB1;}
	.st46{fill-rule:evenodd;clip-rule:evenodd;fill:#CFD0D2;stroke:#CFD0D2;stroke-width:0;stroke-miterlimit:3.8637;}
	.st47{fill-rule:evenodd;clip-rule:evenodd;fill:#ADAFB1;stroke:#ADAFB1;stroke-width:0;stroke-miterlimit:3.8637;}
	.st48{fill-rule:evenodd;clip-rule:evenodd;fill:#7A7C7F;stroke:#7A7C7F;stroke-width:0;stroke-miterlimit:3.8637;}
	.st49{fill-rule:evenodd;clip-rule:evenodd;fill:#BDBFC1;stroke:#BDBFC1;stroke-width:0;stroke-miterlimit:3.8637;}
	.st50{fill-rule:evenodd;clip-rule:evenodd;fill:none;stroke:#231F20;stroke-width:0.2422;stroke-miterlimit:3.8637;}
	.st51{fill-rule:evenodd;clip-rule:evenodd;fill:#B1B3B5;stroke:#B1B3B5;stroke-width:0;stroke-miterlimit:3.8637;}
	.st52{clip-path:url(#SVGID_24_);}
	.st53{clip-path:url(#SVGID_26_);}
	.st54{fill:#ADAFB1;}
	.st55{clip-path:url(#SVGID_28_);}
	.st56{fill:#FFFFFF;}
	.st57{fill:#F5F5F6;}
	.st58{fill:#EFF0F0;}
	.st59{fill:#E9EAEB;}
	.st60{fill:#E2E3E4;}
	.st61{fill:#DDDEDF;}
	.st62{fill:#D7D8DA;}
	.st63{fill:#D1D2D4;}
	.st64{fill:#CACCCE;}
	.st65{fill:#C4C6C8;}
	.st66{fill:#BFC1C3;}
	.st67{fill:#B8BABC;}
	.st68{fill:#B2B4B7;}
	.st69{clip-path:url(#SVGID_30_);}
	.st70{clip-path:url(#SVGID_32_);}
</style>
<g>
	<path class="st19" d="M16.48,71.51l-0.61,0l-1.12-2.18l-1.18,0l0,2.18l-0.52,0l-0.01-4.92l1.89,0c0.43,0,0.79,0.12,1.05,0.37
		c0.27,0.24,0.41,0.57,0.41,1c0,0.35-0.1,0.64-0.29,0.87c-0.19,0.23-0.45,0.38-0.78,0.45L16.48,71.51z M15.85,67.97
		c0-0.29-0.09-0.51-0.27-0.67c-0.18-0.16-0.42-0.23-0.71-0.23l-1.31,0l0,1.8l1.31,0c0.3,0,0.54-0.08,0.71-0.23
		C15.76,68.48,15.85,68.26,15.85,67.97"/>
	<polygon class="st19" points="20.63,71.51 17.57,71.51 17.56,66.59 20.62,66.58 20.62,67.05 18.09,67.06 18.09,68.79 20.25,68.79 
		20.25,69.26 18.09,69.26 18.09,71.04 20.62,71.04 	"/>
	<path class="st19" d="M25.15,71.5l-0.56,0l-0.4-1.11l-2.15,0l-0.39,1.11l-0.56,0l1.8-4.93l0.44,0L25.15,71.5z M24.04,69.93
		l-0.92-2.6l-0.92,2.6L24.04,69.93z"/>
	<polygon class="st19" points="28.98,71.5 25.94,71.5 25.94,66.58 26.46,66.58 26.47,71.03 28.98,71.03 	"/>
	<polygon class="st19" points="34.68,71.49 31.63,71.49 31.62,66.57 34.68,66.57 34.68,67.04 32.15,67.04 32.15,68.78 34.3,68.77 
		34.31,69.24 32.15,69.25 32.15,71.02 34.68,71.02 	"/>
	<path class="st19" d="M38.74,70.13c0,0.43-0.15,0.77-0.46,1.02c-0.31,0.25-0.72,0.37-1.24,0.37c-0.69,0-1.25-0.21-1.69-0.65
		l0.36-0.36c0.36,0.36,0.81,0.54,1.34,0.54c0.36,0,0.64-0.08,0.85-0.24c0.21-0.16,0.31-0.38,0.31-0.67c0-0.27-0.08-0.48-0.23-0.61
		c-0.13-0.11-0.34-0.19-0.64-0.23l-0.57-0.09c-0.85-0.13-1.28-0.56-1.28-1.29c0-0.42,0.14-0.76,0.42-1.01
		c0.29-0.25,0.67-0.38,1.15-0.38c0.58,0,1.06,0.18,1.47,0.54l-0.34,0.34c-0.31-0.28-0.69-0.42-1.15-0.42
		c-0.32,0-0.58,0.09-0.76,0.25C36.09,67.39,36,67.61,36,67.89c0,0.25,0.08,0.44,0.23,0.57c0.15,0.13,0.37,0.22,0.66,0.26l0.54,0.08
		c0.4,0.06,0.7,0.18,0.9,0.34C38.6,69.39,38.74,69.71,38.74,70.13"/>
	<polygon class="st19" points="42.7,67.03 41.28,67.03 41.29,71.48 40.76,71.48 40.76,67.03 39.33,67.03 39.33,66.56 42.7,66.56 	
		"/>
	<path class="st19" d="M47.06,71.47l-0.56,0l-0.4-1.11l-2.15,0l-0.39,1.11l-0.56,0l1.81-4.93l0.44,0L47.06,71.47z M45.95,69.91
		l-0.92-2.6l-0.92,2.6L45.95,69.91z"/>
	<polygon class="st19" points="50.72,67.02 49.3,67.02 49.3,71.47 48.77,71.47 48.77,67.02 47.34,67.02 47.34,66.55 50.72,66.55 	
		"/>
	<polygon class="st19" points="54.7,71.46 51.64,71.47 51.64,66.54 54.7,66.54 54.7,67.01 52.17,67.01 52.17,68.75 54.32,68.75 
		54.32,69.22 52.17,69.22 52.17,71 54.7,70.99 	"/>
	<path class="st19" d="M60.93,68.94c0,0.52-0.02,0.88-0.05,1.09c-0.06,0.42-0.21,0.74-0.43,0.97c-0.31,0.31-0.72,0.46-1.25,0.46
		l-1.68,0l-0.01-4.92l1.68,0c0.53,0,0.94,0.15,1.25,0.46c0.23,0.22,0.37,0.53,0.44,0.91C60.91,68.1,60.93,68.45,60.93,68.94
		 M60.4,68.94c0-0.42-0.01-0.72-0.03-0.88c-0.04-0.31-0.14-0.54-0.29-0.69c-0.23-0.24-0.56-0.36-0.97-0.36l-1.07,0l0.01,3.98l1.07,0
		c0.41,0,0.74-0.12,0.97-0.36c0.15-0.15,0.24-0.4,0.29-0.75C60.39,69.7,60.4,69.38,60.4,68.94"/>
	<polygon class="st19" points="65.23,71.45 62.17,71.45 62.16,66.53 65.22,66.53 65.22,67 62.69,67 62.69,68.74 64.85,68.73 
		64.85,69.2 62.69,69.21 62.69,70.98 65.22,70.98 	"/>
	<polygon class="st19" points="69.32,66.52 67.71,71.45 67.28,71.45 65.65,66.53 66.21,66.53 67.49,70.51 68.76,66.52 	"/>
	<polygon class="st19" points="73.15,71.44 70.09,71.44 70.09,66.52 73.14,66.52 73.15,66.99 70.61,66.99 70.62,68.73 72.77,68.72 
		72.77,69.19 70.62,69.2 70.62,70.97 73.15,70.97 	"/>
	<polygon class="st19" points="77.28,71.43 74.24,71.44 74.24,66.52 74.76,66.51 74.77,70.97 77.28,70.96 	"/>
	<path class="st19" d="M81.46,68.97c0,0.61-0.02,1.01-0.05,1.22c-0.06,0.3-0.19,0.56-0.41,0.77c-0.34,0.34-0.76,0.51-1.26,0.51
		c-0.5,0-0.92-0.17-1.26-0.51c-0.21-0.21-0.35-0.47-0.41-0.77c-0.04-0.21-0.06-0.61-0.06-1.22c0-0.6,0.02-1.01,0.05-1.22
		c0.06-0.3,0.19-0.56,0.41-0.77c0.34-0.34,0.76-0.51,1.26-0.51c0.5,0,0.92,0.17,1.26,0.51c0.21,0.21,0.35,0.47,0.41,0.77
		C81.44,67.96,81.46,68.37,81.46,68.97 M80.93,68.97c0-0.54-0.02-0.91-0.06-1.11c-0.05-0.23-0.14-0.42-0.29-0.57
		c-0.23-0.23-0.51-0.35-0.85-0.35c-0.34,0-0.62,0.12-0.85,0.35c-0.15,0.15-0.24,0.34-0.29,0.57c-0.04,0.2-0.06,0.57-0.05,1.11
		c0,0.54,0.02,0.91,0.06,1.11c0.05,0.23,0.14,0.42,0.29,0.57C79.12,70.89,79.4,71,79.74,71c0.34,0,0.62-0.12,0.85-0.35
		c0.15-0.15,0.24-0.34,0.29-0.57C80.91,69.88,80.93,69.51,80.93,68.97"/>
	<path class="st19" d="M86.05,67.94c0,0.44-0.14,0.79-0.42,1.06c-0.28,0.26-0.65,0.4-1.1,0.4l-1.31,0l0,2.03l-0.52,0l-0.01-4.92
		l1.83,0c0.45,0,0.82,0.13,1.1,0.39C85.9,67.16,86.05,67.51,86.05,67.94 M85.52,67.95c0-0.32-0.1-0.56-0.28-0.73
		c-0.19-0.17-0.44-0.25-0.76-0.25l-1.26,0l0,1.96l1.26,0c0.32,0,0.57-0.09,0.76-0.25C85.43,68.51,85.52,68.27,85.52,67.95"/>
	<polygon class="st19" points="91.27,71.42 90.75,71.42 90.74,67.68 89.4,70.64 88.95,70.65 87.57,67.68 87.58,71.42 87.05,71.42 
		87.05,66.5 87.57,66.5 89.18,69.99 90.74,66.49 91.27,66.49 	"/>
	<polygon class="st19" points="95.75,71.41 92.7,71.42 92.69,66.49 95.75,66.49 95.75,66.96 93.22,66.96 93.22,68.7 95.38,68.69 
		95.38,69.16 93.22,69.17 93.22,70.94 95.75,70.94 	"/>
	<polygon class="st19" points="100.48,71.41 99.99,71.41 97.37,67.46 97.37,71.41 96.85,71.41 96.84,66.49 97.34,66.49 99.96,70.42 
		99.95,66.48 100.48,66.48 	"/>
	<polygon class="st19" points="104.77,66.95 103.35,66.95 103.35,71.4 102.83,71.4 102.82,66.95 101.4,66.95 101.4,66.48 
		104.77,66.48 	"/>
	<path class="st19" d="M111.34,71.39l-0.65,0l-0.44-0.54c-0.42,0.39-0.9,0.58-1.45,0.58c-0.47,0-0.85-0.13-1.13-0.38
		c-0.28-0.26-0.42-0.61-0.42-1.04c0-0.33,0.11-0.63,0.33-0.88c0.14-0.16,0.38-0.36,0.73-0.6c-0.17-0.21-0.29-0.37-0.36-0.48
		c-0.11-0.2-0.17-0.4-0.17-0.59c0-0.29,0.1-0.54,0.3-0.73c0.21-0.2,0.47-0.3,0.78-0.3c0.31,0,0.57,0.1,0.77,0.3
		c0.2,0.2,0.3,0.44,0.3,0.74c0,0.34-0.18,0.63-0.54,0.88c-0.08,0.06-0.21,0.14-0.37,0.25l1.26,1.51c0.18-0.27,0.27-0.65,0.28-1.13
		l0.5,0c-0.01,0.65-0.16,1.15-0.45,1.51L111.34,71.39z M109.43,67.47c0-0.17-0.06-0.3-0.17-0.41c-0.11-0.12-0.25-0.17-0.42-0.17
		c-0.16,0-0.3,0.06-0.41,0.17c-0.11,0.1-0.16,0.24-0.16,0.41c0,0.18,0.15,0.45,0.44,0.81c0.05-0.03,0.14-0.09,0.26-0.18
		C109.29,67.88,109.43,67.67,109.43,67.47 M109.95,70.49l-1.36-1.63c-0.29,0.2-0.48,0.35-0.58,0.47c-0.18,0.19-0.26,0.41-0.26,0.66
		c0,0.29,0.1,0.53,0.29,0.71c0.19,0.18,0.44,0.27,0.75,0.27C109.21,70.97,109.59,70.81,109.95,70.49"/>
	
		<rect x="114.25" y="66.46" transform="matrix(1 -2.026459e-03 2.026459e-03 1 -0.1394 0.2322)" class="st19" width="0.52" height="4.92"/>
	<polygon class="st19" points="119.84,71.38 119.34,71.38 116.72,67.44 116.73,71.38 116.2,71.39 116.19,66.46 116.69,66.46 
		119.31,70.39 119.31,66.46 119.83,66.46 	"/>
	<polygon class="st19" points="124.26,66.45 122.65,71.38 122.22,71.38 120.6,66.46 121.15,66.46 122.44,70.44 123.71,66.45 	"/>
	<polygon class="st19" points="128.09,71.37 125.04,71.37 125.03,66.45 128.09,66.45 128.09,66.92 125.56,66.92 125.56,68.66 
		127.71,68.65 127.72,69.12 125.56,69.13 125.56,70.9 128.09,70.9 	"/>
	<path class="st19" d="M132.15,70.01c0,0.43-0.15,0.77-0.46,1.02c-0.31,0.25-0.72,0.37-1.23,0.37c-0.69,0-1.25-0.21-1.69-0.65
		l0.36-0.36c0.36,0.36,0.81,0.54,1.34,0.54c0.36,0,0.64-0.08,0.85-0.24c0.21-0.16,0.31-0.38,0.31-0.67c0-0.27-0.08-0.48-0.24-0.61
		c-0.12-0.11-0.34-0.19-0.64-0.23l-0.57-0.09c-0.85-0.13-1.28-0.56-1.28-1.29c0-0.42,0.14-0.76,0.42-1.01
		c0.28-0.25,0.67-0.38,1.15-0.38c0.57,0,1.06,0.18,1.47,0.54l-0.34,0.34c-0.31-0.28-0.69-0.42-1.15-0.42
		c-0.32,0-0.58,0.09-0.76,0.25c-0.18,0.17-0.28,0.39-0.28,0.67c0,0.25,0.08,0.44,0.23,0.57c0.15,0.13,0.37,0.22,0.66,0.26l0.54,0.08
		c0.4,0.06,0.7,0.18,0.9,0.34C132.01,69.27,132.15,69.6,132.15,70.01"/>
	<polygon class="st19" points="136.11,66.91 134.69,66.91 134.7,71.36 134.17,71.36 134.17,66.91 132.74,66.91 132.74,66.44 
		136.11,66.44 	"/>
	<polygon class="st19" points="141.26,71.35 140.73,71.35 140.73,67.61 139.38,70.58 138.93,70.58 137.56,67.62 137.57,71.36 
		137.04,71.36 137.03,66.44 137.56,66.44 139.17,69.92 140.73,66.43 141.25,66.43 	"/>
	<polygon class="st19" points="145.74,71.35 142.68,71.35 142.68,66.43 145.73,66.42 145.73,66.89 143.2,66.9 143.21,68.63 
		145.36,68.63 145.36,69.1 143.21,69.1 143.21,70.88 145.74,70.88 	"/>
	<polygon class="st19" points="150.47,71.34 149.97,71.34 147.35,67.4 147.36,71.35 146.83,71.35 146.82,66.42 147.32,66.42 
		149.94,70.35 149.94,66.42 150.46,66.42 	"/>
	<polygon class="st19" points="154.76,66.88 153.33,66.89 153.34,71.34 152.81,71.34 152.81,66.89 151.38,66.89 151.38,66.42 
		154.76,66.41 	"/>
	<path class="st19" d="M160.64,69.9c-0.08,0.46-0.27,0.82-0.58,1.08c-0.31,0.26-0.69,0.39-1.13,0.39c-0.5,0-0.92-0.17-1.26-0.51
		c-0.21-0.21-0.35-0.47-0.41-0.77c-0.04-0.21-0.06-0.61-0.06-1.22c0-0.6,0.02-1.01,0.05-1.22c0.06-0.3,0.2-0.56,0.41-0.77
		c0.34-0.34,0.76-0.51,1.26-0.51c0.45,0,0.82,0.13,1.13,0.39c0.3,0.26,0.5,0.62,0.58,1.08h-0.54c-0.06-0.3-0.2-0.55-0.41-0.73
		c-0.2-0.18-0.46-0.27-0.76-0.27c-0.34,0-0.63,0.12-0.85,0.35c-0.15,0.15-0.24,0.34-0.29,0.57c-0.04,0.2-0.05,0.57-0.05,1.11
		c0,0.54,0.02,0.91,0.06,1.12c0.04,0.23,0.14,0.42,0.29,0.57c0.23,0.23,0.51,0.35,0.85,0.35c0.3,0,0.56-0.09,0.77-0.27
		c0.21-0.18,0.35-0.42,0.41-0.73L160.64,69.9z"/>
	<path class="st19" d="M165.06,68.86c0,0.61-0.02,1.01-0.06,1.22c-0.06,0.3-0.19,0.56-0.41,0.77c-0.34,0.34-0.76,0.51-1.26,0.51
		c-0.5,0-0.92-0.17-1.26-0.51c-0.21-0.21-0.35-0.47-0.41-0.77c-0.04-0.21-0.06-0.61-0.06-1.22c0-0.6,0.02-1.01,0.05-1.22
		c0.06-0.3,0.19-0.56,0.41-0.77c0.34-0.34,0.76-0.51,1.26-0.51c0.5,0,0.92,0.17,1.26,0.51c0.21,0.21,0.35,0.47,0.41,0.77
		C165.04,67.85,165.06,68.26,165.06,68.86 M164.54,68.86c0-0.54-0.02-0.91-0.06-1.11c-0.05-0.23-0.14-0.42-0.29-0.57
		c-0.23-0.23-0.51-0.35-0.85-0.35c-0.34,0-0.62,0.12-0.85,0.35c-0.15,0.15-0.24,0.34-0.29,0.57c-0.04,0.2-0.05,0.57-0.05,1.11
		c0,0.54,0.02,0.91,0.06,1.11c0.05,0.23,0.14,0.42,0.29,0.57c0.23,0.24,0.51,0.35,0.85,0.35c0.34,0,0.62-0.12,0.85-0.35
		c0.14-0.15,0.24-0.34,0.29-0.57C164.52,69.77,164.54,69.4,164.54,68.86"/>
	
		<rect x="166.2" y="70.67" transform="matrix(1 -1.639026e-03 1.639026e-03 1 -0.1161 0.273)" class="st19" width="0.65" height="0.65"/>
	<line class="st20" x1="11.31" y1="63.93" x2="168.69" y2="63.73"/>
	<path class="st19" d="M15.74,59.77c0,0.5-0.13,0.89-0.39,1.17c-0.32,0.35-0.73,0.52-1.21,0.52c-0.46,0-0.85-0.15-1.16-0.47
		c-0.2-0.2-0.32-0.43-0.38-0.71c-0.03-0.19-0.05-0.57-0.05-1.12c0-0.56,0.01-0.93,0.05-1.12c0.06-0.28,0.18-0.52,0.38-0.71
		c0.31-0.32,0.7-0.47,1.16-0.47c0.43,0,0.78,0.13,1.07,0.38c0.28,0.24,0.45,0.57,0.52,0.98h-0.48c-0.06-0.29-0.19-0.51-0.39-0.68
		c-0.19-0.17-0.43-0.25-0.71-0.25c-0.31,0-0.57,0.11-0.79,0.33c-0.14,0.14-0.22,0.32-0.26,0.53c-0.04,0.18-0.05,0.52-0.05,1.02
		c0,0.5,0.02,0.84,0.05,1.03c0.04,0.21,0.13,0.39,0.27,0.53c0.21,0.21,0.47,0.32,0.79,0.32c0.36,0,0.65-0.13,0.86-0.39
		c0.17-0.2,0.26-0.48,0.26-0.82v-0.34l-1.12,0v-0.43l1.6,0L15.74,59.77z"/>
	<path class="st19" d="M20.04,61.42h-0.51l-0.37-1.03l-1.99,0l-0.36,1.03h-0.52l1.67-4.54l0.41,0L20.04,61.42z M19.02,59.97
		l-0.85-2.4l-0.85,2.4L19.02,59.97z"/>
	<polygon class="st19" points="23.34,56.87 22,59.54 22,61.42 21.52,61.42 21.52,59.54 20.16,56.88 20.68,56.88 21.76,59.05 
		22.81,56.87 	"/>
	<path class="st19" d="M27.23,61.41h-0.57l-1.03-2.01l-1.09,0l0,2.01h-0.48l-0.01-4.54l1.74,0c0.4,0,0.72,0.11,0.97,0.34
		c0.25,0.23,0.38,0.53,0.38,0.92c0,0.32-0.09,0.59-0.27,0.8c-0.18,0.21-0.42,0.35-0.72,0.42L27.23,61.41z M26.65,58.14
		c0-0.27-0.09-0.47-0.25-0.62c-0.17-0.15-0.39-0.22-0.66-0.22l-1.21,0l0,1.67l1.21,0c0.28,0,0.5-0.07,0.66-0.21
		C26.56,58.61,26.65,58.41,26.65,58.14"/>
	<path class="st19" d="M28.72,61.41h-0.48l-0.01-4.54l0.48,0L28.72,61.41z M28.23,55.83l0.45,0l0,0.57l-0.45,0L28.23,55.83z"/>
	<polygon class="st19" points="33.92,61.4 33.44,61.4 33.43,57.95 32.19,60.69 31.78,60.69 30.51,57.96 30.52,61.41 30.03,61.41 
		30.03,56.86 30.51,56.86 31.99,60.08 33.43,56.86 33.92,56.86 	"/>
	<polygon class="st19" points="38.06,61.4 35.24,61.4 35.23,56.86 38.05,56.85 38.05,57.29 35.72,57.29 35.72,58.89 37.71,58.89 
		37.71,59.32 35.72,59.33 35.72,60.97 38.05,60.96 	"/>
	<polygon class="st19" points="42.42,61.39 41.96,61.39 39.54,57.75 39.55,61.4 39.06,61.4 39.06,56.85 39.52,56.85 41.93,60.48 
		41.93,56.85 42.41,56.85 	"/>
	<polygon class="st19" points="47.13,61.39 46.56,61.39 45.17,58.97 44.22,60.12 44.22,61.39 43.73,61.39 43.73,56.85 44.21,56.85 
		44.22,59.46 46.33,56.84 46.92,56.84 45.5,58.6 	"/>
	<path class="st19" d="M50.98,59.88c0,0.45-0.15,0.82-0.45,1.11c-0.3,0.28-0.68,0.43-1.14,0.43c-0.46,0-0.84-0.14-1.14-0.43
		c-0.3-0.29-0.45-0.66-0.45-1.11l0-3.04h0.49l0,3c0,0.34,0.1,0.62,0.3,0.83c0.2,0.21,0.47,0.31,0.8,0.31c0.33,0,0.6-0.1,0.8-0.31
		c0.21-0.21,0.31-0.48,0.3-0.83l0-3.01l0.49,0L50.98,59.88z"/>
	<polygon class="st19" points="55.04,61.37 52.23,61.38 52.23,56.84 52.71,56.84 52.72,60.94 55.04,60.94 	"/>
	<path class="st19" d="M60.49,59.71c0,0.5-0.13,0.89-0.39,1.17c-0.32,0.35-0.73,0.52-1.21,0.52c-0.46,0-0.85-0.15-1.16-0.47
		c-0.2-0.2-0.32-0.43-0.38-0.71c-0.04-0.19-0.05-0.57-0.05-1.12c0-0.56,0.01-0.93,0.05-1.12c0.06-0.28,0.18-0.52,0.38-0.71
		c0.32-0.32,0.7-0.47,1.16-0.47c0.42,0,0.78,0.13,1.07,0.38c0.28,0.24,0.45,0.57,0.52,0.98h-0.49c-0.06-0.29-0.19-0.51-0.39-0.67
		c-0.2-0.17-0.43-0.25-0.71-0.25c-0.31,0-0.57,0.11-0.79,0.33c-0.14,0.14-0.22,0.32-0.27,0.53c-0.03,0.18-0.05,0.52-0.05,1.02
		c0,0.5,0.02,0.84,0.05,1.03c0.04,0.21,0.13,0.39,0.27,0.53c0.21,0.21,0.47,0.32,0.79,0.32c0.36,0,0.65-0.13,0.86-0.39
		c0.17-0.2,0.26-0.48,0.26-0.82v-0.34l-1.12,0v-0.43l1.6,0L60.49,59.71z"/>
	<polygon class="st19" points="64.44,61.36 61.62,61.37 61.62,56.82 64.44,56.82 64.44,57.26 62.1,57.26 62.11,58.86 64.1,58.86 
		64.1,59.29 62.11,59.29 62.11,60.93 64.44,60.93 	"/>
	<polygon class="st19" points="68.26,61.36 65.45,61.36 65.44,56.82 65.93,56.82 65.94,60.93 68.26,60.92 	"/>
	<path class="st19" d="M69.59,61.36H69.1l-0.01-4.54l0.48,0L69.59,61.36z M69.1,55.78l0.45,0l0,0.57l-0.45,0L69.1,55.78z"/>
	<path class="st19" d="M72.31,61.38l0,0.68l-0.44,0l-0.01-0.67c-0.53-0.03-0.98-0.22-1.35-0.59l0.33-0.33
		c0.33,0.33,0.74,0.5,1.24,0.5c0.33,0,0.59-0.07,0.78-0.22c0.19-0.15,0.29-0.36,0.29-0.62c0-0.25-0.07-0.44-0.22-0.57
		c-0.11-0.1-0.31-0.17-0.59-0.22l-0.53-0.08c-0.79-0.12-1.18-0.52-1.18-1.19c0-0.39,0.13-0.7,0.39-0.93
		c0.26-0.23,0.62-0.35,1.06-0.35c0.53,0,0.98,0.17,1.35,0.5l-0.31,0.31c-0.28-0.26-0.64-0.39-1.06-0.39c-0.3,0-0.53,0.08-0.7,0.23
		c-0.17,0.15-0.25,0.36-0.25,0.61c0,0.23,0.07,0.41,0.21,0.53c0.14,0.12,0.34,0.2,0.61,0.24l0.5,0.07c0.37,0.06,0.64,0.16,0.83,0.32
		c0.25,0.22,0.38,0.51,0.38,0.9c0,0.36-0.12,0.65-0.35,0.88C73.04,61.21,72.72,61.34,72.31,61.38"/>
	<polygon class="st19" points="77.3,57.24 75.98,57.24 75.99,61.35 75.5,61.35 75.5,57.24 74.18,57.24 74.18,56.81 77.29,56.8 	"/>
	<path class="st19" d="M78.63,61.35h-0.48l-0.01-4.54l0.48,0L78.63,61.35z M78.14,55.76l0.45,0l0,0.57l-0.45,0L78.14,55.76z"/>
	<path class="st19" d="M83.12,61.34h-0.57l-1.04-2.01l-1.09,0l0,2.01h-0.48l-0.01-4.54l1.74,0c0.4,0,0.72,0.11,0.97,0.34
		c0.25,0.23,0.38,0.53,0.38,0.92c0,0.32-0.09,0.59-0.27,0.8c-0.18,0.21-0.42,0.35-0.72,0.42L83.12,61.34z M82.55,58.07
		c0-0.27-0.08-0.47-0.25-0.62c-0.17-0.15-0.38-0.22-0.66-0.22l-1.21,0l0,1.67l1.21,0c0.28,0,0.5-0.07,0.66-0.21
		C82.46,58.54,82.55,58.34,82.55,58.07"/>
	<polygon class="st19" points="88.02,61.33 87.54,61.33 87.53,57.88 86.29,60.62 85.88,60.62 84.61,57.89 84.62,61.34 84.13,61.34 
		84.13,56.8 84.61,56.8 86.1,60.01 87.53,56.79 88.02,56.79 	"/>
	<polygon class="st19" points="92.16,61.33 89.34,61.33 89.33,56.79 92.15,56.79 92.15,57.22 89.82,57.22 89.82,58.82 91.81,58.82 
		91.81,59.26 89.82,59.26 89.82,60.9 92.15,60.89 	"/>
	<polygon class="st19" points="97.32,56.78 95.98,59.45 95.98,61.32 95.5,61.32 95.5,59.45 94.14,56.78 94.66,56.78 95.74,58.96 
		96.79,56.78 	"/>
	<path class="st19" d="M101.19,61.32h-0.52l-0.36-1.03l-1.99,0l-0.36,1.03l-0.51,0l1.66-4.54l0.41,0L101.19,61.32z M100.17,59.87
		l-0.85-2.4l-0.85,2.4L100.17,59.87z"/>
	<polygon class="st19" points="104.57,57.2 103.26,57.21 103.26,61.31 102.78,61.31 102.77,57.21 101.46,57.21 101.46,56.77 
		104.57,56.77 	"/>
	
		<rect x="105.42" y="56.77" transform="matrix(1 -2.193543e-03 2.193543e-03 1 -0.1293 0.2319)" class="st19" width="0.48" height="4.54"/>
	<path class="st19" d="M110.4,61.3h-0.57l-1.04-2.01l-1.09,0l0,2.01l-0.49,0l-0.01-4.54l1.74,0c0.4,0,0.72,0.11,0.97,0.34
		c0.25,0.23,0.38,0.53,0.38,0.92c0,0.32-0.09,0.59-0.27,0.8c-0.18,0.21-0.42,0.35-0.72,0.42L110.4,61.3z M109.82,58.03
		c0-0.27-0.09-0.47-0.25-0.62c-0.17-0.15-0.39-0.22-0.66-0.22l-1.21,0l0,1.67l1.21,0c0.28,0,0.5-0.07,0.66-0.21
		C109.74,58.51,109.82,58.3,109.82,58.03"/>
	
		<rect x="111.4" y="56.76" transform="matrix(1 -2.188742e-03 2.188742e-03 1 -0.1289 0.2445)" class="st19" width="0.49" height="4.54"/>
	<polygon class="st19" points="117.09,61.3 116.61,61.3 116.61,57.85 115.36,60.58 114.95,60.58 113.68,57.85 113.69,61.3 
		113.2,61.3 113.2,56.76 113.68,56.76 115.17,59.98 116.6,56.75 117.09,56.75 	"/>
	
		<rect x="118.41" y="56.75" transform="matrix(1 -2.193543e-03 2.193543e-03 1 -0.1292 0.2604)" class="st19" width="0.48" height="4.54"/>
	<polygon class="st19" points="124.56,56.74 123.08,61.29 122.68,61.29 121.18,56.75 121.69,56.75 122.88,60.42 124.05,56.75 	"/>
	<polygon class="st19" points="128.1,61.28 125.28,61.29 125.27,56.74 128.09,56.74 128.09,57.17 125.76,57.18 125.76,58.78 
		127.75,58.78 127.75,59.21 125.76,59.21 125.76,60.85 128.1,60.85 	"/>
	<polygon class="st19" points="133.33,57.17 132.02,57.17 132.03,61.28 131.54,61.28 131.54,57.17 130.22,57.17 130.22,56.74 
		133.33,56.73 	"/>
	<path class="st19" d="M134.67,61.27h-0.48l-0.01-4.54l0.48,0L134.67,61.27z M134.18,55.69l0.45,0l0,0.57l-0.45,0L134.18,55.69z"/>
	<path class="st19" d="M138.98,59.95c-0.07,0.42-0.25,0.75-0.53,1c-0.28,0.24-0.63,0.36-1.04,0.36c-0.46,0-0.85-0.15-1.16-0.47
		c-0.2-0.2-0.32-0.43-0.38-0.71c-0.03-0.19-0.05-0.57-0.05-1.12c0-0.56,0.01-0.93,0.05-1.12c0.06-0.28,0.18-0.52,0.38-0.72
		c0.31-0.32,0.7-0.47,1.16-0.47c0.41,0,0.76,0.12,1.04,0.36c0.28,0.24,0.46,0.57,0.54,1h-0.5c-0.06-0.28-0.19-0.5-0.38-0.67
		c-0.19-0.17-0.42-0.25-0.7-0.25c-0.31,0-0.58,0.11-0.79,0.32c-0.13,0.14-0.22,0.32-0.27,0.53c-0.03,0.19-0.05,0.53-0.05,1.03
		c0,0.5,0.02,0.84,0.05,1.03c0.04,0.21,0.13,0.39,0.27,0.53c0.21,0.21,0.47,0.32,0.79,0.32c0.28,0,0.52-0.08,0.71-0.25
		c0.2-0.17,0.32-0.39,0.38-0.67L138.98,59.95z"/>
	<path class="st19" d="M143.21,61.26h-0.52l-0.37-1.03l-1.98,0l-0.36,1.03l-0.52,0l1.66-4.54l0.41,0L143.21,61.26z M142.19,59.82
		l-0.85-2.4l-0.85,2.4L142.19,59.82z"/>
	<path class="st19" d="M147.12,61.26h-0.57l-1.04-2.01l-1.09,0l0,2.01h-0.49l-0.01-4.54l1.74,0c0.4,0,0.72,0.11,0.97,0.34
		c0.25,0.23,0.38,0.53,0.38,0.92c0,0.32-0.09,0.59-0.27,0.8c-0.18,0.21-0.42,0.35-0.72,0.42L147.12,61.26z M146.54,57.99
		c0-0.27-0.08-0.47-0.25-0.62c-0.16-0.15-0.38-0.22-0.66-0.22l-1.21,0l0,1.67l1.21,0c0.28,0,0.5-0.07,0.66-0.21
		C146.46,58.46,146.54,58.25,146.54,57.99"/>
	<polygon class="st19" points="150.95,61.25 148.13,61.26 148.12,56.71 150.94,56.71 150.95,57.15 148.61,57.15 148.61,58.75 
		150.6,58.75 150.6,59.18 148.61,59.18 148.62,60.82 150.95,60.82 	"/>
	<polygon class="st19" points="154.6,57.14 153.28,57.14 153.29,61.25 152.81,61.25 152.8,57.14 151.49,57.14 151.49,56.71 
		154.6,56.71 	"/>
	<path class="st19" d="M160.21,61.24h-0.52l-0.37-1.03l-1.98,0l-0.36,1.03h-0.52l1.66-4.54l0.41,0L160.21,61.24z M159.18,59.79
		l-0.84-2.4l-0.85,2.4L159.18,59.79z"/>
	
		<rect x="160.84" y="60.64" transform="matrix(1 -1.779729e-03 1.779729e-03 1 -0.1082 0.2869)" class="st19" width="0.6" height="0.6"/>
	<path class="st19" d="M164.07,61.26l0,0.68l-0.45,0l-0.01-0.67c-0.53-0.03-0.98-0.22-1.35-0.59l0.33-0.33
		c0.33,0.33,0.75,0.5,1.24,0.5c0.33,0,0.59-0.07,0.78-0.22c0.19-0.15,0.29-0.36,0.29-0.62c0-0.25-0.07-0.44-0.22-0.57
		c-0.11-0.1-0.31-0.17-0.59-0.22l-0.53-0.08c-0.79-0.12-1.18-0.52-1.18-1.19c0-0.39,0.13-0.7,0.39-0.93
		c0.26-0.23,0.62-0.35,1.06-0.35c0.53,0,0.98,0.17,1.35,0.5l-0.31,0.31c-0.28-0.26-0.64-0.39-1.06-0.39c-0.3,0-0.53,0.08-0.7,0.23
		c-0.17,0.15-0.25,0.36-0.25,0.61c0,0.23,0.07,0.41,0.21,0.53c0.14,0.12,0.34,0.2,0.61,0.24l0.5,0.07c0.37,0.06,0.65,0.16,0.83,0.32
		c0.26,0.22,0.38,0.51,0.38,0.9c0,0.36-0.12,0.65-0.36,0.88C164.8,61.09,164.48,61.22,164.07,61.26"/>
	
		<rect x="166.31" y="60.63" transform="matrix(1 -1.776567e-03 1.776567e-03 1 -0.108 0.2961)" class="st19" width="0.6" height="0.6"/>
	<path class="st21" d="M27.25,38.64c0,1.74-0.57,3.18-1.72,4.33c-1.22,1.22-2.82,1.84-4.8,1.84l-3.8,0.01l0.01,7.43l-3.86,0
		L13.06,32.5l7.66-0.01c1.98,0,3.58,0.61,4.8,1.82C26.67,35.46,27.24,36.91,27.25,38.64 M23.39,38.65c0-0.81-0.26-1.47-0.78-1.97
		c-0.52-0.5-1.21-0.75-2.08-0.75l-3.6,0.01l0.01,5.41l3.6-0.01c0.87,0,1.56-0.24,2.08-0.72C23.13,40.12,23.39,39.46,23.39,38.65"/>
	<path class="st19" d="M33.87,52.23l-3.86,0l-0.02-19.75l3.86-0.01L33.87,52.23z M33.9,30.95l-3.86,0.01l0-2.47l3.86-0.01
		L33.9,30.95z"/>
	<polygon class="st19" points="51.93,32.45 46.01,44.11 46.02,52.21 42.19,52.22 42.18,44.12 36.23,32.47 40.42,32.47 44.12,40.43 
		47.74,32.46 	"/>
	<path class="st19" d="M66.37,52.19l-4.02,0.01l-1.17-3.49l-7.02,0.01l-1.19,3.5l-4.02,0.01l7.16-19.76l3.02,0L66.37,52.19z
		 M60.15,45.45l-2.42-7.18l-2.49,7.19L60.15,45.45z"/>
	<polygon class="st19" points="81.63,52.17 68.82,52.19 68.79,32.43 72.65,32.43 72.67,48.74 81.63,48.73 	"/>
	<polygon class="st19" points="97.78,52.15 84.77,52.16 84.74,32.41 97.76,32.4 97.76,35.83 88.6,35.85 88.61,40.48 96.41,40.47 
		96.41,43.91 88.61,43.92 88.62,48.72 97.78,48.71 	"/>
	<path class="st21" d="M115.96,38.53c0,1.74-0.57,3.18-1.71,4.33c-1.22,1.22-2.82,1.84-4.8,1.84l-3.8,0.01l0.01,7.43l-3.85,0
		l-0.03-19.75l7.66-0.01c1.98,0,3.58,0.61,4.8,1.83C115.38,35.35,115.96,36.79,115.96,38.53 M112.11,38.54
		c0-0.81-0.26-1.47-0.78-1.97c-0.52-0.5-1.21-0.75-2.08-0.75l-3.61,0.01l0.01,5.41l3.61-0.01c0.87,0,1.56-0.24,2.08-0.72
		C111.85,40.01,112.11,39.35,112.11,38.54"/>
	<path class="st19" d="M132.35,52.1l-4.02,0.01l-1.17-3.49l-7.02,0.01l-1.19,3.5l-4.02,0.01l7.16-19.76l3.02,0L132.35,52.1z
		 M126.13,45.37l-2.42-7.18l-2.49,7.19L126.13,45.37z"/>
	<path class="st19" d="M142.56,54.82l-3.3,0l0-2.61c-2.35-0.2-4.26-1.05-5.75-2.54l2.5-2.5c1.11,1.11,2.7,1.66,4.77,1.66
		c2.33,0,3.49-0.82,3.49-2.45c0-0.74-0.2-1.29-0.58-1.64c-0.39-0.37-0.98-0.61-1.78-0.72l-2.39-0.33c-3.5-0.48-5.25-2.32-5.25-5.52
		c0-1.79,0.62-3.24,1.86-4.33c1.24-1.11,2.91-1.67,5.02-1.67c2.66,0,4.79,0.76,6.38,2.29l-2.44,2.42c-0.95-0.91-2.3-1.36-4.05-1.35
		c-0.98,0-1.74,0.24-2.28,0.72c-0.52,0.46-0.78,1.05-0.77,1.78c0,0.57,0.21,1.05,0.61,1.44c0.43,0.39,1.03,0.64,1.81,0.75l2.33,0.33
		c1.68,0.24,2.94,0.75,3.77,1.52c1.02,0.96,1.53,2.36,1.53,4.19c0,1.57-0.5,2.88-1.5,3.91c-1,1.02-2.33,1.67-3.99,1.95L142.56,54.82
		z"/>
	<path class="st19" d="M166.95,52.06l-4.02,0.01l-1.17-3.49l-7.02,0.01l-1.19,3.5l-4.02,0.01l7.16-19.76l3.02,0L166.95,52.06z
		 M160.73,45.33l-2.42-7.18l-2.49,7.19L160.73,45.33z"/>
</g>
</svg>
