<?xml version="1.0" encoding="utf-8"?>
<!-- Generator: Adobe Illustrator 23.1.1, SVG Export Plug-In . SVG Version: 6.00 Build 0)  -->
<svg version="1.1" id="Layer_1" xmlns="http://www.w3.org/2000/svg" xmlns:xlink="http://www.w3.org/1999/xlink" x="0px" y="0px"
	 viewBox="0 0 180 100" style="enable-background:new 0 0 180 100;" xml:space="preserve">
<style type="text/css">
	.st0{clip-path:url(#SVGID_2_);fill:#FFFFFF;}
	.st1{clip-path:url(#SVGID_2_);fill:none;stroke:#2A2523;stroke-width:1.2;stroke-miterlimit:10;}
	.st2{clip-path:url(#SVGID_2_);fill:#2A2523;}
	.st3{clip-path:url(#SVGID_2_);fill:#E32B27;}
	.st4{clip-path:url(#SVGID_4_);fill:#FFFFFF;}
	.st5{clip-path:url(#SVGID_4_);fill:none;stroke:#2A2523;stroke-width:1.2;stroke-miterlimit:10;}
	.st6{clip-path:url(#SVGID_4_);fill:#3AA9E0;}
	.st7{clip-path:url(#SVGID_4_);fill:#2A2523;}
	.st8{clip-path:url(#SVGID_6_);fill:#FFFFFF;}
	.st9{clip-path:url(#SVGID_6_);fill:none;stroke:#2A2523;stroke-width:1.2;stroke-miterlimit:10;}
	.st10{clip-path:url(#SVGID_6_);fill:#2F3080;}
	.st11{clip-path:url(#SVGID_6_);fill:#2A2523;}
	.st12{fill:#1D1C1A;}
	.st13{clip-path:url(#SVGID_8_);}
	.st14{clip-path:url(#SVGID_10_);}
	.st15{clip-path:url(#SVGID_12_);}
	.st16{clip-path:url(#SVGID_14_);}
	.st17{clip-path:url(#SVGID_16_);}
	.st18{clip-path:url(#SVGID_18_);}
	.st19{fill-rule:evenodd;clip-rule:evenodd;fill:#5B6770;}
	.st20{fill:none;stroke:#5B6770;stroke-width:1.8792;stroke-miterlimit:3.864;}
	.st21{fill-rule:evenodd;clip-rule:evenodd;fill:#79242F;}
	.st22{fill-rule:evenodd;clip-rule:evenodd;fill:#253A75;}
	.st23{fill:none;stroke:#253A75;stroke-width:0.132;stroke-miterlimit:3.864;}
	.st24{fill:#253A75;}
	.st25{fill:#002F3B;}
	.st26{fill:#A69E88;stroke:#A69E88;stroke-width:0.3401;stroke-miterlimit:10;}
	.st27{fill-rule:evenodd;clip-rule:evenodd;fill:#1D1C1A;}
	.st28{fill-rule:evenodd;clip-rule:evenodd;fill:#A5D0E6;}
	.st29{fill-rule:evenodd;clip-rule:evenodd;fill:#FFFFFF;}
	.st30{fill:#002D3A;}
	.st31{clip-path:url(#SVGID_20_);fill:#002E3A;}
	.st32{clip-path:url(#SVGID_20_);fill:#B68D4A;}
	.st33{fill:#B68D4A;}
	.st34{clip-path:url(#SVGID_22_);fill:#B68D4A;}
	.st35{fill:#BC955C;}
	.st36{fill:#A79F88;}
	.st37{fill:#00303C;stroke:#25A9E0;stroke-width:0.6856;stroke-dasharray:3.6133,3.6133;}
	.st38{fill:#00303C;}
	.st39{fill:#41695B;}
	.st40{fill:#907E63;}
	.st41{fill:#804951;}
	.st42{fill:#894B52;}
	.st43{fill:#42695B;stroke:#42695B;stroke-width:0.3;stroke-miterlimit:10;}
	.st44{fill:#231F20;}
	.st45{fill-rule:evenodd;clip-rule:evenodd;fill:#ADAFB1;}
	.st46{fill-rule:evenodd;clip-rule:evenodd;fill:#CFD0D2;stroke:#CFD0D2;stroke-width:0;stroke-miterlimit:3.8637;}
	.st47{fill-rule:evenodd;clip-rule:evenodd;fill:#ADAFB1;stroke:#ADAFB1;stroke-width:0;stroke-miterlimit:3.8637;}
	.st48{fill-rule:evenodd;clip-rule:evenodd;fill:#7A7C7F;stroke:#7A7C7F;stroke-width:0;stroke-miterlimit:3.8637;}
	.st49{fill-rule:evenodd;clip-rule:evenodd;fill:#BDBFC1;stroke:#BDBFC1;stroke-width:0;stroke-miterlimit:3.8637;}
	.st50{fill-rule:evenodd;clip-rule:evenodd;fill:none;stroke:#231F20;stroke-width:0.2422;stroke-miterlimit:3.8637;}
	.st51{fill-rule:evenodd;clip-rule:evenodd;fill:#B1B3B5;stroke:#B1B3B5;stroke-width:0;stroke-miterlimit:3.8637;}
	.st52{clip-path:url(#SVGID_24_);}
	.st53{clip-path:url(#SVGID_26_);}
	.st54{fill:#ADAFB1;}
	.st55{clip-path:url(#SVGID_28_);}
	.st56{fill:#FFFFFF;}
	.st57{fill:#F5F5F6;}
	.st58{fill:#EFF0F0;}
	.st59{fill:#E9EAEB;}
	.st60{fill:#E2E3E4;}
	.st61{fill:#DDDEDF;}
	.st62{fill:#D7D8DA;}
	.st63{fill:#D1D2D4;}
	.st64{fill:#CACCCE;}
	.st65{fill:#C4C6C8;}
	.st66{fill:#BFC1C3;}
	.st67{fill:#B8BABC;}
	.st68{fill:#B2B4B7;}
	.st69{clip-path:url(#SVGID_30_);}
	.st70{clip-path:url(#SVGID_32_);}
</style>
<g>
	<g>
		<defs>
			<rect id="SVGID_5_" x="2.63" y="30.75" width="174.74" height="38.5"/>
		</defs>
		<clipPath id="SVGID_2_">
			<use xlink:href="#SVGID_5_"  style="overflow:visible;"/>
		</clipPath>
		
			<rect x="3.19" y="31.4" transform="matrix(1 -1.272338e-03 1.272338e-03 1 -0.0635 0.1146)" class="st0" width="173.62" height="37.2"/>
		
			<rect x="3.19" y="31.4" transform="matrix(1 -1.272338e-03 1.272338e-03 1 -0.0635 0.1146)" class="st1" width="173.62" height="37.2"/>
		<path style="clip-path:url(#SVGID_2_);fill:#2F3080;" d="M55.33,45.41c0.96,0.91,1.35,1.26,1.35,1.75c0,0.56-0.57,0.97-0.97,0.97
			L44.6,48.15c0.36-0.16,4.53-0.39,4.45-3.29c-0.04-1.53-1.49-2.59-3.03-2.65c-2.03-0.08-5.68,1.99-5.59,6.99
			c0.04,2.22,1.97,5.1,4.55,5.1c2.7,0.01,4.69-5.03,7.11-5.04l4.93-0.01L46.31,60c-0.59,0.59-1.53,0.59-2.12,0L33.46,49.3
			c-0.59-0.58-0.59-1.53,0-2.12l10.71-10.74c0.58-0.59,1.53-0.59,2.12,0L55.33,45.41z"/>
		<polygon class="st2" points="68.24,45.23 65,45.23 65,47.05 67.72,47.05 67.72,49.78 65.01,49.78 65.01,51.59 68.44,51.58 
			68.44,54.29 62.83,54.29 62.82,42.5 68.24,42.5 		"/>
		<polygon class="st2" points="86.7,45.22 83.45,45.22 83.45,47.04 86.17,47.03 86.17,49.77 83.46,49.77 83.46,51.57 86.88,51.57 
			86.89,54.27 81.28,54.28 81.27,42.49 86.69,42.48 		"/>
		<path class="st2" d="M75.92,53.99c-0.39,0.4-0.88,0.61-1.46,0.61c-0.95,0-1.73-0.54-2.34-1.63c-0.64-1.09-0.95-2.59-0.96-4.49
			c0-1.91,0.31-3.45,0.95-4.62c0.64-1.16,1.48-1.74,2.53-1.74c0.91,0,1.64,0.38,2.2,1.15c0.56,0.76,0.87,1.7,0.96,2.85l0,0.47
			l-1.98,0c-0.08-0.63-0.27-1.07-0.57-1.33c-0.16-0.14-0.35-0.21-0.56-0.21c-0.39,0-0.71,0.28-0.96,0.85
			c-0.25,0.56-0.37,1.41-0.37,2.55c0,1.14,0.14,1.95,0.41,2.43c0.27,0.47,0.58,0.7,0.93,0.71c0.34,0,0.68-0.18,0.9-0.56
			c0.13-0.22,0.2-0.48,0.25-0.78l-0.32-0.01l-0.53,0l0-2.46l2.93,0l0.01,6.5l-1.34,0l-0.27-0.78C76.2,53.69,76.07,53.84,75.92,53.99
			"/>
		<path class="st2" d="M107.68,43.67l1.49,0c0.61,0,1.84-0.03,1.87,2c0.02,2.05-1,2.18-1.71,2.17l-1.65,0L107.68,43.67z
			 M111.28,48.07c0.3-0.43,0.68-1.4,0.7-2.3c0.05-2.71-1.17-3.35-2.89-3.35l-2.38,0l0.02,11.76l0.97,0l-0.01-5.03l1.8,0
			c1.07,0,1.4,0.86,1.4,2.03c0,0.78,0.09,2.24,0.29,3l1.06,0v-0.27c-0.22,0-0.28-0.52-0.32-0.74c-0.09-0.88-0.08-1.74-0.12-2.62
			c-0.09-1.11-0.08-1.59-0.79-2.08L111.28,48.07z"/>
		<path class="st2" d="M114.74,54.18l1.01,0l0.6-3.39l2.59,0l0.65,3.39l1,0l-2.39-11.76l-1.08,0L114.74,54.18z M118.72,49.49
			l-2.16,0l1.1-5.03L118.72,49.49z"/>
		<path class="st2" d="M126.46,52.31l-1.85-9.93l-1.29,0l0.02,11.76l0.91,0l-0.01-8.94c-0.01,0,1.73,8.94,1.73,8.94l0.99,0
			c0,0,1.77-8.97,1.76-8.98l0.01,8.97l0.89,0l-0.02-11.76l-1.26,0L126.46,52.31z"/>
		<path class="st2" d="M134.05,41.89l0-1.35l-0.93,0l0,1.35L134.05,41.89z M134.1,54.14l-0.02-11.76l-0.97,0l0.02,11.76L134.1,54.14
			z"/>
		<polygon class="st2" points="138.45,54.13 138.44,50.05 139.44,48.38 141.7,54.13 142.76,54.13 140.06,47.29 142.78,42.36 
			141.77,42.36 138.43,48.19 138.42,42.37 137.51,42.37 137.53,54.13 		"/>
		<path class="st2" d="M94.94,45.73c0.08-2.21-0.96-3.53-2.46-3.53c-1.33,0-2.35,1.27-2.34,3.22c0,1.16,0.26,2.17,1.04,2.73
			c0.44,0.33,1.16,0.59,1.61,0.84c0.83,0.45,1.4,0.47,1.4,2.26c0,1.38-0.71,2.05-1.62,2.06c-1.37,0-1.72-1.09-1.68-2.84l-0.91,0
			c0.01,0.63,0.12,1.57,0.3,2.15c0.47,1.54,1.43,1.87,2.25,1.87c1.57,0,2.67-1.3,2.66-3.53c0-1.55-0.41-2.34-1.96-3.17
			c-0.44-0.24-0.87-0.4-1.3-0.64c-0.53-0.28-0.84-0.85-0.84-1.66c0-0.91,0.2-2.1,1.53-2.11c0.91,0,1.49,1.13,1.42,2.35L94.94,45.73z
			"/>
		<polygon class="st2" points="103.33,54.19 103.33,52.9 99.51,52.91 99.51,48.8 103.11,48.8 103.11,47.49 99.51,47.49 99.5,43.72 
			103.3,43.72 103.3,42.42 98.53,42.43 98.55,54.19 		"/>
		<path class="st2" d="M62.38,58.16l0-0.58l0.62,0v0.59H62.38z M62.42,62.8l-0.01-4.11l0.57,0l0,4.11L62.42,62.8z"/>
		<path class="st2" d="M66.41,62.89c-0.42-0.03-0.74-0.2-0.96-0.51c-0.25-0.35-0.37-0.89-0.37-1.62c0-0.76,0.12-1.32,0.36-1.65
			c0.25-0.34,0.64-0.51,1.18-0.51c0.45,0,0.8,0.11,1.04,0.33c0.25,0.22,0.37,0.53,0.37,0.93v0.05l-0.53,0c0-0.28-0.08-0.5-0.24-0.66
			C67.11,59.08,66.89,59,66.62,59c-0.33,0-0.57,0.14-0.72,0.41c-0.15,0.27-0.23,0.72-0.22,1.35c0,0.31,0.02,0.57,0.06,0.79
			c0.04,0.22,0.09,0.39,0.17,0.53c0.15,0.26,0.41,0.39,0.76,0.39c0.28,0,0.5-0.1,0.65-0.29c0.15-0.19,0.23-0.47,0.23-0.82v-0.06
			h0.55c0,0.26-0.03,0.48-0.1,0.68c-0.06,0.2-0.16,0.37-0.29,0.51c-0.12,0.13-0.27,0.23-0.44,0.3c-0.17,0.07-0.37,0.11-0.59,0.11
			v0.17h0.02c0.2,0,0.37,0.04,0.49,0.12c0.12,0.08,0.18,0.2,0.18,0.34c0,0.17-0.07,0.3-0.2,0.39c-0.13,0.09-0.33,0.13-0.59,0.13
			c-0.09,0-0.18-0.01-0.28-0.02c-0.1-0.01-0.2-0.03-0.3-0.05v-0.27l0.05,0.01c0.28,0.04,0.46,0.06,0.52,0.06
			c0.12,0,0.21-0.02,0.26-0.06c0.06-0.04,0.09-0.09,0.09-0.16c0-0.07-0.03-0.13-0.09-0.17c-0.07-0.04-0.15-0.06-0.27-0.06h-0.04
			l-0.07,0.01L66.41,62.89z"/>
		<polygon class="st2" points="73.85,62.79 72.84,59.72 73.41,59.72 74.14,62.13 74.89,59.72 75.44,59.72 74.41,62.79 		"/>
		<path class="st2" d="M78.95,61.74l0.51,0c0,0.36-0.1,0.64-0.3,0.84c-0.19,0.19-0.48,0.29-0.84,0.29c-0.4,0-0.69-0.13-0.88-0.39
			c-0.19-0.26-0.29-0.66-0.29-1.2c0-0.57,0.09-0.99,0.28-1.26c0.19-0.27,0.49-0.4,0.89-0.4c0.38,0,0.67,0.11,0.86,0.34
			c0.19,0.23,0.29,0.57,0.29,1.03l-0.01,0.16l-0.01,0.1l-1.77,0l0,0.14c0,0.39,0.05,0.67,0.16,0.85c0.1,0.18,0.28,0.26,0.51,0.26
			c0.18,0,0.32-0.07,0.43-0.2c0.11-0.13,0.16-0.31,0.16-0.54V61.74z M77.69,60.92l1.26,0v-0.08c0-0.15-0.01-0.27-0.04-0.37
			c-0.02-0.1-0.06-0.19-0.12-0.26c-0.1-0.14-0.25-0.22-0.45-0.22c-0.22,0-0.39,0.08-0.5,0.23C77.74,60.37,77.69,60.6,77.69,60.92"/>
		<path class="st2" d="M84.48,62.77l-0.01-4.11l1.4,0c0.56,0,0.97,0.15,1.24,0.47c0.27,0.31,0.4,0.79,0.4,1.45
			c0,0.46-0.05,0.85-0.14,1.15c-0.09,0.3-0.23,0.54-0.43,0.71c-0.13,0.12-0.28,0.21-0.45,0.26c-0.17,0.05-0.42,0.08-0.74,0.08
			L84.48,62.77z M85.04,62.38l0.72,0c0.23,0,0.41-0.02,0.54-0.06c0.13-0.04,0.23-0.1,0.3-0.19c0.12-0.14,0.2-0.32,0.25-0.52
			c0.05-0.21,0.08-0.51,0.08-0.89c0-0.66-0.09-1.1-0.25-1.33c-0.17-0.22-0.48-0.34-0.94-0.34l-0.7,0L85.04,62.38z"/>
		
			<rect x="89.63" y="58.66" transform="matrix(1 -1.312587e-03 1.312587e-03 1 -0.0796 0.1181)" class="st2" width="0.57" height="4.11"/>
		<path class="st2" d="M93.59,62.85c-0.2,0-0.38-0.03-0.54-0.08c-0.16-0.05-0.29-0.13-0.41-0.23c-0.23-0.21-0.35-0.53-0.35-0.94
			l0-0.07v-0.07l0.53,0v0.15c0,0.28,0.08,0.48,0.23,0.63c0.15,0.15,0.39,0.22,0.69,0.22c0.28,0,0.49-0.07,0.65-0.21
			c0.16-0.14,0.24-0.33,0.24-0.57c0-0.19-0.05-0.34-0.14-0.44c-0.1-0.1-0.31-0.21-0.65-0.31l-0.33-0.1
			c-0.4-0.12-0.64-0.21-0.73-0.27c-0.14-0.1-0.24-0.22-0.31-0.36c-0.07-0.14-0.1-0.3-0.1-0.48c0-0.35,0.12-0.63,0.35-0.84
			c0.24-0.2,0.57-0.3,0.99-0.3c0.4,0,0.72,0.09,0.95,0.28c0.23,0.19,0.34,0.44,0.35,0.77v0.05v0.05H94.5v-0.04
			c0-0.23-0.07-0.41-0.21-0.53c-0.14-0.12-0.33-0.19-0.58-0.19c-0.26,0-0.47,0.06-0.61,0.18c-0.15,0.12-0.22,0.28-0.22,0.49
			c0,0.19,0.05,0.34,0.15,0.45c0.1,0.11,0.32,0.21,0.66,0.31l0.18,0.06c0.52,0.16,0.83,0.27,0.93,0.35
			c0.12,0.09,0.21,0.21,0.27,0.34c0.03,0.07,0.05,0.14,0.07,0.22c0.01,0.08,0.02,0.17,0.02,0.27c0,0.39-0.13,0.69-0.39,0.91
			c-0.12,0.1-0.26,0.18-0.41,0.24c-0.16,0.05-0.33,0.09-0.52,0.09v0.19h0.02c0.21,0,0.37,0.04,0.49,0.12
			c0.12,0.08,0.18,0.2,0.18,0.34c0,0.17-0.06,0.3-0.2,0.39c-0.14,0.09-0.33,0.13-0.59,0.13c-0.09,0-0.18-0.01-0.28-0.02
			c-0.1-0.01-0.2-0.03-0.31-0.05v-0.27l0.05,0.01c0.28,0.04,0.46,0.06,0.52,0.06c0.12,0,0.2-0.02,0.27-0.06
			c0.06-0.04,0.09-0.09,0.09-0.16c0-0.07-0.03-0.13-0.1-0.17c-0.06-0.04-0.15-0.06-0.26-0.06h-0.05l-0.07,0.01L93.59,62.85z"/>
		<polygon class="st2" points="101.13,62.75 101.13,59.06 99.86,59.07 99.86,58.65 102.88,58.64 102.88,59.06 101.69,59.06 
			101.7,62.75 		"/>
		<path class="st2" d="M104.7,58.1l0-0.58l0.62,0v0.59H104.7z M104.73,62.75l-0.01-4.11l0.57,0l0,4.11L104.73,62.75z"/>
		<path class="st2" d="M109.85,61.24l0.55,0c0,0.26-0.03,0.49-0.1,0.68c-0.07,0.2-0.16,0.37-0.29,0.51
			c-0.25,0.28-0.62,0.41-1.1,0.41c-0.51,0-0.89-0.17-1.13-0.52c-0.25-0.35-0.38-0.89-0.38-1.62c0-0.76,0.12-1.32,0.36-1.65
			c0.24-0.34,0.63-0.51,1.18-0.51c0.45,0,0.79,0.11,1.04,0.33c0.25,0.22,0.37,0.53,0.37,0.93v0.05l-0.53,0
			c0-0.28-0.08-0.5-0.24-0.66c-0.16-0.16-0.37-0.24-0.65-0.24c-0.33,0-0.57,0.14-0.72,0.41c-0.15,0.27-0.23,0.72-0.22,1.35
			c0,0.31,0.02,0.57,0.06,0.79c0.04,0.22,0.1,0.39,0.17,0.53c0.15,0.26,0.4,0.39,0.75,0.39c0.28,0,0.5-0.1,0.65-0.29
			c0.15-0.19,0.23-0.47,0.23-0.82V61.24z"/>
		<path class="st2" d="M112.2,62.74l1.35-4.11l0.7,0l1.38,4.11l-0.56,0l-0.38-1.19l-1.57,0l-0.36,1.19L112.2,62.74z M113.24,61.14
			l1.32,0l-0.66-2.15L113.24,61.14z"/>
		<path class="st2" d="M117.49,62.73l-0.01-4.11l1.39,0c0.51,0,0.89,0.09,1.14,0.26c0.25,0.17,0.37,0.44,0.37,0.8
			c0,0.27-0.07,0.49-0.22,0.66c-0.15,0.17-0.38,0.28-0.69,0.35c0.13,0,0.25,0.02,0.35,0.06c0.1,0.04,0.19,0.09,0.26,0.16
			c0.13,0.13,0.22,0.33,0.25,0.59l0.03,0.41c0,0.21,0.03,0.39,0.08,0.53c0.05,0.14,0.11,0.24,0.19,0.29l-0.69,0
			c-0.04-0.05-0.07-0.13-0.09-0.25c-0.03-0.12-0.04-0.25-0.04-0.42c0-0.09,0-0.17-0.01-0.25c-0.01-0.08-0.02-0.14-0.02-0.17
			c-0.03-0.28-0.12-0.48-0.27-0.58c-0.15-0.1-0.41-0.16-0.79-0.16l-0.71,0l0,1.82H117.49z M118.02,60.51l0.67,0
			c0.38,0,0.66-0.06,0.85-0.19c0.18-0.12,0.27-0.32,0.27-0.58c0-0.25-0.08-0.43-0.24-0.55c-0.16-0.12-0.42-0.17-0.78-0.17l-0.78,0
			L118.02,60.51z"/>
		<polygon class="st2" points="122.65,62.73 122.65,58.62 125.1,58.61 125.11,59.04 123.19,59.04 123.19,60.37 124.98,60.36 
			124.98,60.78 123.2,60.78 123.2,62.29 125.13,62.29 125.13,62.72 		"/>
		<polygon class="st2" points="128.12,62.72 128.11,59.03 126.85,59.03 126.85,58.61 129.86,58.61 129.87,59.03 128.68,59.03 
			128.68,62.72 		"/>
		<path class="st2" d="M134.34,62.71l1.34-4.11l0.7,0l1.38,4.11l-0.56,0l-0.38-1.19l-1.57,0l-0.36,1.19L134.34,62.71z M135.38,61.11
			l1.32,0l-0.66-2.15L135.38,61.11z"/>
		<path class="st2" d="M140.81,62.79c-0.2,0-0.38-0.03-0.54-0.08c-0.16-0.05-0.29-0.13-0.41-0.23c-0.23-0.21-0.35-0.53-0.35-0.94
			v-0.07V61.4l0.53,0v0.15c0,0.28,0.08,0.48,0.24,0.63c0.15,0.15,0.39,0.22,0.69,0.22c0.28,0,0.49-0.07,0.65-0.21
			c0.16-0.14,0.24-0.33,0.23-0.57c0-0.19-0.05-0.34-0.14-0.44c-0.09-0.1-0.31-0.21-0.65-0.31l-0.34-0.1
			c-0.4-0.12-0.64-0.21-0.73-0.27c-0.14-0.1-0.24-0.22-0.31-0.36c-0.07-0.14-0.1-0.3-0.1-0.48c0-0.35,0.12-0.63,0.35-0.84
			c0.24-0.2,0.57-0.3,0.99-0.3c0.4,0,0.72,0.09,0.95,0.28c0.23,0.19,0.35,0.44,0.35,0.77v0.05v0.05h-0.51v-0.04
			c0-0.23-0.07-0.41-0.21-0.53c-0.14-0.12-0.33-0.19-0.58-0.19c-0.26,0-0.47,0.06-0.62,0.18c-0.14,0.12-0.22,0.28-0.22,0.49
			c0,0.19,0.05,0.34,0.15,0.45c0.1,0.11,0.32,0.21,0.67,0.31l0.18,0.06c0.52,0.16,0.83,0.27,0.93,0.35
			c0.12,0.09,0.21,0.21,0.27,0.34c0.03,0.07,0.05,0.14,0.07,0.22c0.01,0.08,0.02,0.17,0.02,0.27c0,0.39-0.13,0.69-0.39,0.91
			c-0.12,0.1-0.26,0.18-0.41,0.24c-0.16,0.05-0.33,0.09-0.52,0.09v0.19h0.02c0.21,0,0.37,0.04,0.49,0.12
			c0.12,0.08,0.18,0.2,0.18,0.34c0,0.17-0.07,0.3-0.2,0.39c-0.13,0.09-0.33,0.13-0.59,0.13c-0.09,0-0.18-0.01-0.28-0.02
			c-0.1-0.01-0.2-0.03-0.3-0.05v-0.27l0.05,0.01c0.28,0.04,0.46,0.06,0.52,0.06c0.12,0,0.2-0.02,0.26-0.06
			c0.06-0.04,0.09-0.09,0.09-0.16c0-0.07-0.03-0.13-0.09-0.17c-0.06-0.04-0.15-0.06-0.27-0.06h-0.04l-0.08,0.01V62.79z"/>
		
			<rect x="144.56" y="62.14" transform="matrix(1 -1.987835e-03 1.987835e-03 1 -0.1238 0.2881)" class="st2" width="0.59" height="0.56"/>
	</g>
</g>
</svg>
