<?xml version="1.0" encoding="utf-8"?>
<!-- Generator: Adobe Illustrator 23.1.1, SVG Export Plug-In . SVG Version: 6.00 Build 0)  -->
<svg version="1.1" id="Layer_1" xmlns="http://www.w3.org/2000/svg" xmlns:xlink="http://www.w3.org/1999/xlink" x="0px" y="0px"
	 viewBox="0 0 180 100" style="enable-background:new 0 0 180 100;" xml:space="preserve">
<style type="text/css">
	.st0{clip-path:url(#SVGID_2_);fill:#FFFFFF;}
	.st1{clip-path:url(#SVGID_2_);fill:none;stroke:#2A2523;stroke-width:1.2;stroke-miterlimit:10;}
	.st2{clip-path:url(#SVGID_2_);fill:#2A2523;}
	.st3{clip-path:url(#SVGID_2_);fill:#E32B27;}
	.st4{clip-path:url(#SVGID_4_);fill:#FFFFFF;}
	.st5{clip-path:url(#SVGID_4_);fill:none;stroke:#2A2523;stroke-width:1.2;stroke-miterlimit:10;}
	.st6{clip-path:url(#SVGID_4_);fill:#3AA9E0;}
	.st7{clip-path:url(#SVGID_4_);fill:#2A2523;}
	.st8{clip-path:url(#SVGID_6_);fill:#FFFFFF;}
	.st9{clip-path:url(#SVGID_6_);fill:none;stroke:#2A2523;stroke-width:1.2;stroke-miterlimit:10;}
	.st10{clip-path:url(#SVGID_6_);fill:#2F3080;}
	.st11{clip-path:url(#SVGID_6_);fill:#2A2523;}
	.st12{fill:#1D1C1A;}
	.st13{clip-path:url(#SVGID_8_);}
	.st14{clip-path:url(#SVGID_10_);}
	.st15{clip-path:url(#SVGID_12_);}
	.st16{clip-path:url(#SVGID_14_);}
	.st17{clip-path:url(#SVGID_16_);}
	.st18{clip-path:url(#SVGID_18_);}
	.st19{fill-rule:evenodd;clip-rule:evenodd;fill:#5B6770;}
	.st20{fill:none;stroke:#5B6770;stroke-width:1.8792;stroke-miterlimit:3.864;}
	.st21{fill-rule:evenodd;clip-rule:evenodd;fill:#79242F;}
	.st22{fill-rule:evenodd;clip-rule:evenodd;fill:#253A75;}
	.st23{fill:none;stroke:#253A75;stroke-width:0.132;stroke-miterlimit:3.864;}
	.st24{fill:#253A75;}
	.st25{fill:#002F3B;}
	.st26{fill:#A69E88;stroke:#A69E88;stroke-width:0.3401;stroke-miterlimit:10;}
	.st27{fill-rule:evenodd;clip-rule:evenodd;fill:#1D1C1A;}
	.st28{fill-rule:evenodd;clip-rule:evenodd;fill:#A5D0E6;}
	.st29{fill-rule:evenodd;clip-rule:evenodd;fill:#FFFFFF;}
	.st30{fill:#002D3A;}
	.st31{clip-path:url(#SVGID_20_);fill:#002E3A;}
	.st32{clip-path:url(#SVGID_20_);fill:#B68D4A;}
	.st33{fill:#B68D4A;}
	.st34{clip-path:url(#SVGID_22_);fill:#B68D4A;}
	.st35{fill:#BC955C;}
	.st36{fill:#A79F88;}
	.st37{fill:#00303C;stroke:#25A9E0;stroke-width:0.6856;stroke-dasharray:3.6133,3.6133;}
	.st38{fill:#00303C;}
	.st39{fill:#41695B;}
	.st40{fill:#907E63;}
	.st41{fill:#804951;}
	.st42{fill:#894B52;}
	.st43{fill:#42695B;stroke:#42695B;stroke-width:0.3;stroke-miterlimit:10;}
	.st44{fill:#231F20;}
	.st45{fill-rule:evenodd;clip-rule:evenodd;fill:#ADAFB1;}
	.st46{fill-rule:evenodd;clip-rule:evenodd;fill:#CFD0D2;stroke:#CFD0D2;stroke-width:0;stroke-miterlimit:3.8637;}
	.st47{fill-rule:evenodd;clip-rule:evenodd;fill:#ADAFB1;stroke:#ADAFB1;stroke-width:0;stroke-miterlimit:3.8637;}
	.st48{fill-rule:evenodd;clip-rule:evenodd;fill:#7A7C7F;stroke:#7A7C7F;stroke-width:0;stroke-miterlimit:3.8637;}
	.st49{fill-rule:evenodd;clip-rule:evenodd;fill:#BDBFC1;stroke:#BDBFC1;stroke-width:0;stroke-miterlimit:3.8637;}
	.st50{fill-rule:evenodd;clip-rule:evenodd;fill:none;stroke:#231F20;stroke-width:0.2422;stroke-miterlimit:3.8637;}
	.st51{fill-rule:evenodd;clip-rule:evenodd;fill:#B1B3B5;stroke:#B1B3B5;stroke-width:0;stroke-miterlimit:3.8637;}
	.st52{clip-path:url(#SVGID_24_);}
	.st53{clip-path:url(#SVGID_26_);}
	.st54{fill:#ADAFB1;}
	.st55{clip-path:url(#SVGID_28_);}
	.st56{fill:#FFFFFF;}
	.st57{fill:#F5F5F6;}
	.st58{fill:#EFF0F0;}
	.st59{fill:#E9EAEB;}
	.st60{fill:#E2E3E4;}
	.st61{fill:#DDDEDF;}
	.st62{fill:#D7D8DA;}
	.st63{fill:#D1D2D4;}
	.st64{fill:#CACCCE;}
	.st65{fill:#C4C6C8;}
	.st66{fill:#BFC1C3;}
	.st67{fill:#B8BABC;}
	.st68{fill:#B2B4B7;}
	.st69{clip-path:url(#SVGID_30_);}
	.st70{clip-path:url(#SVGID_32_);}
</style>
<g>
	<g>
		<g>
			<g>
				<path class="st44" d="M108.66,57.02h-1.79l-4.88,13.34l1.82,0.04l1.57-4.14h4.16h0.61l1.64,4.1h1.81L108.66,57.02z
					 M106.69,64.96h-0.86l1.27-4.13l0.69-2.03l0.64,2.03l1.39,4.13H106.69z"/>
			</g>
			<path class="st44" d="M57.07,65.98l0.05,2.12h-0.07l-1.09-2.08l-5.87-9h-1.94v13.31h1.79l0.02-8.96l-0.06-2.12h0.04l1.12,2.08
				l5.83,8.99h1.94V57.02h-1.79L57.07,65.98z M30.48,66.36c-0.27-0.9-0.6-1.7-1.19-2.23c0.78-0.21,1.43-0.61,1.94-1.21
				c0.6-0.7,0.9-1.5,0.9-2.42c0-0.93-0.32-1.73-0.96-2.39c-0.73-0.73-1.7-1.09-2.94-1.09h-5.84v13.31h1.79v-5.97h2.19l0.78-0.01
				c0.52,0.02,0.89,0.49,1.22,0.99c0.41,0.64,0.54,1.43,0.93,2.56c0.36,1.05,1.26,2.38,2.88,3l0.56-1.31
				C31.08,68.76,30.83,67.56,30.48,66.36z M27.84,63.06l-3.66,0.18v-5.06l4.08,0.16c0.66,0.02,1.17,0.25,1.54,0.66
				c0.36,0.42,0.54,0.92,0.54,1.51c0,0.67-0.22,1.25-0.66,1.73C29.23,62.74,28.62,63.01,27.84,63.06z M66.32,57.02l-4.88,13.34
				l1.81,0.04l1.58-4.14h4.16h0.61l1.64,4.1h1.81L68.1,57.02H66.32z M66.13,64.96h-0.85l1.27-4.13l0.69-2.03l0.64,2.03l1.39,4.13
				H66.13z M37.75,63.92l5.32,0.18v-1.4l-5.32,0.18v-4.75l6.8,0.2v-1.31h-8.59v13.31h8.77v-1.31l-6.98,0.2V63.92z M144.54,69.23
				v-5.31l5.32,0.18v-1.4l-5.32,0.18v-4.75l6.8,0.2v-1.31h-8.59v13.31h8.77v-1.31L144.54,69.23z M125.06,65.98l0.05,2.12h-0.07
				l-1.09-2.08l-5.86-9h-1.94v13.31h1.79l0.02-8.96l-0.06-2.12h0.04l1.12,2.08l5.83,8.99h1.94V57.02h-1.79L125.06,65.98z
				 M98.34,63.49c-1.24-0.67-2.22-0.66-3.32-1.01c-1.2-0.36-1.79-1.02-1.79-1.93c0-1.57,0.89-2.35,2.66-2.36
				c0.09,0,0.76,0.01,1.43,0.23c0.68,0.23,1.28,0.62,1.48,1.28l1.14-0.42c-0.4-1.26-1.43-1.83-2.27-2.11
				c-0.86-0.28-1.59-0.29-1.83-0.29c-2.39,0-4.25,1.24-4.25,3.66c0,1.41,0.55,2.24,1.79,2.92c1.23,0.68,2.22,0.66,3.32,0.99
				c1.19,0.42,1.78,1.18,1.78,2.3c0,0.84-0.33,1.47-0.98,1.88c-0.36,0.24-0.89,0.45-1.78,0.48c-1.74,0.04-2.8-1.09-2.94-1.56
				l-1.33,0.58c0.5,1.56,2.59,2.4,4.23,2.4c1,0,2.22-0.25,3-0.78c0.96-0.65,1.44-1.64,1.44-2.99
				C100.13,65.21,99.58,64.17,98.34,63.49z M87.2,63.49c-1.24-0.67-2.22-0.66-3.32-1.01c-1.19-0.36-1.79-1.02-1.79-1.93
				c0-1.57,0.89-2.35,2.67-2.36c0.09,0,0.76,0.01,1.43,0.23c0.68,0.23,1.27,0.62,1.47,1.28l1.14-0.42c-0.4-1.26-1.43-1.83-2.27-2.11
				c-0.86-0.28-1.59-0.29-1.84-0.29c-2.39,0-4.25,1.24-4.25,3.66c0,1.41,0.56,2.24,1.79,2.92c1.24,0.68,2.22,0.66,3.32,0.99
				c1.19,0.42,1.79,1.18,1.79,2.3c0,0.84-0.33,1.47-0.98,1.88c-0.37,0.24-0.89,0.45-1.79,0.48c-1.74,0.04-2.8-1.09-2.94-1.56
				l-1.32,0.58c0.5,1.56,2.59,2.4,4.23,2.4c1,0,2.22-0.25,3-0.78c0.96-0.65,1.44-1.64,1.44-2.99C88.99,65.21,88.43,64.17,87.2,63.49
				z M75.45,70.34h1.79V57.02h-1.79V70.34z M135.77,69.29c-0.52,0-2.39-0.26-3.01-1.39c-0.46-0.83-0.7-2.23-0.7-4.21
				c0-2.06,0.25-3.49,0.74-4.29c0.54-0.85,1.43-1.28,2.94-1.28c1.03,0,2.3,0.55,2.98,1.09l0.74-1.04c-0.16-0.12-1.76-1.4-3.83-1.4
				c-1.93,0-3.31,0.54-4.15,1.61c-0.84,1.08-1.25,2.85-1.25,5.31c0,2.34,0.39,4.06,1.15,5.16c1.02,1.46,2.52,1.79,4.27,1.79
				c1.97,0,3.47-1.13,3.83-1.4l-0.75-1.02C138.02,68.71,137.16,69.29,135.77,69.29z"/>
		</g>
		<g>
			<path class="st44" d="M155.53,61.1c-1.15,0-2.08-0.93-2.08-2.09c0-1.15,0.93-2.08,2.08-2.08c1.15,0,2.09,0.93,2.09,2.08
				C157.61,60.17,156.68,61.1,155.53,61.1z M155.53,57.24c-0.97,0-1.75,0.8-1.75,1.78c0,0.98,0.79,1.78,1.75,1.78
				c0.97,0,1.76-0.8,1.76-1.78C157.28,58.03,156.5,57.24,155.53,57.24z M156.04,60.16l-0.52-0.93h-0.34v0.93h-0.32v-2.29h0.78
				c0.4,0,0.72,0.3,0.72,0.69c0,0.33-0.21,0.54-0.49,0.63l0.55,0.97H156.04z M155.59,58.15h-0.43v0.8h0.43
				c0.25,0,0.43-0.17,0.43-0.4C156.02,58.32,155.85,58.15,155.59,58.15z"/>
		</g>
	</g>
	<path class="st44" d="M85.18,31.77c-1.17,0.02-1.61-0.04-2.77-0.04c-0.72-0.01-1.21-0.33-1.27-1.05c-0.16-1.98,0.01-2.48-0.07-5.89
		c-0.08-3.41,0.08-3.6,0-6.28c-0.02-0.67,0.57-0.9,1.24-0.96c1.07-0.08,0.98-0.07,1.99-0.07c0.89,0,2.07,0.1,3.33,0.58
		c0.78,0.3,1.47,0.84,1.96,1.42c0.88,1.08,1.62,2.52,1.63,5.12c0,1.25-0.01,1.58-0.32,2.59c-0.3,0.98-0.77,1.62-1.28,2.25
		c-0.54,0.66-1.21,1.05-1.94,1.52C86.91,31.41,86.28,31.75,85.18,31.77 M106.75,44.86c-0.09-0.05-0.37,0.04-0.52,0.1
		c-3.34,1.1-4.84,1.05-6.41,0.35c-2.96-1.33-3.84-3.21-4.72-5.01c-0.84-1.73-1.48-3.73-3.85-5.7c-1.16-0.97-2.82-1.47-3.55-1.87
		c1.7-0.25,2.93-0.81,3.84-1.28c0.89-0.47,1.38-0.85,2.02-1.52c0.64-0.67,1.41-1.91,1.65-2.87c0.57-2.37,0.33-3.34,0.23-4.24
		c-0.41-1.67-0.82-2.5-1.51-3.37c-1.45-1.83-4.1-2.53-5.46-2.87c-2.45-0.51-2.91-0.52-5.39-0.56c-2.26-0.04-2.64-0.07-6.19,0.02
		c-0.96,0.02-2.63,0.09-3.52,0.35c-0.34,0.13-0.29,0.68,0.04,0.82c1.73,0.72,2.34-0.78,2.61,1.08c0.43,2.96,0.31,3.12,0.39,6.5
		c0.09,3.39,0.01,3.39,0.1,6.77c0.08,3.38-0.04,3.39,0.04,6.77c0.02,0.6,0.19,5.14-0.35,6.44c-0.11,0.27-0.22,0.47-0.33,0.63
		c0,0,0,0,0,0.01c-0.15,0.24-0.33,0.5-1.08,0.53c-0.03,0-0.1,0.01-0.11,0.01l0,0c-0.62,0.03-0.88,0.08-0.91,0.08
		c-0.29,0.07-0.54,0.22-0.6,0.46c-0.14,0.57-0.05,0.65,0.63,0.69c0.68,0.04,2.57,0.03,5.56,0.02c1.89,0,2.46-0.02,3.33,0
		c0.25,0.02,0.57,0.02,0.8,0.02c0.31,0,0.93-0.02,1.44-0.05c0.33-0.03,0.36-0.36,0.37-0.59c0.01-0.11,0-0.21-0.03-0.27
		c-0.04-0.15-0.23-0.31-1.18-0.41c-0.28-0.04-0.34-0.04-0.67-0.09c-0.61-0.08-1.04-0.33-1.15-0.4c-0.07-0.05-0.39-0.29-0.64-0.51
		c-0.91-0.83-0.61-2.46-0.69-5.48c-0.07-3.02-0.18-2.78-0.04-5.83c0.06-1.34,3.12-1.04,3.55-1.05c1.48-0.03,2.8,1.03,4.02,3.8
		c0.69,1.56,1.53,3.91,3.07,6.11c1.19,1.69,2.34,3.4,4.8,4.34c1.53,0.59,4.44,0.67,6.94,0.07c2.2-0.65,3.24-1.37,3.45-1.52
		C106.95,45.17,106.87,44.93,106.75,44.86"/>
	<g>
		<g>
			<path class="st44" d="M10.92,83.89h-0.73v-5.96h0.73V83.89z"/>
			<path class="st44" d="M16.69,82.28c0,0.6-0.21,1.05-0.64,1.33c-0.35,0.24-0.82,0.35-1.41,0.35c-0.55,0-1.09-0.09-1.61-0.28
				l-0.39-0.14l0.22-0.57l0.49,0.18c0.38,0.13,0.78,0.2,1.19,0.2c0.41,0,0.73-0.08,0.97-0.24c0.29-0.18,0.43-0.46,0.43-0.84
				c0-0.49-0.26-0.84-0.79-1.02c-0.48-0.15-0.97-0.29-1.46-0.44c-0.52-0.24-0.79-0.68-0.79-1.31c0-1.09,0.64-1.63,1.91-1.63
				c0.42,0,0.89,0.06,1.43,0.17l0.32,0.07l-0.14,0.57l-0.39-0.08c-0.52-0.1-0.92-0.15-1.2-0.15c-0.79,0-1.19,0.35-1.19,1.05
				c0,0.41,0.26,0.7,0.79,0.87c0.48,0.15,0.97,0.3,1.46,0.45C16.42,81.11,16.69,81.59,16.69,82.28z"/>
			<path class="st44" d="M22.16,78.53l-1.71-0.08v5.44h-0.73v-5.44l-1.71,0.08v-0.59h4.15V78.53z"/>
			<path class="st44" d="M27.83,83.8l-0.67,0.19l-0.69-1.92l-0.25,0h-2.08l-0.68,1.92l-0.66-0.19l2.14-5.86h0.73L27.83,83.8z
				 M26.26,81.48l-0.67-1.84l-0.27-0.98H25.3l-0.26,0.98l-0.65,1.85l0.3,0H26.26z"/>
			<path class="st44" d="M33.72,83.89h-0.78l-2.37-4.02l-0.45-0.93h-0.03l0.03,0.95l0,4.01h-0.73v-5.96h0.79l2.38,4.03L33,82.89
				h0.03L33,81.95L33,77.94h0.73V83.89z"/>
			<path class="st44" d="M39.98,82.21c0,0.45-0.15,0.83-0.44,1.15c-0.33,0.35-0.77,0.53-1.32,0.53h-2.41v-5.96h2.17
				c0.49,0,0.88,0.17,1.18,0.5c0.27,0.3,0.4,0.66,0.4,1.08c0,0.26-0.06,0.51-0.18,0.74c-0.14,0.27-0.33,0.45-0.57,0.53v0.01
				c0.36,0.02,0.65,0.18,0.87,0.48C39.88,81.55,39.98,81.86,39.98,82.21z M38.83,79.57c0-0.28-0.08-0.52-0.23-0.72
				c-0.15-0.2-0.35-0.31-0.6-0.32l-1.44-0.07v2.19l1.43-0.05c0.24-0.01,0.44-0.12,0.6-0.31C38.75,80.08,38.83,79.84,38.83,79.57z
				 M39.25,82.19c0-0.27-0.07-0.51-0.23-0.71c-0.15-0.2-0.36-0.31-0.62-0.31l-1.84-0.05v2.27l1.68-0.07
				c0.32-0.02,0.58-0.14,0.76-0.37C39.16,82.74,39.25,82.49,39.25,82.19z"/>
			<path class="st44" d="M46.22,82.3c0,1.15-0.73,1.73-2.19,1.73c-1.46,0-2.19-0.58-2.19-1.73v-4.36h0.73v4.37
				c0,0.35,0.09,0.62,0.26,0.79c0.22,0.23,0.63,0.35,1.2,0.35c0.58,0,0.98-0.11,1.2-0.35c0.17-0.17,0.26-0.43,0.26-0.79v-4.37h0.73
				V82.3z"/>
			<path class="st44" d="M51.85,83.89h-3.54v-5.96h0.73v5.46l2.81-0.1V83.89z"/>
		</g>
		<g>
			<path class="st44" d="M89.45,82.21c0,0.45-0.15,0.83-0.44,1.15c-0.33,0.35-0.77,0.53-1.32,0.53h-2.41v-5.96h2.17
				c0.49,0,0.88,0.17,1.18,0.5c0.27,0.3,0.4,0.66,0.4,1.08c0,0.26-0.06,0.51-0.18,0.74c-0.14,0.27-0.33,0.45-0.57,0.53v0.01
				c0.36,0.02,0.65,0.18,0.87,0.48C89.35,81.55,89.45,81.86,89.45,82.21z M88.3,79.57c0-0.28-0.08-0.52-0.23-0.72
				c-0.15-0.2-0.35-0.31-0.6-0.32l-1.44-0.07v2.19l1.43-0.05c0.24-0.01,0.44-0.12,0.6-0.31C88.22,80.08,88.3,79.84,88.3,79.57z
				 M88.72,82.19c0-0.27-0.07-0.51-0.22-0.71c-0.15-0.2-0.36-0.31-0.62-0.31l-1.84-0.05v2.27l1.68-0.07
				c0.32-0.02,0.58-0.14,0.76-0.37C88.63,82.74,88.72,82.49,88.72,82.19z"/>
			<path class="st44" d="M96,80.91c0,0.88-0.12,1.55-0.36,2.02c-0.38,0.73-1.07,1.1-2.09,1.1c-1.02,0-1.71-0.36-2.1-1.09
				c-0.25-0.47-0.37-1.14-0.37-2.03c0-0.88,0.12-1.55,0.37-2.01c0.38-0.72,1.08-1.08,2.1-1.08c1.01,0,1.71,0.36,2.09,1.09
				C95.88,79.37,96,80.04,96,80.91z M95.26,80.91c0-0.77-0.09-1.34-0.27-1.7c-0.26-0.53-0.74-0.8-1.45-0.8
				c-0.7,0-1.19,0.25-1.45,0.75c-0.19,0.37-0.28,0.95-0.28,1.75c0,0.8,0.09,1.39,0.28,1.75c0.27,0.51,0.75,0.77,1.45,0.77
				c0.71,0,1.19-0.27,1.45-0.81C95.17,82.26,95.26,81.69,95.26,80.91z"/>
			<path class="st44" d="M101.54,82.28c0,0.6-0.21,1.05-0.64,1.33c-0.35,0.24-0.82,0.35-1.41,0.35c-0.55,0-1.09-0.09-1.61-0.28
				l-0.39-0.14l0.22-0.57l0.49,0.18c0.38,0.13,0.78,0.2,1.19,0.2c0.41,0,0.73-0.08,0.97-0.24c0.29-0.18,0.43-0.46,0.43-0.84
				c0-0.49-0.26-0.84-0.79-1.02c-0.48-0.15-0.97-0.29-1.46-0.44c-0.52-0.24-0.79-0.68-0.79-1.31c0-1.09,0.64-1.63,1.91-1.63
				c0.42,0,0.89,0.06,1.43,0.17l0.32,0.07l-0.14,0.57l-0.39-0.08c-0.52-0.1-0.92-0.15-1.2-0.15c-0.79,0-1.19,0.35-1.19,1.05
				c0,0.41,0.26,0.7,0.79,0.87c0.48,0.15,0.97,0.3,1.46,0.45C101.27,81.11,101.54,81.59,101.54,82.28z"/>
			<path class="st44" d="M107.26,79.62c0,0.49-0.15,0.9-0.44,1.24c-0.32,0.38-0.76,0.57-1.32,0.57h-0.06l-1.38-0.03v2.5h-0.73v-5.96
				h2.37c0.5,0,0.89,0.17,1.18,0.52C107.13,78.77,107.26,79.16,107.26,79.62z M106.55,79.64c0-0.29-0.08-0.55-0.23-0.77
				c-0.15-0.22-0.36-0.34-0.62-0.35l-1.65-0.07v2.49l1.46-0.09c0.33-0.02,0.59-0.15,0.78-0.4
				C106.46,80.22,106.55,79.96,106.55,79.64z"/>
			<path class="st44" d="M113.34,83.89h-0.73v-2.82h-2.81v2.82h-0.73v-5.96h0.73v2.54h2.81v-2.54h0.73V83.89z"/>
			<path class="st44" d="M120.11,80.91c0,0.88-0.12,1.55-0.36,2.02c-0.38,0.73-1.07,1.1-2.09,1.1c-1.01,0-1.71-0.36-2.1-1.09
				c-0.25-0.47-0.37-1.14-0.37-2.03c0-0.88,0.12-1.55,0.37-2.01c0.38-0.72,1.08-1.08,2.1-1.08c1.01,0,1.71,0.36,2.09,1.09
				C119.99,79.37,120.11,80.04,120.11,80.91z M119.38,80.91c0-0.77-0.09-1.34-0.27-1.7c-0.26-0.53-0.74-0.8-1.45-0.8
				c-0.7,0-1.19,0.25-1.45,0.75c-0.19,0.37-0.28,0.95-0.28,1.75c0,0.8,0.09,1.39,0.28,1.75c0.27,0.51,0.75,0.77,1.45,0.77
				c0.71,0,1.19-0.27,1.45-0.81C119.29,82.26,119.38,81.69,119.38,80.91z"/>
			<path class="st44" d="M126.14,83.76l-0.71,0.25l-1.67-2.78h-1.05v2.67h-0.73v-5.96h2.37c0.5,0,0.9,0.16,1.19,0.49
				c0.26,0.3,0.39,0.65,0.39,1.07c0,0.41-0.12,0.77-0.36,1.08c-0.27,0.35-0.63,0.55-1.09,0.6l0.35,0.48L126.14,83.76z M125.19,79.5
				c0-0.27-0.07-0.49-0.22-0.68c-0.15-0.19-0.35-0.28-0.62-0.3l-1.65-0.07v2.27l1.48-0.08c0.31-0.02,0.56-0.14,0.74-0.37
				C125.1,80.05,125.19,79.8,125.19,79.5z"/>
			<path class="st44" d="M132.23,82.3c0,1.15-0.73,1.73-2.19,1.73c-1.46,0-2.19-0.58-2.19-1.73v-4.36h0.73v4.37
				c0,0.35,0.09,0.62,0.26,0.79c0.22,0.23,0.62,0.35,1.2,0.35c0.58,0,0.98-0.11,1.2-0.35c0.17-0.17,0.26-0.43,0.26-0.79v-4.37h0.73
				V82.3z"/>
			<path class="st44" d="M138,82.28c0,0.6-0.21,1.05-0.64,1.33c-0.35,0.24-0.82,0.35-1.42,0.35c-0.55,0-1.09-0.09-1.61-0.28
				l-0.39-0.14l0.22-0.57l0.49,0.18c0.38,0.13,0.78,0.2,1.19,0.2c0.41,0,0.73-0.08,0.97-0.24c0.29-0.18,0.43-0.46,0.43-0.84
				c0-0.49-0.26-0.84-0.79-1.02c-0.48-0.15-0.97-0.29-1.46-0.44c-0.52-0.24-0.79-0.68-0.79-1.31c0-1.09,0.64-1.63,1.91-1.63
				c0.42,0,0.89,0.06,1.43,0.17l0.32,0.07l-0.14,0.57l-0.39-0.08c-0.52-0.1-0.92-0.15-1.21-0.15c-0.79,0-1.19,0.35-1.19,1.05
				c0,0.41,0.26,0.7,0.79,0.87c0.48,0.15,0.97,0.3,1.46,0.45C137.74,81.11,138,81.59,138,82.28z"/>
			<path class="st44" d="M146.99,83.89h-0.73v-2.82h-2.81v2.82h-0.73v-5.96h0.73v2.54h2.81v-2.54h0.73V83.89z"/>
			<path class="st44" d="M153.76,80.91c0,0.88-0.12,1.55-0.36,2.02c-0.38,0.73-1.07,1.1-2.09,1.1c-1.01,0-1.71-0.36-2.1-1.09
				c-0.25-0.47-0.37-1.14-0.37-2.03c0-0.88,0.12-1.55,0.37-2.01c0.38-0.72,1.08-1.08,2.1-1.08c1.01,0,1.71,0.36,2.09,1.09
				C153.64,79.37,153.76,80.04,153.76,80.91z M153.03,80.91c0-0.77-0.09-1.34-0.27-1.7c-0.26-0.53-0.74-0.8-1.45-0.8
				c-0.7,0-1.19,0.25-1.45,0.75c-0.19,0.37-0.28,0.95-0.28,1.75c0,0.8,0.09,1.39,0.28,1.75c0.27,0.51,0.75,0.77,1.45,0.77
				c0.71,0,1.19-0.27,1.45-0.81C152.94,82.26,153.03,81.69,153.03,80.91z"/>
			<path class="st44" d="M159.31,78.53l-1.71-0.08v5.44h-0.73v-5.44l-1.71,0.08v-0.59h4.15V78.53z"/>
			<path class="st44" d="M164.48,83.89h-3.56v-5.96h3.49v0.59l-2.75-0.1v2.12l2.15-0.08v0.63l-2.15-0.08v2.37l2.82-0.1V83.89z"/>
			<path class="st44" d="M169.82,83.89h-3.54v-5.96h0.73v5.46l2.81-0.1V83.89z"/>
		</g>
		<g>
			<path class="st44" d="M59.13,79.62c0,0.49-0.15,0.9-0.44,1.24c-0.32,0.38-0.76,0.57-1.32,0.57h-0.06l-1.38-0.03v2.5H55.2v-5.96
				h2.37c0.5,0,0.89,0.17,1.18,0.52C59,78.77,59.13,79.16,59.13,79.62z M58.42,79.64c0-0.29-0.08-0.55-0.23-0.77
				c-0.15-0.22-0.36-0.34-0.62-0.35l-1.65-0.07v2.49l1.46-0.09c0.33-0.02,0.59-0.15,0.78-0.4C58.34,80.22,58.42,79.96,58.42,79.64z"
				/>
			<path class="st44" d="M65.62,80.91c0,0.88-0.12,1.55-0.36,2.02c-0.38,0.73-1.07,1.1-2.09,1.1c-1.01,0-1.71-0.36-2.1-1.09
				c-0.25-0.47-0.37-1.14-0.37-2.03c0-0.88,0.12-1.55,0.37-2.01c0.38-0.72,1.08-1.08,2.1-1.08c1.02,0,1.71,0.36,2.09,1.09
				C65.5,79.37,65.62,80.04,65.62,80.91z M64.89,80.91c0-0.77-0.09-1.34-0.27-1.7c-0.26-0.53-0.74-0.8-1.45-0.8
				c-0.7,0-1.19,0.25-1.45,0.75c-0.19,0.37-0.28,0.95-0.28,1.75c0,0.8,0.09,1.39,0.28,1.75c0.27,0.51,0.75,0.77,1.45,0.77
				c0.71,0,1.19-0.27,1.45-0.81C64.8,82.26,64.89,81.69,64.89,80.91z"/>
			<path class="st44" d="M71.02,83.89h-3.54v-5.96h0.73v5.46l2.81-0.1V83.89z"/>
			<path class="st44" d="M77.14,83.8l-0.67,0.19l-0.69-1.92l-0.25,0h-2.08l-0.68,1.92l-0.66-0.19l2.14-5.86h0.73L77.14,83.8z
				 M75.56,81.48l-0.67-1.84l-0.27-0.98h-0.02l-0.26,0.98l-0.65,1.85l0.3,0H75.56z"/>
			<path class="st44" d="M81.93,78.53l-1.71-0.08v5.44h-0.73v-5.44l-1.71,0.08v-0.59h4.15V78.53z"/>
		</g>
	</g>
</g>
</svg>
