<?xml version="1.0" encoding="utf-8"?>
<!-- Generator: Adobe Illustrator 23.1.1, SVG Export Plug-In . SVG Version: 6.00 Build 0)  -->
<svg version="1.1" id="Layer_1" xmlns="http://www.w3.org/2000/svg" xmlns:xlink="http://www.w3.org/1999/xlink" x="0px" y="0px"
	 viewBox="0 0 180 100" style="enable-background:new 0 0 180 100;" xml:space="preserve">
<style type="text/css">
	.st0{clip-path:url(#SVGID_2_);fill:#FFFFFF;}
	.st1{clip-path:url(#SVGID_2_);fill:none;stroke:#2A2523;stroke-width:1.2;stroke-miterlimit:10;}
	.st2{clip-path:url(#SVGID_2_);fill:#2A2523;}
	.st3{clip-path:url(#SVGID_2_);fill:#E32B27;}
	.st4{clip-path:url(#SVGID_4_);fill:#FFFFFF;}
	.st5{clip-path:url(#SVGID_4_);fill:none;stroke:#2A2523;stroke-width:1.2;stroke-miterlimit:10;}
	.st6{clip-path:url(#SVGID_4_);fill:#3AA9E0;}
	.st7{clip-path:url(#SVGID_4_);fill:#2A2523;}
	.st8{clip-path:url(#SVGID_6_);fill:#FFFFFF;}
	.st9{clip-path:url(#SVGID_6_);fill:none;stroke:#2A2523;stroke-width:1.2;stroke-miterlimit:10;}
	.st10{clip-path:url(#SVGID_6_);fill:#2F3080;}
	.st11{clip-path:url(#SVGID_6_);fill:#2A2523;}
	.st12{fill:#1D1C1A;}
	.st13{clip-path:url(#SVGID_8_);}
	.st14{clip-path:url(#SVGID_10_);}
	.st15{clip-path:url(#SVGID_12_);}
	.st16{clip-path:url(#SVGID_14_);}
	.st17{clip-path:url(#SVGID_16_);}
	.st18{clip-path:url(#SVGID_18_);}
	.st19{fill-rule:evenodd;clip-rule:evenodd;fill:#5B6770;}
	.st20{fill:none;stroke:#5B6770;stroke-width:1.8792;stroke-miterlimit:3.864;}
	.st21{fill-rule:evenodd;clip-rule:evenodd;fill:#79242F;}
	.st22{fill-rule:evenodd;clip-rule:evenodd;fill:#253A75;}
	.st23{fill:none;stroke:#253A75;stroke-width:0.132;stroke-miterlimit:3.864;}
	.st24{fill:#253A75;}
	.st25{fill:#002F3B;}
	.st26{fill:#A69E88;stroke:#A69E88;stroke-width:0.3401;stroke-miterlimit:10;}
	.st27{fill-rule:evenodd;clip-rule:evenodd;fill:#1D1C1A;}
	.st28{fill-rule:evenodd;clip-rule:evenodd;fill:#A5D0E6;}
	.st29{fill-rule:evenodd;clip-rule:evenodd;fill:#FFFFFF;}
	.st30{fill:#002D3A;}
	.st31{clip-path:url(#SVGID_20_);fill:#002E3A;}
	.st32{clip-path:url(#SVGID_20_);fill:#B68D4A;}
	.st33{fill:#B68D4A;}
	.st34{clip-path:url(#SVGID_22_);fill:#B68D4A;}
	.st35{fill:#BC955C;}
	.st36{fill:#A79F88;}
	.st37{fill:#00303C;stroke:#25A9E0;stroke-width:0.6856;stroke-dasharray:3.6133,3.6133;}
	.st38{fill:#00303C;}
	.st39{fill:#41695B;}
	.st40{fill:#907E63;}
	.st41{fill:#804951;}
	.st42{fill:#894B52;}
	.st43{fill:#42695B;stroke:#42695B;stroke-width:0.3;stroke-miterlimit:10;}
	.st44{fill:#231F20;}
	.st45{fill-rule:evenodd;clip-rule:evenodd;fill:#ADAFB1;}
	.st46{fill-rule:evenodd;clip-rule:evenodd;fill:#CFD0D2;stroke:#CFD0D2;stroke-width:0;stroke-miterlimit:3.8637;}
	.st47{fill-rule:evenodd;clip-rule:evenodd;fill:#ADAFB1;stroke:#ADAFB1;stroke-width:0;stroke-miterlimit:3.8637;}
	.st48{fill-rule:evenodd;clip-rule:evenodd;fill:#7A7C7F;stroke:#7A7C7F;stroke-width:0;stroke-miterlimit:3.8637;}
	.st49{fill-rule:evenodd;clip-rule:evenodd;fill:#BDBFC1;stroke:#BDBFC1;stroke-width:0;stroke-miterlimit:3.8637;}
	.st50{fill-rule:evenodd;clip-rule:evenodd;fill:none;stroke:#231F20;stroke-width:0.2422;stroke-miterlimit:3.8637;}
	.st51{fill-rule:evenodd;clip-rule:evenodd;fill:#B1B3B5;stroke:#B1B3B5;stroke-width:0;stroke-miterlimit:3.8637;}
	.st52{clip-path:url(#SVGID_24_);}
	.st53{clip-path:url(#SVGID_26_);}
	.st54{fill:#ADAFB1;}
	.st55{clip-path:url(#SVGID_28_);}
	.st56{fill:#FFFFFF;}
	.st57{fill:#F5F5F6;}
	.st58{fill:#EFF0F0;}
	.st59{fill:#E9EAEB;}
	.st60{fill:#E2E3E4;}
	.st61{fill:#DDDEDF;}
	.st62{fill:#D7D8DA;}
	.st63{fill:#D1D2D4;}
	.st64{fill:#CACCCE;}
	.st65{fill:#C4C6C8;}
	.st66{fill:#BFC1C3;}
	.st67{fill:#B8BABC;}
	.st68{fill:#B2B4B7;}
	.st69{clip-path:url(#SVGID_30_);}
	.st70{clip-path:url(#SVGID_32_);}
</style>
<g>
	<g>
		<g>
			<path class="st38" d="M49.42,67.67h-1.18v-3.39h-3.15v3.39h-1.18v-7.76h1.18v3.31h3.15v-3.31h1.18V67.67z"/>
			<path class="st38" d="M64.15,65.05c0,0.8-0.27,1.45-0.8,1.94c-0.53,0.49-1.2,0.74-2,0.74s-1.46-0.25-1.99-0.74
				c-0.53-0.49-0.79-1.14-0.79-1.94v-5.15h1.18V65c0,0.5,0.14,0.91,0.43,1.22c0.28,0.31,0.68,0.46,1.18,0.46s0.9-0.16,1.18-0.46
				c0.29-0.31,0.43-0.71,0.43-1.22v-5.09h1.18V65.05z"/>
			<path class="st38" d="M79.16,67.67h-1.08l-3.59-5.46v5.46h-1.18v-7.76h1.08l3.59,5.45v-5.45h1.18V67.67z"/>
			<path class="st38" d="M93.78,64.66c0,0.92-0.24,1.66-0.71,2.2c-0.5,0.58-1.21,0.87-2.13,0.87c-0.81,0-1.49-0.28-2.04-0.83
				c-0.35-0.35-0.57-0.78-0.67-1.29c-0.06-0.31-0.09-0.92-0.09-1.83c0-0.91,0.03-1.52,0.09-1.83c0.09-0.51,0.32-0.94,0.67-1.29
				c0.55-0.55,1.23-0.83,2.04-0.83c0.76,0,1.38,0.22,1.89,0.65s0.81,1.02,0.94,1.76h-1.19c-0.21-0.9-0.76-1.35-1.64-1.35
				c-0.93,0-1.46,0.54-1.58,1.62c-0.02,0.19-0.03,0.61-0.03,1.27c0,0.65,0.01,1.08,0.03,1.26c0.12,1.08,0.65,1.63,1.58,1.63
				c0.52,0,0.93-0.16,1.22-0.49c0.29-0.33,0.44-0.75,0.44-1.28v-0.44h-1.66v-1h2.83V64.66z"/>
			<path class="st38" d="M108.48,67.67h-1.25l-0.53-1.56h-3.06l-0.53,1.56h-1.25l2.85-7.76h0.95L108.48,67.67z M106.36,65.11
				l-1.18-3.44l-1.21,3.44H106.36z"/>
			<path class="st38" d="M122.49,67.67h-1.37l-1.64-3.27h-1.47v3.27h-1.18v-7.76h3.01c0.71,0,1.28,0.2,1.73,0.61
				c0.45,0.41,0.68,0.96,0.68,1.66c0,0.51-0.14,0.95-0.41,1.31c-0.27,0.37-0.65,0.62-1.14,0.75L122.49,67.67z M121.07,62.19
				c0-0.38-0.12-0.68-0.36-0.9c-0.24-0.21-0.56-0.32-0.95-0.32h-1.74v2.43h1.74c0.39,0,0.71-0.11,0.95-0.32
				C120.95,62.87,121.07,62.57,121.07,62.19z"/>
			<path class="st38" d="M136.08,59.91l-2.32,4.57v3.19h-1.18v-3.19l-2.32-4.57h1.29l1.62,3.41l1.62-3.41H136.08z"/>
		</g>
		<g>
			<path class="st38" d="M27.83,31.24c0,1.54-0.44,2.71-1.33,3.51s-1.93,1.31-3.14,1.54c-1.2,0.23-2.47,0.34-3.8,0.34h-1.16v4.91
				c0,0.55,0.06,0.98,0.17,1.29c0.11,0.3,0.35,0.54,0.72,0.69c0.37,0.16,0.94,0.24,1.7,0.24v1.28h-8.83v-1.28
				c0.75,0,1.3-0.08,1.66-0.25s0.59-0.4,0.7-0.71c0.11-0.3,0.16-0.73,0.16-1.26V29.68c0-0.54-0.05-0.95-0.16-1.25
				s-0.34-0.54-0.7-0.71c-0.36-0.17-0.92-0.26-1.67-0.26v-1.3l5.01-0.14c0.26-0.01,0.54-0.02,0.85-0.02c0.31,0,0.55-0.01,0.73-0.01
				c0.18,0,0.45-0.01,0.8-0.01c0.44,0,0.77,0,0.98,0.01c1.03,0.05,2.01,0.15,2.96,0.32c0.95,0.17,1.91,0.64,2.88,1.41
				C27.34,28.49,27.83,29.66,27.83,31.24z M23.84,31.27c0-1.5-0.41-2.5-1.22-3c-0.82-0.5-1.89-0.76-3.22-0.76
				c-0.24,0-0.58,0.01-1.01,0.03v7.56h1.19c1.27,0,2.3-0.23,3.08-0.7C23.45,33.93,23.84,32.89,23.84,31.27z"/>
			<path class="st38" d="M65.67,35.64c0,1.71-0.38,3.31-1.14,4.8c-0.76,1.49-1.88,2.69-3.37,3.59c-1.49,0.9-3.25,1.35-5.27,1.35
				c-1.66,0-3.11-0.29-4.37-0.86c-1.26-0.57-2.29-1.34-3.09-2.3c-0.8-0.96-1.39-2.01-1.77-3.16c-0.38-1.14-0.58-2.3-0.58-3.45
				c0-1.67,0.37-3.25,1.1-4.74c0.73-1.49,1.84-2.69,3.31-3.6c1.48-0.91,3.24-1.37,5.29-1.37c1.87,0,3.46,0.33,4.78,0.98
				c1.31,0.66,2.33,1.48,3.07,2.48c0.73,1,1.26,2.04,1.57,3.14C65.51,33.61,65.67,34.65,65.67,35.64z M61.48,35.58
				c0-1.05-0.08-2.05-0.25-2.99c-0.17-0.94-0.46-1.79-0.89-2.56c-0.42-0.76-1-1.37-1.73-1.82c-0.73-0.45-1.64-0.67-2.72-0.67
				c-1.48,0-2.64,0.4-3.47,1.19s-1.4,1.78-1.7,2.97c-0.3,1.19-0.45,2.48-0.45,3.89c0,0.78,0.05,1.58,0.14,2.43
				c0.1,0.84,0.32,1.7,0.69,2.58c0.36,0.88,0.94,1.63,1.73,2.23c0.79,0.6,1.82,0.91,3.08,0.91c1.25,0,2.27-0.31,3.05-0.93
				c0.78-0.62,1.35-1.39,1.71-2.29c0.36-0.9,0.58-1.76,0.67-2.59C61.43,37.1,61.48,36.32,61.48,35.58z"/>
			<path class="st38" d="M99.54,38.75l-0.12,6.28H83.8v-1.28c1.08,0,1.77-0.17,2.08-0.5c0.31-0.33,0.47-0.91,0.47-1.72V29.73
				c0-0.55-0.05-0.97-0.16-1.27c-0.1-0.3-0.34-0.53-0.72-0.7c-0.37-0.17-0.93-0.25-1.68-0.25v-1.27h8.83v1.27
				c-0.73,0-1.29,0.08-1.66,0.24c-0.38,0.16-0.62,0.39-0.74,0.69c-0.12,0.3-0.17,0.73-0.17,1.3v10.81c0,0.85,0.04,1.46,0.12,1.83
				c0.08,0.37,0.29,0.65,0.63,0.84c0.34,0.19,0.91,0.28,1.7,0.28c0.99,0,1.86-0.08,2.61-0.24c0.75-0.16,1.44-0.59,2.07-1.29
				c0.63-0.7,1.03-1.77,1.18-3.21H99.54z"/>
			<path class="st38" d="M134.53,45.03h-8.27v-1.28c0.7,0,1.21-0.05,1.53-0.16c0.32-0.11,0.48-0.36,0.48-0.76
				c0-0.28-0.05-0.56-0.16-0.85l-0.83-2.22h-5.69L121.16,41c-0.24,0.68-0.36,1.18-0.36,1.48c0,0.55,0.2,0.9,0.6,1.05
				c0.4,0.15,0.87,0.22,1.4,0.22v1.28h-6.04v-1.28c0.48,0,0.89-0.1,1.23-0.29c0.34-0.19,0.66-0.56,0.96-1.1
				c0.31-0.54,0.64-1.31,0.99-2.29l5.06-14.2h1.23l5.34,14.64c0.39,1.03,0.67,1.73,0.85,2.1c0.18,0.36,0.43,0.65,0.75,0.85
				c0.32,0.2,0.77,0.3,1.35,0.3V45.03z M126.82,38.42l-2.42-6.56l-2.3,6.56H126.82z"/>
			<path class="st38" d="M167.84,31.57h-1.23c-0.11-1.16-0.35-2.02-0.72-2.58c-0.37-0.55-0.76-0.9-1.18-1.03
				c-0.42-0.13-0.91-0.19-1.46-0.19h-2.23v13.76c0,0.55,0.05,0.97,0.16,1.27c0.1,0.3,0.35,0.53,0.72,0.7s0.94,0.25,1.67,0.25v1.28
				h-8.8v-1.28c1.08,0,1.77-0.17,2.08-0.5c0.31-0.33,0.47-0.91,0.47-1.72V27.78h-1.86c-0.73,0-1.34,0.06-1.82,0.19
				c-0.48,0.13-0.91,0.47-1.28,1.03c-0.37,0.56-0.58,1.42-0.63,2.59h-1.23v-5.34h17.34V31.57z"/>
		</g>
	</g>
</g>
</svg>
