<?xml version="1.0" encoding="utf-8"?>
<!-- Generator: Adobe Illustrator 23.1.1, SVG Export Plug-In . SVG Version: 6.00 Build 0)  -->
<svg version="1.1" id="Layer_1" xmlns="http://www.w3.org/2000/svg" xmlns:xlink="http://www.w3.org/1999/xlink" x="0px" y="0px"
	 viewBox="0 0 180 100" style="enable-background:new 0 0 180 100;" xml:space="preserve">
<style type="text/css">
	.st0{clip-path:url(#SVGID_2_);fill:#FFFFFF;}
	.st1{clip-path:url(#SVGID_2_);fill:none;stroke:#2A2523;stroke-width:1.2;stroke-miterlimit:10;}
	.st2{clip-path:url(#SVGID_2_);fill:#2A2523;}
	.st3{clip-path:url(#SVGID_2_);fill:#E32B27;}
	.st4{clip-path:url(#SVGID_4_);fill:#FFFFFF;}
	.st5{clip-path:url(#SVGID_4_);fill:none;stroke:#2A2523;stroke-width:1.2;stroke-miterlimit:10;}
	.st6{clip-path:url(#SVGID_4_);fill:#3AA9E0;}
	.st7{clip-path:url(#SVGID_4_);fill:#2A2523;}
	.st8{clip-path:url(#SVGID_6_);fill:#FFFFFF;}
	.st9{clip-path:url(#SVGID_6_);fill:none;stroke:#2A2523;stroke-width:1.2;stroke-miterlimit:10;}
	.st10{clip-path:url(#SVGID_6_);fill:#2F3080;}
	.st11{clip-path:url(#SVGID_6_);fill:#2A2523;}
	.st12{fill:#1D1C1A;}
	.st13{clip-path:url(#SVGID_8_);}
	.st14{clip-path:url(#SVGID_10_);}
	.st15{clip-path:url(#SVGID_12_);}
	.st16{clip-path:url(#SVGID_14_);}
	.st17{clip-path:url(#SVGID_16_);}
	.st18{clip-path:url(#SVGID_18_);}
	.st19{fill-rule:evenodd;clip-rule:evenodd;fill:#5B6770;}
	.st20{fill:none;stroke:#5B6770;stroke-width:1.8792;stroke-miterlimit:3.864;}
	.st21{fill-rule:evenodd;clip-rule:evenodd;fill:#79242F;}
	.st22{fill-rule:evenodd;clip-rule:evenodd;fill:#253A75;}
	.st23{fill:none;stroke:#253A75;stroke-width:0.132;stroke-miterlimit:3.864;}
	.st24{fill:#253A75;}
	.st25{fill:#002F3B;}
	.st26{fill:#A69E88;stroke:#A69E88;stroke-width:0.3401;stroke-miterlimit:10;}
	.st27{fill-rule:evenodd;clip-rule:evenodd;fill:#1D1C1A;}
	.st28{fill-rule:evenodd;clip-rule:evenodd;fill:#A5D0E6;}
	.st29{fill-rule:evenodd;clip-rule:evenodd;fill:#FFFFFF;}
	.st30{fill:#002D3A;}
	.st31{clip-path:url(#SVGID_20_);fill:#002E3A;}
	.st32{clip-path:url(#SVGID_20_);fill:#B68D4A;}
	.st33{fill:#B68D4A;}
	.st34{clip-path:url(#SVGID_22_);fill:#B68D4A;}
	.st35{fill:#BC955C;}
	.st36{fill:#A79F88;}
	.st37{fill:#00303C;stroke:#25A9E0;stroke-width:0.6856;stroke-dasharray:3.6133,3.6133;}
	.st38{fill:#00303C;}
	.st39{fill:#41695B;}
	.st40{fill:#907E63;}
	.st41{fill:#804951;}
	.st42{fill:#894B52;}
	.st43{fill:#42695B;stroke:#42695B;stroke-width:0.3;stroke-miterlimit:10;}
	.st44{fill:#231F20;}
	.st45{fill-rule:evenodd;clip-rule:evenodd;fill:#ADAFB1;}
	.st46{fill-rule:evenodd;clip-rule:evenodd;fill:#CFD0D2;stroke:#CFD0D2;stroke-width:0;stroke-miterlimit:3.8637;}
	.st47{fill-rule:evenodd;clip-rule:evenodd;fill:#ADAFB1;stroke:#ADAFB1;stroke-width:0;stroke-miterlimit:3.8637;}
	.st48{fill-rule:evenodd;clip-rule:evenodd;fill:#7A7C7F;stroke:#7A7C7F;stroke-width:0;stroke-miterlimit:3.8637;}
	.st49{fill-rule:evenodd;clip-rule:evenodd;fill:#BDBFC1;stroke:#BDBFC1;stroke-width:0;stroke-miterlimit:3.8637;}
	.st50{fill-rule:evenodd;clip-rule:evenodd;fill:none;stroke:#231F20;stroke-width:0.2422;stroke-miterlimit:3.8637;}
	.st51{fill-rule:evenodd;clip-rule:evenodd;fill:#B1B3B5;stroke:#B1B3B5;stroke-width:0;stroke-miterlimit:3.8637;}
	.st52{clip-path:url(#SVGID_24_);}
	.st53{clip-path:url(#SVGID_26_);}
	.st54{fill:#ADAFB1;}
	.st55{clip-path:url(#SVGID_28_);}
	.st56{fill:#FFFFFF;}
	.st57{fill:#F5F5F6;}
	.st58{fill:#EFF0F0;}
	.st59{fill:#E9EAEB;}
	.st60{fill:#E2E3E4;}
	.st61{fill:#DDDEDF;}
	.st62{fill:#D7D8DA;}
	.st63{fill:#D1D2D4;}
	.st64{fill:#CACCCE;}
	.st65{fill:#C4C6C8;}
	.st66{fill:#BFC1C3;}
	.st67{fill:#B8BABC;}
	.st68{fill:#B2B4B7;}
	.st69{clip-path:url(#SVGID_30_);}
	.st70{clip-path:url(#SVGID_32_);}
</style>
<g>
	<g>
		<path class="st45" d="M22.27,87.35h-1.43v-8.67h1.43V87.35z M20.84,76.51h1.43v1.56h-1.43V76.51z"/>
		<path class="st45" d="M29.19,84.86c0,0.79-0.21,1.4-0.62,1.84c-0.41,0.44-0.95,0.66-1.63,0.66h-3.07v-8.67h2.94
			c0.67,0,1.21,0.2,1.62,0.61c0.43,0.43,0.65,1.04,0.65,1.83c0,0.38-0.08,0.73-0.24,1.06c-0.16,0.32-0.38,0.57-0.66,0.73
			C28.86,83.28,29.19,83.93,29.19,84.86z M27.66,81.19c0-0.67-0.32-1-0.95-1h-1.4v2h1.4C27.34,82.19,27.66,81.86,27.66,81.19z
			 M27.76,84.77c0-0.33-0.09-0.59-0.26-0.78c-0.17-0.19-0.41-0.28-0.69-0.28h-1.49v2.13h1.49c0.29,0,0.52-0.1,0.69-0.29
			C27.68,85.37,27.76,85.1,27.76,84.77z"/>
		<path class="st45" d="M36.1,87.35h-1.67l-1.42-3.46h-1.03v3.46h-1.43v-8.67h2.87c0.69,0,1.26,0.24,1.71,0.72
			c0.45,0.48,0.67,1.12,0.67,1.94c0,0.54-0.12,1-0.35,1.41c-0.23,0.4-0.56,0.69-0.99,0.87L36.1,87.35z M34.38,81.34
			c0-0.35-0.1-0.63-0.29-0.83c-0.2-0.21-0.44-0.31-0.75-0.31h-1.35v2.29h1.35c0.3,0,0.55-0.1,0.75-0.31
			C34.28,81.96,34.38,81.68,34.38,81.34z"/>
		<path class="st45" d="M42.84,87.35h-1.49l-0.43-1.53h-2.61l-0.44,1.53h-1.49l2.67-8.67h1.12L42.84,87.35z M40.54,84.39l-0.9-3.16
			l-0.93,3.16H40.54z"/>
		<polygon class="st45" points="49,87.35 47.57,87.35 47.57,83.72 45.09,83.72 45.09,87.35 43.66,87.35 43.66,78.68 45.09,78.68 
			45.09,82.22 47.57,82.22 47.57,78.68 49,78.68 		"/>
		<path class="st45" d="M52.04,87.35h-1.43v-8.67h1.43V87.35z M50.61,76.51h1.43v1.56h-1.43V76.51z"/>
		<polygon class="st45" points="60.28,87.35 58.85,87.35 58.85,82.3 57.46,85.59 56.49,85.59 55.08,82.3 55.08,87.35 53.65,87.35 
			53.65,78.68 55.05,78.68 56.97,83.37 58.87,78.68 60.28,78.68 		"/>
		<path class="st45" d="M69.43,81.38c0,0.81-0.23,1.47-0.69,1.96c-0.46,0.5-1.04,0.74-1.73,0.74H65.6v3.26h-1.43v-8.67h2.84
			c0.69,0,1.27,0.25,1.73,0.74C69.2,79.92,69.43,80.57,69.43,81.38z M68,81.38c0-0.37-0.1-0.66-0.29-0.87
			c-0.2-0.22-0.45-0.32-0.77-0.32H65.6v2.38h1.34c0.32,0,0.57-0.11,0.77-0.32C67.9,82.04,68,81.75,68,81.38z"/>
		<path class="st45" d="M75.69,83.02c0,0.91-0.03,1.56-0.09,1.96c-0.1,0.61-0.31,1.11-0.64,1.5c-0.54,0.63-1.19,0.95-1.98,0.95
			c-0.79,0-1.45-0.32-1.99-0.95c-0.33-0.39-0.54-0.89-0.64-1.5c-0.05-0.35-0.08-1-0.08-1.96c0-0.96,0.03-1.61,0.08-1.96
			c0.1-0.61,0.31-1.11,0.64-1.5c0.54-0.63,1.2-0.95,1.99-0.95c0.78,0,1.44,0.32,1.98,0.95c0.33,0.39,0.54,0.89,0.64,1.5
			C75.66,81.45,75.69,82.11,75.69,83.02z M74.26,83.02c0-0.67-0.01-1.09-0.02-1.27c-0.08-1.09-0.5-1.63-1.26-1.63
			c-0.75,0-1.17,0.54-1.26,1.63c-0.01,0.17-0.02,0.59-0.02,1.27c0,0.67,0.01,1.1,0.02,1.27c0.09,1.09,0.51,1.63,1.26,1.63
			c0.43,0,0.76-0.19,1-0.58C74.17,85.03,74.26,84.26,74.26,83.02z"/>
		<polygon class="st45" points="81.81,87.35 77.06,87.35 77.06,78.68 78.49,78.68 78.49,85.84 81.81,85.84 		"/>
		<path class="st45" d="M88.53,87.35h-1.49l-0.43-1.53H84l-0.44,1.53h-1.49l2.67-8.67h1.12L88.53,87.35z M86.23,84.39l-0.9-3.16
			l-0.93,3.16H86.23z"/>
		<polygon class="st45" points="94.06,80.19 92.15,80.19 92.15,87.35 90.72,87.35 90.72,80.19 88.8,80.19 88.8,78.68 94.06,78.68 		
			"/>
		<polygon class="st45" points="102.74,87.35 101.3,87.35 101.3,83.72 98.83,83.72 98.83,87.35 97.4,87.35 97.4,78.68 98.83,78.68 
			98.83,82.22 101.3,82.22 101.3,78.68 102.74,78.68 		"/>
		<path class="st45" d="M109.51,83.02c0,0.91-0.03,1.56-0.09,1.96c-0.1,0.61-0.31,1.11-0.64,1.5c-0.54,0.63-1.19,0.95-1.98,0.95
			c-0.79,0-1.45-0.32-1.99-0.95c-0.33-0.39-0.54-0.89-0.64-1.5c-0.05-0.35-0.08-1-0.08-1.96c0-0.96,0.03-1.61,0.08-1.96
			c0.1-0.61,0.31-1.11,0.64-1.5c0.54-0.63,1.2-0.95,1.99-0.95c0.78,0,1.44,0.32,1.98,0.95c0.33,0.39,0.54,0.89,0.64,1.5
			C109.47,81.45,109.51,82.11,109.51,83.02z M108.07,83.02c0-0.67-0.01-1.09-0.02-1.27c-0.08-1.09-0.5-1.63-1.26-1.63
			c-0.75,0-1.17,0.54-1.26,1.63c-0.01,0.17-0.02,0.59-0.02,1.27c0,0.67,0.01,1.1,0.02,1.27c0.09,1.09,0.51,1.63,1.26,1.63
			c0.43,0,0.76-0.19,1-0.58C107.98,85.03,108.07,84.26,108.07,83.02z"/>
		<polygon class="st45" points="115.62,87.35 110.87,87.35 110.87,78.68 112.3,78.68 112.3,85.84 115.62,85.84 		"/>
		<path class="st45" d="M122,82.98c0,0.97-0.02,1.6-0.06,1.9c-0.11,0.8-0.4,1.42-0.86,1.84c-0.47,0.42-1.05,0.63-1.75,0.63h-2.64
			v-8.67h2.64c0.69,0,1.27,0.21,1.74,0.62s0.76,1.02,0.87,1.81C121.98,81.41,122,82.03,122,82.98z M120.57,82.98
			c0-0.61-0.01-1-0.02-1.17c-0.04-0.5-0.14-0.86-0.29-1.08c-0.25-0.36-0.6-0.54-1.07-0.54h-1.08v5.65h1.08
			c0.47,0,0.82-0.18,1.07-0.54c0.15-0.22,0.25-0.59,0.29-1.12C120.56,84.01,120.57,83.61,120.57,82.98z"/>
		<path class="st45" d="M124.79,87.35h-1.43v-8.67h1.43V87.35z M123.36,76.51h1.43v1.56h-1.43V76.51z"/>
		<polygon class="st45" points="132.01,87.35 130.73,87.35 127.83,82.04 127.83,87.35 126.4,87.35 126.4,78.68 127.67,78.68 
			130.57,83.99 130.57,78.68 132.01,78.68 		"/>
		<path class="st45" d="M138.83,83.8c0,1.1-0.22,1.97-0.67,2.61c-0.48,0.68-1.18,1.02-2.1,1.02c-0.78,0-1.44-0.32-1.98-0.95
			c-0.33-0.39-0.54-0.89-0.64-1.5c-0.05-0.35-0.08-1-0.08-1.96c0-0.96,0.03-1.61,0.08-1.96c0.1-0.61,0.31-1.11,0.64-1.5
			c0.54-0.63,1.2-0.95,1.98-0.95c0.75,0,1.37,0.24,1.86,0.73c0.49,0.49,0.79,1.17,0.91,2.05h-1.44c-0.17-0.84-0.61-1.27-1.32-1.27
			c-0.74,0-1.16,0.54-1.25,1.63c-0.01,0.17-0.02,0.59-0.02,1.27c0,0.67,0.01,1.1,0.02,1.27c0.09,1.09,0.5,1.63,1.24,1.63
			c0.42,0,0.74-0.15,0.98-0.45c0.24-0.3,0.36-0.7,0.36-1.19v-0.33h-1.34v-1.41h2.77V83.8z"/>
		<path class="st45" d="M148.13,87.35h-1.49l-0.43-1.53h-2.61l-0.44,1.53h-1.49l2.67-8.67h1.12L148.13,87.35z M145.82,84.39
			l-0.9-3.16L144,84.39H145.82z"/>
		<rect x="148.79" y="85.55" class="st45" width="1.53" height="1.8"/>
		<path class="st45" d="M156.53,84.79c0,0.71-0.2,1.3-0.61,1.77c-0.37,0.43-0.86,0.7-1.48,0.82l-0.22,1.55h-1.35l0.43-1.52
			c-0.91-0.1-1.63-0.47-2.17-1.12l0.93-1.1c0.41,0.49,1,0.73,1.77,0.73c0.86,0,1.3-0.36,1.3-1.07c0-0.59-0.29-0.94-0.87-1.04
			l-0.88-0.15c-1.3-0.21-1.94-1.02-1.94-2.42c0-0.84,0.25-1.5,0.76-1.97c0.47-0.44,1.06-0.66,1.79-0.66c0.99,0,1.78,0.34,2.37,1.01
			l-0.91,1.06c-0.35-0.41-0.85-0.61-1.5-0.61c-0.32,0-0.58,0.09-0.78,0.26c-0.23,0.2-0.35,0.48-0.35,0.85c0,0.55,0.3,0.87,0.9,0.97
			l0.86,0.15C155.88,82.5,156.53,83.34,156.53,84.79z"/>
		<rect x="157.62" y="85.55" class="st45" width="1.53" height="1.8"/>
	</g>
	<g>
		<polygon class="st46" points="58.08,11.08 71.69,11.08 63.05,39.67 49.44,39.67 		"/>
		<polygon class="st47" points="49.43,39.67 63.05,39.67 71.21,65.08 57.6,65.08 		"/>
		<polygon class="st46" points="83.97,11.08 97.59,11.08 88.95,39.67 75.33,39.67 		"/>
		<polygon class="st47" points="75.33,39.67 88.95,39.67 97.11,65.08 83.49,65.08 		"/>
		<polygon class="st48" points="71.69,11.08 74.69,20.48 66.06,49.06 63.05,39.67 		"/>
		<polygon class="st47" points="66.06,49.06 78.35,49.06 80.37,55.36 68.09,55.36 		"/>
		<polygon class="st49" points="74.69,20.48 81.13,20.48 75.33,39.67 78.35,49.06 66.07,49.06 		"/>
		<polygon class="st48" points="68.09,55.36 74.1,55.36 71.21,65.08 		"/>
		<polygon class="st48" points="88.95,39.67 91.9,29.9 100.05,55.32 97.11,65.08 		"/>
		<path class="st46" d="M97.59,11.08h16.77c0,0,8.21-0.12,8.21,8.85c0,0,0.28,9.98-11.73,9.98H91.9L97.59,11.08z"/>
		<path class="st51" d="M93.75,23.8L95.8,17h8.79c0,0,3.76,0.08,3.48,3.73c0,0,0.32,2.64-5.16,3.08L93.75,23.8z"/>
		<polygon class="st48" points="95.8,17 98.35,23.8 93.74,23.81 		"/>
		<polygon class="st47" points="55.25,20.44 55.8,18.6 69.42,18.6 72.42,27.99 71.87,29.82 68.86,20.44 		"/>
		<g>
			<g>
				<defs>
					<path id="SVGID_23_" d="M122.55,20.32l5.98,20.01c0,0,4.48,11.53-4.96,13.45c0,0-8.01,1.54-12.97,1.54c-4.96,0-10.54,0-10.54,0
						L91.9,29.9h18.69c0,0,3.8,0.22,6.88-1.41c0,0,1.96-0.88,3.36-3c0,0,1.18-1.63,1.55-3.85
						C122.39,21.64,122.57,20.54,122.55,20.32z"/>
				</defs>
				<clipPath id="SVGID_2_">
					<use xlink:href="#SVGID_23_"  style="overflow:visible;"/>
				</clipPath>
				<g style="clip-path:url(#SVGID_2_);">
					<g>
						<defs>
							
								<rect id="SVGID_25_" x="122.92" y="20.07" transform="matrix(0.9563 -0.2924 0.2924 0.9563 -5.174 38.2049)" width="4.61" height="32.69"/>
						</defs>
						<clipPath id="SVGID_4_">
							<use xlink:href="#SVGID_25_"  style="overflow:visible;"/>
						</clipPath>
						<g style="clip-path:url(#SVGID_4_);">
							
								<rect x="122.96" y="20.42" transform="matrix(0.9563 -0.2924 0.2924 0.9563 -5.3246 37.8941)" class="st54" width="2.31" height="32.69"/>
							
								<rect x="125.17" y="19.74" transform="matrix(0.9563 -0.2924 0.2924 0.9563 -5.031 38.5108)" class="st54" width="2.31" height="32.69"/>
						</g>
					</g>
					<g>
						<defs>
							
								<rect id="SVGID_27_" x="113.22" y="22.16" transform="matrix(0.9563 -0.2924 0.2924 0.9563 -6.0832 36.2996)" width="10.36" height="32.69"/>
						</defs>
						<clipPath id="SVGID_6_">
							<use xlink:href="#SVGID_27_"  style="overflow:visible;"/>
						</clipPath>
						<g style="clip-path:url(#SVGID_6_);">
							
								<rect x="113.42" y="23.57" transform="matrix(0.9563 -0.2924 0.2924 0.9563 -6.699 35.0124)" class="st56" width="0.74" height="32.69"/>
							
								<rect x="114.13" y="23.36" transform="matrix(0.9563 -0.2924 0.2924 0.9563 -6.6049 35.2131)" class="st57" width="0.74" height="32.69"/>
							
								<rect x="114.83" y="23.14" transform="matrix(0.9563 -0.2924 0.2924 0.9563 -6.5107 35.4072)" class="st58" width="0.74" height="32.69"/>
							
								<rect x="115.54" y="22.93" transform="matrix(0.9563 -0.2924 0.2924 0.9563 -6.4166 35.6065)" class="st59" width="0.74" height="32.69"/>
							
								<rect x="116.25" y="22.71" transform="matrix(0.9563 -0.2924 0.2924 0.9563 -6.3224 35.8034)" class="st60" width="0.74" height="32.69"/>
							
								<rect x="116.96" y="22.49" transform="matrix(0.9563 -0.2924 0.2924 0.9563 -6.2282 35.9992)" class="st61" width="0.74" height="32.69"/>
							
								<rect x="117.66" y="22.28" transform="matrix(0.9563 -0.2924 0.2924 0.9563 -6.134 36.197)" class="st62" width="0.74" height="32.69"/>
							
								<rect x="118.37" y="22.06" transform="matrix(0.9563 -0.2924 0.2924 0.9563 -6.0399 36.3976)" class="st63" width="0.74" height="32.69"/>
							
								<rect x="119.08" y="21.84" transform="matrix(0.9563 -0.2924 0.2924 0.9563 -5.9457 36.5936)" class="st64" width="0.74" height="32.69"/>
							
								<rect x="119.79" y="21.63" transform="matrix(0.9563 -0.2924 0.2924 0.9563 -5.8515 36.787)" class="st65" width="0.74" height="32.69"/>
							
								<rect x="120.49" y="21.41" transform="matrix(0.9563 -0.2924 0.2924 0.9563 -5.7574 36.9898)" class="st66" width="0.74" height="32.69"/>
							
								<rect x="121.2" y="21.19" transform="matrix(0.9563 -0.2924 0.2924 0.9563 -5.6632 37.1838)" class="st67" width="0.74" height="32.69"/>
							
								<rect x="121.91" y="20.98" transform="matrix(0.9563 -0.2924 0.2924 0.9563 -5.5691 37.3812)" class="st68" width="0.74" height="32.69"/>
							
								<rect x="122.62" y="20.76" transform="matrix(0.9563 -0.2924 0.2924 0.9563 -5.4749 37.5841)" class="st54" width="0.74" height="32.69"/>
						</g>
					</g>
					<g>
						<defs>
							
								<rect id="SVGID_29_" x="104.51" y="24.96" transform="matrix(0.9563 -0.2924 0.2924 0.9563 -7.3017 33.7455)" width="9.47" height="32.69"/>
						</defs>
						<clipPath id="SVGID_8_">
							<use xlink:href="#SVGID_29_"  style="overflow:visible;"/>
						</clipPath>
						<g class="st13">
							
								<rect x="104.69" y="26.25" transform="matrix(0.9563 -0.2924 0.2924 0.9563 -7.8655 32.5712)" class="st54" width="0.68" height="32.69"/>
							
								<rect x="105.34" y="26.06" transform="matrix(0.9563 -0.2923 0.2923 0.9563 -7.7784 32.7408)" class="st68" width="0.68" height="32.69"/>
							
								<rect x="105.98" y="25.86" transform="matrix(0.9563 -0.2923 0.2923 0.9563 -7.6923 32.9213)" class="st67" width="0.68" height="32.69"/>
							
								<rect x="106.63" y="25.66" transform="matrix(0.9563 -0.2924 0.2924 0.9563 -7.6071 33.1128)" class="st66" width="0.68" height="32.69"/>
							
								<rect x="107.28" y="25.46" transform="matrix(0.9563 -0.2924 0.2924 0.9563 -7.521 33.2937)" class="st65" width="0.68" height="32.69"/>
							
								<rect x="107.92" y="25.26" transform="matrix(0.9563 -0.2924 0.2924 0.9563 -7.4348 33.4741)" class="st64" width="0.68" height="32.69"/>
							
								<rect x="108.57" y="25.07" transform="matrix(0.9563 -0.2924 0.2924 0.9563 -7.3487 33.6547)" class="st63" width="0.68" height="32.69"/>
							
								<rect x="109.22" y="24.87" transform="matrix(0.9563 -0.2924 0.2924 0.9563 -7.2625 33.8353)" class="st62" width="0.68" height="32.69"/>
							
								<rect x="109.87" y="24.67" transform="matrix(0.9563 -0.2923 0.2923 0.9563 -7.1757 34.0045)" class="st61" width="0.68" height="32.69"/>
							
								<rect x="110.51" y="24.47" transform="matrix(0.9563 -0.2924 0.2924 0.9563 -7.0901 34.193)" class="st60" width="0.68" height="32.69"/>
							
								<rect x="111.16" y="24.27" transform="matrix(0.9563 -0.2924 0.2924 0.9563 -7.0041 34.377)" class="st59" width="0.68" height="32.69"/>
							
								<rect x="111.81" y="24.08" transform="matrix(0.9563 -0.2924 0.2924 0.9563 -6.918 34.5576)" class="st58" width="0.68" height="32.69"/>
							
								<rect x="112.45" y="23.88" transform="matrix(0.9563 -0.2924 0.2924 0.9563 -6.8318 34.7367)" class="st57" width="0.68" height="32.69"/>
							
								<rect x="113.1" y="23.68" transform="matrix(0.9563 -0.2924 0.2924 0.9563 -6.7456 34.9167)" class="st56" width="0.68" height="32.69"/>
						</g>
					</g>
					<g>
						<defs>
							
								<rect id="SVGID_31_" x="96.21" y="27.56" transform="matrix(0.9563 -0.2924 0.2924 0.9563 -8.4357 31.3673)" width="9.03" height="32.69"/>
						</defs>
						<clipPath id="SVGID_10_">
							<use xlink:href="#SVGID_31_"  style="overflow:visible;"/>
						</clipPath>
						<g class="st14">
							
								<rect x="96.29" y="28.23" transform="matrix(0.9563 -0.2924 0.2924 0.9563 -8.7268 30.7615)" class="st54" width="4.52" height="32.69"/>
							
								<rect x="100.61" y="26.91" transform="matrix(0.9563 -0.2924 0.2924 0.9563 -8.152 31.966)" class="st54" width="4.52" height="32.69"/>
						</g>
					</g>
				</g>
				<use xlink:href="#SVGID_23_"  style="overflow:visible;fill:none;stroke:#ADAFB1;stroke-width:0;stroke-miterlimit:3.8637;"/>
			</g>
		</g>
	</g>
</g>
</svg>
