<?xml version="1.0" encoding="utf-8"?>
<!-- Generator: Adobe Illustrator 23.1.1, SVG Export Plug-In . SVG Version: 6.00 Build 0)  -->
<svg version="1.1" id="Layer_1" xmlns="http://www.w3.org/2000/svg" xmlns:xlink="http://www.w3.org/1999/xlink" x="0px" y="0px"
	 viewBox="0 0 180 100" style="enable-background:new 0 0 180 100;" xml:space="preserve">
<style type="text/css">
	.st0{clip-path:url(#SVGID_2_);fill:#FFFFFF;}
	.st1{clip-path:url(#SVGID_2_);fill:none;stroke:#2A2523;stroke-width:1.2;stroke-miterlimit:10;}
	.st2{clip-path:url(#SVGID_2_);fill:#2A2523;}
	.st3{clip-path:url(#SVGID_2_);fill:#E32B27;}
	.st4{clip-path:url(#SVGID_4_);fill:#FFFFFF;}
	.st5{clip-path:url(#SVGID_4_);fill:none;stroke:#2A2523;stroke-width:1.2;stroke-miterlimit:10;}
	.st6{clip-path:url(#SVGID_4_);fill:#3AA9E0;}
	.st7{clip-path:url(#SVGID_4_);fill:#2A2523;}
	.st8{clip-path:url(#SVGID_6_);fill:#FFFFFF;}
	.st9{clip-path:url(#SVGID_6_);fill:none;stroke:#2A2523;stroke-width:1.2;stroke-miterlimit:10;}
	.st10{clip-path:url(#SVGID_6_);fill:#2F3080;}
	.st11{clip-path:url(#SVGID_6_);fill:#2A2523;}
	.st12{fill:#1D1C1A;}
	.st13{clip-path:url(#SVGID_8_);}
	.st14{clip-path:url(#SVGID_10_);}
	.st15{clip-path:url(#SVGID_12_);}
	.st16{clip-path:url(#SVGID_14_);}
	.st17{clip-path:url(#SVGID_16_);}
	.st18{clip-path:url(#SVGID_18_);}
	.st19{fill-rule:evenodd;clip-rule:evenodd;fill:#5B6770;}
	.st20{fill:none;stroke:#5B6770;stroke-width:1.8792;stroke-miterlimit:3.864;}
	.st21{fill-rule:evenodd;clip-rule:evenodd;fill:#79242F;}
	.st22{fill-rule:evenodd;clip-rule:evenodd;fill:#253A75;}
	.st23{fill:none;stroke:#253A75;stroke-width:0.132;stroke-miterlimit:3.864;}
	.st24{fill:#253A75;}
	.st25{fill:#002F3B;}
	.st26{fill:#A69E88;stroke:#A69E88;stroke-width:0.3401;stroke-miterlimit:10;}
	.st27{fill-rule:evenodd;clip-rule:evenodd;fill:#1D1C1A;}
	.st28{fill-rule:evenodd;clip-rule:evenodd;fill:#A5D0E6;}
	.st29{fill-rule:evenodd;clip-rule:evenodd;fill:#FFFFFF;}
	.st30{fill:#002D3A;}
	.st31{clip-path:url(#SVGID_20_);fill:#002E3A;}
	.st32{clip-path:url(#SVGID_20_);fill:#B68D4A;}
	.st33{fill:#B68D4A;}
	.st34{clip-path:url(#SVGID_22_);fill:#B68D4A;}
	.st35{fill:#BC955C;}
	.st36{fill:#A79F88;}
	.st37{fill:#00303C;stroke:#25A9E0;stroke-width:0.6856;stroke-dasharray:3.6133,3.6133;}
	.st38{fill:#00303C;}
	.st39{fill:#41695B;}
	.st40{fill:#907E63;}
	.st41{fill:#804951;}
	.st42{fill:#894B52;}
	.st43{fill:#42695B;stroke:#42695B;stroke-width:0.3;stroke-miterlimit:10;}
	.st44{fill:#231F20;}
	.st45{fill-rule:evenodd;clip-rule:evenodd;fill:#ADAFB1;}
	.st46{fill-rule:evenodd;clip-rule:evenodd;fill:#CFD0D2;stroke:#CFD0D2;stroke-width:0;stroke-miterlimit:3.8637;}
	.st47{fill-rule:evenodd;clip-rule:evenodd;fill:#ADAFB1;stroke:#ADAFB1;stroke-width:0;stroke-miterlimit:3.8637;}
	.st48{fill-rule:evenodd;clip-rule:evenodd;fill:#7A7C7F;stroke:#7A7C7F;stroke-width:0;stroke-miterlimit:3.8637;}
	.st49{fill-rule:evenodd;clip-rule:evenodd;fill:#BDBFC1;stroke:#BDBFC1;stroke-width:0;stroke-miterlimit:3.8637;}
	.st50{fill-rule:evenodd;clip-rule:evenodd;fill:none;stroke:#231F20;stroke-width:0.2422;stroke-miterlimit:3.8637;}
	.st51{fill-rule:evenodd;clip-rule:evenodd;fill:#B1B3B5;stroke:#B1B3B5;stroke-width:0;stroke-miterlimit:3.8637;}
	.st52{clip-path:url(#SVGID_24_);}
	.st53{clip-path:url(#SVGID_26_);}
	.st54{fill:#ADAFB1;}
	.st55{clip-path:url(#SVGID_28_);}
	.st56{fill:#FFFFFF;}
	.st57{fill:#F5F5F6;}
	.st58{fill:#EFF0F0;}
	.st59{fill:#E9EAEB;}
	.st60{fill:#E2E3E4;}
	.st61{fill:#DDDEDF;}
	.st62{fill:#D7D8DA;}
	.st63{fill:#D1D2D4;}
	.st64{fill:#CACCCE;}
	.st65{fill:#C4C6C8;}
	.st66{fill:#BFC1C3;}
	.st67{fill:#B8BABC;}
	.st68{fill:#B2B4B7;}
	.st69{clip-path:url(#SVGID_30_);}
	.st70{clip-path:url(#SVGID_32_);}
</style>
<g>
	<path class="st12" d="M110.52,57.66l-1.97,0l-5.35,14.68l2,0.04l1.73-4.55l4.57-0.01l0.67,0l1.81,4.51l1.99,0L110.52,57.66z
		 M108.36,66.38l-0.95,0l1.39-4.55l0.75-2.24l0.71,2.23l1.53,4.54L108.36,66.38z"/>
	<path class="st12" d="M53.79,67.59l0.06,2.33l-0.07,0l-1.2-2.28l-6.46-9.89l-2.13,0L44,72.39l1.97,0l0.01-9.86l-0.07-2.33h0.04
		l1.23,2.29l6.43,9.88l2.14,0l-0.02-14.65l-1.97,0L53.79,67.59z M24.54,68.03c-0.29-0.99-0.67-1.87-1.31-2.45
		c0.86-0.23,1.58-0.67,2.14-1.33c0.66-0.77,0.99-1.66,0.99-2.66c0-1.02-0.35-1.9-1.06-2.63c-0.8-0.8-1.87-1.2-3.24-1.2l-6.43,0.01
		l0.02,14.65l1.97,0l-0.01-6.57l2.41,0l0.86-0.01c0.57,0.02,0.98,0.53,1.34,1.09c0.46,0.7,0.59,1.57,1.03,2.81
		c0.4,1.15,1.38,2.62,3.18,3.3l0.61-1.45C25.21,70.67,24.93,69.36,24.54,68.03 M21.64,64.41l-4.03,0.2l-0.01-5.57l4.49,0.17
		c0.72,0.03,1.29,0.27,1.69,0.73c0.4,0.46,0.6,1.01,0.6,1.66c0,0.74-0.24,1.37-0.72,1.9C23.17,64.05,22.49,64.36,21.64,64.41
		 M63.95,57.72L58.6,72.39l1.99,0.04l1.74-4.55l4.57-0.01l0.67,0l1.82,4.51l1.99,0l-5.45-14.67L63.95,57.72z M63.76,66.44l-0.94,0
		l1.39-4.55l0.76-2.24l0.71,2.23l1.53,4.54L63.76,66.44z M32.53,65.35l5.85,0.19l0-1.54l-5.85,0.21l-0.01-5.23l7.48,0.21l0-1.44
		l-9.45,0.01l0.02,14.65l9.64-0.01l0-1.44l-7.68,0.23L32.53,65.35z M150.01,71.03L150,65.2l5.85,0.19l0-1.54L150,64.05l-0.01-5.22
		l7.48,0.21l0-1.44l-9.45,0.01l0.02,14.64l9.64-0.01l0-1.43L150.01,71.03z M128.58,67.49l0.05,2.33h-0.07l-1.21-2.28l-6.46-9.89
		l-2.14,0l0.02,14.64l1.97,0l0.01-9.86l-0.07-2.33h0.05l1.23,2.29l6.43,9.88l2.14,0l-0.02-14.64l-1.96,0L128.58,67.49z M99.18,64.79
		c-1.36-0.74-2.44-0.73-3.65-1.11c-1.32-0.4-1.97-1.11-1.97-2.12c0-1.72,0.98-2.58,2.93-2.6c0.1,0,0.84,0.01,1.57,0.26
		c0.75,0.25,1.41,0.68,1.63,1.41l1.26-0.47c-0.45-1.38-1.58-2.02-2.5-2.32c-0.94-0.31-1.75-0.31-2.02-0.31
		c-2.63,0-4.68,1.37-4.67,4.03c0,1.55,0.61,2.47,1.97,3.21c1.36,0.75,2.44,0.73,3.65,1.09c1.31,0.47,1.96,1.3,1.97,2.52
		c0,0.93-0.36,1.62-1.08,2.07c-0.4,0.27-0.98,0.49-1.96,0.52c-1.92,0.05-3.08-1.19-3.24-1.72l-1.46,0.64
		c0.55,1.71,2.85,2.64,4.66,2.63c1.1,0,2.44-0.28,3.3-0.87c1.06-0.71,1.58-1.81,1.58-3.29C101.15,66.68,100.54,65.53,99.18,64.79
		 M86.93,64.8c-1.36-0.74-2.44-0.73-3.65-1.11c-1.31-0.4-1.97-1.11-1.97-2.12c0-1.72,0.98-2.58,2.93-2.6c0.1,0,0.84,0.01,1.58,0.26
		c0.74,0.25,1.4,0.68,1.62,1.41l1.26-0.47c-0.44-1.38-1.57-2.02-2.5-2.32c-0.94-0.31-1.76-0.31-2.02-0.31
		c-2.63,0-4.68,1.37-4.67,4.03c0,1.55,0.62,2.47,1.98,3.21c1.36,0.75,2.44,0.73,3.65,1.09c1.31,0.47,1.96,1.3,1.96,2.52
		c0,0.93-0.36,1.62-1.08,2.07c-0.4,0.27-0.97,0.49-1.96,0.52c-1.91,0.05-3.08-1.19-3.24-1.72l-1.46,0.64
		c0.55,1.71,2.86,2.64,4.66,2.63c1.1,0,2.44-0.28,3.3-0.87c1.06-0.71,1.59-1.81,1.58-3.28C88.9,66.69,88.28,65.54,86.93,64.8
		 M74.01,72.35l1.97,0L75.96,57.7l-1.97,0L74.01,72.35z M140.36,71.11c-0.57,0-2.63-0.28-3.31-1.52c-0.51-0.91-0.77-2.46-0.78-4.64
		c0-2.26,0.27-3.83,0.81-4.72c0.59-0.94,1.57-1.42,3.23-1.42c1.13,0,2.53,0.6,3.28,1.19l0.81-1.14c-0.18-0.14-1.94-1.54-4.21-1.53
		c-2.12,0-3.64,0.6-4.56,1.78c-0.92,1.19-1.37,3.14-1.37,5.84c0,2.57,0.43,4.47,1.28,5.68c1.12,1.61,2.78,1.96,4.7,1.96
		c2.17,0,3.81-1.24,4.21-1.54l-0.83-1.12C142.83,70.48,141.89,71.11,140.36,71.11"/>
	<path class="st12" d="M162.08,62.08c-1.26,0-2.29-1.02-2.29-2.29c0-1.26,1.02-2.29,2.29-2.3c1.27,0,2.3,1.03,2.3,2.29
		C164.37,61.05,163.35,62.08,162.08,62.08 M162.07,57.82c-1.06,0-1.93,0.88-1.92,1.96c0,1.08,0.87,1.96,1.93,1.96
		c1.07,0,1.93-0.89,1.93-1.96C164,58.7,163.14,57.82,162.07,57.82 M162.64,61.04l-0.58-1.03h-0.38l0,1.03h-0.35l0-2.52l0.86,0
		c0.44,0,0.79,0.33,0.79,0.75c0,0.37-0.23,0.6-0.54,0.69l0.6,1.07H162.64z M162.15,58.83h-0.47l0,0.88h0.47
		c0.28,0,0.47-0.18,0.47-0.44C162.62,59.02,162.42,58.83,162.15,58.83"/>
	<path class="st12" d="M84.46,29.92c-1.28,0.02-1.77-0.04-3.05-0.04c-0.79-0.01-1.33-0.36-1.4-1.15c-0.18-2.18,0.01-2.73-0.09-6.48
		c-0.1-3.75,0.08-3.96-0.01-6.91c-0.02-0.74,0.62-0.99,1.36-1.05c1.18-0.09,1.07-0.08,2.19-0.08c0.97,0,2.28,0.1,3.66,0.64
		c0.85,0.33,1.62,0.92,2.16,1.56c0.97,1.18,1.78,2.77,1.79,5.63c0.01,1.37-0.01,1.73-0.35,2.85c-0.33,1.08-0.85,1.79-1.41,2.48
		c-0.59,0.73-1.33,1.16-2.14,1.67C86.36,29.52,85.67,29.89,84.46,29.92 M108.2,44.28c-0.1-0.06-0.41,0.05-0.58,0.1
		c-3.67,1.21-5.33,1.17-7.05,0.4c-3.25-1.46-4.23-3.52-5.19-5.51c-0.93-1.9-1.64-4.1-4.24-6.26c-1.28-1.06-3.11-1.61-3.91-2.05
		c1.87-0.27,3.22-0.89,4.23-1.42c0.97-0.52,1.52-0.93,2.22-1.67c0.71-0.74,1.55-2.1,1.81-3.15c0.62-2.6,0.36-3.68,0.24-4.67
		c-0.45-1.84-0.9-2.75-1.67-3.7c-1.6-2.02-4.51-2.78-6.01-3.15c-2.69-0.56-3.2-0.56-5.92-0.61c-2.49-0.04-2.9-0.07-6.81,0.03
		c-1.06,0.03-2.9,0.1-3.87,0.39c-0.37,0.14-0.31,0.75,0.05,0.9c1.9,0.79,2.57-0.85,2.87,1.18c0.48,3.26,0.35,3.43,0.44,7.15
		c0.1,3.72,0.02,3.73,0.11,7.45c0.1,3.72-0.04,3.73,0.06,7.45c0.02,0.66,0.22,5.65-0.38,7.09c-0.13,0.3-0.24,0.52-0.36,0.69
		c0,0,0,0,0,0.01c-0.16,0.26-0.37,0.55-1.18,0.58c-0.03,0-0.11,0.01-0.11,0.01l0,0c-0.68,0.03-0.97,0.08-1,0.09
		c-0.32,0.09-0.59,0.24-0.66,0.51c-0.16,0.63-0.05,0.72,0.7,0.75c0.74,0.04,2.82,0.03,6.11,0.02c2.08-0.01,2.71-0.03,3.67,0
		c0.28,0.02,0.62,0.03,0.88,0.03c0.34,0,1.02-0.02,1.58-0.06c0.37-0.03,0.4-0.39,0.4-0.65c0.01-0.12,0-0.23-0.04-0.3
		c-0.04-0.16-0.26-0.34-1.3-0.45c-0.31-0.04-0.37-0.05-0.74-0.1c-0.67-0.09-1.14-0.36-1.27-0.44c-0.08-0.05-0.43-0.32-0.71-0.57
		c-1.01-0.91-0.68-2.7-0.77-6.02c-0.08-3.32-0.2-3.06-0.05-6.41c0.06-1.48,3.43-1.15,3.91-1.16c1.62-0.03,3.08,1.13,4.43,4.17
		c0.76,1.72,1.68,4.3,3.39,6.71c1.31,1.86,2.58,3.73,5.28,4.77c1.68,0.65,4.88,0.73,7.64,0.07c2.42-0.72,3.56-1.52,3.79-1.68
		C108.42,44.63,108.33,44.36,108.2,44.28"/>
	<path class="st12" d="M33.54,82.61c0,0.54-0.16,0.99-0.48,1.36c-0.36,0.42-0.84,0.64-1.45,0.64h-0.07l-1.52-0.04l0,2.75l-0.81,0
		l-0.01-6.55l2.61,0c0.54,0,0.98,0.19,1.3,0.57C33.4,81.68,33.54,82.1,33.54,82.61 M32.76,82.64c0-0.32-0.08-0.61-0.25-0.85
		c-0.17-0.24-0.39-0.37-0.68-0.38l-1.81-0.08l0,2.73l1.61-0.1c0.36-0.02,0.65-0.16,0.86-0.44C32.67,83.28,32.76,82.98,32.76,82.64"
		/>
	<path class="st12" d="M40.68,84.02c0,0.97-0.13,1.71-0.4,2.22c-0.41,0.81-1.18,1.21-2.3,1.21c-1.12,0-1.89-0.4-2.31-1.2
		c-0.27-0.51-0.41-1.25-0.41-2.23c0-0.97,0.13-1.7,0.41-2.21c0.42-0.79,1.19-1.19,2.31-1.19s1.88,0.4,2.3,1.19
		C40.54,82.33,40.68,83.06,40.68,84.02 M39.87,84.02c0-0.85-0.1-1.48-0.3-1.87c-0.29-0.58-0.82-0.88-1.6-0.88
		c-0.77,0-1.31,0.28-1.6,0.83c-0.21,0.41-0.31,1.05-0.31,1.92c0,0.88,0.11,1.53,0.32,1.93c0.29,0.57,0.83,0.85,1.6,0.85
		c0.78,0,1.31-0.3,1.6-0.89C39.78,85.51,39.87,84.88,39.87,84.02"/>
	<polygon class="st12" points="46.62,87.29 42.73,87.3 42.72,80.75 43.53,80.75 43.53,86.75 46.62,86.64 	"/>
	<path class="st12" d="M53.35,87.19l-0.73,0.2l-0.77-2.11l-0.27,0l-2.29,0l-0.74,2.11l-0.73-0.21l2.35-6.44l0.8,0L53.35,87.19z
		 M51.62,84.63l-0.74-2.03l-0.29-1.08h-0.02l-0.29,1.08l-0.72,2.03l0.33,0L51.62,84.63z"/>
	<polygon class="st12" points="58.62,81.38 56.74,81.3 56.75,87.28 55.94,87.28 55.93,81.3 54.05,81.38 54.05,80.73 58.62,80.73 	
		"/>
	
		<rect x="63.61" y="80.72" transform="matrix(1 -1.861511e-03 1.861511e-03 1 -0.1563 0.1193)" class="st12" width="0.81" height="6.55"/>
	<path class="st12" d="M70.76,85.49c0,0.66-0.23,1.15-0.7,1.47c-0.38,0.26-0.9,0.39-1.56,0.39c-0.61,0-1.2-0.1-1.77-0.3l-0.43-0.16
		l0.24-0.62l0.54,0.2c0.41,0.14,0.85,0.22,1.31,0.22c0.45,0,0.8-0.09,1.07-0.26c0.32-0.2,0.48-0.51,0.48-0.93
		c0-0.54-0.29-0.92-0.87-1.12c-0.53-0.16-1.07-0.32-1.61-0.48c-0.58-0.27-0.87-0.74-0.87-1.44c0-1.2,0.7-1.8,2.1-1.8
		c0.46,0,0.98,0.06,1.57,0.18l0.35,0.08l-0.15,0.63l-0.43-0.08c-0.57-0.11-1.01-0.17-1.32-0.17c-0.87,0-1.31,0.39-1.31,1.16
		c0,0.45,0.29,0.77,0.87,0.95c0.53,0.17,1.07,0.33,1.61,0.49C70.47,84.2,70.76,84.73,70.76,85.49"/>
	<polygon class="st12" points="76.78,81.36 74.9,81.27 74.91,87.26 74.1,87.26 74.09,81.27 72.21,81.36 72.21,80.71 76.78,80.71 	
		"/>
	<path class="st12" d="M83.03,87.15l-0.73,0.2l-0.76-2.11l-0.27,0l-2.28,0l-0.75,2.11l-0.73-0.21l2.35-6.44l0.8,0L83.03,87.15z
		 M81.29,84.6l-0.74-2.03l-0.29-1.08h-0.02l-0.29,1.08l-0.72,2.03l0.33,0L81.29,84.6z"/>
	<polygon class="st12" points="89.5,87.24 88.64,87.24 86.03,82.82 85.54,81.79 85.51,81.79 85.54,82.84 85.54,87.24 84.74,87.24 
		84.73,80.7 85.59,80.69 88.22,85.12 88.7,86.14 88.73,86.14 88.71,85.1 88.7,80.69 89.5,80.69 	"/>
	<path class="st12" d="M96.38,85.38c0,0.49-0.16,0.91-0.48,1.26c-0.36,0.39-0.84,0.59-1.45,0.59l-2.65,0l-0.01-6.55l2.38,0
		c0.54,0,0.97,0.18,1.3,0.55c0.29,0.33,0.44,0.72,0.44,1.19c0,0.29-0.07,0.56-0.2,0.82c-0.16,0.3-0.36,0.49-0.63,0.58v0.01
		c0.4,0.03,0.71,0.2,0.95,0.53C96.27,84.65,96.38,84.99,96.38,85.38 M95.11,82.47c0-0.31-0.09-0.57-0.26-0.79
		c-0.17-0.23-0.39-0.34-0.66-0.36l-1.59-0.08l0,2.42l1.58-0.06c0.27-0.01,0.49-0.13,0.66-0.35C95.03,83.04,95.11,82.78,95.11,82.47
		 M95.58,85.36c0-0.3-0.08-0.56-0.25-0.78c-0.16-0.23-0.39-0.34-0.68-0.35l-2.03-0.06l0,2.49l1.85-0.08
		c0.35-0.02,0.63-0.16,0.83-0.41C95.49,85.96,95.58,85.69,95.58,85.36"/>
	<path class="st12" d="M103.25,85.47c0,1.26-0.8,1.9-2.41,1.9c-1.61,0-2.41-0.63-2.41-1.9l-0.01-4.8l0.81,0l0.01,4.8
		c0,0.39,0.09,0.68,0.28,0.86c0.25,0.25,0.69,0.38,1.32,0.38c0.64,0,1.08-0.13,1.32-0.38c0.19-0.19,0.28-0.48,0.28-0.86l-0.01-4.8
		l0.81,0L103.25,85.47z"/>
	<polygon class="st12" points="109.45,87.21 105.56,87.22 105.55,80.67 106.35,80.67 106.36,86.67 109.45,86.56 	"/>
	<polygon class="st12" points="119.15,87.2 118.34,87.2 118.33,84.1 115.24,84.1 115.25,87.21 114.44,87.21 114.43,80.66 
		115.24,80.66 115.24,83.45 118.33,83.45 118.33,80.65 119.14,80.65 	"/>
	<path class="st12" d="M126.59,83.91c0,0.97-0.13,1.71-0.4,2.22c-0.41,0.81-1.18,1.21-2.29,1.21c-1.12,0-1.89-0.4-2.31-1.2
		c-0.27-0.51-0.41-1.25-0.41-2.23c0-0.97,0.13-1.7,0.4-2.21c0.42-0.79,1.19-1.19,2.31-1.19c1.11,0,1.88,0.4,2.3,1.19
		C126.46,82.22,126.59,82.95,126.59,83.91 M125.78,83.91c0-0.85-0.1-1.48-0.3-1.87c-0.28-0.58-0.82-0.88-1.6-0.88
		c-0.77,0-1.31,0.28-1.6,0.83c-0.21,0.41-0.31,1.05-0.31,1.92c0,0.88,0.1,1.53,0.31,1.93c0.29,0.57,0.82,0.85,1.6,0.85
		c0.78,0,1.31-0.3,1.59-0.89C125.69,85.4,125.79,84.77,125.78,83.91"/>
	<polygon class="st12" points="132.68,81.28 130.81,81.2 130.81,87.19 130.01,87.19 130,81.2 128.12,81.29 128.12,80.64 
		132.68,80.64 	"/>
	<polygon class="st12" points="138.38,87.18 134.47,87.18 134.46,80.63 138.3,80.63 138.3,81.28 135.27,81.17 135.27,83.51 
		137.64,83.42 137.65,84.11 135.27,84.03 135.28,86.64 138.38,86.53 	"/>
	<polygon class="st12" points="144.25,87.17 140.36,87.17 140.35,80.62 141.16,80.62 141.17,86.63 144.25,86.52 	"/>
</g>
</svg>
