<?xml version="1.0" encoding="utf-8"?>
<!-- Generator: Adobe Illustrator 23.1.1, SVG Export Plug-In . SVG Version: 6.00 Build 0)  -->
<svg version="1.1" id="Layer_1" xmlns="http://www.w3.org/2000/svg" xmlns:xlink="http://www.w3.org/1999/xlink" x="0px" y="0px"
	 viewBox="0 0 180 100" style="enable-background:new 0 0 180 100;" xml:space="preserve">
<style type="text/css">
	.st0{clip-path:url(#SVGID_2_);fill:#FFFFFF;}
	.st1{clip-path:url(#SVGID_2_);fill:none;stroke:#2A2523;stroke-width:1.2;stroke-miterlimit:10;}
	.st2{clip-path:url(#SVGID_2_);fill:#2A2523;}
	.st3{clip-path:url(#SVGID_2_);fill:#E32B27;}
	.st4{clip-path:url(#SVGID_4_);fill:#FFFFFF;}
	.st5{clip-path:url(#SVGID_4_);fill:none;stroke:#2A2523;stroke-width:1.2;stroke-miterlimit:10;}
	.st6{clip-path:url(#SVGID_4_);fill:#3AA9E0;}
	.st7{clip-path:url(#SVGID_4_);fill:#2A2523;}
	.st8{clip-path:url(#SVGID_6_);fill:#FFFFFF;}
	.st9{clip-path:url(#SVGID_6_);fill:none;stroke:#2A2523;stroke-width:1.2;stroke-miterlimit:10;}
	.st10{clip-path:url(#SVGID_6_);fill:#2F3080;}
	.st11{clip-path:url(#SVGID_6_);fill:#2A2523;}
	.st12{fill:#1D1C1A;}
	.st13{clip-path:url(#SVGID_8_);}
	.st14{clip-path:url(#SVGID_10_);}
	.st15{clip-path:url(#SVGID_12_);}
	.st16{clip-path:url(#SVGID_14_);}
	.st17{clip-path:url(#SVGID_16_);}
	.st18{clip-path:url(#SVGID_18_);}
	.st19{fill-rule:evenodd;clip-rule:evenodd;fill:#5B6770;}
	.st20{fill:none;stroke:#5B6770;stroke-width:1.8792;stroke-miterlimit:3.864;}
	.st21{fill-rule:evenodd;clip-rule:evenodd;fill:#79242F;}
	.st22{fill-rule:evenodd;clip-rule:evenodd;fill:#253A75;}
	.st23{fill:none;stroke:#253A75;stroke-width:0.132;stroke-miterlimit:3.864;}
	.st24{fill:#253A75;}
	.st25{fill:#002F3B;}
	.st26{fill:#A69E88;stroke:#A69E88;stroke-width:0.3401;stroke-miterlimit:10;}
	.st27{fill-rule:evenodd;clip-rule:evenodd;fill:#1D1C1A;}
	.st28{fill-rule:evenodd;clip-rule:evenodd;fill:#A5D0E6;}
	.st29{fill-rule:evenodd;clip-rule:evenodd;fill:#FFFFFF;}
	.st30{fill:#002D3A;}
	.st31{clip-path:url(#SVGID_20_);fill:#002E3A;}
	.st32{clip-path:url(#SVGID_20_);fill:#B68D4A;}
	.st33{fill:#B68D4A;}
	.st34{clip-path:url(#SVGID_22_);fill:#B68D4A;}
	.st35{fill:#BC955C;}
	.st36{fill:#A79F88;}
	.st37{fill:#00303C;stroke:#25A9E0;stroke-width:0.6856;stroke-dasharray:3.6133,3.6133;}
	.st38{fill:#00303C;}
	.st39{fill:#41695B;}
	.st40{fill:#907E63;}
	.st41{fill:#804951;}
	.st42{fill:#894B52;}
	.st43{fill:#42695B;stroke:#42695B;stroke-width:0.3;stroke-miterlimit:10;}
	.st44{fill:#231F20;}
	.st45{fill-rule:evenodd;clip-rule:evenodd;fill:#ADAFB1;}
	.st46{fill-rule:evenodd;clip-rule:evenodd;fill:#CFD0D2;stroke:#CFD0D2;stroke-width:0;stroke-miterlimit:3.8637;}
	.st47{fill-rule:evenodd;clip-rule:evenodd;fill:#ADAFB1;stroke:#ADAFB1;stroke-width:0;stroke-miterlimit:3.8637;}
	.st48{fill-rule:evenodd;clip-rule:evenodd;fill:#7A7C7F;stroke:#7A7C7F;stroke-width:0;stroke-miterlimit:3.8637;}
	.st49{fill-rule:evenodd;clip-rule:evenodd;fill:#BDBFC1;stroke:#BDBFC1;stroke-width:0;stroke-miterlimit:3.8637;}
	.st50{fill-rule:evenodd;clip-rule:evenodd;fill:none;stroke:#231F20;stroke-width:0.2422;stroke-miterlimit:3.8637;}
	.st51{fill-rule:evenodd;clip-rule:evenodd;fill:#B1B3B5;stroke:#B1B3B5;stroke-width:0;stroke-miterlimit:3.8637;}
	.st52{clip-path:url(#SVGID_24_);}
	.st53{clip-path:url(#SVGID_26_);}
	.st54{fill:#ADAFB1;}
	.st55{clip-path:url(#SVGID_28_);}
	.st56{fill:#FFFFFF;}
	.st57{fill:#F5F5F6;}
	.st58{fill:#EFF0F0;}
	.st59{fill:#E9EAEB;}
	.st60{fill:#E2E3E4;}
	.st61{fill:#DDDEDF;}
	.st62{fill:#D7D8DA;}
	.st63{fill:#D1D2D4;}
	.st64{fill:#CACCCE;}
	.st65{fill:#C4C6C8;}
	.st66{fill:#BFC1C3;}
	.st67{fill:#B8BABC;}
	.st68{fill:#B2B4B7;}
	.st69{clip-path:url(#SVGID_30_);}
	.st70{clip-path:url(#SVGID_32_);}
</style>
<g>
	<g>
		<path class="st30" d="M135.8,76.73c0.23-0.18,0.53-0.27,0.9-0.27c0.61,0,1.17,0.21,1.69,0.64l0.39-0.51
			c-0.6-0.48-1.28-0.72-2.06-0.72c-0.56,0-1.02,0.15-1.38,0.45c-0.36,0.3-0.54,0.69-0.54,1.15c0,0.47,0.16,0.84,0.48,1.1
			c0.3,0.25,0.8,0.44,1.49,0.59c0.59,0.13,1,0.28,1.22,0.45c0.2,0.16,0.3,0.38,0.3,0.67c0,0.3-0.12,0.54-0.36,0.72
			c-0.24,0.19-0.55,0.28-0.95,0.28c-0.73,0-1.39-0.28-2.01-0.83l-0.41,0.49c0.7,0.63,1.49,0.94,2.39,0.94
			c0.59,0,1.06-0.15,1.44-0.46s0.56-0.71,0.56-1.21c0-0.45-0.15-0.8-0.46-1.06c-0.3-0.26-0.79-0.46-1.45-0.61
			c-0.62-0.14-1.05-0.29-1.28-0.47c-0.21-0.16-0.31-0.38-0.31-0.68C135.45,77.14,135.57,76.91,135.8,76.73 M131.05,75.95v0.6h-3.57
			v2h3.2v0.6h-3.2v2.05h3.61v0.6h-4.28v-5.86H131.05z M121.81,78.61c-0.28,0.22-0.64,0.33-1.09,0.33h-1.8v-2.38h1.81
			c0.47,0,0.84,0.1,1.1,0.31c0.26,0.21,0.39,0.49,0.39,0.85C122.23,78.1,122.09,78.39,121.81,78.61 M121.31,79.41
			c0.48-0.09,0.86-0.27,1.14-0.55c0.3-0.3,0.45-0.69,0.45-1.16c0-0.53-0.19-0.95-0.58-1.27c-0.39-0.32-0.9-0.48-1.54-0.48h-2.52
			v5.86h0.66v-2.28h1.67l1.7,2.28h0.81L121.31,79.41z M113.88,77.84c0-0.41-0.14-0.73-0.42-0.95c-0.28-0.22-0.67-0.33-1.15-0.33
			h-1.48v2.58h1.45c0.49,0,0.87-0.12,1.17-0.35C113.73,78.55,113.88,78.23,113.88,77.84 M114.55,77.82c0,0.61-0.23,1.09-0.69,1.44
			c-0.42,0.32-0.96,0.49-1.61,0.49h-1.42v2.07h-0.66v-5.86h2.19c0.66,0,1.2,0.17,1.59,0.5C114.35,76.79,114.55,77.24,114.55,77.82
			 M103.16,76.73c0.23-0.18,0.53-0.27,0.9-0.27c0.61,0,1.17,0.21,1.69,0.64l0.39-0.51c-0.6-0.48-1.28-0.72-2.06-0.72
			c-0.56,0-1.02,0.15-1.38,0.45c-0.36,0.3-0.54,0.69-0.54,1.15c0,0.47,0.16,0.84,0.48,1.1c0.3,0.25,0.8,0.44,1.49,0.59
			c0.59,0.13,1,0.28,1.22,0.45c0.2,0.16,0.3,0.38,0.3,0.67c0,0.3-0.12,0.54-0.36,0.72c-0.24,0.19-0.56,0.28-0.95,0.28
			c-0.73,0-1.39-0.28-2.01-0.83l-0.41,0.49c0.7,0.63,1.5,0.94,2.39,0.94c0.59,0,1.07-0.15,1.44-0.46c0.37-0.3,0.56-0.71,0.56-1.21
			c0-0.45-0.15-0.8-0.46-1.06c-0.3-0.26-0.79-0.46-1.45-0.61c-0.62-0.14-1.05-0.29-1.28-0.47c-0.21-0.16-0.31-0.38-0.31-0.68
			C102.82,77.14,102.93,76.91,103.16,76.73 M96.14,78.51l2.62,3.3h-0.83l-2.25-2.84l-1.25,1.26v1.57h-0.66v-5.86h0.66v3.5l3.36-3.5
			h0.85L96.14,78.51z M85.66,75.95v5.86h4.28v-0.6h-3.61v-2.05h3.2v-0.6h-3.2v-2h3.57v-0.6H85.66z M75.83,80.64v-4.69h0.64v5.86
			h-0.53l-3.78-4.8v4.8h-0.64v-5.86h0.62L75.83,80.64z M66.64,81.81h0.66v-5.86h-0.66V81.81z M59.24,77.41c0,0.3,0.1,0.52,0.31,0.68
			c0.23,0.18,0.66,0.33,1.28,0.47c0.66,0.14,1.15,0.35,1.45,0.61c0.3,0.26,0.46,0.61,0.46,1.06c0,0.5-0.19,0.9-0.56,1.21
			c-0.37,0.3-0.85,0.46-1.44,0.46c-0.9,0-1.7-0.31-2.39-0.94l0.41-0.49c0.61,0.55,1.28,0.83,2.01,0.83c0.39,0,0.71-0.09,0.95-0.28
			c0.24-0.19,0.36-0.43,0.36-0.72c0-0.29-0.1-0.51-0.3-0.67c-0.22-0.17-0.63-0.32-1.22-0.45c-0.69-0.15-1.19-0.35-1.49-0.59
			c-0.32-0.26-0.48-0.63-0.48-1.1c0-0.47,0.18-0.85,0.54-1.15c0.36-0.3,0.82-0.45,1.38-0.45c0.78,0,1.46,0.24,2.06,0.72l-0.39,0.51
			c-0.52-0.42-1.08-0.64-1.69-0.64c-0.37,0-0.67,0.09-0.9,0.27C59.35,76.91,59.24,77.14,59.24,77.41 M50.73,79.67l1.34-2.99
			l1.33,2.99H50.73z M51.76,75.9l-2.67,5.91h0.68l0.69-1.55h3.19l0.69,1.55h0.71l-2.67-5.91H51.76z M43.67,81.21
			c0.45,0,0.8-0.09,1.05-0.28c0.26-0.19,0.39-0.44,0.39-0.77c0-0.67-0.52-1.01-1.56-1.01H41.7v2.07H43.67z M43.43,78.56
			c0.41,0,0.73-0.09,0.98-0.27c0.25-0.18,0.37-0.44,0.37-0.78c0-0.3-0.11-0.53-0.34-0.7c-0.23-0.17-0.55-0.26-0.96-0.26H41.7v2.02
			H43.43z M43.54,75.95c0.58,0,1.04,0.13,1.39,0.4c0.35,0.27,0.52,0.62,0.52,1.07c0,0.64-0.31,1.1-0.93,1.36
			c0.84,0.25,1.26,0.73,1.26,1.42c0,0.5-0.19,0.9-0.58,1.18c-0.38,0.28-0.9,0.43-1.55,0.43h-2.6v-5.86H43.54z M153.33,18.38h-14.08
			v4.33h1c0.04-0.95,0.21-1.65,0.51-2.1c0.3-0.45,0.64-0.73,1.03-0.83c0.39-0.1,0.89-0.15,1.48-0.15h1.51v11.18
			c0,0.66-0.13,1.13-0.38,1.4c-0.25,0.27-0.82,0.41-1.69,0.41v1.04h7.15v-1.04c-0.59,0-1.05-0.07-1.36-0.2
			c-0.31-0.14-0.5-0.32-0.59-0.57c-0.08-0.24-0.13-0.59-0.13-1.03V19.63h1.81c0.45,0,0.84,0.05,1.19,0.16
			c0.34,0.11,0.66,0.38,0.96,0.83c0.3,0.45,0.49,1.15,0.58,2.09h1V18.38z M119.97,28.27l-1.97-5.32l-1.87,5.32H119.97z
			 M126.23,33.64h-6.72v-1.04c0.57,0,0.98-0.04,1.24-0.13c0.26-0.09,0.39-0.29,0.39-0.61c0-0.23-0.04-0.45-0.13-0.69l-0.67-1.8
			h-4.62l-0.35,0.99c-0.2,0.56-0.29,0.96-0.29,1.2c0,0.45,0.16,0.74,0.49,0.86c0.33,0.12,0.71,0.18,1.14,0.18v1.04h-4.91v-1.04
			c0.39,0,0.73-0.08,1-0.24c0.27-0.16,0.54-0.46,0.78-0.9c0.25-0.44,0.52-1.06,0.8-1.86l3.93-11.24h1l4.52,11.6
			c0.32,0.84,0.55,1.41,0.69,1.71c0.15,0.3,0.35,0.53,0.61,0.69c0.26,0.16,0.62,0.24,1.09,0.24V33.64z M97.32,28.54
			c-0.13,1.17-0.45,2.04-0.96,2.61c-0.51,0.57-1.08,0.92-1.68,1.05c-0.61,0.13-1.31,0.2-2.12,0.2c-0.64,0-1.1-0.08-1.38-0.23
			c-0.28-0.15-0.45-0.38-0.52-0.68c-0.06-0.3-0.09-0.79-0.09-1.49v-8.78c0-0.46,0.05-0.81,0.14-1.05c0.09-0.24,0.29-0.43,0.6-0.56
			c0.3-0.13,0.75-0.19,1.35-0.19v-1.04H85.5v1.04c0.6,0,1.06,0.07,1.36,0.2c0.3,0.13,0.5,0.32,0.58,0.57
			c0.08,0.24,0.13,0.59,0.13,1.03v9.59c0,0.66-0.13,1.13-0.38,1.4c-0.25,0.27-0.82,0.41-1.69,0.41v1.04h12.69l0.09-5.1H97.32z
			 M66.84,25.97c0-0.86-0.07-1.67-0.21-2.43c-0.14-0.77-0.38-1.46-0.72-2.08c-0.34-0.62-0.81-1.11-1.41-1.47
			c-0.6-0.36-1.33-0.55-2.21-0.55c-1.2,0-2.15,0.32-2.82,0.96c-0.68,0.64-1.13,1.44-1.38,2.41c-0.24,0.96-0.36,2.02-0.36,3.16
			c0,0.63,0.04,1.29,0.12,1.97c0.08,0.68,0.26,1.38,0.56,2.1c0.29,0.72,0.76,1.32,1.41,1.81c0.64,0.49,1.48,0.74,2.5,0.74
			c1.02,0,1.84-0.25,2.48-0.76c0.63-0.51,1.1-1.13,1.39-1.86c0.29-0.73,0.47-1.43,0.55-2.1C66.8,27.2,66.84,26.57,66.84,25.97
			 M70.24,26.01c0,1.39-0.31,2.69-0.92,3.9c-0.62,1.21-1.53,2.18-2.74,2.92c-1.21,0.73-2.64,1.1-4.28,1.1
			c-1.35,0-2.53-0.23-3.55-0.7c-1.02-0.47-1.86-1.09-2.51-1.87c-0.65-0.78-1.13-1.64-1.44-2.57c-0.31-0.93-0.47-1.86-0.47-2.8
			c0-1.36,0.3-2.64,0.89-3.85c0.6-1.21,1.49-2.18,2.69-2.92c1.2-0.74,2.63-1.11,4.3-1.11c1.52,0,2.81,0.27,3.88,0.8
			c1.06,0.53,1.9,1.2,2.49,2.01c0.6,0.81,1.02,1.66,1.28,2.55C70.11,24.36,70.24,25.21,70.24,26.01 M35.2,25
			c-0.64,0.38-1.47,0.57-2.5,0.57h-0.97v-6.13c0.35-0.02,0.62-0.02,0.82-0.02c1.08,0,1.95,0.2,2.61,0.61
			c0.66,0.41,0.99,1.22,0.99,2.44C36.16,23.78,35.84,24.63,35.2,25 M36.09,18.49c-0.61-0.09-0.87-0.11-1.65-0.12
			c-2.59-0.04-7.78,0-7.78,0v1c0.61,0,1.06,0.07,1.36,0.21c0.29,0.14,0.48,0.33,0.57,0.57c0.08,0.24,0.13,0.58,0.13,1.02v9.64
			c0,0.43-0.04,0.78-0.13,1.02c-0.09,0.25-0.28,0.44-0.57,0.57c-0.29,0.13-0.74,0.2-1.35,0.2v1.04h7.17v-1.04
			c-0.62,0-1.08-0.06-1.38-0.19c-0.3-0.13-0.5-0.32-0.59-0.56c-0.09-0.25-0.14-0.6-0.14-1.05v-3.98h0.95c1.08,0,2.11-0.09,3.08-0.28
			c0.98-0.18,1.83-0.6,2.55-1.25c0.72-0.65,1.08-1.6,1.08-2.85C39.39,21.16,38.94,18.96,36.09,18.49 M63.75,59.55
			c0.59-1.18,0.88-2.62,0.88-4.33c0-1.68-0.29-3.11-0.86-4.28c-0.76-1.52-1.89-2.28-3.4-2.28c-1.59,0-2.78,0.74-3.55,2.22
			c-0.6,1.18-0.9,2.63-0.9,4.37c0,1.69,0.31,3.13,0.93,4.3c0.77,1.51,1.93,2.26,3.47,2.26C61.84,61.81,62.99,61.06,63.75,59.55
			 M145.03,54.67c2.44,0,3.66-1.01,3.66-3.01c0-1.82-1.08-2.73-3.25-2.73l-1.44-0.04v5.77C144.22,54.66,144.57,54.67,145.03,54.67
			 M153.51,62.46c-0.63,0.06-1.13,0.09-1.51,0.09c-1.08,0-1.89-0.27-2.45-0.82c-0.42-0.42-0.77-1.09-1.06-2.02
			c-0.49-1.62-0.74-2.45-0.75-2.5c-0.4-1.02-1.2-1.56-2.39-1.61c-0.27-0.01-0.73-0.02-1.36-0.02v5.23c0,0.36,0.24,0.59,0.71,0.71
			c0.17,0.03,0.55,0.06,1.14,0.09v0.82c-2.21-0.07-4.31-0.07-6.31,0.02V61.6c0.37-0.03,0.75-0.05,1.12-0.06
			c0.47-0.09,0.71-0.3,0.71-0.64V49.67c0-0.39-0.23-0.63-0.69-0.73c-0.17-0.04-0.56-0.06-1.16-0.06v-0.9
			c0.39,0.04,1.79,0.06,4.2,0.06c1.92,0,2.98,0.01,3.16,0.02c1.32,0.09,2.32,0.35,3.01,0.8c0.89,0.56,1.33,1.45,1.33,2.67
			c0,0.98-0.35,1.77-1.05,2.39c-0.63,0.54-1.45,0.9-2.45,1.05c1.18,0.26,2.09,0.98,2.75,2.17c0.4,1.02,0.82,2.03,1.25,3.04
			c0.43,1,1.03,1.48,1.79,1.42V62.46z M125.42,62.41l-12.12,0.02V61.6c0.55,0,0.93-0.03,1.14-0.09c0.44-0.11,0.67-0.36,0.67-0.75
			V49.8c0-0.43-0.23-0.71-0.69-0.84c-0.23-0.07-0.63-0.11-1.21-0.11v-0.84h2.28h2.3c0.9,0,2.1-0.01,3.59-0.03
			c1.85-0.02,3.04-0.03,3.57-0.03c0,1.58,0.01,2.76,0.02,3.55h-1.08c-0.14-0.83-0.34-1.42-0.6-1.78c-0.36-0.51-0.91-0.76-1.66-0.76
			h-3.94v5.49h2.38c0.86,0,1.28-0.73,1.28-2.17h1.01c-0.03,1.58-0.03,3.36,0,5.34h-1.01c0-0.54-0.11-1.02-0.32-1.42
			c-0.26-0.5-0.64-0.75-1.14-0.75h-2.2v4.69c0,0.59,0.13,0.97,0.39,1.14c0.2,0.14,0.6,0.22,1.21,0.22h3.66
			c0.57,0,0.98-0.39,1.21-1.16c0.11-0.63,0.22-1.26,0.32-1.87h0.93V62.41z M100.96,48.81c-0.85,0.12-1.33,0.34-1.44,0.67
			c-0.21,0.59-0.55,1.59-0.99,2.99l-3.14,9.92l-1.25,0.11l-3.57-11.04L86.93,62.5l-1.23-0.09l-3.94-12.28
			c-0.07-0.2-0.21-0.44-0.42-0.72c-0.21-0.28-0.4-0.45-0.57-0.51c-0.03-0.01-0.22-0.06-0.56-0.13v-0.8
			c0.49,0.04,1.48,0.06,2.97,0.06c1.28,0,2.12-0.02,2.52-0.06v0.8c-0.3,0.01-0.6,0.03-0.9,0.04c-0.39,0.04-0.58,0.2-0.58,0.48
			c0,0.29,0.43,1.79,1.29,4.51c0.53,1.65,1.06,3.3,1.59,4.96l2.02-6.28c0.52-1.6,0.78-2.54,0.78-2.8c0-0.14-0.08-0.3-0.25-0.48
			c-0.17-0.17-0.32-0.27-0.47-0.3c-0.15-0.03-0.38-0.07-0.7-0.13v-0.8c0.49,0.04,1.48,0.06,2.97,0.06c1.28,0,2.12-0.02,2.54-0.06
			v0.8c-0.3,0.01-0.6,0.02-0.9,0.02c-0.4,0.07-0.6,0.24-0.6,0.5c0,0.17,0.2,0.92,0.6,2.23l2.26,7.35l2.39-7.71
			c0.14-0.45,0.22-0.9,0.22-1.37c0-0.48-0.14-0.77-0.41-0.89c-0.13-0.06-0.49-0.09-1.1-0.09v-0.84c0.23,0,0.57,0.01,1.03,0.04
			c0.46,0.03,0.8,0.04,1.03,0.04c1.11,0,1.92-0.03,2.45-0.09V48.81z M67.58,55.2c0,2.12-0.68,3.91-2.04,5.36
			c-1.41,1.48-3.16,2.22-5.27,2.22c-2.12,0-3.88-0.75-5.27-2.24c-1.38-1.45-2.07-3.24-2.07-5.38c0-2.12,0.7-3.9,2.09-5.34
			c1.39-1.44,3.14-2.15,5.25-2.15c2.12,0,3.87,0.72,5.25,2.16C66.89,51.28,67.58,53.07,67.58,55.2 M39.43,51.78h-1.08
			c-0.04-0.52-0.19-1.04-0.45-1.57c-0.32-0.65-0.68-1.02-1.1-1.12c-0.5-0.11-1.08-0.16-1.72-0.15h-0.75v11.97
			c0,0.34,0.27,0.56,0.82,0.64c0.19,0.03,0.59,0.04,1.2,0.04v0.86c-1.03-0.04-2.07-0.06-3.1-0.06c-1.22,0-2.45,0.02-3.68,0.06V61.6
			c0.62,0,1.02-0.02,1.21-0.04c0.54-0.09,0.82-0.3,0.82-0.65V48.94h-0.75c-0.65-0.01-1.22,0.04-1.72,0.15
			c-0.42,0.1-0.78,0.47-1.1,1.12c-0.26,0.53-0.41,1.05-0.45,1.57l-1.08,0.02v-3.79l12.94-0.02V51.78z M164.17,66.21V42.95
			c0-1.12-0.9-2.02-2.02-2.02H17.86c-1.12,0-2.02,0.9-2.02,2.02v23.26c0,1.12,0.9,2.02,2.02,2.02h144.29
			C163.26,68.23,164.17,67.32,164.17,66.21"/>
	</g>
</g>
</svg>
