<?xml version="1.0" encoding="utf-8"?>
<!-- Generator: Adobe Illustrator 23.1.1, SVG Export Plug-In . SVG Version: 6.00 Build 0)  -->
<svg version="1.1" id="Layer_1" xmlns="http://www.w3.org/2000/svg" xmlns:xlink="http://www.w3.org/1999/xlink" x="0px" y="0px"
	 viewBox="0 0 180 100" style="enable-background:new 0 0 180 100;" xml:space="preserve">
<style type="text/css">
	.st0{clip-path:url(#SVGID_2_);fill:#FFFFFF;}
	.st1{clip-path:url(#SVGID_2_);fill:none;stroke:#2A2523;stroke-width:1.2;stroke-miterlimit:10;}
	.st2{clip-path:url(#SVGID_2_);fill:#2A2523;}
	.st3{clip-path:url(#SVGID_2_);fill:#E32B27;}
	.st4{clip-path:url(#SVGID_4_);fill:#FFFFFF;}
	.st5{clip-path:url(#SVGID_4_);fill:none;stroke:#2A2523;stroke-width:1.2;stroke-miterlimit:10;}
	.st6{clip-path:url(#SVGID_4_);fill:#3AA9E0;}
	.st7{clip-path:url(#SVGID_4_);fill:#2A2523;}
	.st8{clip-path:url(#SVGID_6_);fill:#FFFFFF;}
	.st9{clip-path:url(#SVGID_6_);fill:none;stroke:#2A2523;stroke-width:1.2;stroke-miterlimit:10;}
	.st10{clip-path:url(#SVGID_6_);fill:#2F3080;}
	.st11{clip-path:url(#SVGID_6_);fill:#2A2523;}
	.st12{fill:#1D1C1A;}
	.st13{clip-path:url(#SVGID_8_);}
	.st14{clip-path:url(#SVGID_10_);}
	.st15{clip-path:url(#SVGID_12_);}
	.st16{clip-path:url(#SVGID_14_);}
	.st17{clip-path:url(#SVGID_16_);}
	.st18{clip-path:url(#SVGID_18_);}
	.st19{fill-rule:evenodd;clip-rule:evenodd;fill:#5B6770;}
	.st20{fill:none;stroke:#5B6770;stroke-width:1.8792;stroke-miterlimit:3.864;}
	.st21{fill-rule:evenodd;clip-rule:evenodd;fill:#79242F;}
	.st22{fill-rule:evenodd;clip-rule:evenodd;fill:#253A75;}
	.st23{fill:none;stroke:#253A75;stroke-width:0.132;stroke-miterlimit:3.864;}
	.st24{fill:#253A75;}
	.st25{fill:#002F3B;}
	.st26{fill:#A69E88;stroke:#A69E88;stroke-width:0.3401;stroke-miterlimit:10;}
	.st27{fill-rule:evenodd;clip-rule:evenodd;fill:#1D1C1A;}
	.st28{fill-rule:evenodd;clip-rule:evenodd;fill:#A5D0E6;}
	.st29{fill-rule:evenodd;clip-rule:evenodd;fill:#FFFFFF;}
	.st30{fill:#002D3A;}
	.st31{clip-path:url(#SVGID_20_);fill:#002E3A;}
	.st32{clip-path:url(#SVGID_20_);fill:#B68D4A;}
	.st33{fill:#B68D4A;}
	.st34{clip-path:url(#SVGID_22_);fill:#B68D4A;}
	.st35{fill:#BC955C;}
	.st36{fill:#A79F88;}
	.st37{fill:#00303C;stroke:#25A9E0;stroke-width:0.6856;stroke-dasharray:3.6133,3.6133;}
	.st38{fill:#00303C;}
	.st39{fill:#41695B;}
	.st40{fill:#907E63;}
	.st41{fill:#804951;}
	.st42{fill:#894B52;}
	.st43{fill:#42695B;stroke:#42695B;stroke-width:0.3;stroke-miterlimit:10;}
	.st44{fill:#231F20;}
	.st45{fill-rule:evenodd;clip-rule:evenodd;fill:#ADAFB1;}
	.st46{fill-rule:evenodd;clip-rule:evenodd;fill:#CFD0D2;stroke:#CFD0D2;stroke-width:0;stroke-miterlimit:3.8637;}
	.st47{fill-rule:evenodd;clip-rule:evenodd;fill:#ADAFB1;stroke:#ADAFB1;stroke-width:0;stroke-miterlimit:3.8637;}
	.st48{fill-rule:evenodd;clip-rule:evenodd;fill:#7A7C7F;stroke:#7A7C7F;stroke-width:0;stroke-miterlimit:3.8637;}
	.st49{fill-rule:evenodd;clip-rule:evenodd;fill:#BDBFC1;stroke:#BDBFC1;stroke-width:0;stroke-miterlimit:3.8637;}
	.st50{fill-rule:evenodd;clip-rule:evenodd;fill:none;stroke:#231F20;stroke-width:0.2422;stroke-miterlimit:3.8637;}
	.st51{fill-rule:evenodd;clip-rule:evenodd;fill:#B1B3B5;stroke:#B1B3B5;stroke-width:0;stroke-miterlimit:3.8637;}
	.st52{clip-path:url(#SVGID_24_);}
	.st53{clip-path:url(#SVGID_26_);}
	.st54{fill:#ADAFB1;}
	.st55{clip-path:url(#SVGID_28_);}
	.st56{fill:#FFFFFF;}
	.st57{fill:#F5F5F6;}
	.st58{fill:#EFF0F0;}
	.st59{fill:#E9EAEB;}
	.st60{fill:#E2E3E4;}
	.st61{fill:#DDDEDF;}
	.st62{fill:#D7D8DA;}
	.st63{fill:#D1D2D4;}
	.st64{fill:#CACCCE;}
	.st65{fill:#C4C6C8;}
	.st66{fill:#BFC1C3;}
	.st67{fill:#B8BABC;}
	.st68{fill:#B2B4B7;}
	.st69{clip-path:url(#SVGID_30_);}
	.st70{clip-path:url(#SVGID_32_);}
</style>
<g>
	<g>
		<path class="st39" d="M37.73,33.13h-4.66v8.06h-3.11v-20.5h7.77c4,0,6.56,2.65,6.56,6.22S41.73,33.13,37.73,33.13z M37.56,23.49
			h-4.49v6.82h4.49c2.16,0,3.63-1.24,3.63-3.4S39.72,23.49,37.56,23.49z"/>
		<path class="st39" d="M69.6,39.18c-1.41,1.41-3.23,2.19-5.41,2.19c-2.19,0-3.97-0.78-5.38-2.19c-2.02-2.02-1.99-4.29-1.99-8.23
			c0-3.94-0.03-6.22,1.99-8.23c1.41-1.41,3.2-2.19,5.38-2.19c2.19,0,4,0.78,5.41,2.19c2.01,2.02,1.96,4.29,1.96,8.23
			C71.56,34.89,71.62,37.16,69.6,39.18z M67.24,24.58c-0.72-0.78-1.84-1.27-3.05-1.27c-1.21,0-2.33,0.49-3.05,1.27
			c-1.01,1.09-1.21,2.24-1.21,6.36s0.2,5.27,1.21,6.36c0.72,0.78,1.84,1.27,3.05,1.27c1.21,0,2.33-0.49,3.05-1.27
			c1.01-1.09,1.21-2.25,1.21-6.36S68.25,25.68,67.24,24.58z"/>
		<path class="st39" d="M85.67,41.19v-20.5h3.11v17.7h9.87v2.79H85.67z"/>
		<path class="st39" d="M123.47,41.19l-1.41-4.12h-8.09l-1.41,4.12h-3.31l7.51-20.5h2.5l7.51,20.5H123.47z M118.08,25.33l-3.2,9.1
			h6.31L118.08,25.33z"/>
		<path class="st39" d="M144.4,23.49v17.7h-3.11v-17.7h-5.64v-2.79h14.39v2.79H144.4z"/>
	</g>
	<g>
		<path class="st39" d="M20.58,79.3v-20.5h13.1v2.79h-9.99v5.99h8.52v2.76h-8.52v6.16h9.99v2.79H20.58z"/>
		<path class="st39" d="M60.02,79.3l-9.47-14.42V79.3h-3.11v-20.5h2.85l9.47,14.39V58.81h3.11v20.5H60.02z"/>
		<path class="st39" d="M77.72,79.3v-20.5h13.1v2.79h-9.99v5.99h8.52v2.76h-8.52v6.16h9.99v2.79H77.72z"/>
		<path class="st39" d="M115.9,79.3l-4.32-8.64h-3.89v8.64h-3.11v-20.5h7.94c3.89,0,6.36,2.5,6.36,5.99c0,2.94-1.79,4.81-4.09,5.44
			l4.72,9.07H115.9z M112.29,61.6h-4.6v6.42h4.6c2.07,0,3.48-1.18,3.48-3.19C115.78,62.81,114.37,61.6,112.29,61.6z"/>
		<path class="st39" d="M135.36,79.48c-2.1,0-3.57-0.58-4.98-1.99l2.07-2.04c0.72,0.72,1.41,1.24,2.91,1.24
			c2.3,0,3.71-1.41,3.71-4.09V58.81h3.11v14.02C142.18,77.09,139.13,79.48,135.36,79.48z"/>
		<path class="st39" d="M156.32,61.83v-3.11h3.11v3.11H156.32z M156.4,79.3V64.71h2.94V79.3H156.4z"/>
	</g>
</g>
</svg>
