<?xml version="1.0" encoding="utf-8"?>
<!-- Generator: Adobe Illustrator 23.1.1, SVG Export Plug-In . SVG Version: 6.00 Build 0)  -->
<svg version="1.1" id="Layer_1" xmlns="http://www.w3.org/2000/svg" xmlns:xlink="http://www.w3.org/1999/xlink" x="0px" y="0px"
	 viewBox="0 0 180 100" style="enable-background:new 0 0 180 100;" xml:space="preserve">
<style type="text/css">
	.st0{clip-path:url(#SVGID_2_);fill:#FFFFFF;}
	.st1{clip-path:url(#SVGID_2_);fill:none;stroke:#2A2523;stroke-width:1.2;stroke-miterlimit:10;}
	.st2{clip-path:url(#SVGID_2_);fill:#2A2523;}
	.st3{clip-path:url(#SVGID_2_);fill:#E32B27;}
	.st4{clip-path:url(#SVGID_4_);fill:#FFFFFF;}
	.st5{clip-path:url(#SVGID_4_);fill:none;stroke:#2A2523;stroke-width:1.2;stroke-miterlimit:10;}
	.st6{clip-path:url(#SVGID_4_);fill:#3AA9E0;}
	.st7{clip-path:url(#SVGID_4_);fill:#2A2523;}
	.st8{clip-path:url(#SVGID_6_);fill:#FFFFFF;}
	.st9{clip-path:url(#SVGID_6_);fill:none;stroke:#2A2523;stroke-width:1.2;stroke-miterlimit:10;}
	.st10{clip-path:url(#SVGID_6_);fill:#2F3080;}
	.st11{clip-path:url(#SVGID_6_);fill:#2A2523;}
	.st12{fill:#1D1C1A;}
	.st13{clip-path:url(#SVGID_8_);}
	.st14{clip-path:url(#SVGID_10_);}
	.st15{clip-path:url(#SVGID_12_);}
	.st16{clip-path:url(#SVGID_14_);}
	.st17{clip-path:url(#SVGID_16_);}
	.st18{clip-path:url(#SVGID_18_);}
	.st19{fill-rule:evenodd;clip-rule:evenodd;fill:#5B6770;}
	.st20{fill:none;stroke:#5B6770;stroke-width:1.8792;stroke-miterlimit:3.864;}
	.st21{fill-rule:evenodd;clip-rule:evenodd;fill:#79242F;}
	.st22{fill-rule:evenodd;clip-rule:evenodd;fill:#253A75;}
	.st23{fill:none;stroke:#253A75;stroke-width:0.132;stroke-miterlimit:3.864;}
	.st24{fill:#253A75;}
	.st25{fill:#002F3B;}
	.st26{fill:#A69E88;stroke:#A69E88;stroke-width:0.3401;stroke-miterlimit:10;}
	.st27{fill-rule:evenodd;clip-rule:evenodd;fill:#1D1C1A;}
	.st28{fill-rule:evenodd;clip-rule:evenodd;fill:#A5D0E6;}
	.st29{fill-rule:evenodd;clip-rule:evenodd;fill:#FFFFFF;}
	.st30{fill:#002D3A;}
	.st31{clip-path:url(#SVGID_20_);fill:#002E3A;}
	.st32{clip-path:url(#SVGID_20_);fill:#B68D4A;}
	.st33{fill:#B68D4A;}
	.st34{clip-path:url(#SVGID_22_);fill:#B68D4A;}
	.st35{fill:#BC955C;}
	.st36{fill:#A79F88;}
	.st37{fill:#00303C;stroke:#25A9E0;stroke-width:0.6856;stroke-dasharray:3.6133,3.6133;}
	.st38{fill:#00303C;}
	.st39{fill:#41695B;}
	.st40{fill:#907E63;}
	.st41{fill:#804951;}
	.st42{fill:#894B52;}
	.st43{fill:#42695B;stroke:#42695B;stroke-width:0.3;stroke-miterlimit:10;}
	.st44{fill:#231F20;}
	.st45{fill-rule:evenodd;clip-rule:evenodd;fill:#ADAFB1;}
	.st46{fill-rule:evenodd;clip-rule:evenodd;fill:#CFD0D2;stroke:#CFD0D2;stroke-width:0;stroke-miterlimit:3.8637;}
	.st47{fill-rule:evenodd;clip-rule:evenodd;fill:#ADAFB1;stroke:#ADAFB1;stroke-width:0;stroke-miterlimit:3.8637;}
	.st48{fill-rule:evenodd;clip-rule:evenodd;fill:#7A7C7F;stroke:#7A7C7F;stroke-width:0;stroke-miterlimit:3.8637;}
	.st49{fill-rule:evenodd;clip-rule:evenodd;fill:#BDBFC1;stroke:#BDBFC1;stroke-width:0;stroke-miterlimit:3.8637;}
	.st50{fill-rule:evenodd;clip-rule:evenodd;fill:none;stroke:#231F20;stroke-width:0.2422;stroke-miterlimit:3.8637;}
	.st51{fill-rule:evenodd;clip-rule:evenodd;fill:#B1B3B5;stroke:#B1B3B5;stroke-width:0;stroke-miterlimit:3.8637;}
	.st52{clip-path:url(#SVGID_24_);}
	.st53{clip-path:url(#SVGID_26_);}
	.st54{fill:#ADAFB1;}
	.st55{clip-path:url(#SVGID_28_);}
	.st56{fill:#FFFFFF;}
	.st57{fill:#F5F5F6;}
	.st58{fill:#EFF0F0;}
	.st59{fill:#E9EAEB;}
	.st60{fill:#E2E3E4;}
	.st61{fill:#DDDEDF;}
	.st62{fill:#D7D8DA;}
	.st63{fill:#D1D2D4;}
	.st64{fill:#CACCCE;}
	.st65{fill:#C4C6C8;}
	.st66{fill:#BFC1C3;}
	.st67{fill:#B8BABC;}
	.st68{fill:#B2B4B7;}
	.st69{clip-path:url(#SVGID_30_);}
	.st70{clip-path:url(#SVGID_32_);}
</style>
<g>
	<g>
		<path class="st42" d="M19.19,41.03h-2.88V46H14.4V33.36h4.79c2.47,0,4.05,1.63,4.05,3.84S21.66,41.03,19.19,41.03z M19.08,35.08
			h-2.77v4.21h2.77c1.33,0,2.24-0.76,2.24-2.1C21.32,35.86,20.42,35.08,19.08,35.08z"/>
		<path class="st42" d="M31.42,46V33.36h1.92V46H31.42z M31.55,30.2h1.72v1.72h-1.72V30.2z"/>
		<path class="st42" d="M46.64,40.8V46h-1.92v-5.2l-3.78-7.44h2.1l2.65,5.56l2.65-5.56h2.1L46.64,40.8z"/>
		<path class="st42" d="M64.57,46l-0.87-2.54h-4.99L57.84,46H55.8l4.63-12.64h1.54L66.61,46H64.57z M61.25,36.22l-1.97,5.61h3.89
			L61.25,36.22z"/>
		<path class="st42" d="M74.26,46V33.36h1.92v10.92h6.09V46H74.26z"/>
		<path class="st42" d="M90.31,46V33.36h8.08v1.72h-6.16v3.69h5.26v1.7h-5.26v3.8h6.16V46H90.31z"/>
		<path class="st42" d="M111.67,41.03h-2.88V46h-1.92V33.36h4.79c2.47,0,4.05,1.63,4.05,3.84S114.14,41.03,111.67,41.03z
			 M111.56,35.08h-2.77v4.21h2.77c1.33,0,2.24-0.76,2.24-2.1C113.8,35.86,112.89,35.08,111.56,35.08z"/>
		<path class="st42" d="M130.27,46l-0.87-2.54h-4.99L123.54,46h-2.04l4.63-12.64h1.54L132.32,46H130.27z M126.95,36.22l-1.97,5.61
			h3.89L126.95,36.22z"/>
		<path class="st42" d="M143.32,46.11c-1.9,0-3.27-0.44-4.47-1.67l1.28-1.26c0.92,0.92,1.94,1.21,3.23,1.21
			c1.65,0,2.61-0.71,2.61-1.94c0-0.55-0.16-1.01-0.5-1.31c-0.32-0.3-0.64-0.43-1.38-0.53l-1.49-0.21c-1.03-0.14-1.85-0.5-2.4-1.01
			c-0.62-0.59-0.92-1.38-0.92-2.41c0-2.2,1.6-3.71,4.23-3.71c1.67,0,2.84,0.43,3.92,1.44l-1.23,1.21c-0.78-0.75-1.69-0.98-2.75-0.98
			c-1.49,0-2.31,0.85-2.31,1.97c0,0.46,0.14,0.87,0.48,1.17c0.32,0.28,0.83,0.5,1.42,0.59l1.44,0.21c1.17,0.18,1.83,0.46,2.36,0.94
			c0.69,0.6,1.03,1.51,1.03,2.59C147.87,44.72,145.97,46.11,143.32,46.11z M143.87,49.75h-1.79l1.24-2.61h1.46L143.87,49.75z"/>
		<path class="st42" d="M163.56,46l-0.87-2.54h-4.99L156.83,46h-2.04l4.63-12.64h1.55L165.6,46H163.56z M160.24,36.22l-1.97,5.61
			h3.89L160.24,36.22z"/>
	</g>
	<g>
		<path class="st42" d="M41.94,64.49v5.2h-1.92v-5.2l-3.78-7.44h2.1l2.65,5.56l2.65-5.56h2.1L41.94,64.49z"/>
		<path class="st42" d="M60.57,68.45c-0.87,0.87-1.99,1.35-3.34,1.35c-1.35,0-2.45-0.48-3.32-1.35c-1.24-1.24-1.23-2.65-1.23-5.08
			c0-2.43-0.02-3.84,1.23-5.08c0.87-0.87,1.97-1.35,3.32-1.35c1.35,0,2.47,0.48,3.34,1.35c1.24,1.24,1.21,2.65,1.21,5.08
			C61.77,65.81,61.81,67.21,60.57,68.45z M54.49,55.74v-1.92h1.63v1.92H54.49z M59.11,59.45c-0.44-0.48-1.14-0.78-1.88-0.78
			c-0.75,0-1.44,0.3-1.88,0.78c-0.62,0.67-0.75,1.39-0.75,3.92c0,2.54,0.12,3.25,0.75,3.92c0.44,0.48,1.14,0.78,1.88,0.78
			c0.75,0,1.44-0.3,1.88-0.78c0.62-0.67,0.75-1.38,0.75-3.92C59.86,60.84,59.73,60.13,59.11,59.45z M58.33,55.74v-1.92h1.63v1.92
			H58.33z"/>
		<path class="st42" d="M78.25,69.7l-5.84-8.9v8.9h-1.92V57.05h1.76l5.84,8.88v-8.88h1.92V69.7H78.25z"/>
		<path class="st42" d="M89.16,69.7V57.05h8.08v1.72h-6.16v3.69h5.26v1.7h-5.26v3.8h6.16v1.72H89.16z"/>
		<path class="st42" d="M110.01,58.78V69.7h-1.92V58.78h-3.48v-1.72h8.88v1.72H110.01z"/>
		<path class="st42" d="M121.53,69.7V57.05h1.92V69.7H121.53z M121.65,53.89h1.72v1.72h-1.72V53.89z"/>
		<path class="st42" d="M141.84,69.7v-8.45l-2.91,6.16h-1.42l-2.98-6.16v8.45h-1.92V57.05h1.92l3.69,7.87l3.62-7.87h1.92V69.7
			H141.84z"/>
	</g>
</g>
</svg>
