<?xml version="1.0" encoding="utf-8"?>
<!-- Generator: Adobe Illustrator 23.1.1, SVG Export Plug-In . SVG Version: 6.00 Build 0)  -->
<svg version="1.1" id="Layer_1" xmlns="http://www.w3.org/2000/svg" xmlns:xlink="http://www.w3.org/1999/xlink" x="0px" y="0px"
	 viewBox="0 0 180 100" style="enable-background:new 0 0 180 100;" xml:space="preserve">
<style type="text/css">
	.st0{clip-path:url(#SVGID_2_);fill:#FFFFFF;}
	.st1{clip-path:url(#SVGID_2_);fill:none;stroke:#2A2523;stroke-width:1.2;stroke-miterlimit:10;}
	.st2{clip-path:url(#SVGID_2_);fill:#2A2523;}
	.st3{clip-path:url(#SVGID_2_);fill:#E32B27;}
	.st4{clip-path:url(#SVGID_4_);fill:#FFFFFF;}
	.st5{clip-path:url(#SVGID_4_);fill:none;stroke:#2A2523;stroke-width:1.2;stroke-miterlimit:10;}
	.st6{clip-path:url(#SVGID_4_);fill:#3AA9E0;}
	.st7{clip-path:url(#SVGID_4_);fill:#2A2523;}
	.st8{clip-path:url(#SVGID_6_);fill:#FFFFFF;}
	.st9{clip-path:url(#SVGID_6_);fill:none;stroke:#2A2523;stroke-width:1.2;stroke-miterlimit:10;}
	.st10{clip-path:url(#SVGID_6_);fill:#2F3080;}
	.st11{clip-path:url(#SVGID_6_);fill:#2A2523;}
	.st12{fill:#1D1C1A;}
	.st13{clip-path:url(#SVGID_8_);}
	.st14{clip-path:url(#SVGID_10_);}
	.st15{clip-path:url(#SVGID_12_);}
	.st16{clip-path:url(#SVGID_14_);}
	.st17{clip-path:url(#SVGID_16_);}
	.st18{clip-path:url(#SVGID_18_);}
	.st19{fill-rule:evenodd;clip-rule:evenodd;fill:#5B6770;}
	.st20{fill:none;stroke:#5B6770;stroke-width:1.8792;stroke-miterlimit:3.864;}
	.st21{fill-rule:evenodd;clip-rule:evenodd;fill:#79242F;}
	.st22{fill-rule:evenodd;clip-rule:evenodd;fill:#253A75;}
	.st23{fill:none;stroke:#253A75;stroke-width:0.132;stroke-miterlimit:3.864;}
	.st24{fill:#253A75;}
	.st25{fill:#002F3B;}
	.st26{fill:#A69E88;stroke:#A69E88;stroke-width:0.3401;stroke-miterlimit:10;}
	.st27{fill-rule:evenodd;clip-rule:evenodd;fill:#1D1C1A;}
	.st28{fill-rule:evenodd;clip-rule:evenodd;fill:#A5D0E6;}
	.st29{fill-rule:evenodd;clip-rule:evenodd;fill:#FFFFFF;}
	.st30{fill:#002D3A;}
	.st31{clip-path:url(#SVGID_20_);fill:#002E3A;}
	.st32{clip-path:url(#SVGID_20_);fill:#B68D4A;}
	.st33{fill:#B68D4A;}
	.st34{clip-path:url(#SVGID_22_);fill:#B68D4A;}
	.st35{fill:#BC955C;}
	.st36{fill:#A79F88;}
	.st37{fill:#00303C;stroke:#25A9E0;stroke-width:0.6856;stroke-dasharray:3.6133,3.6133;}
	.st38{fill:#00303C;}
	.st39{fill:#41695B;}
	.st40{fill:#907E63;}
	.st41{fill:#804951;}
	.st42{fill:#894B52;}
	.st43{fill:#42695B;stroke:#42695B;stroke-width:0.3;stroke-miterlimit:10;}
	.st44{fill:#231F20;}
	.st45{fill-rule:evenodd;clip-rule:evenodd;fill:#ADAFB1;}
	.st46{fill-rule:evenodd;clip-rule:evenodd;fill:#CFD0D2;stroke:#CFD0D2;stroke-width:0;stroke-miterlimit:3.8637;}
	.st47{fill-rule:evenodd;clip-rule:evenodd;fill:#ADAFB1;stroke:#ADAFB1;stroke-width:0;stroke-miterlimit:3.8637;}
	.st48{fill-rule:evenodd;clip-rule:evenodd;fill:#7A7C7F;stroke:#7A7C7F;stroke-width:0;stroke-miterlimit:3.8637;}
	.st49{fill-rule:evenodd;clip-rule:evenodd;fill:#BDBFC1;stroke:#BDBFC1;stroke-width:0;stroke-miterlimit:3.8637;}
	.st50{fill-rule:evenodd;clip-rule:evenodd;fill:none;stroke:#231F20;stroke-width:0.2422;stroke-miterlimit:3.8637;}
	.st51{fill-rule:evenodd;clip-rule:evenodd;fill:#B1B3B5;stroke:#B1B3B5;stroke-width:0;stroke-miterlimit:3.8637;}
	.st52{clip-path:url(#SVGID_24_);}
	.st53{clip-path:url(#SVGID_26_);}
	.st54{fill:#ADAFB1;}
	.st55{clip-path:url(#SVGID_28_);}
	.st56{fill:#FFFFFF;}
	.st57{fill:#F5F5F6;}
	.st58{fill:#EFF0F0;}
	.st59{fill:#E9EAEB;}
	.st60{fill:#E2E3E4;}
	.st61{fill:#DDDEDF;}
	.st62{fill:#D7D8DA;}
	.st63{fill:#D1D2D4;}
	.st64{fill:#CACCCE;}
	.st65{fill:#C4C6C8;}
	.st66{fill:#BFC1C3;}
	.st67{fill:#B8BABC;}
	.st68{fill:#B2B4B7;}
	.st69{clip-path:url(#SVGID_30_);}
	.st70{clip-path:url(#SVGID_32_);}
</style>
<g>
	<g>
		<defs>
			<rect id="SVGID_19_" x="44.9" y="10.76" width="90.2" height="73.08"/>
		</defs>
		<clipPath id="SVGID_2_">
			<use xlink:href="#SVGID_19_"  style="overflow:visible;"/>
		</clipPath>
		<path style="clip-path:url(#SVGID_2_);fill:#002E3A;" d="M49.13,63.54c0-0.54-0.15-0.9-0.44-1.09c-0.29-0.18-0.68-0.27-1.16-0.27
			c-0.09,0-0.21,0-0.36,0.01l0,2.73l0.43,0c0.46,0,0.83-0.08,1.11-0.25C48.99,64.5,49.13,64.12,49.13,63.54 M50.57,63.53
			c0,0.56-0.16,0.98-0.48,1.27c-0.32,0.29-0.7,0.47-1.14,0.56c-0.43,0.08-0.89,0.12-1.37,0.12l-0.42,0v1.77
			c0,0.2,0.02,0.36,0.06,0.47c0.04,0.11,0.13,0.19,0.26,0.25c0.13,0.06,0.34,0.09,0.61,0.09v0.46l-3.19,0v-0.46
			c0.27,0,0.47-0.03,0.6-0.09c0.13-0.06,0.21-0.14,0.25-0.26c0.04-0.11,0.06-0.26,0.06-0.46v-4.29c0-0.19-0.02-0.35-0.06-0.45
			c-0.04-0.11-0.12-0.19-0.25-0.26c-0.13-0.06-0.33-0.09-0.6-0.09v-0.47l1.81-0.05c0.09,0,0.2-0.01,0.31-0.01
			c0.11,0,0.2,0,0.26-0.01c0.07,0,0.16,0,0.29,0c0.16,0,0.28,0,0.36,0.01c0.37,0.02,0.73,0.06,1.07,0.12
			c0.34,0.06,0.69,0.23,1.04,0.51C50.4,62.53,50.57,62.96,50.57,63.53"/>
		<path style="clip-path:url(#SVGID_2_);fill:#002E3A;" d="M62.59,65.1c0-0.38-0.03-0.74-0.09-1.08c-0.06-0.34-0.17-0.65-0.32-0.92
			s-0.36-0.49-0.63-0.66c-0.27-0.16-0.59-0.24-0.98-0.24c-0.54,0-0.96,0.14-1.26,0.43c-0.3,0.29-0.51,0.64-0.61,1.07
			c-0.11,0.43-0.16,0.9-0.16,1.41c0,0.28,0.02,0.57,0.05,0.88c0.03,0.3,0.12,0.62,0.25,0.93s0.34,0.59,0.63,0.81
			c0.29,0.22,0.66,0.33,1.11,0.33c0.45,0,0.82-0.11,1.1-0.34c0.28-0.22,0.49-0.5,0.62-0.83c0.13-0.33,0.21-0.64,0.24-0.93
			C62.57,65.65,62.59,65.37,62.59,65.1 M64.11,65.12c0,0.62-0.14,1.2-0.41,1.74s-0.68,0.97-1.22,1.3c-0.54,0.33-1.17,0.49-1.91,0.49
			c-0.6,0-1.13-0.1-1.58-0.31c-0.46-0.21-0.83-0.48-1.12-0.83s-0.5-0.73-0.64-1.14c-0.14-0.41-0.21-0.83-0.21-1.25
			c0-0.6,0.13-1.18,0.4-1.71c0.27-0.54,0.66-0.97,1.2-1.3c0.53-0.33,1.17-0.49,1.91-0.49c0.68,0,1.25,0.12,1.73,0.36
			c0.47,0.24,0.84,0.54,1.11,0.9c0.27,0.36,0.45,0.74,0.57,1.14C64.05,64.39,64.11,64.76,64.11,65.12"/>
		<path style="clip-path:url(#SVGID_2_);fill:#002E3A;" d="M76.6,66.25l-0.04,2.27l-5.65,0v-0.46c0.39,0,0.64-0.06,0.75-0.18
			c0.11-0.12,0.17-0.33,0.17-0.62v-4.27c0-0.2-0.02-0.35-0.06-0.46c-0.04-0.11-0.12-0.19-0.26-0.25c-0.14-0.06-0.34-0.09-0.61-0.09
			l0-0.46l3.19,0v0.46c-0.27,0-0.47,0.03-0.6,0.09s-0.22,0.14-0.27,0.25c-0.04,0.11-0.06,0.27-0.06,0.47l0,3.91
			c0,0.31,0.01,0.53,0.04,0.66c0.03,0.13,0.1,0.24,0.23,0.3c0.13,0.07,0.33,0.1,0.61,0.1c0.36,0,0.67-0.03,0.94-0.09
			c0.27-0.06,0.52-0.21,0.75-0.47s0.37-0.64,0.43-1.16L76.6,66.25z"/>
		<path style="clip-path:url(#SVGID_2_);fill:#002E3A;" d="M86.46,66.13l-0.88-2.37l-0.83,2.37L86.46,66.13z M89.25,68.52l-2.99,0
			v-0.46c0.25,0,0.44-0.02,0.55-0.06c0.11-0.04,0.17-0.13,0.17-0.27c0-0.1-0.02-0.2-0.06-0.31l-0.3-0.8l-2.06,0l-0.15,0.44
			c-0.09,0.25-0.13,0.43-0.13,0.54c0,0.2,0.07,0.33,0.22,0.38c0.15,0.05,0.32,0.08,0.51,0.08v0.46l-2.19,0v-0.46
			c0.17,0,0.32-0.04,0.44-0.11c0.12-0.07,0.24-0.2,0.35-0.4c0.11-0.2,0.23-0.47,0.36-0.83l1.83-5.13l0.44,0l1.93,5.29
			c0.14,0.37,0.24,0.63,0.31,0.76c0.07,0.13,0.16,0.23,0.27,0.31c0.12,0.07,0.28,0.11,0.49,0.11L89.25,68.52z"/>
		<path style="clip-path:url(#SVGID_2_);fill:#002E3A;" d="M101.32,63.65l-0.44,0c-0.04-0.42-0.13-0.73-0.26-0.93
			c-0.13-0.2-0.28-0.32-0.43-0.37c-0.15-0.05-0.33-0.07-0.53-0.07l-0.81,0l0,4.98c0,0.2,0.02,0.35,0.06,0.46
			c0.04,0.11,0.13,0.19,0.26,0.25c0.14,0.06,0.34,0.09,0.6,0.09v0.46l-3.18,0v-0.46c0.39,0,0.64-0.06,0.75-0.18s0.17-0.33,0.17-0.62
			l0-4.98l-0.67,0c-0.27,0-0.49,0.02-0.66,0.07c-0.18,0.04-0.33,0.17-0.46,0.37c-0.13,0.2-0.21,0.51-0.23,0.93l-0.44,0v-1.93l6.27,0
			V63.65z"/>
		<path style="clip-path:url(#SVGID_2_);fill:#002E3A;" d="M121.7,66.28l-0.05,2.24l-5.65,0v-0.46c0.39,0,0.64-0.06,0.75-0.18
			s0.17-0.33,0.17-0.62v-4.27c0-0.19-0.02-0.34-0.05-0.45c-0.04-0.11-0.12-0.19-0.25-0.26c-0.13-0.06-0.34-0.09-0.62-0.09v-0.46
			l5.27,0l0.08,1.77l-0.43,0c-0.1-0.39-0.21-0.67-0.34-0.84c-0.13-0.17-0.27-0.27-0.43-0.31c-0.16-0.04-0.39-0.06-0.71-0.06l-1.19,0
			v2.4l0.65,0c0.22,0,0.39-0.02,0.5-0.06c0.11-0.04,0.19-0.12,0.23-0.24c0.04-0.12,0.07-0.3,0.09-0.55l0.45,0v2.26l-0.43,0
			c-0.01-0.25-0.04-0.44-0.09-0.55c-0.05-0.12-0.13-0.2-0.24-0.24c-0.11-0.04-0.27-0.06-0.49-0.06l-0.66,0l0,1.6
			c0,0.27,0.01,0.46,0.02,0.59c0.01,0.12,0.05,0.23,0.1,0.31s0.14,0.14,0.27,0.18c0.12,0.04,0.3,0.05,0.53,0.05l0.51,0
			c0.22,0,0.42-0.03,0.62-0.09c0.19-0.06,0.39-0.21,0.57-0.45c0.19-0.24,0.32-0.62,0.39-1.14L121.7,66.28z"/>
		<path style="clip-path:url(#SVGID_2_);fill:#002E3A;" d="M135.1,62.18c-0.15,0-0.28,0.03-0.39,0.06c-0.11,0.04-0.2,0.1-0.27,0.19
			c-0.07,0.09-0.14,0.2-0.22,0.35c-0.07,0.15-0.17,0.38-0.3,0.69l-2.07,5.17l-0.44,0l-2.16-5.42c-0.13-0.34-0.24-0.57-0.31-0.7
			c-0.07-0.13-0.17-0.21-0.3-0.27c-0.12-0.05-0.31-0.07-0.56-0.07v-0.46l3.23,0v0.46c-0.31,0.01-0.52,0.04-0.64,0.08
			c-0.12,0.04-0.18,0.14-0.18,0.3c0,0.15,0.04,0.31,0.11,0.48l1.46,3.64l1.35-3.39c0.12-0.29,0.17-0.5,0.17-0.61
			c0-0.22-0.07-0.35-0.21-0.41c-0.14-0.05-0.35-0.08-0.63-0.09v-0.46l2.35,0V62.18z"/>
		<path style="clip-path:url(#SVGID_2_);fill:#002E3A;" d="M75.39,15.29c-5.29,0-9.59,4.3-9.59,9.59l0,15.04l9.69,0v-1.87l-7.81,0
			l0-13.16c0-4.26,3.46-7.72,7.72-7.72c4.26,0,7.72,3.46,7.72,7.72l0,13.16l-2.6,0v1.87l4.47,0l0-15.04
			C84.98,19.59,80.68,15.29,75.39,15.29"/>
		<path style="clip-path:url(#SVGID_2_);fill:#002E3A;" d="M90.96,10.76c-4.12,0-7.82,1.72-10.36,4.46c0.56,0.3,1.09,0.66,1.59,1.05
			c2.2-2.23,5.32-3.63,8.78-3.63c6.63,0,12.03,5.14,12.03,11.45l0,20.93l-24.06,0l0-20.93c0-1.36,0.27-2.74,0.73-3.95
			c-0.49-0.39-1.03-0.72-1.61-0.98c-0.64,1.53-0.99,3.19-0.99,4.93l0,22.81l27.81,0l0-22.81C104.87,16.74,98.63,10.76,90.96,10.76"
			/>
		<path style="clip-path:url(#SVGID_2_);fill:#B68D4A;" d="M70.21,83.22c-0.42,0.43-0.92,0.62-1.54,0.62c-0.58,0-1.07-0.2-1.47-0.6
			c-0.24-0.24-0.38-0.51-0.44-0.82c-0.06-0.3-0.09-0.76-0.09-1.35c0-0.6,0.03-1.05,0.09-1.35c0.06-0.31,0.21-0.58,0.44-0.82
			c0.4-0.4,0.89-0.6,1.47-0.6c1.24,0,1.9,0.79,2.05,1.74l-1.07,0c-0.13-0.53-0.45-0.8-0.98-0.8c-0.28,0-0.51,0.1-0.68,0.29
			c-0.2,0.25-0.26,0.45-0.26,1.53c0,1.07,0.05,1.28,0.26,1.54c0.16,0.19,0.39,0.28,0.68,0.28c0.31,0,0.57-0.1,0.76-0.31
			c0.16-0.18,0.24-0.43,0.24-0.73v-0.21l-1,0v-0.89l2.06,0v0.79C70.73,82.36,70.58,82.83,70.21,83.22"/>
		<path style="clip-path:url(#SVGID_2_);fill:#B68D4A;" d="M76.49,77.82v-0.96l0.85,0v0.96L76.49,77.82z M76.75,79.55
			c-0.15-0.18-0.39-0.29-0.68-0.29c-0.29,0-0.53,0.11-0.69,0.29c-0.21,0.23-0.26,0.48-0.26,1.53c0,1.05,0.05,1.3,0.26,1.53
			c0.15,0.18,0.4,0.29,0.69,0.29c0.29,0,0.53-0.11,0.68-0.29c0.21-0.23,0.27-0.48,0.27-1.53C77.02,80.03,76.96,79.78,76.75,79.55
			 M74.8,77.82v-0.96l0.85,0v0.96L74.8,77.82z M77.54,83.25c-0.38,0.38-0.85,0.6-1.47,0.6s-1.09-0.21-1.47-0.6
			c-0.55-0.55-0.53-1.23-0.53-2.17c0-0.94-0.02-1.62,0.53-2.17c0.38-0.38,0.86-0.6,1.47-0.6c0.62,0,1.08,0.21,1.47,0.6
			c0.55,0.55,0.54,1.23,0.54,2.17S78.09,82.7,77.54,83.25"/>
	</g>
	<polygon class="st33" points="84.93,82.85 82.6,82.85 84.93,79.2 84.93,78.36 81.46,78.36 81.46,79.31 83.68,79.31 81.36,82.94 
		81.36,83.8 84.93,83.8 	"/>
	<polygon class="st33" points="91.9,78.36 87.99,78.36 87.99,79.31 89.41,79.31 89.41,83.8 90.47,83.8 90.47,79.31 91.9,79.31 	"/>
	<polygon class="st33" points="98.86,82.85 96.34,82.85 96.34,81.53 98.49,81.53 98.49,80.58 96.34,80.58 96.34,79.31 98.86,79.31 
		98.86,78.36 95.28,78.36 95.28,83.8 98.86,83.8 	"/>
	<g>
		<defs>
			<rect id="SVGID_21_" x="44.9" y="10.76" width="90.2" height="73.08"/>
		</defs>
		<clipPath id="SVGID_4_">
			<use xlink:href="#SVGID_21_"  style="overflow:visible;"/>
		</clipPath>
		<path style="clip-path:url(#SVGID_4_);fill:#B68D4A;" d="M104.48,79.31l-0.99,0v1.49l0.99,0c0.48,0,0.79-0.3,0.79-0.74
			C105.27,79.61,104.96,79.31,104.48,79.31 M104.53,81.75l-1.05,0v2.05l-1.06,0l0-5.44l2.11,0c1.12,0,1.8,0.77,1.8,1.7
			C106.33,80.98,105.66,81.75,104.53,81.75"/>
	</g>
	<polygon class="st33" points="113.33,82.85 110.81,82.85 110.81,81.53 112.95,81.53 112.95,80.58 110.81,80.58 110.81,79.31 
		113.33,79.31 113.33,78.36 109.75,78.36 109.75,83.8 113.33,83.8 	"/>
</g>
</svg>
